<svg width="24" height="24" viewBox="0 0 24 24" fill="none" xmlns="http://www.w3.org/2000/svg">
<path id="Vector" fill-rule="evenodd" clip-rule="evenodd" d="M0.46065 13.7496L1.61562 13.9605C1.67825 14.1346 1.74893 14.3054 1.82694 14.4695L1.16022 15.4373C1.0854 15.5455 1.05098 15.6765 1.06298 15.8075C1.07497 15.9385 1.13262 16.0611 1.22585 16.1539L2.91459 17.8452C3.00798 17.9378 3.13077 17.9947 3.26172 18.0064C3.39267 18.018 3.52357 17.9835 3.63179 17.9088L4.59893 17.2425C4.76534 17.3195 4.93511 17.3898 5.10823 17.4534L5.32058 18.6087C5.34409 18.7383 5.41233 18.8556 5.51341 18.94C5.61449 19.0245 5.742 19.0708 5.87371 19.0708H8.26236C8.39418 19.0709 8.52182 19.0246 8.62304 18.9402C8.72426 18.8557 8.79263 18.7384 8.81624 18.6087L9.02788 17.4534C9.20132 17.3898 9.37181 17.3195 9.53789 17.2425L10.505 17.9088C10.6132 17.9836 10.7441 18.0181 10.8751 18.0065C11.006 17.9949 11.1288 17.9378 11.2222 17.8452L12.9113 16.1541C13.0045 16.0612 13.062 15.9386 13.074 15.8076C13.0859 15.6766 13.0514 15.5456 12.9766 15.4375L12.3099 14.4697C12.3891 14.3039 12.4595 14.1339 12.5208 13.9607L13.6765 13.7498C13.8059 13.7251 13.9227 13.6561 14.0068 13.5547C14.0909 13.4532 14.137 13.3256 14.1372 13.1939V12.5641H15.806V21.4784C15.806 21.6276 15.8653 21.7706 15.9708 21.8761C16.0763 21.9816 16.2193 22.0409 16.3685 22.0409H19.0203C19.1585 22.645 19.5144 23.1771 20.02 23.5355C20.5257 23.894 21.1456 24.0536 21.7614 23.9841C22.3773 23.9145 22.9459 23.6206 23.3588 23.1584C23.7718 22.6962 24 22.0981 24 21.4784C24 20.8586 23.7718 20.2605 23.3588 19.7984C22.9459 19.3362 22.3773 19.0422 21.7614 18.9727C21.1456 18.9031 20.5257 19.0628 20.02 19.4212C19.5144 19.7796 19.1585 20.3117 19.0203 20.9159H16.931V12.5641H19.0203C19.1585 13.1682 19.5144 13.7003 20.02 14.0587C20.5256 14.4171 21.1455 14.5768 21.7614 14.5072C22.3772 14.4376 22.9459 14.1437 23.3588 13.6815C23.7717 13.2194 23.9999 12.6213 23.9999 12.0016C23.9999 11.3818 23.7717 10.7838 23.3588 10.3216C22.9459 9.85942 22.3772 9.56549 21.7614 9.49593C21.1455 9.42636 20.5256 9.58603 20.02 9.94444C19.5144 10.3029 19.1585 10.8349 19.0203 11.4391H16.931V3.08409H19.0203C19.1585 3.68823 19.5144 4.22029 20.02 4.57871C20.5256 4.93713 21.1455 5.0968 21.7614 5.02723C22.3772 4.95766 22.9459 4.66374 23.3588 4.20156C23.7717 3.73939 23.9999 3.14134 23.9999 2.52159C23.9999 1.90183 23.7717 1.30378 23.3588 0.841608C22.9459 0.379434 22.3772 0.0855081 21.7614 0.0159418C21.1455 -0.0536244 20.5256 0.106042 20.02 0.46446C19.5144 0.822877 19.1585 1.35494 19.0203 1.95908H16.3684C16.2194 1.9596 16.0766 2.01903 15.9712 2.12441C15.8659 2.22978 15.8064 2.37256 15.8059 2.52159V11.4392H14.1371V10.8064C14.1374 10.6749 14.0913 10.5474 14.0071 10.4464C13.9229 10.3454 13.8058 10.2773 13.6764 10.2539L12.5214 10.0429C12.4591 9.86878 12.3881 9.69801 12.3098 9.53057L12.9765 8.56615C13.0513 8.45736 13.0857 8.32586 13.0738 8.19439C13.0618 8.06291 13.0043 7.93975 12.9112 7.84619L11.2221 6.15867C11.1291 6.06561 11.0065 6.00799 10.8756 5.99575C10.7446 5.98352 10.6135 6.01745 10.5049 6.09168L9.5378 6.76144C9.37203 6.6813 9.20174 6.61087 9.02779 6.5505L8.81615 5.3952C8.79254 5.26551 8.72416 5.14823 8.62294 5.06378C8.52173 4.97934 8.39408 4.93309 8.26226 4.9331H5.87385C5.74214 4.93318 5.61463 4.97948 5.51355 5.06392C5.41247 5.14837 5.34423 5.26561 5.32072 5.3952L5.10837 6.5505C4.93472 6.61105 4.76468 6.68147 4.59907 6.76144L3.63188 6.09102C3.52326 6.01689 3.39215 5.98301 3.26121 5.99524C3.13027 6.00747 3.0077 6.06504 2.91469 6.15801L1.22594 7.84553C1.13274 7.93904 1.07517 8.06219 1.06318 8.19367C1.0512 8.32515 1.08556 8.45668 1.16032 8.56549L1.82703 9.52991C1.7489 9.69735 1.67846 9.86814 1.61571 10.0423L0.460744 10.2532C0.331224 10.2765 0.214051 10.3447 0.129796 10.4458C0.0455404 10.5469 -0.000413012 10.6744 2.79725e-06 10.806V13.1937C8.9598e-05 13.3255 0.0461633 13.4531 0.13028 13.5546C0.214397 13.6561 0.331285 13.725 0.460791 13.7496H0.46065ZM7.06834 15.0924C6.45664 15.0923 5.8587 14.9108 5.35015 14.5709C4.8416 14.2309 4.44528 13.7478 4.21132 13.1826C3.97736 12.6175 3.91627 11.9956 4.03578 11.3957C4.15528 10.7958 4.45001 10.2448 4.8827 9.81236C5.31538 9.37997 5.86657 9.08561 6.46657 8.9665C7.06656 8.8474 7.6884 8.9089 8.25343 9.14324C8.81847 9.37757 9.30131 9.77421 9.64091 10.283C9.9805 10.7918 10.1616 11.3898 10.1612 12.0015C10.1601 12.8213 9.83379 13.6071 9.25395 14.1865C8.67411 14.766 7.88809 15.0918 7.06834 15.0924ZM7.06834 10.0325C7.45735 10.0326 7.83759 10.148 8.161 10.3642C8.48441 10.5804 8.73647 10.8876 8.88532 11.247C9.03418 11.6064 9.07314 12.0019 8.9973 12.3834C8.92145 12.765 8.73419 13.1155 8.45919 13.3906C8.18419 13.6658 7.8338 13.8532 7.45229 13.9292C7.07079 14.0053 6.6753 13.9665 6.31582 13.8179C5.95634 13.6692 5.649 13.4173 5.43265 13.094C5.2163 12.7707 5.10065 12.3905 5.10031 12.0015C5.10086 11.4796 5.30834 10.9793 5.67727 10.6102C6.0462 10.241 6.54646 10.0333 7.06834 10.0325Z" fill="white"/>
</svg>
