<svg width="18" height="20" viewBox="0 0 18 20" fill="none" xmlns="http://www.w3.org/2000/svg">
<path fill-rule="evenodd" clip-rule="evenodd" d="M0 16V4C0 1.79086 1.79086 0 4 0H14C16.2091 0 18 1.79086 18 4V10.3431C18 10.6509 17.9645 10.955 17.8959 11.25H14C11.3766 11.25 9.25 13.3766 9.25 16V19.8959C8.95502 19.9645 8.65091 20 8.34315 20H4C1.79086 20 0 18.2091 0 16ZM10.75 19.1949C10.898 19.0833 11.039 18.961 11.1716 18.8284L16.8284 13.1716C16.961 13.039 17.0833 12.898 17.1949 12.75H14C12.2051 12.75 10.75 14.2051 10.75 16V19.1949ZM4.25 5C4.25 4.58579 4.58579 4.25 5 4.25H13C13.4142 4.25 13.75 4.58579 13.75 5C13.75 5.41421 13.4142 5.75 13 5.75H5C4.58579 5.75 4.25 5.41421 4.25 5ZM5 8.25C4.58579 8.25 4.25 8.58579 4.25 9C4.25 9.41421 4.58579 9.75 5 9.75H9C9.41421 9.75 9.75 9.41421 9.75 9C9.75 8.58579 9.41421 8.25 9 8.25H5Z" fill="white"/>
</svg>
