<svg width="22" height="22" viewBox="0 0 22 22" fill="none" xmlns="http://www.w3.org/2000/svg">
<path fill-rule="evenodd" clip-rule="evenodd" d="M0.25 5C0.25 2.37665 2.37665 0.25 5 0.25H17C19.6234 0.25 21.75 2.37665 21.75 5V17C21.75 19.6234 19.6234 21.75 17 21.75H5C2.37665 21.75 0.25 19.6234 0.25 17V5ZM5 1.75C3.20507 1.75 1.75 3.20507 1.75 5V13.5L4.27153 15.181C5.85802 16.2387 7.9705 16.0295 9.31875 14.6812L12.6812 11.3188C14.0295 9.9705 16.142 9.76132 17.7285 10.819L20.1094 12.4063C20.158 12.4387 20.2049 12.473 20.25 12.5091V5C20.25 3.20507 18.7949 1.75 17 1.75H5ZM7.5 10C8.88071 10 10 8.88071 10 7.5C10 6.11929 8.88071 5 7.5 5C6.11929 5 5 6.11929 5 7.5C5 8.88071 6.11929 10 7.5 10Z" fill="white"/>
</svg>
