<svg width="20" height="20" viewBox="0 0 20 20" fill="none" xmlns="http://www.w3.org/2000/svg">
<g id="249, Call, Incoming, Telephone">
<path id="Vector" d="M15.7836 11.8725C14.63 11.8725 13.5957 12.3115 12.7611 13.1074C12.6419 13.2268 12.5629 13.3463 12.4437 13.4657C12.4034 13.5061 12.3244 13.5464 12.2455 13.5464C12.1665 13.5464 12.1262 13.5061 12.0473 13.4657L6.47911 7.9274C6.43885 7.88706 6.40014 7.80794 6.40014 7.72727C6.40014 7.6466 6.4404 7.60782 6.47911 7.5287C6.59834 7.44958 6.71757 7.33013 6.8368 7.21067C8.50756 5.53677 8.50755 2.86845 6.87706 1.23487C6.07962 0.439032 5.04527 0 3.93194 0C2.81862 0 1.74401 0.439032 0.90941 1.27521C-0.522888 2.71021 -0.00571216 4.98138 0.711211 6.65374C1.90505 9.48185 4.44912 12.8297 7.59088 15.5383C10.8519 18.3664 13.9936 20 16.3008 20C17.2949 20 18.0908 19.682 18.7272 19.0832C19.5231 18.2858 19.9597 17.2107 20 16.0953C20 14.9798 19.5633 13.9047 18.7675 13.1074C17.9716 12.31 16.9388 11.8725 15.7852 11.8725H15.7836Z" fill="white"/>
</g>
</svg>
