<svg width="24" height="25" viewBox="0 0 24 25" fill="none" xmlns="http://www.w3.org/2000/svg">
<path d="M15.25 7.74219C15.25 9.53711 13.7949 10.9922 12 10.9922V12.4922C14.6234 12.4922 16.75 10.3655 16.75 7.74219H15.25ZM12 10.9922C10.2051 10.9922 8.75 9.53711 8.75 7.74219H7.25C7.25 10.3655 9.37665 12.4922 12 12.4922V10.9922ZM8.75 7.74219C8.75 5.94726 10.2051 4.49219 12 4.49219V2.99219C9.37665 2.99219 7.25 5.11883 7.25 7.74219H8.75ZM12 4.49219C13.7949 4.49219 15.25 5.94726 15.25 7.74219H16.75C16.75 5.11883 14.6234 2.99219 12 2.99219V4.49219ZM18.25 18.2422C18.25 18.7716 17.8014 19.4527 16.6143 20.0462C15.4722 20.6173 13.8418 20.9922 12 20.9922V22.4922C14.0242 22.4922 15.8938 22.0836 17.2852 21.3879C18.6316 20.7146 19.75 19.6458 19.75 18.2422H18.25ZM12 20.9922C10.1582 20.9922 8.52782 20.6173 7.38566 20.0462C6.19864 19.4527 5.75 18.7716 5.75 18.2422H4.25C4.25 19.6458 5.36836 20.7146 6.71484 21.3879C8.10618 22.0836 9.97582 22.4922 12 22.4922V20.9922ZM5.75 18.2422C5.75 17.7128 6.19864 17.0316 7.38566 16.4381C8.52782 15.8671 10.1582 15.4922 12 15.4922V13.9922C9.97582 13.9922 8.10618 14.4008 6.71484 15.0965C5.36836 15.7697 4.25 16.8386 4.25 18.2422H5.75ZM12 15.4922C13.8418 15.4922 15.4722 15.8671 16.6143 16.4381C17.8014 17.0316 18.25 17.7128 18.25 18.2422H19.75C19.75 16.8386 18.6316 15.7697 17.2852 15.0965C15.8938 14.4008 14.0242 13.9922 12 13.9922V15.4922Z" fill="white"/>
</svg>
