<svg xmlns="http://www.w3.org/2000/svg" width="56" height="57" viewBox="0 0 56 57" fill="none">
  <path d="M35.7278 4.83678C35.3996 4.50859 34.9545 4.32422 34.4904 4.32422H11.2703C9.91721 4.32422 8.82031 5.42112 8.82031 6.77421V50.7238C8.82031 52.0769 9.91721 53.1738 11.2703 53.1738H44.7336C46.0867 53.1738 47.1836 52.0769 47.1836 50.7238V17.0174C47.1836 16.5533 46.9992 16.1082 46.671 15.78L35.7278 4.83678Z" fill="url(#paint0_linear_550_13338)"/>
  <path d="M35.7278 4.83678C35.3996 4.50859 34.9545 4.32422 34.4904 4.32422H11.2703C9.91721 4.32422 8.82031 5.42112 8.82031 6.77421V50.7238C8.82031 52.0769 9.91721 53.1738 11.2703 53.1738H44.7336C46.0867 53.1738 47.1836 52.0769 47.1836 50.7238V17.0174C47.1836 16.5533 46.9992 16.1082 46.671 15.78L35.7278 4.83678Z" fill="url(#paint1_linear_550_13338)"/>
  <path d="M35.7278 4.83678C35.3996 4.50859 34.9545 4.32422 34.4904 4.32422H11.2703C9.91721 4.32422 8.82031 5.42112 8.82031 6.77421V50.7238C8.82031 52.0769 9.91721 53.1738 11.2703 53.1738H44.7336C46.0867 53.1738 47.1836 52.0769 47.1836 50.7238V17.0174C47.1836 16.5533 46.9992 16.1082 46.671 15.78L35.7278 4.83678Z" fill="url(#paint2_linear_550_13338)"/>
  <path d="M35.7278 4.83678C35.3996 4.50859 34.9545 4.32422 34.4904 4.32422H11.2703C9.91721 4.32422 8.82031 5.42112 8.82031 6.77421V50.7238C8.82031 52.0769 9.91721 53.1738 11.2703 53.1738H44.7336C46.0867 53.1738 47.1836 52.0769 47.1836 50.7238V17.0174C47.1836 16.5533 46.9992 16.1082 46.671 15.78L35.7278 4.83678Z" fill="url(#paint3_linear_550_13338)" fill-opacity="0.13"/>
  <path d="M35.7278 4.83678C35.3996 4.50859 34.9545 4.32422 34.4904 4.32422H11.2703C9.91721 4.32422 8.82031 5.42112 8.82031 6.77421V50.7238C8.82031 52.0769 9.91721 53.1738 11.2703 53.1738H44.7336C46.0867 53.1738 47.1836 52.0769 47.1836 50.7238V17.0174C47.1836 16.5533 46.9992 16.1082 46.671 15.78L35.7278 4.83678Z" fill="url(#paint4_linear_550_13338)"/>
  <path d="M35.7278 4.83678C35.3996 4.50859 34.9545 4.32422 34.4904 4.32422H11.2703C9.91721 4.32422 8.82031 5.42112 8.82031 6.77421V50.7238C8.82031 52.0769 9.91721 53.1738 11.2703 53.1738H44.7336C46.0867 53.1738 47.1836 52.0769 47.1836 50.7238V17.0174C47.1836 16.5533 46.9992 16.1082 46.671 15.78L35.7278 4.83678Z" fill="url(#paint5_linear_550_13338)"/>
  <path d="M35.7278 4.83678C35.3996 4.50859 34.9545 4.32422 34.4904 4.32422H11.2703C9.91721 4.32422 8.82031 5.42112 8.82031 6.77421V50.7238C8.82031 52.0769 9.91721 53.1738 11.2703 53.1738H44.7336C46.0867 53.1738 47.1836 52.0769 47.1836 50.7238V17.0174C47.1836 16.5533 46.9992 16.1082 46.671 15.78L35.7278 4.83678Z" fill="url(#paint6_radial_550_13338)"/>
  <path d="M35.7278 4.83678C35.3996 4.50859 34.9545 4.32422 34.4904 4.32422H11.2703C9.91721 4.32422 8.82031 5.42112 8.82031 6.77421V50.7238C8.82031 52.0769 9.91721 53.1738 11.2703 53.1738H44.7336C46.0867 53.1738 47.1836 52.0769 47.1836 50.7238V17.0174C47.1836 16.5533 46.9992 16.1082 46.671 15.78L35.7278 4.83678Z" fill="url(#paint7_radial_550_13338)"/>
  <path d="M35.7278 4.83678C35.3996 4.50859 34.9545 4.32422 34.4904 4.32422H11.2703C9.91721 4.32422 8.82031 5.42112 8.82031 6.77421V50.7238C8.82031 52.0769 9.91721 53.1738 11.2703 53.1738H44.7336C46.0867 53.1738 47.1836 52.0769 47.1836 50.7238V17.0174C47.1836 16.5533 46.9992 16.1082 46.671 15.78L35.7278 4.83678Z" fill="url(#paint8_radial_550_13338)"/>
  <path d="M35.7278 4.83678C35.3996 4.50859 34.9545 4.32422 34.4904 4.32422H11.2703C9.91721 4.32422 8.82031 5.42112 8.82031 6.77421V50.7238C8.82031 52.0769 9.91721 53.1738 11.2703 53.1738H44.7336C46.0867 53.1738 47.1836 52.0769 47.1836 50.7238V17.0174C47.1836 16.5533 46.9992 16.1082 46.671 15.78L35.7278 4.83678Z" fill="url(#paint9_linear_550_13338)"/>
  <path d="M35.7278 4.83678C35.3996 4.50859 34.9545 4.32422 34.4904 4.32422H11.2703C9.91721 4.32422 8.82031 5.42112 8.82031 6.77421V50.7238C8.82031 52.0769 9.91721 53.1738 11.2703 53.1738H44.7336C46.0867 53.1738 47.1836 52.0769 47.1836 50.7238V17.0174C47.1836 16.5533 46.9992 16.1082 46.671 15.78L35.7278 4.83678Z" fill="url(#paint10_linear_550_13338)"/>
  <path d="M35.7278 4.83678C35.3996 4.50859 34.9545 4.32422 34.4904 4.32422H11.2703C9.91721 4.32422 8.82031 5.42112 8.82031 6.77421V50.7238C8.82031 52.0769 9.91721 53.1738 11.2703 53.1738H44.7336C46.0867 53.1738 47.1836 52.0769 47.1836 50.7238V17.0174C47.1836 16.5533 46.9992 16.1082 46.671 15.78L35.7278 4.83678Z" fill="url(#paint11_linear_550_13338)" fill-opacity="0.55"/>
  <path d="M35.7278 4.83678C35.3996 4.50859 34.9545 4.32422 34.4904 4.32422H11.2703C9.91721 4.32422 8.82031 5.42112 8.82031 6.77421V50.7238C8.82031 52.0769 9.91721 53.1738 11.2703 53.1738H44.7336C46.0867 53.1738 47.1836 52.0769 47.1836 50.7238V17.0174C47.1836 16.5533 46.9992 16.1082 46.671 15.78L35.7278 4.83678Z" fill="url(#paint12_linear_550_13338)" fill-opacity="0.55"/>
  <path d="M35.7278 4.83678C35.3996 4.50859 34.9545 4.32422 34.4904 4.32422H11.2703C9.91721 4.32422 8.82031 5.42112 8.82031 6.77421V50.7238C8.82031 52.0769 9.91721 53.1738 11.2703 53.1738H44.7336C46.0867 53.1738 47.1836 52.0769 47.1836 50.7238V17.0174C47.1836 16.5533 46.9992 16.1082 46.671 15.78L35.7278 4.83678Z" fill="url(#paint13_linear_550_13338)"/>
  <path d="M33.1725 5.05133C33.1725 4.69888 33.2737 4.40098 33.0819 4.3633C33.2642 4.37492 34.7888 4.23104 34.9529 4.42242C35.1685 4.5071 35.039 4.8513 35.2078 5.01616C35.2127 5.02097 35.2176 5.0258 35.2225 5.03069L46.1656 15.9739C46.199 16.0073 46.2309 16.0418 46.2612 16.0775C46.4106 16.2531 46.4876 16.2148 46.5578 16.4317C46.6137 16.6042 47.0146 16.247 47.0146 16.4317L47.1491 16.7005V17.0757C47.1491 17.0757 47.2332 17.5147 47.0146 17.5147L35.6877 18.7769C33.8892 18.7769 32.1953 16.7095 32.1953 15.5497L33.1725 5.05133Z" fill="url(#paint14_linear_550_13338)"/>
  <path d="M33.1725 5.05133C33.1725 4.69888 33.2737 4.40098 33.0819 4.3633C33.2642 4.37492 34.7888 4.23104 34.9529 4.42242C35.1685 4.5071 35.039 4.8513 35.2078 5.01616C35.2127 5.02097 35.2176 5.0258 35.2225 5.03069L46.1656 15.9739C46.199 16.0073 46.2309 16.0418 46.2612 16.0775C46.4106 16.2531 46.4876 16.2148 46.5578 16.4317C46.6137 16.6042 47.0146 16.247 47.0146 16.4317L47.1491 16.7005V17.0757C47.1491 17.0757 47.2332 17.5147 47.0146 17.5147L35.6877 18.7769C33.8892 18.7769 32.1953 16.7095 32.1953 15.5497L33.1725 5.05133Z" fill="url(#paint15_linear_550_13338)"/>
  <path d="M33.1725 5.05133C33.1725 4.69888 33.2737 4.40098 33.0819 4.3633C33.2642 4.37492 34.7888 4.23104 34.9529 4.42242C35.1685 4.5071 35.039 4.8513 35.2078 5.01616C35.2127 5.02097 35.2176 5.0258 35.2225 5.03069L46.1656 15.9739C46.199 16.0073 46.2309 16.0418 46.2612 16.0775C46.4106 16.2531 46.4876 16.2148 46.5578 16.4317C46.6137 16.6042 47.0146 16.247 47.0146 16.4317L47.1491 16.7005V17.0757C47.1491 17.0757 47.2332 17.5147 47.0146 17.5147L35.6877 18.7769C33.8892 18.7769 32.1953 16.7095 32.1953 15.5497L33.1725 5.05133Z" fill="url(#paint16_linear_550_13338)"/>
  <path d="M35.0699 4.85778C35.0699 4.50533 34.7933 4.3658 34.6016 4.32812C34.7838 4.33974 34.9619 4.37974 35.1296 4.44562C35.3453 4.53029 35.544 4.65775 35.7128 4.82261C35.7177 4.82742 35.7226 4.83225 35.7275 4.83714L46.6706 15.7803C46.704 15.8137 46.7359 15.8483 46.7662 15.884C46.9156 16.0596 47.028 16.262 47.0982 16.4789C47.1541 16.6514 47.1832 16.8331 47.1832 17.0178V17.1283C47.1832 16.7219 46.8893 16.4789 46.6706 16.4789H37.17C36.0101 16.4789 35.0699 15.5387 35.0699 14.3789V4.85778Z" fill="url(#paint17_linear_550_13338)"/>
  <path d="M35.0699 4.85778C35.0699 4.50533 34.7933 4.3658 34.6016 4.32812C34.7838 4.33974 34.9619 4.37974 35.1296 4.44562C35.3453 4.53029 35.544 4.65775 35.7128 4.82261C35.7177 4.82742 35.7226 4.83225 35.7275 4.83714L46.6706 15.7803C46.704 15.8137 46.7359 15.8483 46.7662 15.884C46.9156 16.0596 47.028 16.262 47.0982 16.4789C47.1541 16.6514 47.1832 16.8331 47.1832 17.0178V17.1283C47.1832 16.7219 46.8893 16.4789 46.6706 16.4789H37.17C36.0101 16.4789 35.0699 15.5387 35.0699 14.3789V4.85778Z" fill="url(#paint18_linear_550_13338)"/>
  <path d="M35.0699 4.85778C35.0699 4.50533 34.7933 4.3658 34.6016 4.32812C34.7838 4.33974 34.9619 4.37974 35.1296 4.44562C35.3453 4.53029 35.544 4.65775 35.7128 4.82261C35.7177 4.82742 35.7226 4.83225 35.7275 4.83714L46.6706 15.7803C46.704 15.8137 46.7359 15.8483 46.7662 15.884C46.9156 16.0596 47.028 16.262 47.0982 16.4789C47.1541 16.6514 47.1832 16.8331 47.1832 17.0178V17.1283C47.1832 16.7219 46.8893 16.4789 46.6706 16.4789H37.17C36.0101 16.4789 35.0699 15.5387 35.0699 14.3789V4.85778Z" fill="url(#paint19_linear_550_13338)"/>
  <path d="M35.0699 4.85778C35.0699 4.50533 34.7933 4.3658 34.6016 4.32812C34.7838 4.33974 34.9619 4.37974 35.1296 4.44562C35.3453 4.53029 35.544 4.65775 35.7128 4.82261C35.7177 4.82742 35.7226 4.83225 35.7275 4.83714L46.6706 15.7803C46.704 15.8137 46.7359 15.8483 46.7662 15.884C46.9156 16.0596 47.028 16.262 47.0982 16.4789C47.1541 16.6514 47.1832 16.8331 47.1832 17.0178V17.1283C47.1832 16.7219 46.8893 16.4789 46.6706 16.4789H37.17C36.0101 16.4789 35.0699 15.5387 35.0699 14.3789V4.85778Z" fill="url(#paint20_linear_550_13338)"/>
  <path d="M35.0699 4.85778C35.0699 4.50533 34.7933 4.3658 34.6016 4.32812C34.7838 4.33974 34.9619 4.37974 35.1296 4.44562C35.3453 4.53029 35.544 4.65775 35.7128 4.82261C35.7177 4.82742 35.7226 4.83225 35.7275 4.83714L46.6706 15.7803C46.704 15.8137 46.7359 15.8483 46.7662 15.884C46.9156 16.0596 47.028 16.262 47.0982 16.4789C47.1541 16.6514 47.1832 16.8331 47.1832 17.0178V17.1283C47.1832 16.7219 46.8893 16.4789 46.6706 16.4789H37.17C36.0101 16.4789 35.0699 15.5387 35.0699 14.3789V4.85778Z" fill="url(#paint21_radial_550_13338)"/>
  <path d="M35.0699 4.85778C35.0699 4.50533 34.7933 4.3658 34.6016 4.32812C34.7838 4.33974 34.9619 4.37974 35.1296 4.44562C35.3453 4.53029 35.544 4.65775 35.7128 4.82261C35.7177 4.82742 35.7226 4.83225 35.7275 4.83714L46.6706 15.7803C46.704 15.8137 46.7359 15.8483 46.7662 15.884C46.9156 16.0596 47.028 16.262 47.0982 16.4789C47.1541 16.6514 47.1832 16.8331 47.1832 17.0178V17.1283C47.1832 16.7219 46.8893 16.4789 46.6706 16.4789H37.17C36.0101 16.4789 35.0699 15.5387 35.0699 14.3789V4.85778Z" fill="url(#paint22_radial_550_13338)"/>
  <path d="M35.0699 4.85778C35.0699 4.50533 34.7933 4.3658 34.6016 4.32812C34.7838 4.33974 34.9619 4.37974 35.1296 4.44562C35.3453 4.53029 35.544 4.65775 35.7128 4.82261C35.7177 4.82742 35.7226 4.83225 35.7275 4.83714L46.6706 15.7803C46.704 15.8137 46.7359 15.8483 46.7662 15.884C46.9156 16.0596 47.028 16.262 47.0982 16.4789C47.1541 16.6514 47.1832 16.8331 47.1832 17.0178V17.1283C47.1832 16.7219 46.8893 16.4789 46.6706 16.4789H37.17C36.0101 16.4789 35.0699 15.5387 35.0699 14.3789V4.85778Z" fill="url(#paint23_radial_550_13338)"/>
  <path d="M35.0699 4.85778C35.0699 4.50533 34.7933 4.3658 34.6016 4.32812C34.7838 4.33974 34.9619 4.37974 35.1296 4.44562C35.3453 4.53029 35.544 4.65775 35.7128 4.82261C35.7177 4.82742 35.7226 4.83225 35.7275 4.83714L46.6706 15.7803C46.704 15.8137 46.7359 15.8483 46.7662 15.884C46.9156 16.0596 47.028 16.262 47.0982 16.4789C47.1541 16.6514 47.1832 16.8331 47.1832 17.0178V17.1283C47.1832 16.7219 46.8893 16.4789 46.6706 16.4789H37.17C36.0101 16.4789 35.0699 15.5387 35.0699 14.3789V4.85778Z" fill="url(#paint24_radial_550_13338)"/>
  <path d="M35.0699 4.85778C35.0699 4.50533 34.7933 4.3658 34.6016 4.32812C34.7838 4.33974 34.9619 4.37974 35.1296 4.44562C35.3453 4.53029 35.544 4.65775 35.7128 4.82261C35.7177 4.82742 35.7226 4.83225 35.7275 4.83714L46.6706 15.7803C46.704 15.8137 46.7359 15.8483 46.7662 15.884C46.9156 16.0596 47.028 16.262 47.0982 16.4789C47.1541 16.6514 47.1832 16.8331 47.1832 17.0178V17.1283C47.1832 16.7219 46.8893 16.4789 46.6706 16.4789H37.17C36.0101 16.4789 35.0699 15.5387 35.0699 14.3789V4.85778Z" fill="url(#paint25_radial_550_13338)"/>
  <path fill-rule="evenodd" clip-rule="evenodd" d="M16.6846 21.7441C16.2051 21.7441 15.8164 22.1328 15.8164 22.6123C15.8164 23.0918 16.2051 23.4805 16.6846 23.4805H39.2979C39.7773 23.4805 40.166 23.0918 40.166 22.6123C40.166 22.1328 39.7773 21.7441 39.2979 21.7441H16.6846ZM16.6846 26.9941C16.2051 26.9941 15.8164 27.3828 15.8164 27.8623C15.8164 28.3418 16.2051 28.7305 16.6846 28.7305H39.2979C39.7773 28.7305 40.166 28.3418 40.166 27.8623C40.166 27.3828 39.7773 26.9941 39.2979 26.9941H16.6846ZM15.8164 33.1123C15.8164 32.6328 16.2051 32.2441 16.6846 32.2441H39.2979C39.7773 32.2441 40.166 32.6328 40.166 33.1123C40.166 33.5918 39.7773 33.9805 39.2979 33.9805H16.6846C16.2051 33.9805 15.8164 33.5918 15.8164 33.1123ZM16.6846 37.4941C16.2051 37.4941 15.8164 37.8828 15.8164 38.3623C15.8164 38.8418 16.2051 39.2305 16.6846 39.2305H30.6709C31.1504 39.2305 31.5391 38.8418 31.5391 38.3623C31.5391 37.8828 31.1504 37.4941 30.6709 37.4941H16.6846Z" fill="url(#paint26_linear_550_13338)"/>
  <defs>
    <linearGradient id="paint0_linear_550_13338" x1="28.002" y1="4.32422" x2="28.002" y2="53.1738" gradientUnits="userSpaceOnUse">
      <stop stop-color="#EBE4F3"/>
      <stop offset="1" stop-color="#E4DAF0"/>
    </linearGradient>
    <linearGradient id="paint1_linear_550_13338" x1="28.002" y1="4.54618" x2="28.002" y2="4.95491" gradientUnits="userSpaceOnUse">
      <stop stop-color="#F3F0F6"/>
      <stop offset="1" stop-color="#F3F0F6" stop-opacity="0"/>
    </linearGradient>
    <linearGradient id="paint2_linear_550_13338" x1="47.1836" y1="27.5381" x2="46.5847" y2="27.5381" gradientUnits="userSpaceOnUse">
      <stop stop-color="#F3F0F6"/>
      <stop offset="1" stop-color="#F3F0F6" stop-opacity="0"/>
    </linearGradient>
    <linearGradient id="paint3_linear_550_13338" x1="47.5839" y1="27.5381" x2="46.8796" y2="27.5381" gradientUnits="userSpaceOnUse">
      <stop stop-color="#B9A6CC"/>
      <stop offset="1" stop-color="#B9A6CC" stop-opacity="0"/>
    </linearGradient>
    <linearGradient id="paint4_linear_550_13338" x1="7.38702" y1="27.5381" x2="9.13793" y2="27.5413" gradientUnits="userSpaceOnUse">
      <stop stop-color="#B5B0BB"/>
      <stop offset="1" stop-color="#B5B0BB" stop-opacity="0"/>
    </linearGradient>
    <linearGradient id="paint5_linear_550_13338" x1="30.6604" y1="54.1045" x2="30.6604" y2="52.8465" gradientUnits="userSpaceOnUse">
      <stop stop-color="#B5B0BB"/>
      <stop offset="1" stop-color="#B5B0BB" stop-opacity="0"/>
    </linearGradient>
    <radialGradient id="paint6_radial_550_13338" cx="0" cy="0" r="1" gradientUnits="userSpaceOnUse" gradientTransform="translate(9.83774 53.4967) rotate(-72.992) scale(0.90851 2.94893)">
      <stop stop-color="#B5B0BB"/>
      <stop offset="1" stop-color="#B5B0BB" stop-opacity="0"/>
    </radialGradient>
    <radialGradient id="paint7_radial_550_13338" cx="0" cy="0" r="1" gradientUnits="userSpaceOnUse" gradientTransform="translate(9.06095 52.8221) rotate(-60.2552) scale(0.824034 2.67473)">
      <stop stop-color="#B5B0BB"/>
      <stop offset="1" stop-color="#B5B0BB" stop-opacity="0"/>
    </radialGradient>
    <radialGradient id="paint8_radial_550_13338" cx="0" cy="0" r="1" gradientUnits="userSpaceOnUse" gradientTransform="translate(8.75433 51.9329) rotate(-38.6597) scale(0.58901 1.91187)">
      <stop stop-color="#B5B0BB"/>
      <stop offset="1" stop-color="#B5B0BB" stop-opacity="0"/>
    </radialGradient>
    <linearGradient id="paint9_linear_550_13338" x1="8.03111" y1="50.7547" x2="9.25386" y2="50.7547" gradientUnits="userSpaceOnUse">
      <stop stop-color="#B5B0BB"/>
      <stop offset="1" stop-color="#B5B0BB" stop-opacity="0"/>
    </linearGradient>
    <linearGradient id="paint10_linear_550_13338" x1="7.47782" y1="4.79473" x2="9.76193" y2="5.78701" gradientUnits="userSpaceOnUse">
      <stop stop-color="#B5B0BB"/>
      <stop offset="1" stop-color="#B5B0BB" stop-opacity="0"/>
    </linearGradient>
    <linearGradient id="paint11_linear_550_13338" x1="7.88141" y1="26.8679" x2="9.64845" y2="26.8679" gradientUnits="userSpaceOnUse">
      <stop stop-color="#B9A6CC"/>
      <stop offset="1" stop-color="#B9A6CC" stop-opacity="0"/>
    </linearGradient>
    <linearGradient id="paint12_linear_550_13338" x1="28.002" y1="53.1738" x2="28.002" y2="52.7581" gradientUnits="userSpaceOnUse">
      <stop stop-color="#B9A6CC"/>
      <stop offset="1" stop-color="#B9A6CC" stop-opacity="0"/>
    </linearGradient>
    <linearGradient id="paint13_linear_550_13338" x1="46.2199" y1="52.8726" x2="45.9668" y2="52.4014" gradientUnits="userSpaceOnUse">
      <stop stop-color="#B9A6CC"/>
      <stop offset="1" stop-color="#B9A6CC" stop-opacity="0"/>
    </linearGradient>
    <linearGradient id="paint14_linear_550_13338" x1="37.2839" y1="9.38628" x2="34.28" y2="9.38628" gradientUnits="userSpaceOnUse">
      <stop offset="0.72" stop-color="#D2C5DE"/>
      <stop offset="1" stop-color="#D2C5DF" stop-opacity="0"/>
    </linearGradient>
    <linearGradient id="paint15_linear_550_13338" x1="41.5188" y1="20.3987" x2="41.4973" y2="16.4347" gradientUnits="userSpaceOnUse">
      <stop offset="0.72" stop-color="#E9E1F3"/>
      <stop offset="1" stop-color="#E9E1F3" stop-opacity="0"/>
    </linearGradient>
    <linearGradient id="paint16_linear_550_13338" x1="35.8478" y1="15.2101" x2="32.8797" y2="19.8608" gradientUnits="userSpaceOnUse">
      <stop stop-color="#E9E1F3" stop-opacity="0"/>
      <stop offset="0.682292" stop-color="#E9E1F3"/>
    </linearGradient>
    <linearGradient id="paint17_linear_550_13338" x1="35.9449" y1="15.9867" x2="40.566" y2="11.3656" gradientUnits="userSpaceOnUse">
      <stop stop-color="#D9D3E1"/>
      <stop offset="1" stop-color="#CCC7D1"/>
    </linearGradient>
    <linearGradient id="paint18_linear_550_13338" x1="41.6051" y1="10.4632" x2="40.484" y2="11.557" gradientUnits="userSpaceOnUse">
      <stop offset="0.119171" stop-color="#DBDADC"/>
      <stop offset="0.577307" stop-color="#CBC7D0" stop-opacity="0"/>
    </linearGradient>
    <linearGradient id="paint19_linear_550_13338" x1="35.0289" y1="9.05902" x2="35.2874" y2="9.05902" gradientUnits="userSpaceOnUse">
      <stop stop-color="#A19CA7"/>
      <stop offset="1" stop-color="#9D9CA7" stop-opacity="0"/>
    </linearGradient>
    <linearGradient id="paint20_linear_550_13338" x1="40.8924" y1="16.5609" x2="40.8924" y2="16.2055" gradientUnits="userSpaceOnUse">
      <stop stop-color="#C0ACD5"/>
      <stop offset="1" stop-color="#C0ACD5" stop-opacity="0"/>
    </linearGradient>
    <radialGradient id="paint21_radial_550_13338" cx="0" cy="0" r="1" gradientUnits="userSpaceOnUse" gradientTransform="translate(36.5497 16.6712) rotate(-81.1582) scale(0.647192 3.74774)">
      <stop stop-color="#C0ACD5"/>
      <stop offset="1" stop-color="#C0ACD5" stop-opacity="0"/>
    </radialGradient>
    <radialGradient id="paint22_radial_550_13338" cx="0" cy="0" r="1" gradientUnits="userSpaceOnUse" gradientTransform="translate(35.5692 16.188) rotate(-40.8602) scale(0.598065 3.46326)">
      <stop stop-color="#A19CA7"/>
      <stop offset="1" stop-color="#A19CA7" stop-opacity="0"/>
    </radialGradient>
    <radialGradient id="paint23_radial_550_13338" cx="0" cy="0" r="1" gradientUnits="userSpaceOnUse" gradientTransform="translate(35.061 15.6321) rotate(-24.7752) scale(0.58937 3.41291)">
      <stop stop-color="#A19CA7"/>
      <stop offset="1" stop-color="#A19CA7" stop-opacity="0"/>
    </radialGradient>
    <radialGradient id="paint24_radial_550_13338" cx="0" cy="0" r="1" gradientUnits="userSpaceOnUse" gradientTransform="translate(34.7177 15.0243) rotate(-6.45541) scale(0.738807 4.27826)">
      <stop stop-color="#A19CA7"/>
      <stop offset="1" stop-color="#A19CA7" stop-opacity="0"/>
    </radialGradient>
    <radialGradient id="paint25_radial_550_13338" cx="0" cy="0" r="1" gradientUnits="userSpaceOnUse" gradientTransform="translate(35.818 16.2998) rotate(-59.8587) scale(0.482095 2.79171)">
      <stop stop-color="#A19CA7"/>
      <stop offset="1" stop-color="#A19CA7" stop-opacity="0"/>
    </radialGradient>
    <linearGradient id="paint26_linear_550_13338" x1="15.8164" y1="38.3623" x2="31.5391" y2="38.3623" gradientUnits="userSpaceOnUse">
      <stop stop-color="#9C96A2"/>
      <stop offset="1" stop-color="#9A95A1"/>
    </linearGradient>
  </defs>
</svg>