<svg xmlns="http://www.w3.org/2000/svg" width="56" height="57" viewBox="0 0 56 57" fill="none">
  <path d="M14.3711 16.1897C11.6367 17.4749 9.95964 20.0908 9.55859 21.3577L24.1055 18.678L20.7837 15.3049C20.6419 15.161 20.4549 15.0693 20.2529 15.0656C19.0617 15.0437 16.0284 15.324 14.3711 16.1897Z" fill="url(#paint0_linear_550_13351)"/>
  <path d="M14.3711 16.1897C11.6367 17.4749 9.95964 20.0908 9.55859 21.3577L24.1055 18.678L20.7837 15.3049C20.6419 15.161 20.4549 15.0693 20.2529 15.0656C19.0617 15.0437 16.0284 15.324 14.3711 16.1897Z" fill="url(#paint1_linear_550_13351)"/>
  <path d="M41.4414 16.1897C44.1758 17.4749 45.8529 20.0908 46.2539 21.3577L31.707 18.678L35.0288 15.3049C35.1706 15.161 35.3576 15.0693 35.5596 15.0656C36.7508 15.0437 39.7841 15.324 41.4414 16.1897Z" fill="url(#paint2_linear_550_13351)"/>
  <path d="M41.4414 16.1897C44.1758 17.4749 45.8529 20.0908 46.2539 21.3577L31.707 18.678L35.0288 15.3049C35.1706 15.161 35.3576 15.0693 35.5596 15.0656C36.7508 15.0437 39.7841 15.324 41.4414 16.1897Z" fill="url(#paint3_linear_550_13351)"/>
  <path d="M16.5649 17.3125C12.7645 17.3125 9.38441 19.7633 8.33963 23.4173C5.61421 32.9492 3.84379 41.4844 3.84379 41.4844C3.39919 43.7425 3.16018 48.1289 4.58203 50.3164C6.87893 53.4883 9.19376 53.2921 11.7172 51.2711L18.7777 45.6164C19.5538 44.9949 20.5184 44.6562 21.5126 44.6562H34.245C35.2393 44.6562 36.2039 44.9949 36.9799 45.6164L44.0405 51.2711C46.5639 53.2921 48.8787 53.4883 51.1756 50.3164C52.5975 48.1289 52.3585 43.7425 51.9139 41.4844C51.9139 41.4844 50.1434 32.9492 47.418 23.4173C46.3732 19.7633 42.9931 17.3125 39.1927 17.3125H16.5649Z" fill="url(#paint4_linear_550_13351)"/>
  <path d="M16.5649 17.3125C12.7645 17.3125 9.38441 19.7633 8.33963 23.4173C5.61421 32.9492 3.84379 41.4844 3.84379 41.4844C3.39919 43.7425 3.16018 48.1289 4.58203 50.3164C6.87893 53.4883 9.19376 53.2921 11.7172 51.2711L18.7777 45.6164C19.5538 44.9949 20.5184 44.6562 21.5126 44.6562H34.245C35.2393 44.6562 36.2039 44.9949 36.9799 45.6164L44.0405 51.2711C46.5639 53.2921 48.8787 53.4883 51.1756 50.3164C52.5975 48.1289 52.3585 43.7425 51.9139 41.4844C51.9139 41.4844 50.1434 32.9492 47.418 23.4173C46.3732 19.7633 42.9931 17.3125 39.1927 17.3125H16.5649Z" fill="url(#paint5_radial_550_13351)"/>
  <path d="M16.5649 17.3125C12.7645 17.3125 9.38441 19.7633 8.33963 23.4173C5.61421 32.9492 3.84379 41.4844 3.84379 41.4844C3.39919 43.7425 3.16018 48.1289 4.58203 50.3164C6.87893 53.4883 9.19376 53.2921 11.7172 51.2711L18.7777 45.6164C19.5538 44.9949 20.5184 44.6562 21.5126 44.6562H34.245C35.2393 44.6562 36.2039 44.9949 36.9799 45.6164L44.0405 51.2711C46.5639 53.2921 48.8787 53.4883 51.1756 50.3164C52.5975 48.1289 52.3585 43.7425 51.9139 41.4844C51.9139 41.4844 50.1434 32.9492 47.418 23.4173C46.3732 19.7633 42.9931 17.3125 39.1927 17.3125H16.5649Z" fill="url(#paint6_radial_550_13351)"/>
  <path d="M16.5649 17.3125C12.7645 17.3125 9.38441 19.7633 8.33963 23.4173C5.61421 32.9492 3.84379 41.4844 3.84379 41.4844C3.39919 43.7425 3.16018 48.1289 4.58203 50.3164C6.87893 53.4883 9.19376 53.2921 11.7172 51.2711L18.7777 45.6164C19.5538 44.9949 20.5184 44.6562 21.5126 44.6562H34.245C35.2393 44.6562 36.2039 44.9949 36.9799 45.6164L44.0405 51.2711C46.5639 53.2921 48.8787 53.4883 51.1756 50.3164C52.5975 48.1289 52.3585 43.7425 51.9139 41.4844C51.9139 41.4844 50.1434 32.9492 47.418 23.4173C46.3732 19.7633 42.9931 17.3125 39.1927 17.3125H16.5649Z" fill="url(#paint7_radial_550_13351)"/>
  <path d="M16.5649 17.3125C12.7645 17.3125 9.38441 19.7633 8.33963 23.4173C5.61421 32.9492 3.84379 41.4844 3.84379 41.4844C3.39919 43.7425 3.16018 48.1289 4.58203 50.3164C6.87893 53.4883 9.19376 53.2921 11.7172 51.2711L18.7777 45.6164C19.5538 44.9949 20.5184 44.6562 21.5126 44.6562H34.245C35.2393 44.6562 36.2039 44.9949 36.9799 45.6164L44.0405 51.2711C46.5639 53.2921 48.8787 53.4883 51.1756 50.3164C52.5975 48.1289 52.3585 43.7425 51.9139 41.4844C51.9139 41.4844 50.1434 32.9492 47.418 23.4173C46.3732 19.7633 42.9931 17.3125 39.1927 17.3125H16.5649Z" fill="url(#paint8_radial_550_13351)"/>
  <path d="M16.5649 17.3125C12.7645 17.3125 9.38441 19.7633 8.33963 23.4173C5.61421 32.9492 3.84379 41.4844 3.84379 41.4844C3.39919 43.7425 3.16018 48.1289 4.58203 50.3164C6.87893 53.4883 9.19376 53.2921 11.7172 51.2711L18.7777 45.6164C19.5538 44.9949 20.5184 44.6562 21.5126 44.6562H34.245C35.2393 44.6562 36.2039 44.9949 36.9799 45.6164L44.0405 51.2711C46.5639 53.2921 48.8787 53.4883 51.1756 50.3164C52.5975 48.1289 52.3585 43.7425 51.9139 41.4844C51.9139 41.4844 50.1434 32.9492 47.418 23.4173C46.3732 19.7633 42.9931 17.3125 39.1927 17.3125H16.5649Z" fill="url(#paint9_radial_550_13351)"/>
  <path d="M16.5649 17.3125C12.7645 17.3125 9.38441 19.7633 8.33963 23.4173C5.61421 32.9492 3.84379 41.4844 3.84379 41.4844C3.39919 43.7425 3.16018 48.1289 4.58203 50.3164C6.87893 53.4883 9.19376 53.2921 11.7172 51.2711L18.7777 45.6164C19.5538 44.9949 20.5184 44.6562 21.5126 44.6562H34.245C35.2393 44.6562 36.2039 44.9949 36.9799 45.6164L44.0405 51.2711C46.5639 53.2921 48.8787 53.4883 51.1756 50.3164C52.5975 48.1289 52.3585 43.7425 51.9139 41.4844C51.9139 41.4844 50.1434 32.9492 47.418 23.4173C46.3732 19.7633 42.9931 17.3125 39.1927 17.3125H16.5649Z" fill="url(#paint10_radial_550_13351)"/>
  <path d="M16.5649 17.3125C12.7645 17.3125 9.38441 19.7633 8.33963 23.4173C5.61421 32.9492 3.84379 41.4844 3.84379 41.4844C3.39919 43.7425 3.16018 48.1289 4.58203 50.3164C6.87893 53.4883 9.19376 53.2921 11.7172 51.2711L18.7777 45.6164C19.5538 44.9949 20.5184 44.6562 21.5126 44.6562H34.245C35.2393 44.6562 36.2039 44.9949 36.9799 45.6164L44.0405 51.2711C46.5639 53.2921 48.8787 53.4883 51.1756 50.3164C52.5975 48.1289 52.3585 43.7425 51.9139 41.4844C51.9139 41.4844 50.1434 32.9492 47.418 23.4173C46.3732 19.7633 42.9931 17.3125 39.1927 17.3125H16.5649Z" fill="url(#paint11_radial_550_13351)"/>
  <path d="M16.5649 17.3125C12.7645 17.3125 9.38441 19.7633 8.33963 23.4173C5.61421 32.9492 3.84379 41.4844 3.84379 41.4844C3.39919 43.7425 3.16018 48.1289 4.58203 50.3164C6.87893 53.4883 9.19376 53.2921 11.7172 51.2711L18.7777 45.6164C19.5538 44.9949 20.5184 44.6562 21.5126 44.6562H34.245C35.2393 44.6562 36.2039 44.9949 36.9799 45.6164L44.0405 51.2711C46.5639 53.2921 48.8787 53.4883 51.1756 50.3164C52.5975 48.1289 52.3585 43.7425 51.9139 41.4844C51.9139 41.4844 50.1434 32.9492 47.418 23.4173C46.3732 19.7633 42.9931 17.3125 39.1927 17.3125H16.5649Z" fill="url(#paint12_radial_550_13351)"/>
  <path d="M16.5649 17.3125C12.7645 17.3125 9.38441 19.7633 8.33963 23.4173C5.61421 32.9492 3.84379 41.4844 3.84379 41.4844C3.39919 43.7425 3.16018 48.1289 4.58203 50.3164C6.87893 53.4883 9.19376 53.2921 11.7172 51.2711L18.7777 45.6164C19.5538 44.9949 20.5184 44.6562 21.5126 44.6562H34.245C35.2393 44.6562 36.2039 44.9949 36.9799 45.6164L44.0405 51.2711C46.5639 53.2921 48.8787 53.4883 51.1756 50.3164C52.5975 48.1289 52.3585 43.7425 51.9139 41.4844C51.9139 41.4844 50.1434 32.9492 47.418 23.4173C46.3732 19.7633 42.9931 17.3125 39.1927 17.3125H16.5649Z" fill="url(#paint13_radial_550_13351)"/>
  <circle cx="35.8408" cy="27.4092" r="2.09863" fill="url(#paint14_radial_550_13351)"/>
  <circle cx="39.835" cy="23.499" r="2.09863" transform="rotate(90 39.835 23.499)" fill="url(#paint15_radial_550_13351)"/>
  <circle cx="43.6611" cy="27.4092" r="2.09863" fill="url(#paint16_radial_550_13351)"/>
  <circle cx="39.835" cy="31.3193" r="2.09863" transform="rotate(90 39.835 31.3193)" fill="url(#paint17_radial_550_13351)"/>
  <circle cx="17.0233" cy="27.3475" r="3.44521" fill="url(#paint18_radial_550_13351)"/>
  <circle cx="17.0233" cy="27.3475" r="3.44521" fill="url(#paint19_radial_550_13351)"/>
  <circle cx="33.8397" cy="36.1796" r="3.44521" fill="url(#paint20_radial_550_13351)"/>
  <circle cx="33.8397" cy="36.1796" r="3.44521" fill="url(#paint21_radial_550_13351)"/>
  <g filter="url(#filter0_ii_550_13351)">
    <path d="M23.1074 32.2695C22.5562 32.2695 22.1094 32.7164 22.1094 33.2676V34.5117C22.1094 34.995 21.7176 35.3867 21.2344 35.3867H19.9902C19.439 35.3867 18.9922 35.8336 18.9922 36.3848C18.9922 36.936 19.439 37.3828 19.9902 37.3828H21.2344C21.7176 37.3828 22.1094 37.7746 22.1094 38.2578V39.502C22.1094 40.0532 22.5562 40.5 23.1074 40.5C23.6586 40.5 24.1055 40.0532 24.1055 39.502V38.2578C24.1055 37.7746 24.4972 37.3828 24.9805 37.3828H26.2246C26.7758 37.3828 27.2227 36.936 27.2227 36.3848C27.2227 35.8336 26.7758 35.3867 26.2246 35.3867H24.9805C24.4972 35.3867 24.1055 34.995 24.1055 34.5117V33.2676C24.1055 32.7164 23.6586 32.2695 23.1074 32.2695Z" fill="url(#paint22_radial_550_13351)"/>
  </g>
  <defs>
    <filter id="filter0_ii_550_13351" x="18.9047" y="32.182" width="8.40547" height="8.40547" filterUnits="userSpaceOnUse" color-interpolation-filters="sRGB">
      <feFlood flood-opacity="0" result="BackgroundImageFix"/>
      <feBlend mode="normal" in="SourceGraphic" in2="BackgroundImageFix" result="shape"/>
      <feColorMatrix in="SourceAlpha" type="matrix" values="0 0 0 0 0 0 0 0 0 0 0 0 0 0 0 0 0 0 127 0" result="hardAlpha"/>
      <feOffset dx="-0.0875" dy="0.0875"/>
      <feGaussianBlur stdDeviation="0.0875"/>
      <feComposite in2="hardAlpha" operator="arithmetic" k2="-1" k3="1"/>
      <feColorMatrix type="matrix" values="0 0 0 0 0.564706 0 0 0 0 0.568627 0 0 0 0 0.945098 0 0 0 1 0"/>
      <feBlend mode="normal" in2="shape" result="effect1_innerShadow_550_13351"/>
      <feColorMatrix in="SourceAlpha" type="matrix" values="0 0 0 0 0 0 0 0 0 0 0 0 0 0 0 0 0 0 127 0" result="hardAlpha"/>
      <feOffset dx="0.0875" dy="-0.0875"/>
      <feGaussianBlur stdDeviation="0.0875"/>
      <feComposite in2="hardAlpha" operator="arithmetic" k2="-1" k3="1"/>
      <feColorMatrix type="matrix" values="0 0 0 0 0.396078 0 0 0 0 0.360784 0 0 0 0 0.796078 0 0 0 1 0"/>
      <feBlend mode="normal" in2="effect1_innerShadow_550_13351" result="effect2_innerShadow_550_13351"/>
    </filter>
    <linearGradient id="paint0_linear_550_13351" x1="11.7188" y1="20.428" x2="21.1797" y2="16.2171" gradientUnits="userSpaceOnUse">
      <stop stop-color="#3C1B3C"/>
      <stop offset="0.355113" stop-color="#501752"/>
    </linearGradient>
    <linearGradient id="paint1_linear_550_13351" x1="23.2852" y1="16.0803" x2="20.8242" y2="16.846" gradientUnits="userSpaceOnUse">
      <stop offset="0.826753" stop-color="#613060"/>
      <stop offset="1" stop-color="#613060" stop-opacity="0"/>
    </linearGradient>
    <linearGradient id="paint2_linear_550_13351" x1="35.6172" y1="15.9983" x2="43.6563" y2="19.0061" gradientUnits="userSpaceOnUse">
      <stop stop-color="#521852"/>
      <stop offset="1" stop-color="#603260"/>
    </linearGradient>
    <linearGradient id="paint3_linear_550_13351" x1="33.1836" y1="16.9007" x2="35.084" y2="17.3382" gradientUnits="userSpaceOnUse">
      <stop offset="0.830147" stop-color="#3D193D"/>
      <stop offset="1" stop-color="#3D193D" stop-opacity="0"/>
    </linearGradient>
    <linearGradient id="paint4_linear_550_13351" x1="27.8788" y1="17.3125" x2="27.8788" y2="44.6563" gradientUnits="userSpaceOnUse">
      <stop stop-color="#6259A7"/>
      <stop offset="1" stop-color="#562F80"/>
    </linearGradient>
    <radialGradient id="paint5_radial_550_13351" cx="0" cy="0" r="1" gradientUnits="userSpaceOnUse" gradientTransform="translate(27.8788 46.5593) rotate(-90) scale(5.4613 18.7157)">
      <stop offset="0.357143" stop-color="#5E2696"/>
      <stop offset="1" stop-color="#5E2696" stop-opacity="0"/>
    </radialGradient>
    <radialGradient id="paint6_radial_550_13351" cx="0" cy="0" r="1" gradientUnits="userSpaceOnUse" gradientTransform="translate(52.8707 48.8579) rotate(-107.504) scale(13.6091 15.2662)">
      <stop stop-color="#6A4592"/>
      <stop offset="1" stop-color="#6A4592" stop-opacity="0"/>
    </radialGradient>
    <radialGradient id="paint7_radial_550_13351" cx="0" cy="0" r="1" gradientUnits="userSpaceOnUse" gradientTransform="translate(16.9531 27.3219) rotate(90) scale(4.32031)">
      <stop offset="0.417722" stop-color="#4A3383"/>
      <stop offset="1" stop-color="#4A3383" stop-opacity="0"/>
    </radialGradient>
    <radialGradient id="paint8_radial_550_13351" cx="0" cy="0" r="1" gradientUnits="userSpaceOnUse" gradientTransform="translate(33.8516 36.2906) rotate(90) scale(4.32031)">
      <stop offset="0.670886" stop-color="#4A3383"/>
      <stop offset="1" stop-color="#4A3383" stop-opacity="0"/>
    </radialGradient>
    <radialGradient id="paint9_radial_550_13351" cx="0" cy="0" r="1" gradientUnits="userSpaceOnUse" gradientTransform="translate(35.8477 27.3765) rotate(90) scale(2.625)">
      <stop offset="0.670886" stop-color="#4A3383"/>
      <stop offset="1" stop-color="#4A3383" stop-opacity="0"/>
    </radialGradient>
    <radialGradient id="paint10_radial_550_13351" cx="0" cy="0" r="1" gradientUnits="userSpaceOnUse" gradientTransform="translate(39.8262 31.3414) rotate(90) scale(2.61133)">
      <stop offset="0.670886" stop-color="#4A3383"/>
      <stop offset="1" stop-color="#4A3383" stop-opacity="0"/>
    </radialGradient>
    <radialGradient id="paint11_radial_550_13351" cx="0" cy="0" r="1" gradientUnits="userSpaceOnUse" gradientTransform="translate(43.668 27.4039) rotate(90) scale(2.55664)">
      <stop offset="0.670886" stop-color="#4A3383"/>
      <stop offset="1" stop-color="#4A3383" stop-opacity="0"/>
    </radialGradient>
    <radialGradient id="paint12_radial_550_13351" cx="0" cy="0" r="1" gradientUnits="userSpaceOnUse" gradientTransform="translate(39.8262 23.5074) rotate(90) scale(2.50195)">
      <stop offset="0.670886" stop-color="#4A3383"/>
      <stop offset="1" stop-color="#4A3383" stop-opacity="0"/>
    </radialGradient>
    <radialGradient id="paint13_radial_550_13351" cx="0" cy="0" r="1" gradientUnits="userSpaceOnUse" gradientTransform="translate(23.1602 36.3453) rotate(90) scale(4.75781)">
      <stop offset="0.197279" stop-color="#4A3383"/>
      <stop offset="1" stop-color="#4A3383" stop-opacity="0"/>
    </radialGradient>
    <radialGradient id="paint14_radial_550_13351" cx="0" cy="0" r="1" gradientUnits="userSpaceOnUse" gradientTransform="translate(37.9395 27.0469) rotate(-180) scale(3.14453 2.74421)">
      <stop stop-color="#5CC5FF"/>
      <stop offset="1" stop-color="#259AF4"/>
    </radialGradient>
    <radialGradient id="paint15_radial_550_13351" cx="0" cy="0" r="1" gradientUnits="userSpaceOnUse" gradientTransform="translate(39.835 21.8926) rotate(90) scale(3.70508 3.2334)">
      <stop stop-color="#FFDE74"/>
      <stop offset="1" stop-color="#EEB84D"/>
    </radialGradient>
    <radialGradient id="paint16_radial_550_13351" cx="0" cy="0" r="1" gradientUnits="userSpaceOnUse" gradientTransform="translate(45.7598 27.0469) rotate(-180) scale(3.14453 2.74421)">
      <stop stop-color="#FF5B74"/>
      <stop offset="1" stop-color="#F21F4D"/>
    </radialGradient>
    <radialGradient id="paint17_radial_550_13351" cx="0" cy="0" r="1" gradientUnits="userSpaceOnUse" gradientTransform="translate(39.835 29.7129) rotate(90) scale(3.70508 3.2334)">
      <stop stop-color="#57FBA4"/>
      <stop offset="1" stop-color="#21E28C"/>
    </radialGradient>
    <radialGradient id="paint18_radial_550_13351" cx="0" cy="0" r="1" gradientUnits="userSpaceOnUse" gradientTransform="translate(20.4685 26.544) rotate(160.894) scale(6.86284 6.34296)">
      <stop stop-color="#9395E9"/>
      <stop offset="1" stop-color="#6969BD"/>
    </radialGradient>
    <radialGradient id="paint19_radial_550_13351" cx="0" cy="0" r="1" gradientUnits="userSpaceOnUse" gradientTransform="translate(17.0233 30.1881) rotate(90) scale(2.79546)">
      <stop stop-color="#806FE7"/>
      <stop offset="1" stop-color="#806FE7" stop-opacity="0"/>
    </radialGradient>
    <radialGradient id="paint20_radial_550_13351" cx="0" cy="0" r="1" gradientUnits="userSpaceOnUse" gradientTransform="translate(36.0547 35.1405) rotate(154.717) scale(5.81118 5.37096)">
      <stop stop-color="#9395E9"/>
      <stop offset="1" stop-color="#6969BD"/>
    </radialGradient>
    <radialGradient id="paint21_radial_550_13351" cx="0" cy="0" r="1" gradientUnits="userSpaceOnUse" gradientTransform="translate(33.8397 39.0201) rotate(90) scale(2.79546)">
      <stop stop-color="#806FE7"/>
      <stop offset="1" stop-color="#806FE7" stop-opacity="0"/>
    </radialGradient>
    <radialGradient id="paint22_radial_550_13351" cx="0" cy="0" r="1" gradientUnits="userSpaceOnUse" gradientTransform="translate(25.1172 34.7031) rotate(136.975) scale(4.48838 4.13122)">
      <stop stop-color="#8886E9"/>
      <stop offset="1" stop-color="#8076E3"/>
    </radialGradient>
  </defs>
</svg>