<svg xmlns="http://www.w3.org/2000/svg" width="56" height="57" viewBox="0 0 56 57" fill="none">
  <path d="M24.1797 41.7715C24.1797 47.1854 19.7664 51.5742 14.3223 51.5742C8.87816 51.5742 3.91797 46.492 3.91797 41.0781C3.91797 35.6642 9.00391 31.9688 14.3223 31.9688C19.7664 31.9688 24.1797 36.3576 24.1797 41.7715Z" fill="url(#paint0_radial_550_13346)"/>
  <path d="M22.1533 40.3633C22.1533 45.0599 18.592 49.6055 13.8955 49.6055C9.19888 49.6055 4.981 45.8773 5.25483 39.7344C5.4462 35.4414 9.64242 31.832 14.2305 31.832C18.9271 31.832 22.1533 35.6667 22.1533 40.3633Z" fill="url(#paint1_radial_550_13346)"/>
  <path d="M20.4531 39.58C20.4531 43.9694 17.9647 47.4453 14.2733 47.582C10.7186 47.582 6.64619 45.321 6.9021 39.58C7.08095 35.5679 12.5283 32.4336 16.8162 32.4336C21.2055 32.4336 20.4531 35.1907 20.4531 39.58Z" fill="url(#paint2_radial_550_13346)"/>
  <path d="M16.9169 51.2922C16.8 51.3461 16.6867 51.3864 16.5781 51.4122C16.6918 51.3734 16.8047 51.3334 16.9169 51.2922C18.6548 50.4914 21.1783 46.6899 20.4609 42.7443C19.1033 35.2771 10.6172 32.7638 5.25781 36.5919C5.47656 36.2273 6.15469 35.263 7.11719 34.3224C8.07969 33.3818 25.7474 15.5555 34.4609 6.75989C35.2539 5.93957 37.3648 4.37551 39.4648 4.68176L29.9219 36.5919C28.772 40.3558 24.5767 48.4826 16.9169 51.2922Z" fill="#BDB7C5"/>
  <path d="M16.9169 51.2922C16.8 51.3461 16.6867 51.3864 16.5781 51.4122C16.6918 51.3734 16.8047 51.3334 16.9169 51.2922C18.6548 50.4914 21.1783 46.6899 20.4609 42.7443C19.1033 35.2771 10.6172 32.7638 5.25781 36.5919C5.47656 36.2273 6.15469 35.263 7.11719 34.3224C8.07969 33.3818 25.7474 15.5555 34.4609 6.75989C35.2539 5.93957 37.3648 4.37551 39.4648 4.68176L29.9219 36.5919C28.772 40.3558 24.5767 48.4826 16.9169 51.2922Z" fill="url(#paint3_linear_550_13346)"/>
  <path d="M16.9169 51.2922C16.8 51.3461 16.6867 51.3864 16.5781 51.4122C16.6918 51.3734 16.8047 51.3334 16.9169 51.2922C18.6548 50.4914 21.1783 46.6899 20.4609 42.7443C19.1033 35.2771 10.6172 32.7638 5.25781 36.5919C5.47656 36.2273 6.15469 35.263 7.11719 34.3224C8.07969 33.3818 25.7474 15.5555 34.4609 6.75989C35.2539 5.93957 37.3648 4.37551 39.4648 4.68176L29.9219 36.5919C28.772 40.3558 24.5767 48.4826 16.9169 51.2922Z" fill="url(#paint4_radial_550_13346)"/>
  <path d="M17.0696 51.2715C16.9168 51.3249 16.77 51.3633 16.6308 51.3857C16.7781 51.3494 16.9244 51.3114 17.0696 51.2715C19.2786 50.5 22.7281 46.5979 22.0995 42.581C21.1498 36.5119 16.6547 33.4257 13.4186 31.8925C12.6766 31.541 12.4691 30.5539 13.0492 29.9727L38.4987 4.47384C39.4836 3.48708 40.8325 2.88886 42.1976 3.17196C43.5736 3.45734 45.0806 4.01418 46.2167 4.92865L22.4277 36.6201C23.0475 38.0237 24.1777 41.6076 23.7402 44.7138C23.2159 48.4358 20.4305 50.3487 17.0696 51.2715Z" fill="url(#paint5_linear_550_13346)"/>
  <path d="M17.0696 51.2715C16.9168 51.3249 16.77 51.3633 16.6308 51.3857C16.7781 51.3494 16.9244 51.3114 17.0696 51.2715C19.2786 50.5 22.7281 46.5979 22.0995 42.581C21.1498 36.5119 16.6547 33.4257 13.4186 31.8925C12.6766 31.541 12.4691 30.5539 13.0492 29.9727L38.4987 4.47384C39.4836 3.48708 40.8325 2.88886 42.1976 3.17196C43.5736 3.45734 45.0806 4.01418 46.2167 4.92865L22.4277 36.6201C23.0475 38.0237 24.1777 41.6076 23.7402 44.7138C23.2159 48.4358 20.4305 50.3487 17.0696 51.2715Z" fill="url(#paint6_linear_550_13346)"/>
  <path d="M17.0696 51.2715C16.9168 51.3249 16.77 51.3633 16.6308 51.3857C16.7781 51.3494 16.9244 51.3114 17.0696 51.2715C19.2786 50.5 22.7281 46.5979 22.0995 42.581C21.1498 36.5119 16.6547 33.4257 13.4186 31.8925C12.6766 31.541 12.4691 30.5539 13.0492 29.9727L38.4987 4.47384C39.4836 3.48708 40.8325 2.88886 42.1976 3.17196C43.5736 3.45734 45.0806 4.01418 46.2167 4.92865L22.4277 36.6201C23.0475 38.0237 24.1777 41.6076 23.7402 44.7138C23.2159 48.4358 20.4305 50.3487 17.0696 51.2715Z" fill="url(#paint7_linear_550_13346)"/>
  <path d="M17.0696 51.2715C16.9168 51.3249 16.77 51.3633 16.6308 51.3857C16.7781 51.3494 16.9244 51.3114 17.0696 51.2715C19.2786 50.5 22.7281 46.5979 22.0995 42.581C21.1498 36.5119 16.6547 33.4257 13.4186 31.8925C12.6766 31.541 12.4691 30.5539 13.0492 29.9727L38.4987 4.47384C39.4836 3.48708 40.8325 2.88886 42.1976 3.17196C43.5736 3.45734 45.0806 4.01418 46.2167 4.92865L22.4277 36.6201C23.0475 38.0237 24.1777 41.6076 23.7402 44.7138C23.2159 48.4358 20.4305 50.3487 17.0696 51.2715Z" fill="url(#paint8_radial_550_13346)"/>
  <path d="M17.0696 51.2715C16.9168 51.3249 16.77 51.3633 16.6308 51.3857C16.7781 51.3494 16.9244 51.3114 17.0696 51.2715C19.2786 50.5 22.7281 46.5979 22.0995 42.581C21.1498 36.5119 16.6547 33.4257 13.4186 31.8925C12.6766 31.541 12.4691 30.5539 13.0492 29.9727L38.4987 4.47384C39.4836 3.48708 40.8325 2.88886 42.1976 3.17196C43.5736 3.45734 45.0806 4.01418 46.2167 4.92865L22.4277 36.6201C23.0475 38.0237 24.1777 41.6076 23.7402 44.7138C23.2159 48.4358 20.4305 50.3487 17.0696 51.2715Z" fill="url(#paint9_radial_550_13346)"/>
  <path d="M17.0696 51.2715C16.9168 51.3249 16.77 51.3633 16.6308 51.3857C16.7781 51.3494 16.9244 51.3114 17.0696 51.2715C19.2786 50.5 22.7281 46.5979 22.0995 42.581C21.1498 36.5119 16.6547 33.4257 13.4186 31.8925C12.6766 31.541 12.4691 30.5539 13.0492 29.9727L38.4987 4.47384C39.4836 3.48708 40.8325 2.88886 42.1976 3.17196C43.5736 3.45734 45.0806 4.01418 46.2167 4.92865L22.4277 36.6201C23.0475 38.0237 24.1777 41.6076 23.7402 44.7138C23.2159 48.4358 20.4305 50.3487 17.0696 51.2715Z" fill="url(#paint10_radial_550_13346)"/>
  <path d="M17.0696 51.2715C16.9168 51.3249 16.77 51.3633 16.6308 51.3857C16.7781 51.3494 16.9244 51.3114 17.0696 51.2715C19.2786 50.5 22.7281 46.5979 22.0995 42.581C21.1498 36.5119 16.6547 33.4257 13.4186 31.8925C12.6766 31.541 12.4691 30.5539 13.0492 29.9727L38.4987 4.47384C39.4836 3.48708 40.8325 2.88886 42.1976 3.17196C43.5736 3.45734 45.0806 4.01418 46.2167 4.92865L22.4277 36.6201C23.0475 38.0237 24.1777 41.6076 23.7402 44.7138C23.2159 48.4358 20.4305 50.3487 17.0696 51.2715Z" fill="url(#paint11_radial_550_13346)"/>
  <path d="M17.0696 51.2715C16.9168 51.3249 16.77 51.3633 16.6308 51.3857C16.7781 51.3494 16.9244 51.3114 17.0696 51.2715C19.2786 50.5 22.7281 46.5979 22.0995 42.581C21.1498 36.5119 16.6547 33.4257 13.4186 31.8925C12.6766 31.541 12.4691 30.5539 13.0492 29.9727L38.4987 4.47384C39.4836 3.48708 40.8325 2.88886 42.1976 3.17196C43.5736 3.45734 45.0806 4.01418 46.2167 4.92865L22.4277 36.6201C23.0475 38.0237 24.1777 41.6076 23.7402 44.7138C23.2159 48.4358 20.4305 50.3487 17.0696 51.2715Z" fill="url(#paint12_radial_550_13346)"/>
  <path d="M17.0696 51.2715C16.9168 51.3249 16.77 51.3633 16.6308 51.3857C16.7781 51.3494 16.9244 51.3114 17.0696 51.2715C19.2786 50.5 22.7281 46.5979 22.0995 42.581C21.1498 36.5119 16.6547 33.4257 13.4186 31.8925C12.6766 31.541 12.4691 30.5539 13.0492 29.9727L38.4987 4.47384C39.4836 3.48708 40.8325 2.88886 42.1976 3.17196C43.5736 3.45734 45.0806 4.01418 46.2167 4.92865L22.4277 36.6201C23.0475 38.0237 24.1777 41.6076 23.7402 44.7138C23.2159 48.4358 20.4305 50.3487 17.0696 51.2715Z" fill="url(#paint13_radial_550_13346)"/>
  <path d="M17.0696 51.2715C16.9168 51.3249 16.77 51.3633 16.6308 51.3857C16.7781 51.3494 16.9244 51.3114 17.0696 51.2715C19.2786 50.5 22.7281 46.5979 22.0995 42.581C21.1498 36.5119 16.6547 33.4257 13.4186 31.8925C12.6766 31.541 12.4691 30.5539 13.0492 29.9727L38.4987 4.47384C39.4836 3.48708 40.8325 2.88886 42.1976 3.17196C43.5736 3.45734 45.0806 4.01418 46.2167 4.92865L22.4277 36.6201C23.0475 38.0237 24.1777 41.6076 23.7402 44.7138C23.2159 48.4358 20.4305 50.3487 17.0696 51.2715Z" fill="url(#paint14_radial_550_13346)"/>
  <path d="M17.0696 51.2715C16.9168 51.3249 16.77 51.3633 16.6308 51.3857C16.7781 51.3494 16.9244 51.3114 17.0696 51.2715C19.2786 50.5 22.7281 46.5979 22.0995 42.581C21.1498 36.5119 16.6547 33.4257 13.4186 31.8925C12.6766 31.541 12.4691 30.5539 13.0492 29.9727L38.4987 4.47384C39.4836 3.48708 40.8325 2.88886 42.1976 3.17196C43.5736 3.45734 45.0806 4.01418 46.2167 4.92865L22.4277 36.6201C23.0475 38.0237 24.1777 41.6076 23.7402 44.7138C23.2159 48.4358 20.4305 50.3487 17.0696 51.2715Z" fill="url(#paint15_radial_550_13346)"/>
  <path d="M17.0696 51.2715C16.9168 51.3249 16.77 51.3633 16.6308 51.3857C16.7781 51.3494 16.9244 51.3114 17.0696 51.2715C19.2786 50.5 22.7281 46.5979 22.0995 42.581C21.1498 36.5119 16.6547 33.4257 13.4186 31.8925C12.6766 31.541 12.4691 30.5539 13.0492 29.9727L38.4987 4.47384C39.4836 3.48708 40.8325 2.88886 42.1976 3.17196C43.5736 3.45734 45.0806 4.01418 46.2167 4.92865L22.4277 36.6201C23.0475 38.0237 24.1777 41.6076 23.7402 44.7138C23.2159 48.4358 20.4305 50.3487 17.0696 51.2715Z" fill="url(#paint16_radial_550_13346)"/>
  <path d="M17.0696 51.2715C16.9168 51.3249 16.77 51.3633 16.6308 51.3857C16.7781 51.3494 16.9244 51.3114 17.0696 51.2715C19.2786 50.5 22.7281 46.5979 22.0995 42.581C21.1498 36.5119 16.6547 33.4257 13.4186 31.8925C12.6766 31.541 12.4691 30.5539 13.0492 29.9727L38.4987 4.47384C39.4836 3.48708 40.8325 2.88886 42.1976 3.17196C43.5736 3.45734 45.0806 4.01418 46.2167 4.92865L22.4277 36.6201C23.0475 38.0237 24.1777 41.6076 23.7402 44.7138C23.2159 48.4358 20.4305 50.3487 17.0696 51.2715Z" fill="url(#paint17_radial_550_13346)"/>
  <path d="M17.0696 51.2715C16.9168 51.3249 16.77 51.3633 16.6308 51.3857C16.7781 51.3494 16.9244 51.3114 17.0696 51.2715C19.2786 50.5 22.7281 46.5979 22.0995 42.581C21.1498 36.5119 16.6547 33.4257 13.4186 31.8925C12.6766 31.541 12.4691 30.5539 13.0492 29.9727L38.4987 4.47384C39.4836 3.48708 40.8325 2.88886 42.1976 3.17196C43.5736 3.45734 45.0806 4.01418 46.2167 4.92865L22.4277 36.6201C23.0475 38.0237 24.1777 41.6076 23.7402 44.7138C23.2159 48.4358 20.4305 50.3487 17.0696 51.2715Z" fill="url(#paint18_radial_550_13346)"/>
  <path d="M17.0696 51.2715C16.9168 51.3249 16.77 51.3633 16.6308 51.3857C16.7781 51.3494 16.9244 51.3114 17.0696 51.2715C19.2786 50.5 22.7281 46.5979 22.0995 42.581C21.1498 36.5119 16.6547 33.4257 13.4186 31.8925C12.6766 31.541 12.4691 30.5539 13.0492 29.9727L38.4987 4.47384C39.4836 3.48708 40.8325 2.88886 42.1976 3.17196C43.5736 3.45734 45.0806 4.01418 46.2167 4.92865L22.4277 36.6201C23.0475 38.0237 24.1777 41.6076 23.7402 44.7138C23.2159 48.4358 20.4305 50.3487 17.0696 51.2715Z" fill="url(#paint19_radial_550_13346)"/>
  <path d="M22.3191 49.3811C20.446 51.0217 17.4154 51.5549 16.5222 51.3362C26.739 48.2988 22.6217 38.0828 17.0122 32.7474C16.2419 32.0148 16.1553 30.7734 16.908 30.0228L42.9633 4.04141C43.8567 3.1506 45.1458 2.73552 46.2468 3.35162C48.1536 4.41874 50.6981 6.70945 51.987 10.7717C53.7761 16.4101 51.7007 19.7009 50.0456 21.3811C41.6602 29.8941 24.4605 47.5054 22.3191 49.3811Z" fill="#F8F4FC"/>
  <path d="M22.3191 49.3811C20.446 51.0217 17.4154 51.5549 16.5222 51.3362C26.739 48.2988 22.6217 38.0828 17.0122 32.7474C16.2419 32.0148 16.1553 30.7734 16.908 30.0228L42.9633 4.04141C43.8567 3.1506 45.1458 2.73552 46.2468 3.35162C48.1536 4.41874 50.6981 6.70945 51.987 10.7717C53.7761 16.4101 51.7007 19.7009 50.0456 21.3811C41.6602 29.8941 24.4605 47.5054 22.3191 49.3811Z" fill="url(#paint20_linear_550_13346)"/>
  <path d="M22.3191 49.3811C20.446 51.0217 17.4154 51.5549 16.5222 51.3362C26.739 48.2988 22.6217 38.0828 17.0122 32.7474C16.2419 32.0148 16.1553 30.7734 16.908 30.0228L42.9633 4.04141C43.8567 3.1506 45.1458 2.73552 46.2468 3.35162C48.1536 4.41874 50.6981 6.70945 51.987 10.7717C53.7761 16.4101 51.7007 19.7009 50.0456 21.3811C41.6602 29.8941 24.4605 47.5054 22.3191 49.3811Z" fill="url(#paint21_linear_550_13346)"/>
  <path d="M22.3191 49.3811C20.446 51.0217 17.4154 51.5549 16.5222 51.3362C26.739 48.2988 22.6217 38.0828 17.0122 32.7474C16.2419 32.0148 16.1553 30.7734 16.908 30.0228L42.9633 4.04141C43.8567 3.1506 45.1458 2.73552 46.2468 3.35162C48.1536 4.41874 50.6981 6.70945 51.987 10.7717C53.7761 16.4101 51.7007 19.7009 50.0456 21.3811C41.6602 29.8941 24.4605 47.5054 22.3191 49.3811Z" fill="url(#paint22_radial_550_13346)"/>
  <path d="M22.3191 49.3811C20.446 51.0217 17.4154 51.5549 16.5222 51.3362C26.739 48.2988 22.6217 38.0828 17.0122 32.7474C16.2419 32.0148 16.1553 30.7734 16.908 30.0228L42.9633 4.04141C43.8567 3.1506 45.1458 2.73552 46.2468 3.35162C48.1536 4.41874 50.6981 6.70945 51.987 10.7717C53.7761 16.4101 51.7007 19.7009 50.0456 21.3811C41.6602 29.8941 24.4605 47.5054 22.3191 49.3811Z" fill="url(#paint23_radial_550_13346)"/>
  <path d="M22.3191 49.3811C20.446 51.0217 17.4154 51.5549 16.5222 51.3362C26.739 48.2988 22.6217 38.0828 17.0122 32.7474C16.2419 32.0148 16.1553 30.7734 16.908 30.0228L42.9633 4.04141C43.8567 3.1506 45.1458 2.73552 46.2468 3.35162C48.1536 4.41874 50.6981 6.70945 51.987 10.7717C53.7761 16.4101 51.7007 19.7009 50.0456 21.3811C41.6602 29.8941 24.4605 47.5054 22.3191 49.3811Z" fill="url(#paint24_radial_550_13346)"/>
  <path d="M22.3191 49.3811C20.446 51.0217 17.4154 51.5549 16.5222 51.3362C26.739 48.2988 22.6217 38.0828 17.0122 32.7474C16.2419 32.0148 16.1553 30.7734 16.908 30.0228L42.9633 4.04141C43.8567 3.1506 45.1458 2.73552 46.2468 3.35162C48.1536 4.41874 50.6981 6.70945 51.987 10.7717C53.7761 16.4101 51.7007 19.7009 50.0456 21.3811C41.6602 29.8941 24.4605 47.5054 22.3191 49.3811Z" fill="url(#paint25_radial_550_13346)"/>
  <path d="M22.3191 49.3811C20.446 51.0217 17.4154 51.5549 16.5222 51.3362C26.739 48.2988 22.6217 38.0828 17.0122 32.7474C16.2419 32.0148 16.1553 30.7734 16.908 30.0228L42.9633 4.04141C43.8567 3.1506 45.1458 2.73552 46.2468 3.35162C48.1536 4.41874 50.6981 6.70945 51.987 10.7717C53.7761 16.4101 51.7007 19.7009 50.0456 21.3811C41.6602 29.8941 24.4605 47.5054 22.3191 49.3811Z" fill="url(#paint26_radial_550_13346)"/>
  <path d="M22.3191 49.3811C20.446 51.0217 17.4154 51.5549 16.5222 51.3362C26.739 48.2988 22.6217 38.0828 17.0122 32.7474C16.2419 32.0148 16.1553 30.7734 16.908 30.0228L42.9633 4.04141C43.8567 3.1506 45.1458 2.73552 46.2468 3.35162C48.1536 4.41874 50.6981 6.70945 51.987 10.7717C53.7761 16.4101 51.7007 19.7009 50.0456 21.3811C41.6602 29.8941 24.4605 47.5054 22.3191 49.3811Z" fill="url(#paint27_radial_550_13346)"/>
  <path d="M22.3191 49.3811C20.446 51.0217 17.4154 51.5549 16.5222 51.3362C26.739 48.2988 22.6217 38.0828 17.0122 32.7474C16.2419 32.0148 16.1553 30.7734 16.908 30.0228L42.9633 4.04141C43.8567 3.1506 45.1458 2.73552 46.2468 3.35162C48.1536 4.41874 50.6981 6.70945 51.987 10.7717C53.7761 16.4101 51.7007 19.7009 50.0456 21.3811C41.6602 29.8941 24.4605 47.5054 22.3191 49.3811Z" fill="url(#paint28_linear_550_13346)"/>
  <path d="M22.3191 49.3811C20.446 51.0217 17.4154 51.5549 16.5222 51.3362C26.739 48.2988 22.6217 38.0828 17.0122 32.7474C16.2419 32.0148 16.1553 30.7734 16.908 30.0228L42.9633 4.04141C43.8567 3.1506 45.1458 2.73552 46.2468 3.35162C48.1536 4.41874 50.6981 6.70945 51.987 10.7717C53.7761 16.4101 51.7007 19.7009 50.0456 21.3811C41.6602 29.8941 24.4605 47.5054 22.3191 49.3811Z" fill="url(#paint29_radial_550_13346)"/>
  <path d="M22.3191 49.3811C20.446 51.0217 17.4154 51.5549 16.5222 51.3362C26.739 48.2988 22.6217 38.0828 17.0122 32.7474C16.2419 32.0148 16.1553 30.7734 16.908 30.0228L42.9633 4.04141C43.8567 3.1506 45.1458 2.73552 46.2468 3.35162C48.1536 4.41874 50.6981 6.70945 51.987 10.7717C53.7761 16.4101 51.7007 19.7009 50.0456 21.3811C41.6602 29.8941 24.4605 47.5054 22.3191 49.3811Z" fill="url(#paint30_radial_550_13346)"/>
  <path d="M22.3191 49.3811C20.446 51.0217 17.4154 51.5549 16.5222 51.3362C26.739 48.2988 22.6217 38.0828 17.0122 32.7474C16.2419 32.0148 16.1553 30.7734 16.908 30.0228L42.9633 4.04141C43.8567 3.1506 45.1458 2.73552 46.2468 3.35162C48.1536 4.41874 50.6981 6.70945 51.987 10.7717C53.7761 16.4101 51.7007 19.7009 50.0456 21.3811C41.6602 29.8941 24.4605 47.5054 22.3191 49.3811Z" fill="url(#paint31_radial_550_13346)"/>
  <path d="M22.3191 49.3811C20.446 51.0217 17.4154 51.5549 16.5222 51.3362C26.739 48.2988 22.6217 38.0828 17.0122 32.7474C16.2419 32.0148 16.1553 30.7734 16.908 30.0228L42.9633 4.04141C43.8567 3.1506 45.1458 2.73552 46.2468 3.35162C48.1536 4.41874 50.6981 6.70945 51.987 10.7717C53.7761 16.4101 51.7007 19.7009 50.0456 21.3811C41.6602 29.8941 24.4605 47.5054 22.3191 49.3811Z" fill="url(#paint32_radial_550_13346)"/>
  <path d="M22.3191 49.3811C20.446 51.0217 17.4154 51.5549 16.5222 51.3362C26.739 48.2988 22.6217 38.0828 17.0122 32.7474C16.2419 32.0148 16.1553 30.7734 16.908 30.0228L42.9633 4.04141C43.8567 3.1506 45.1458 2.73552 46.2468 3.35162C48.1536 4.41874 50.6981 6.70945 51.987 10.7717C53.7761 16.4101 51.7007 19.7009 50.0456 21.3811C41.6602 29.8941 24.4605 47.5054 22.3191 49.3811Z" fill="url(#paint33_radial_550_13346)"/>
  <path d="M22.3191 49.3811C20.446 51.0217 17.4154 51.5549 16.5222 51.3362C26.739 48.2988 22.6217 38.0828 17.0122 32.7474C16.2419 32.0148 16.1553 30.7734 16.908 30.0228L42.9633 4.04141C43.8567 3.1506 45.1458 2.73552 46.2468 3.35162C48.1536 4.41874 50.6981 6.70945 51.987 10.7717C53.7761 16.4101 51.7007 19.7009 50.0456 21.3811C41.6602 29.8941 24.4605 47.5054 22.3191 49.3811Z" fill="url(#paint34_radial_550_13346)"/>
  <path d="M22.3191 49.3811C20.446 51.0217 17.4154 51.5549 16.5222 51.3362C26.739 48.2988 22.6217 38.0828 17.0122 32.7474C16.2419 32.0148 16.1553 30.7734 16.908 30.0228L42.9633 4.04141C43.8567 3.1506 45.1458 2.73552 46.2468 3.35162C48.1536 4.41874 50.6981 6.70945 51.987 10.7717C53.7761 16.4101 51.7007 19.7009 50.0456 21.3811C41.6602 29.8941 24.4605 47.5054 22.3191 49.3811Z" fill="url(#paint35_radial_550_13346)"/>
  <path d="M22.3191 49.3811C20.446 51.0217 17.4154 51.5549 16.5222 51.3362C26.739 48.2988 22.6217 38.0828 17.0122 32.7474C16.2419 32.0148 16.1553 30.7734 16.908 30.0228L42.9633 4.04141C43.8567 3.1506 45.1458 2.73552 46.2468 3.35162C48.1536 4.41874 50.6981 6.70945 51.987 10.7717C53.7761 16.4101 51.7007 19.7009 50.0456 21.3811C41.6602 29.8941 24.4605 47.5054 22.3191 49.3811Z" fill="url(#paint36_radial_550_13346)"/>
  <path d="M22.3191 49.3811C20.446 51.0217 17.4154 51.5549 16.5222 51.3362C26.739 48.2988 22.6217 38.0828 17.0122 32.7474C16.2419 32.0148 16.1553 30.7734 16.908 30.0228L42.9633 4.04141C43.8567 3.1506 45.1458 2.73552 46.2468 3.35162C48.1536 4.41874 50.6981 6.70945 51.987 10.7717C53.7761 16.4101 51.7007 19.7009 50.0456 21.3811C41.6602 29.8941 24.4605 47.5054 22.3191 49.3811Z" fill="url(#paint37_radial_550_13346)"/>
  <path fill-rule="evenodd" clip-rule="evenodd" d="M42.7103 6.8935C42.8771 6.43995 43.38 6.20752 43.8335 6.37434C45.0983 6.83955 46.7727 7.64637 48.279 9.25707C49.7903 10.8732 51.0824 13.2449 51.668 16.7587C51.7475 17.2354 51.4254 17.6862 50.9488 17.7657C50.4721 17.8451 50.0213 17.5231 49.9418 17.0464C49.4064 13.8337 48.2511 11.7894 47.0008 10.4524C45.7454 9.10996 44.3435 8.42655 43.2294 8.01676C42.7759 7.84994 42.5434 7.34704 42.7103 6.8935ZM40.9078 9.43684C40.4542 9.27002 39.9513 9.50245 39.7845 9.956C39.6177 10.4095 39.8501 10.9124 40.3036 11.0793C41.4066 11.4849 42.8572 12.2193 44.1293 13.6131C45.3941 14.9987 46.5263 17.0834 46.929 20.2663C46.9897 20.7458 47.4275 21.0852 47.9069 21.0246C48.3864 20.9639 48.7258 20.5261 48.6652 20.0466C48.2203 16.5303 46.9462 14.1034 45.4219 12.4333C43.905 10.7714 42.1837 9.90616 40.9078 9.43684ZM26.0141 24.7362C25.5684 24.5494 25.0557 24.7594 24.869 25.2051C24.6822 25.6508 24.8922 26.1635 25.3379 26.3503C27.0985 27.0878 30.755 30.036 31.4519 35.766C31.5103 36.2457 31.9465 36.5873 32.4262 36.529C32.9059 36.4707 33.2475 36.0345 33.1891 35.5548C32.4095 29.1442 28.3004 25.694 26.0141 24.7362ZM28.2111 21.5244L35.9121 13.9682C36.0639 13.8193 36.275 13.7456 36.4848 13.7801C39.6068 14.2944 44.0616 16.9232 44.3718 23.7124C44.3805 23.9029 44.307 24.0906 44.173 24.2263L36.7786 31.7143C36.3639 32.1342 35.6266 31.8866 35.4899 31.3125C34.7868 28.3616 32.7801 24.7432 28.4388 22.7166C27.9757 22.5004 27.8463 21.8824 28.2111 21.5244Z" fill="url(#paint38_linear_550_13346)"/>
  <path d="M7.5405 44.328C5.06862 40.1498 7.69545 36.4803 9.31784 35.1678C11.8608 34.3201 14.9005 35.1678 17.3296 37.1092C20.939 39.9938 21.4995 44.5329 20.2964 46.447C19.3339 47.9782 17.0653 49.0402 16.0718 49.3045C18.8812 47.1714 18.8282 45.0549 18.9263 43.7318C18.8285 44.498 18.321 45.7201 17.1929 46.5975C15.9624 47.5545 10.6303 49.5506 7.5405 44.328Z" fill="#A895BC"/>
  <path d="M7.5405 44.328C5.06862 40.1498 7.69545 36.4803 9.31784 35.1678C11.8608 34.3201 14.9005 35.1678 17.3296 37.1092C20.939 39.9938 21.4995 44.5329 20.2964 46.447C19.3339 47.9782 17.0653 49.0402 16.0718 49.3045C18.8812 47.1714 18.8282 45.0549 18.9263 43.7318C18.8285 44.498 18.321 45.7201 17.1929 46.5975C15.9624 47.5545 10.6303 49.5506 7.5405 44.328Z" fill="url(#paint39_radial_550_13346)"/>
  <path d="M7.5405 44.328C5.06862 40.1498 7.69545 36.4803 9.31784 35.1678C11.8608 34.3201 14.9005 35.1678 17.3296 37.1092C20.939 39.9938 21.4995 44.5329 20.2964 46.447C19.3339 47.9782 17.0653 49.0402 16.0718 49.3045C18.8812 47.1714 18.8282 45.0549 18.9263 43.7318C18.8285 44.498 18.321 45.7201 17.1929 46.5975C15.9624 47.5545 10.6303 49.5506 7.5405 44.328Z" fill="url(#paint40_radial_550_13346)"/>
  <path d="M9.75031 40.9237C10.4831 40.4643 11.7965 39.0369 12.3616 38.3807C13.6742 38.3807 14.8053 39.0405 15.5336 39.8026C17.3519 41.4842 17.2426 43.6033 16.7777 44.6697C16.2273 45.9324 14.7816 46.9438 13.7972 47.1717L13.934 47.8006C15.855 47.6231 18.3773 46.57 18.8558 44.3142C19.2581 42.4179 18.3672 39.8134 15.7386 37.7927C13.9065 36.3842 12.0647 36.424 11.0649 36.5865C10.7477 36.6381 10.4622 36.8035 10.2521 37.0465C9.36097 38.0776 8.45908 39.6006 8.41047 40.2811C8.35578 41.0467 8.8343 41.4979 9.75031 40.9237Z" fill="#AE9AC2"/>
  <path d="M9.75031 40.9237C10.4831 40.4643 11.7965 39.0369 12.3616 38.3807C13.6742 38.3807 14.8053 39.0405 15.5336 39.8026C17.3519 41.4842 17.2426 43.6033 16.7777 44.6697C16.2273 45.9324 14.7816 46.9438 13.7972 47.1717L13.934 47.8006C15.855 47.6231 18.3773 46.57 18.8558 44.3142C19.2581 42.4179 18.3672 39.8134 15.7386 37.7927C13.9065 36.3842 12.0647 36.424 11.0649 36.5865C10.7477 36.6381 10.4622 36.8035 10.2521 37.0465C9.36097 38.0776 8.45908 39.6006 8.41047 40.2811C8.35578 41.0467 8.8343 41.4979 9.75031 40.9237Z" fill="url(#paint41_radial_550_13346)"/>
  <path d="M9.75031 40.9237C10.4831 40.4643 11.7965 39.0369 12.3616 38.3807C13.6742 38.3807 14.8053 39.0405 15.5336 39.8026C17.3519 41.4842 17.2426 43.6033 16.7777 44.6697C16.2273 45.9324 14.7816 46.9438 13.7972 47.1717L13.934 47.8006C15.855 47.6231 18.3773 46.57 18.8558 44.3142C19.2581 42.4179 18.3672 39.8134 15.7386 37.7927C13.9065 36.3842 12.0647 36.424 11.0649 36.5865C10.7477 36.6381 10.4622 36.8035 10.2521 37.0465C9.36097 38.0776 8.45908 39.6006 8.41047 40.2811C8.35578 41.0467 8.8343 41.4979 9.75031 40.9237Z" fill="url(#paint42_radial_550_13346)"/>
  <path d="M9.75031 40.9237C10.4831 40.4643 11.7965 39.0369 12.3616 38.3807C13.6742 38.3807 14.8053 39.0405 15.5336 39.8026C17.3519 41.4842 17.2426 43.6033 16.7777 44.6697C16.2273 45.9324 14.7816 46.9438 13.7972 47.1717L13.934 47.8006C15.855 47.6231 18.3773 46.57 18.8558 44.3142C19.2581 42.4179 18.3672 39.8134 15.7386 37.7927C13.9065 36.3842 12.0647 36.424 11.0649 36.5865C10.7477 36.6381 10.4622 36.8035 10.2521 37.0465C9.36097 38.0776 8.45908 39.6006 8.41047 40.2811C8.35578 41.0467 8.8343 41.4979 9.75031 40.9237Z" fill="url(#paint43_radial_550_13346)"/>
  <path d="M8.94922 40.6094C9.24089 39.8346 10.3323 38.0117 12.4219 38.0117C14.5547 38.0117 16.5191 39.3266 17.2891 41.9492C18.1641 44.9297 16.3867 46.5703 15.2383 47.0625" stroke="url(#paint44_radial_550_13346)" stroke-width="0.2625"/>
  <defs>
    <radialGradient id="paint0_radial_550_13346" cx="0" cy="0" r="1" gradientUnits="userSpaceOnUse" gradientTransform="translate(16.25 41.7715) rotate(161.924) scale(10.2973 10.5356)">
      <stop offset="0.746412" stop-color="#9B8BAB"/>
      <stop offset="1" stop-color="#C5B4D7"/>
    </radialGradient>
    <radialGradient id="paint1_radial_550_13346" cx="0" cy="0" r="1" gradientUnits="userSpaceOnUse" gradientTransform="translate(14.8798 40.7188) rotate(154.73) scale(9.73637 10.2838)">
      <stop offset="0.796482" stop-color="#9B8BAB"/>
      <stop offset="1" stop-color="#C5B4D7"/>
    </radialGradient>
    <radialGradient id="paint2_radial_550_13346" cx="0" cy="0" r="1" gradientUnits="userSpaceOnUse" gradientTransform="translate(17.4487 38.9141) rotate(154.879) scale(10.9207 11.9791)">
      <stop offset="0.24514" stop-color="#645E6C"/>
      <stop offset="1" stop-color="#B3A4C3"/>
    </radialGradient>
    <linearGradient id="paint3_linear_550_13346" x1="26.0938" y1="33.0646" x2="17.4531" y2="24.2599" gradientUnits="userSpaceOnUse">
      <stop offset="0.561506" stop-color="#A69AB4"/>
      <stop offset="1" stop-color="#A69AB4" stop-opacity="0"/>
    </linearGradient>
    <radialGradient id="paint4_radial_550_13346" cx="0" cy="0" r="1" gradientUnits="userSpaceOnUse" gradientTransform="translate(12.2578 41.9239) rotate(-139.912) scale(9.93598 7.62481)">
      <stop offset="0.80485" stop-color="#BEACD1"/>
      <stop offset="1" stop-color="#BEACD1" stop-opacity="0"/>
    </radialGradient>
    <linearGradient id="paint5_linear_550_13346" x1="20.455" y1="27.9325" x2="46.2167" y2="3.10156" gradientUnits="userSpaceOnUse">
      <stop stop-color="#C5BECC"/>
      <stop offset="1" stop-color="#C0BCC5"/>
    </linearGradient>
    <linearGradient id="paint6_linear_550_13346" x1="34.2401" y1="18.6826" x2="29.9198" y2="14.1435" gradientUnits="userSpaceOnUse">
      <stop offset="0.440726" stop-color="#C0BAC6"/>
      <stop offset="1" stop-color="#C0BAC6" stop-opacity="0"/>
    </linearGradient>
    <linearGradient id="paint7_linear_550_13346" x1="26.5159" y1="16.3271" x2="26.7991" y2="16.6103" gradientUnits="userSpaceOnUse">
      <stop stop-color="#B6B3BB"/>
      <stop offset="0.932292" stop-color="#B6B3BB" stop-opacity="0"/>
    </linearGradient>
    <radialGradient id="paint8_radial_550_13346" cx="0" cy="0" r="1" gradientUnits="userSpaceOnUse" gradientTransform="translate(12.7984 30.406) rotate(134.412) scale(1.54365 0.293772)">
      <stop stop-color="#B6B3BB"/>
      <stop offset="1" stop-color="#B6B3BB" stop-opacity="0"/>
    </radialGradient>
    <radialGradient id="paint9_radial_550_13346" cx="0" cy="0" r="1" gradientUnits="userSpaceOnUse" gradientTransform="translate(12.6127 30.7488) rotate(83.7655) scale(1.70973 0.325379)">
      <stop stop-color="#B6B3BB"/>
      <stop offset="1" stop-color="#B6B3BB" stop-opacity="0"/>
    </radialGradient>
    <radialGradient id="paint10_radial_550_13346" cx="0" cy="0" r="1" gradientUnits="userSpaceOnUse" gradientTransform="translate(12.6555 30.993) rotate(59.4625) scale(1.10322 0.209953)">
      <stop stop-color="#B6B3BB"/>
      <stop offset="1" stop-color="#B6B3BB" stop-opacity="0"/>
    </radialGradient>
    <radialGradient id="paint11_radial_550_13346" cx="0" cy="0" r="1" gradientUnits="userSpaceOnUse" gradientTransform="translate(12.8879 31.4989) rotate(39.2559) scale(1.64205 0.217751)">
      <stop stop-color="#B6B3BB"/>
      <stop offset="1" stop-color="#B6B3BB" stop-opacity="0"/>
    </radialGradient>
    <radialGradient id="paint12_radial_550_13346" cx="0" cy="0" r="1" gradientUnits="userSpaceOnUse" gradientTransform="translate(14.1799 32.3124) rotate(30.5537) scale(1.80195 0.238956)">
      <stop stop-color="#B6B3BB"/>
      <stop offset="1" stop-color="#B6B3BB" stop-opacity="0"/>
    </radialGradient>
    <radialGradient id="paint13_radial_550_13346" cx="0" cy="0" r="1" gradientUnits="userSpaceOnUse" gradientTransform="translate(15.2258 32.9003) rotate(34.3345) scale(1.85435 0.245904)">
      <stop stop-color="#B6B3BB"/>
      <stop offset="1" stop-color="#B6B3BB" stop-opacity="0"/>
    </radialGradient>
    <radialGradient id="paint14_radial_550_13346" cx="0" cy="0" r="1" gradientUnits="userSpaceOnUse" gradientTransform="translate(16.6682 33.9174) rotate(40.7184) scale(2.38836 0.316718)">
      <stop stop-color="#B6B3BB"/>
      <stop offset="1" stop-color="#B6B3BB" stop-opacity="0"/>
    </radialGradient>
    <radialGradient id="paint15_radial_550_13346" cx="0" cy="0" r="1" gradientUnits="userSpaceOnUse" gradientTransform="translate(17.7669 34.6649) rotate(45.8488) scale(1.71959 0.228033)">
      <stop stop-color="#B6B3BB"/>
      <stop offset="1" stop-color="#B6B3BB" stop-opacity="0"/>
    </radialGradient>
    <radialGradient id="paint16_radial_550_13346" cx="0" cy="0" r="1" gradientUnits="userSpaceOnUse" gradientTransform="translate(19.2437 36.2962) rotate(55.3438) scale(2.06064 0.27326)">
      <stop stop-color="#B6B3BB"/>
      <stop offset="1" stop-color="#B6B3BB" stop-opacity="0"/>
    </radialGradient>
    <radialGradient id="paint17_radial_550_13346" cx="0" cy="0" r="1" gradientUnits="userSpaceOnUse" gradientTransform="translate(20.5186 38.0723) rotate(62.1028) scale(1.27583 0.169187)">
      <stop stop-color="#B6B3BB"/>
      <stop offset="1" stop-color="#B6B3BB" stop-opacity="0"/>
    </radialGradient>
    <radialGradient id="paint18_radial_550_13346" cx="0" cy="0" r="1" gradientUnits="userSpaceOnUse" gradientTransform="translate(21.2556 39.7526) rotate(71.8405) scale(1.93901 0.257131)">
      <stop stop-color="#B6B3BB"/>
      <stop offset="1" stop-color="#B6B3BB" stop-opacity="0"/>
    </radialGradient>
    <radialGradient id="paint19_radial_550_13346" cx="0" cy="0" r="1" gradientUnits="userSpaceOnUse" gradientTransform="translate(21.6584 41.8212) rotate(72.5867) scale(1.57614 0.804274)">
      <stop stop-color="#B6B3BB"/>
      <stop offset="1" stop-color="#B6B3BB" stop-opacity="0"/>
    </radialGradient>
    <linearGradient id="paint20_linear_550_13346" x1="37.3034" y1="34.9766" x2="32.819" y2="30.4923" gradientUnits="userSpaceOnUse">
      <stop stop-color="#CFC4DB"/>
      <stop offset="1" stop-color="#CFC4DB" stop-opacity="0"/>
    </linearGradient>
    <linearGradient id="paint21_linear_550_13346" x1="25.6003" y1="18.461" x2="30.5222" y2="23.3829" gradientUnits="userSpaceOnUse">
      <stop stop-color="#DBD5E2"/>
      <stop offset="1" stop-color="#DBD5E2" stop-opacity="0"/>
    </linearGradient>
    <radialGradient id="paint22_radial_550_13346" cx="0" cy="0" r="1" gradientUnits="userSpaceOnUse" gradientTransform="translate(16.7491 33.187) rotate(45.9094) scale(5.3057 1.3871)">
      <stop stop-color="#CECBD2"/>
      <stop offset="1" stop-color="#CDCBD2" stop-opacity="0"/>
    </radialGradient>
    <radialGradient id="paint23_radial_550_13346" cx="0" cy="0" r="1" gradientUnits="userSpaceOnUse" gradientTransform="translate(20.4831 38.1729) rotate(62.2132) scale(3.88589 1.01591)">
      <stop stop-color="#CECBD2"/>
      <stop offset="1" stop-color="#CDCBD2" stop-opacity="0"/>
    </radialGradient>
    <radialGradient id="paint24_radial_550_13346" cx="0" cy="0" r="1" gradientUnits="userSpaceOnUse" gradientTransform="translate(22.027 42.1459) rotate(82.3395) scale(3.55184 0.928579)">
      <stop stop-color="#CECBD2"/>
      <stop offset="1" stop-color="#CDCBD2" stop-opacity="0"/>
    </radialGradient>
    <radialGradient id="paint25_radial_550_13346" cx="0" cy="0" r="1" gradientUnits="userSpaceOnUse" gradientTransform="translate(22.2741 44.9456) rotate(96.2968) scale(3.00304 0.785101)">
      <stop stop-color="#CECBD2"/>
      <stop offset="1" stop-color="#CDCBD2" stop-opacity="0"/>
    </radialGradient>
    <radialGradient id="paint26_radial_550_13346" cx="0" cy="0" r="1" gradientUnits="userSpaceOnUse" gradientTransform="translate(21.5246 47.5517) rotate(124.606) scale(2.39073 0.625023)">
      <stop stop-color="#CECBD2"/>
      <stop offset="1" stop-color="#CDCBD2" stop-opacity="0"/>
    </radialGradient>
    <radialGradient id="paint27_radial_550_13346" cx="0" cy="0" r="1" gradientUnits="userSpaceOnUse" gradientTransform="translate(20.4424 49.1456) rotate(145.045) scale(2.47289 0.646501)">
      <stop stop-color="#CECBD2"/>
      <stop offset="1" stop-color="#CDCBD2" stop-opacity="0"/>
    </radialGradient>
    <linearGradient id="paint28_linear_550_13346" x1="29.4181" y1="17.6245" x2="29.6935" y2="17.8999" gradientUnits="userSpaceOnUse">
      <stop stop-color="#CECBD2"/>
      <stop offset="1" stop-color="#CECBD2" stop-opacity="0"/>
    </linearGradient>
    <radialGradient id="paint29_radial_550_13346" cx="0" cy="0" r="1" gradientUnits="userSpaceOnUse" gradientTransform="translate(16.3867 29.8824) rotate(82.514) scale(2.82037 0.737346)">
      <stop stop-color="#CECBD2"/>
      <stop offset="1" stop-color="#CDCBD2" stop-opacity="0"/>
    </radialGradient>
    <radialGradient id="paint30_radial_550_13346" cx="0" cy="0" r="1" gradientUnits="userSpaceOnUse" gradientTransform="translate(48.0409 3.52995) rotate(119.822) scale(1.37751 9.67673)">
      <stop stop-color="#CECBD2"/>
      <stop offset="1" stop-color="#CECBD2" stop-opacity="0"/>
    </radialGradient>
    <radialGradient id="paint31_radial_550_13346" cx="0" cy="0" r="1" gradientUnits="userSpaceOnUse" gradientTransform="translate(45.7689 2.77087) rotate(105.134) scale(0.914156 6.42177)">
      <stop stop-color="#CECBD2"/>
      <stop offset="1" stop-color="#CECBD2" stop-opacity="0"/>
    </radialGradient>
    <radialGradient id="paint32_radial_550_13346" cx="0" cy="0" r="1" gradientUnits="userSpaceOnUse" gradientTransform="translate(44.9225 2.79713) rotate(72.6995) scale(0.750485 5.27201)">
      <stop stop-color="#CECBD2"/>
      <stop offset="1" stop-color="#CECBD2" stop-opacity="0"/>
    </radialGradient>
    <radialGradient id="paint33_radial_550_13346" cx="0" cy="0" r="1" gradientUnits="userSpaceOnUse" gradientTransform="translate(49.0817 4.90283) rotate(139.206) scale(1.05044 7.37914)">
      <stop stop-color="#CECBD2"/>
      <stop offset="1" stop-color="#CECBD2" stop-opacity="0"/>
    </radialGradient>
    <radialGradient id="paint34_radial_550_13346" cx="0" cy="0" r="1" gradientUnits="userSpaceOnUse" gradientTransform="translate(50.9593 7.52738) rotate(155.433) scale(0.601544 4.22573)">
      <stop stop-color="#CECBD2"/>
      <stop offset="1" stop-color="#CECBD2" stop-opacity="0"/>
    </radialGradient>
    <radialGradient id="paint35_radial_550_13346" cx="0" cy="0" r="1" gradientUnits="userSpaceOnUse" gradientTransform="translate(51.3334 7.64139) rotate(151.928) scale(1.03457 7.26764)">
      <stop stop-color="#CECBD2"/>
      <stop offset="1" stop-color="#CECBD2" stop-opacity="0"/>
    </radialGradient>
    <radialGradient id="paint36_radial_550_13346" cx="0" cy="0" r="1" gradientUnits="userSpaceOnUse" gradientTransform="translate(52.3558 10.9687) rotate(165.964) scale(0.697758 4.90162)">
      <stop stop-color="#CECBD2"/>
      <stop offset="1" stop-color="#CECBD2" stop-opacity="0"/>
    </radialGradient>
    <radialGradient id="paint37_radial_550_13346" cx="0" cy="0" r="1" gradientUnits="userSpaceOnUse" gradientTransform="translate(52.8394 13.9907) rotate(175.782) scale(0.490473 3.44548)">
      <stop stop-color="#CECBD2"/>
      <stop offset="1" stop-color="#CECBD2" stop-opacity="0"/>
    </radialGradient>
    <linearGradient id="paint38_linear_550_13346" x1="32.3161" y1="20.3695" x2="39.9221" y2="28.5237" gradientUnits="userSpaceOnUse">
      <stop stop-color="#B9B7BD"/>
      <stop offset="1" stop-color="#A5A1AA"/>
    </linearGradient>
    <radialGradient id="paint39_radial_550_13346" cx="0" cy="0" r="1" gradientUnits="userSpaceOnUse" gradientTransform="translate(15.0441 40.8825) rotate(147.95) scale(7.41999 8.38895)">
      <stop offset="0.343854" stop-color="#645D6C"/>
      <stop offset="1" stop-color="#645D6C" stop-opacity="0"/>
    </radialGradient>
    <radialGradient id="paint40_radial_550_13346" cx="0" cy="0" r="1" gradientUnits="userSpaceOnUse" gradientTransform="translate(10.1769 45.0388) rotate(-38.3036) scale(9.61707 9.53505)">
      <stop offset="0.815618" stop-color="#A694B9" stop-opacity="0"/>
      <stop offset="0.993436" stop-color="#A694B9"/>
    </radialGradient>
    <radialGradient id="paint41_radial_550_13346" cx="0" cy="0" r="1" gradientUnits="userSpaceOnUse" gradientTransform="translate(11.5392 40.3357) rotate(149.589) scale(2.91695 2.0303)">
      <stop offset="0.474534" stop-color="#7F738B"/>
      <stop offset="1" stop-color="#7F738B" stop-opacity="0"/>
    </radialGradient>
    <radialGradient id="paint42_radial_550_13346" cx="0" cy="0" r="1" gradientUnits="userSpaceOnUse" gradientTransform="translate(12.6877 44.1638) rotate(-45.8637) scale(7.69619 9.0489)">
      <stop offset="0.644736" stop-color="#A290B4" stop-opacity="0"/>
      <stop offset="0.925928" stop-color="#A290B4"/>
    </radialGradient>
    <radialGradient id="paint43_radial_550_13346" cx="0" cy="0" r="1" gradientUnits="userSpaceOnUse" gradientTransform="translate(13.6772 48.6482) rotate(-39.6945) scale(3.72464 3.47695)">
      <stop offset="0.308615" stop-color="#9B8AAD"/>
      <stop offset="1" stop-color="#9B8AAD" stop-opacity="0"/>
    </radialGradient>
    <radialGradient id="paint44_radial_550_13346" cx="0" cy="0" r="1" gradientUnits="userSpaceOnUse" gradientTransform="translate(14.418 38.6953) rotate(98.0393) scale(8.45023 10.595)">
      <stop stop-color="#BCA9CF"/>
      <stop offset="0.777535" stop-color="#BCA9CF" stop-opacity="0"/>
    </radialGradient>
  </defs>
</svg>