<svg xmlns="http://www.w3.org/2000/svg" width="56" height="56" viewBox="0 0 56 56" fill="none">
  <rect x="6.125" y="6.125" width="43.75" height="43.75" fill="url(#paint0_linear_1422_30829)"/>
  <circle cx="13.125" cy="21.5742" r="2.65234" fill="url(#paint1_radial_1422_30829)"/>
  <path d="M8.75 28.0005L6.72656 22.7512L8.75 17.502C10.7426 17.7914 12.3809 19.1746 13.0362 21.0228C13.0769 21.1375 13.2178 21.1835 13.3196 21.1169C13.9081 20.7321 14.6115 20.5083 15.3672 20.5083C17.4361 20.5083 19.1133 22.1855 19.1133 24.2544C19.1133 26.3233 17.4361 28.0005 15.3672 28.0005H8.75Z" fill="#DFDEFF"/>
  <path d="M8.75 28.0005L6.72656 22.7512L8.75 17.502C10.7426 17.7914 12.3809 19.1746 13.0362 21.0228C13.0769 21.1375 13.2178 21.1835 13.3196 21.1169C13.9081 20.7321 14.6115 20.5083 15.3672 20.5083C17.4361 20.5083 19.1133 22.1855 19.1133 24.2544C19.1133 26.3233 17.4361 28.0005 15.3672 28.0005H8.75Z" fill="url(#paint2_linear_1422_30829)"/>
  <path d="M8.75 28.0005L6.72656 22.7512L8.75 17.502C10.7426 17.7914 12.3809 19.1746 13.0362 21.0228C13.0769 21.1375 13.2178 21.1835 13.3196 21.1169C13.9081 20.7321 14.6115 20.5083 15.3672 20.5083C17.4361 20.5083 19.1133 22.1855 19.1133 24.2544C19.1133 26.3233 17.4361 28.0005 15.3672 28.0005H8.75Z" fill="url(#paint3_radial_1422_30829)"/>
  <path d="M8.75 28.0005L6.72656 22.7512L8.75 17.502C10.7426 17.7914 12.3809 19.1746 13.0362 21.0228C13.0769 21.1375 13.2178 21.1835 13.3196 21.1169C13.9081 20.7321 14.6115 20.5083 15.3672 20.5083C17.4361 20.5083 19.1133 22.1855 19.1133 24.2544C19.1133 26.3233 17.4361 28.0005 15.3672 28.0005H8.75Z" fill="url(#paint4_radial_1422_30829)"/>
  <circle cx="42.3285" cy="21.222" r="3.61852" fill="url(#paint5_radial_1422_30829)"/>
  <circle cx="42.3285" cy="21.222" r="3.61852" fill="url(#paint6_radial_1422_30829)"/>
  <path d="M40.7173 22.7283C42.5767 18.4459 45.8178 16.3247 47.25 16.0195L50.1484 25.7393H43.2001L40.7173 22.7283Z" fill="url(#paint7_radial_1422_30829)"/>
  <path d="M40.7173 22.7283C42.5767 18.4459 45.8178 16.3247 47.25 16.0195L50.1484 25.7393H43.2001L40.7173 22.7283Z" fill="url(#paint8_radial_1422_30829)"/>
  <circle cx="39.0366" cy="25.7832" r="5.67774" fill="url(#paint9_radial_1422_30829)"/>
  <path d="M13.1438 31.1632L8.75 33.6845L7.10938 48.7805H49.4922C49.4922 48.7805 47.25 22.3921 47.25 21.418C44.625 21.418 42.875 22.279 40.25 24.8621L32.375 32.6115C30.625 34.3337 29.0017 34.9989 27.2517 34.1378C26.6684 33.8507 24.5604 32.5136 21.9258 31.0216C19.2105 29.4838 15.0985 29.9451 13.1438 31.1632Z" fill="url(#paint10_radial_1422_30829)"/>
  <path d="M13.1438 31.1632L8.75 33.6845L7.10938 48.7805H49.4922C49.4922 48.7805 47.25 22.3921 47.25 21.418C44.625 21.418 42.875 22.279 40.25 24.8621L32.375 32.6115C30.625 34.3337 29.0017 34.9989 27.2517 34.1378C26.6684 33.8507 24.5604 32.5136 21.9258 31.0216C19.2105 29.4838 15.0985 29.9451 13.1438 31.1632Z" fill="url(#paint11_radial_1422_30829)"/>
  <path d="M13.1438 31.1632L8.75 33.6845L7.10938 48.7805H49.4922C49.4922 48.7805 47.25 22.3921 47.25 21.418C44.625 21.418 42.875 22.279 40.25 24.8621L32.375 32.6115C30.625 34.3337 29.0017 34.9989 27.2517 34.1378C26.6684 33.8507 24.5604 32.5136 21.9258 31.0216C19.2105 29.4838 15.0985 29.9451 13.1438 31.1632Z" fill="url(#paint12_radial_1422_30829)"/>
  <path d="M13.1438 31.1632L8.75 33.6845L7.10938 48.7805H49.4922C49.4922 48.7805 47.25 22.3921 47.25 21.418C44.625 21.418 42.875 22.279 40.25 24.8621L32.375 32.6115C30.625 34.3337 29.0017 34.9989 27.2517 34.1378C26.6684 33.8507 24.5604 32.5136 21.9258 31.0216C19.2105 29.4838 15.0985 29.9451 13.1438 31.1632Z" fill="url(#paint13_radial_1422_30829)"/>
  <path d="M13.1438 31.1632L8.75 33.6845L7.10938 48.7805H49.4922C49.4922 48.7805 47.25 22.3921 47.25 21.418C44.625 21.418 42.875 22.279 40.25 24.8621L32.375 32.6115C30.625 34.3337 29.0017 34.9989 27.2517 34.1378C26.6684 33.8507 24.5604 32.5136 21.9258 31.0216C19.2105 29.4838 15.0985 29.9451 13.1438 31.1632Z" fill="url(#paint14_radial_1422_30829)"/>
  <path d="M47.25 46.9201V47.25H8.75V46.92C13.2364 42.406 20.1916 39.375 27.9999 39.375C35.8083 39.375 42.7636 42.406 47.25 46.9201Z" fill="url(#paint15_radial_1422_30829)"/>
  <path d="M47.25 46.9201V47.25H8.75V46.92C13.2364 42.406 20.1916 39.375 27.9999 39.375C35.8083 39.375 42.7636 42.406 47.25 46.9201Z" fill="url(#paint16_radial_1422_30829)"/>
  <path d="M47.25 46.9201V47.25H8.75V46.92C13.2364 42.406 20.1916 39.375 27.9999 39.375C35.8083 39.375 42.7636 42.406 47.25 46.9201Z" fill="url(#paint17_radial_1422_30829)"/>
  <path d="M28.4366 12.1336C28.982 11.5196 29.7237 11.6173 30.1982 12.1336L30.4877 12.4687C30.5879 12.5777 30.7329 12.6343 30.8804 12.6218L31.395 12.4687C32.0963 12.3184 32.7336 12.8416 32.7336 13.6542V13.9604C32.7485 14.1275 32.8945 14.2408 33.0452 14.3144L33.5101 14.5086C34.1825 14.837 34.3506 15.6163 33.8608 16.2703L33.7216 16.454C33.5968 16.6227 33.6224 16.8442 33.7467 17.0134L33.8858 17.2082C34.3923 17.8316 34.1067 18.6869 33.3913 18.9857L32.9911 19.1529C32.8403 19.2158 32.7813 19.3239 32.7531 19.4848L32.7253 20.008C32.6279 20.726 31.9901 21.0503 31.4785 20.9779L30.869 20.8151C30.7226 20.7943 30.5406 20.8429 30.4432 20.996L30.2233 21.2965C29.6778 21.9116 28.9416 21.8093 28.5702 21.4496L28.1646 20.9584C28.0584 20.8555 27.9245 20.7677 27.7642 20.8282L27.1508 20.996C26.6443 21.0677 26.048 20.6783 25.9526 20.1758L25.8817 19.4486C25.853 19.2972 25.7531 19.1689 25.6135 19.1038L25.1832 18.956C24.5361 18.6544 24.3193 17.9244 24.6909 17.3148L24.9334 16.9793C25.0308 16.8195 25.0262 16.6176 24.9216 16.4623L24.7407 16.2063C24.2286 15.4771 24.5826 14.6621 25.3414 14.4178L25.5088 14.3639C25.6935 14.3044 25.872 14.151 25.8873 13.9576L25.9246 13.488C25.9851 12.7257 26.6806 12.2884 27.4122 12.5108L27.649 12.5827C27.8772 12.6718 28.056 12.596 28.1805 12.4603L28.4366 12.1336Z" fill="url(#paint18_linear_1422_30829)"/>
  <path d="M28.4366 12.1336C28.982 11.5196 29.7237 11.6173 30.1982 12.1336L30.4877 12.4687C30.5879 12.5777 30.7329 12.6343 30.8804 12.6218L31.395 12.4687C32.0963 12.3184 32.7336 12.8416 32.7336 13.6542V13.9604C32.7485 14.1275 32.8945 14.2408 33.0452 14.3144L33.5101 14.5086C34.1825 14.837 34.3506 15.6163 33.8608 16.2703L33.7216 16.454C33.5968 16.6227 33.6224 16.8442 33.7467 17.0134L33.8858 17.2082C34.3923 17.8316 34.1067 18.6869 33.3913 18.9857L32.9911 19.1529C32.8403 19.2158 32.7813 19.3239 32.7531 19.4848L32.7253 20.008C32.6279 20.726 31.9901 21.0503 31.4785 20.9779L30.869 20.8151C30.7226 20.7943 30.5406 20.8429 30.4432 20.996L30.2233 21.2965C29.6778 21.9116 28.9416 21.8093 28.5702 21.4496L28.1646 20.9584C28.0584 20.8555 27.9245 20.7677 27.7642 20.8282L27.1508 20.996C26.6443 21.0677 26.048 20.6783 25.9526 20.1758L25.8817 19.4486C25.853 19.2972 25.7531 19.1689 25.6135 19.1038L25.1832 18.956C24.5361 18.6544 24.3193 17.9244 24.6909 17.3148L24.9334 16.9793C25.0308 16.8195 25.0262 16.6176 24.9216 16.4623L24.7407 16.2063C24.2286 15.4771 24.5826 14.6621 25.3414 14.4178L25.5088 14.3639C25.6935 14.3044 25.872 14.151 25.8873 13.9576L25.9246 13.488C25.9851 12.7257 26.6806 12.2884 27.4122 12.5108L27.649 12.5827C27.8772 12.6718 28.056 12.596 28.1805 12.4603L28.4366 12.1336Z" fill="url(#paint19_radial_1422_30829)"/>
  <path d="M28.4366 12.1336C28.982 11.5196 29.7237 11.6173 30.1982 12.1336L30.4877 12.4687C30.5879 12.5777 30.7329 12.6343 30.8804 12.6218L31.395 12.4687C32.0963 12.3184 32.7336 12.8416 32.7336 13.6542V13.9604C32.7485 14.1275 32.8945 14.2408 33.0452 14.3144L33.5101 14.5086C34.1825 14.837 34.3506 15.6163 33.8608 16.2703L33.7216 16.454C33.5968 16.6227 33.6224 16.8442 33.7467 17.0134L33.8858 17.2082C34.3923 17.8316 34.1067 18.6869 33.3913 18.9857L32.9911 19.1529C32.8403 19.2158 32.7813 19.3239 32.7531 19.4848L32.7253 20.008C32.6279 20.726 31.9901 21.0503 31.4785 20.9779L30.869 20.8151C30.7226 20.7943 30.5406 20.8429 30.4432 20.996L30.2233 21.2965C29.6778 21.9116 28.9416 21.8093 28.5702 21.4496L28.1646 20.9584C28.0584 20.8555 27.9245 20.7677 27.7642 20.8282L27.1508 20.996C26.6443 21.0677 26.048 20.6783 25.9526 20.1758L25.8817 19.4486C25.853 19.2972 25.7531 19.1689 25.6135 19.1038L25.1832 18.956C24.5361 18.6544 24.3193 17.9244 24.6909 17.3148L24.9334 16.9793C25.0308 16.8195 25.0262 16.6176 24.9216 16.4623L24.7407 16.2063C24.2286 15.4771 24.5826 14.6621 25.3414 14.4178L25.5088 14.3639C25.6935 14.3044 25.872 14.151 25.8873 13.9576L25.9246 13.488C25.9851 12.7257 26.6806 12.2884 27.4122 12.5108L27.649 12.5827C27.8772 12.6718 28.056 12.596 28.1805 12.4603L28.4366 12.1336Z" fill="url(#paint20_radial_1422_30829)"/>
  <path d="M28.4366 12.1336C28.982 11.5196 29.7237 11.6173 30.1982 12.1336L30.4877 12.4687C30.5879 12.5777 30.7329 12.6343 30.8804 12.6218L31.395 12.4687C32.0963 12.3184 32.7336 12.8416 32.7336 13.6542V13.9604C32.7485 14.1275 32.8945 14.2408 33.0452 14.3144L33.5101 14.5086C34.1825 14.837 34.3506 15.6163 33.8608 16.2703L33.7216 16.454C33.5968 16.6227 33.6224 16.8442 33.7467 17.0134L33.8858 17.2082C34.3923 17.8316 34.1067 18.6869 33.3913 18.9857L32.9911 19.1529C32.8403 19.2158 32.7813 19.3239 32.7531 19.4848L32.7253 20.008C32.6279 20.726 31.9901 21.0503 31.4785 20.9779L30.869 20.8151C30.7226 20.7943 30.5406 20.8429 30.4432 20.996L30.2233 21.2965C29.6778 21.9116 28.9416 21.8093 28.5702 21.4496L28.1646 20.9584C28.0584 20.8555 27.9245 20.7677 27.7642 20.8282L27.1508 20.996C26.6443 21.0677 26.048 20.6783 25.9526 20.1758L25.8817 19.4486C25.853 19.2972 25.7531 19.1689 25.6135 19.1038L25.1832 18.956C24.5361 18.6544 24.3193 17.9244 24.6909 17.3148L24.9334 16.9793C25.0308 16.8195 25.0262 16.6176 24.9216 16.4623L24.7407 16.2063C24.2286 15.4771 24.5826 14.6621 25.3414 14.4178L25.5088 14.3639C25.6935 14.3044 25.872 14.151 25.8873 13.9576L25.9246 13.488C25.9851 12.7257 26.6806 12.2884 27.4122 12.5108L27.649 12.5827C27.8772 12.6718 28.056 12.596 28.1805 12.4603L28.4366 12.1336Z" fill="url(#paint21_radial_1422_30829)"/>
  <path d="M28.4366 12.1336C28.982 11.5196 29.7237 11.6173 30.1982 12.1336L30.4877 12.4687C30.5879 12.5777 30.7329 12.6343 30.8804 12.6218L31.395 12.4687C32.0963 12.3184 32.7336 12.8416 32.7336 13.6542V13.9604C32.7485 14.1275 32.8945 14.2408 33.0452 14.3144L33.5101 14.5086C34.1825 14.837 34.3506 15.6163 33.8608 16.2703L33.7216 16.454C33.5968 16.6227 33.6224 16.8442 33.7467 17.0134L33.8858 17.2082C34.3923 17.8316 34.1067 18.6869 33.3913 18.9857L32.9911 19.1529C32.8403 19.2158 32.7813 19.3239 32.7531 19.4848L32.7253 20.008C32.6279 20.726 31.9901 21.0503 31.4785 20.9779L30.869 20.8151C30.7226 20.7943 30.5406 20.8429 30.4432 20.996L30.2233 21.2965C29.6778 21.9116 28.9416 21.8093 28.5702 21.4496L28.1646 20.9584C28.0584 20.8555 27.9245 20.7677 27.7642 20.8282L27.1508 20.996C26.6443 21.0677 26.048 20.6783 25.9526 20.1758L25.8817 19.4486C25.853 19.2972 25.7531 19.1689 25.6135 19.1038L25.1832 18.956C24.5361 18.6544 24.3193 17.9244 24.6909 17.3148L24.9334 16.9793C25.0308 16.8195 25.0262 16.6176 24.9216 16.4623L24.7407 16.2063C24.2286 15.4771 24.5826 14.6621 25.3414 14.4178L25.5088 14.3639C25.6935 14.3044 25.872 14.151 25.8873 13.9576L25.9246 13.488C25.9851 12.7257 26.6806 12.2884 27.4122 12.5108L27.649 12.5827C27.8772 12.6718 28.056 12.596 28.1805 12.4603L28.4366 12.1336Z" fill="url(#paint22_radial_1422_30829)"/>
  <path d="M28.4366 12.1336C28.982 11.5196 29.7237 11.6173 30.1982 12.1336L30.4877 12.4687C30.5879 12.5777 30.7329 12.6343 30.8804 12.6218L31.395 12.4687C32.0963 12.3184 32.7336 12.8416 32.7336 13.6542V13.9604C32.7485 14.1275 32.8945 14.2408 33.0452 14.3144L33.5101 14.5086C34.1825 14.837 34.3506 15.6163 33.8608 16.2703L33.7216 16.454C33.5968 16.6227 33.6224 16.8442 33.7467 17.0134L33.8858 17.2082C34.3923 17.8316 34.1067 18.6869 33.3913 18.9857L32.9911 19.1529C32.8403 19.2158 32.7813 19.3239 32.7531 19.4848L32.7253 20.008C32.6279 20.726 31.9901 21.0503 31.4785 20.9779L30.869 20.8151C30.7226 20.7943 30.5406 20.8429 30.4432 20.996L30.2233 21.2965C29.6778 21.9116 28.9416 21.8093 28.5702 21.4496L28.1646 20.9584C28.0584 20.8555 27.9245 20.7677 27.7642 20.8282L27.1508 20.996C26.6443 21.0677 26.048 20.6783 25.9526 20.1758L25.8817 19.4486C25.853 19.2972 25.7531 19.1689 25.6135 19.1038L25.1832 18.956C24.5361 18.6544 24.3193 17.9244 24.6909 17.3148L24.9334 16.9793C25.0308 16.8195 25.0262 16.6176 24.9216 16.4623L24.7407 16.2063C24.2286 15.4771 24.5826 14.6621 25.3414 14.4178L25.5088 14.3639C25.6935 14.3044 25.872 14.151 25.8873 13.9576L25.9246 13.488C25.9851 12.7257 26.6806 12.2884 27.4122 12.5108L27.649 12.5827C27.8772 12.6718 28.056 12.596 28.1805 12.4603L28.4366 12.1336Z" fill="url(#paint23_radial_1422_30829)"/>
  <path d="M28.4366 12.1336C28.982 11.5196 29.7237 11.6173 30.1982 12.1336L30.4877 12.4687C30.5879 12.5777 30.7329 12.6343 30.8804 12.6218L31.395 12.4687C32.0963 12.3184 32.7336 12.8416 32.7336 13.6542V13.9604C32.7485 14.1275 32.8945 14.2408 33.0452 14.3144L33.5101 14.5086C34.1825 14.837 34.3506 15.6163 33.8608 16.2703L33.7216 16.454C33.5968 16.6227 33.6224 16.8442 33.7467 17.0134L33.8858 17.2082C34.3923 17.8316 34.1067 18.6869 33.3913 18.9857L32.9911 19.1529C32.8403 19.2158 32.7813 19.3239 32.7531 19.4848L32.7253 20.008C32.6279 20.726 31.9901 21.0503 31.4785 20.9779L30.869 20.8151C30.7226 20.7943 30.5406 20.8429 30.4432 20.996L30.2233 21.2965C29.6778 21.9116 28.9416 21.8093 28.5702 21.4496L28.1646 20.9584C28.0584 20.8555 27.9245 20.7677 27.7642 20.8282L27.1508 20.996C26.6443 21.0677 26.048 20.6783 25.9526 20.1758L25.8817 19.4486C25.853 19.2972 25.7531 19.1689 25.6135 19.1038L25.1832 18.956C24.5361 18.6544 24.3193 17.9244 24.6909 17.3148L24.9334 16.9793C25.0308 16.8195 25.0262 16.6176 24.9216 16.4623L24.7407 16.2063C24.2286 15.4771 24.5826 14.6621 25.3414 14.4178L25.5088 14.3639C25.6935 14.3044 25.872 14.151 25.8873 13.9576L25.9246 13.488C25.9851 12.7257 26.6806 12.2884 27.4122 12.5108L27.649 12.5827C27.8772 12.6718 28.056 12.596 28.1805 12.4603L28.4366 12.1336Z" fill="url(#paint24_radial_1422_30829)"/>
  <path d="M28.4366 12.1336C28.982 11.5196 29.7237 11.6173 30.1982 12.1336L30.4877 12.4687C30.5879 12.5777 30.7329 12.6343 30.8804 12.6218L31.395 12.4687C32.0963 12.3184 32.7336 12.8416 32.7336 13.6542V13.9604C32.7485 14.1275 32.8945 14.2408 33.0452 14.3144L33.5101 14.5086C34.1825 14.837 34.3506 15.6163 33.8608 16.2703L33.7216 16.454C33.5968 16.6227 33.6224 16.8442 33.7467 17.0134L33.8858 17.2082C34.3923 17.8316 34.1067 18.6869 33.3913 18.9857L32.9911 19.1529C32.8403 19.2158 32.7813 19.3239 32.7531 19.4848L32.7253 20.008C32.6279 20.726 31.9901 21.0503 31.4785 20.9779L30.869 20.8151C30.7226 20.7943 30.5406 20.8429 30.4432 20.996L30.2233 21.2965C29.6778 21.9116 28.9416 21.8093 28.5702 21.4496L28.1646 20.9584C28.0584 20.8555 27.9245 20.7677 27.7642 20.8282L27.1508 20.996C26.6443 21.0677 26.048 20.6783 25.9526 20.1758L25.8817 19.4486C25.853 19.2972 25.7531 19.1689 25.6135 19.1038L25.1832 18.956C24.5361 18.6544 24.3193 17.9244 24.6909 17.3148L24.9334 16.9793C25.0308 16.8195 25.0262 16.6176 24.9216 16.4623L24.7407 16.2063C24.2286 15.4771 24.5826 14.6621 25.3414 14.4178L25.5088 14.3639C25.6935 14.3044 25.872 14.151 25.8873 13.9576L25.9246 13.488C25.9851 12.7257 26.6806 12.2884 27.4122 12.5108L27.649 12.5827C27.8772 12.6718 28.056 12.596 28.1805 12.4603L28.4366 12.1336Z" fill="url(#paint25_radial_1422_30829)"/>
  <path d="M28.4366 12.1336C28.982 11.5196 29.7237 11.6173 30.1982 12.1336L30.4877 12.4687C30.5879 12.5777 30.7329 12.6343 30.8804 12.6218L31.395 12.4687C32.0963 12.3184 32.7336 12.8416 32.7336 13.6542V13.9604C32.7485 14.1275 32.8945 14.2408 33.0452 14.3144L33.5101 14.5086C34.1825 14.837 34.3506 15.6163 33.8608 16.2703L33.7216 16.454C33.5968 16.6227 33.6224 16.8442 33.7467 17.0134L33.8858 17.2082C34.3923 17.8316 34.1067 18.6869 33.3913 18.9857L32.9911 19.1529C32.8403 19.2158 32.7813 19.3239 32.7531 19.4848L32.7253 20.008C32.6279 20.726 31.9901 21.0503 31.4785 20.9779L30.869 20.8151C30.7226 20.7943 30.5406 20.8429 30.4432 20.996L30.2233 21.2965C29.6778 21.9116 28.9416 21.8093 28.5702 21.4496L28.1646 20.9584C28.0584 20.8555 27.9245 20.7677 27.7642 20.8282L27.1508 20.996C26.6443 21.0677 26.048 20.6783 25.9526 20.1758L25.8817 19.4486C25.853 19.2972 25.7531 19.1689 25.6135 19.1038L25.1832 18.956C24.5361 18.6544 24.3193 17.9244 24.6909 17.3148L24.9334 16.9793C25.0308 16.8195 25.0262 16.6176 24.9216 16.4623L24.7407 16.2063C24.2286 15.4771 24.5826 14.6621 25.3414 14.4178L25.5088 14.3639C25.6935 14.3044 25.872 14.151 25.8873 13.9576L25.9246 13.488C25.9851 12.7257 26.6806 12.2884 27.4122 12.5108L27.649 12.5827C27.8772 12.6718 28.056 12.596 28.1805 12.4603L28.4366 12.1336Z" fill="url(#paint26_radial_1422_30829)"/>
  <path d="M28.4366 12.1336C28.982 11.5196 29.7237 11.6173 30.1982 12.1336L30.4877 12.4687C30.5879 12.5777 30.7329 12.6343 30.8804 12.6218L31.395 12.4687C32.0963 12.3184 32.7336 12.8416 32.7336 13.6542V13.9604C32.7485 14.1275 32.8945 14.2408 33.0452 14.3144L33.5101 14.5086C34.1825 14.837 34.3506 15.6163 33.8608 16.2703L33.7216 16.454C33.5968 16.6227 33.6224 16.8442 33.7467 17.0134L33.8858 17.2082C34.3923 17.8316 34.1067 18.6869 33.3913 18.9857L32.9911 19.1529C32.8403 19.2158 32.7813 19.3239 32.7531 19.4848L32.7253 20.008C32.6279 20.726 31.9901 21.0503 31.4785 20.9779L30.869 20.8151C30.7226 20.7943 30.5406 20.8429 30.4432 20.996L30.2233 21.2965C29.6778 21.9116 28.9416 21.8093 28.5702 21.4496L28.1646 20.9584C28.0584 20.8555 27.9245 20.7677 27.7642 20.8282L27.1508 20.996C26.6443 21.0677 26.048 20.6783 25.9526 20.1758L25.8817 19.4486C25.853 19.2972 25.7531 19.1689 25.6135 19.1038L25.1832 18.956C24.5361 18.6544 24.3193 17.9244 24.6909 17.3148L24.9334 16.9793C25.0308 16.8195 25.0262 16.6176 24.9216 16.4623L24.7407 16.2063C24.2286 15.4771 24.5826 14.6621 25.3414 14.4178L25.5088 14.3639C25.6935 14.3044 25.872 14.151 25.8873 13.9576L25.9246 13.488C25.9851 12.7257 26.6806 12.2884 27.4122 12.5108L27.649 12.5827C27.8772 12.6718 28.056 12.596 28.1805 12.4603L28.4366 12.1336Z" fill="url(#paint27_radial_1422_30829)"/>
  <path d="M29.3216 20.5426C31.4352 20.5426 33.1486 18.8292 33.1486 16.7157C33.1486 14.6021 31.4352 12.8887 29.3216 12.8887C27.208 12.8887 25.4946 14.6021 25.4946 16.7157C25.4946 18.8292 27.208 20.5426 29.3216 20.5426Z" fill="url(#paint28_radial_1422_30829)"/>
  <path d="M8.75 8.75L7.38281 5.35938L3.5 3.5V52.5L7.38281 50.3125L8.75 47.25V8.75Z" fill="url(#paint29_linear_1422_30829)"/>
  <path d="M8.75 8.75L7.38281 5.35938L3.5 3.5V52.5L7.38281 50.3125L8.75 47.25V8.75Z" fill="url(#paint30_linear_1422_30829)"/>
  <path d="M47.25 47.25L47.9062 49.875L52.5 52.5L52.5 3.5L48.2344 6.125L47.25 8.75V47.25Z" fill="url(#paint31_linear_1422_30829)"/>
  <path d="M47.25 47.25L47.9062 49.875L52.5 52.5L52.5 3.5L48.2344 6.125L47.25 8.75V47.25Z" fill="url(#paint32_linear_1422_30829)"/>
  <path d="M8.75 47.25L3.5 52.5L52.5 52.5L47.25 47.25H8.75Z" fill="url(#paint33_linear_1422_30829)"/>
  <path d="M8.75 47.25L3.5 52.5L52.5 52.5L47.25 47.25H8.75Z" fill="url(#paint34_linear_1422_30829)"/>
  <path d="M8.75 47.25L3.5 52.5L52.5 52.5L47.25 47.25H8.75Z" fill="url(#paint35_linear_1422_30829)"/>
  <path d="M47.25 8.75H8.75L3.5 3.5H52.5L47.25 8.75Z" fill="url(#paint36_linear_1422_30829)"/>
  <path d="M47.25 8.75H8.75L3.5 3.5H52.5L47.25 8.75Z" fill="url(#paint37_linear_1422_30829)"/>
  <path d="M47.25 8.75H8.75L3.5 3.5H52.5L47.25 8.75Z" fill="url(#paint38_linear_1422_30829)"/>
  <defs>
    <linearGradient id="paint0_linear_1422_30829" x1="28" y1="6.125" x2="28" y2="49.875" gradientUnits="userSpaceOnUse">
      <stop stop-color="#A6E5F7"/>
      <stop offset="0.614765" stop-color="#85D6F5"/>
    </linearGradient>
    <radialGradient id="paint1_radial_1422_30829" cx="0" cy="0" r="1" gradientUnits="userSpaceOnUse" gradientTransform="translate(13.4257 21.1914) rotate(-115.017) scale(2.71572)">
      <stop offset="0.108272" stop-color="#EBEAFF"/>
      <stop offset="1" stop-color="#D5D8FF"/>
    </radialGradient>
    <linearGradient id="paint2_linear_1422_30829" x1="12.3593" y1="28.0005" x2="12.3593" y2="26.4693" gradientUnits="userSpaceOnUse">
      <stop stop-color="#CFC9FF"/>
      <stop offset="1" stop-color="#CFC9FF" stop-opacity="0"/>
    </linearGradient>
    <radialGradient id="paint3_radial_1422_30829" cx="0" cy="0" r="1" gradientUnits="userSpaceOnUse" gradientTransform="translate(18.4843 23.2974) rotate(151.736) scale(5.77439 4.84781)">
      <stop stop-color="#F2F3FF"/>
      <stop offset="1" stop-color="#F2F3FF" stop-opacity="0"/>
    </radialGradient>
    <radialGradient id="paint4_radial_1422_30829" cx="0" cy="0" r="1" gradientUnits="userSpaceOnUse" gradientTransform="translate(12.0312 18.7036) rotate(121.861) scale(4.76565 3.86329)">
      <stop offset="0.222069" stop-color="#F4F4FF"/>
      <stop offset="1" stop-color="#F4F4FF" stop-opacity="0"/>
    </radialGradient>
    <radialGradient id="paint5_radial_1422_30829" cx="0" cy="0" r="1" gradientUnits="userSpaceOnUse" gradientTransform="translate(39.0469 18.7037) rotate(18.4331) scale(3.45907)">
      <stop offset="0.209985" stop-color="#D4D5FF"/>
      <stop offset="0.754934" stop-color="#DDDCFF"/>
    </radialGradient>
    <radialGradient id="paint6_radial_1422_30829" cx="0" cy="0" r="1" gradientUnits="userSpaceOnUse" gradientTransform="translate(41.5352 22.067) rotate(-50.9342) scale(5.42351 2.52414)">
      <stop offset="0.457026" stop-color="#EFEFFF"/>
      <stop offset="1" stop-color="#EFEFFF" stop-opacity="0"/>
    </radialGradient>
    <radialGradient id="paint7_radial_1422_30829" cx="0" cy="0" r="1" gradientUnits="userSpaceOnUse" gradientTransform="translate(47.25 21.5482) rotate(-128.32) scale(4.3217 8.91643)">
      <stop offset="0.581265" stop-color="#DEDFFF"/>
      <stop offset="1" stop-color="#D8D9FF"/>
    </radialGradient>
    <radialGradient id="paint8_radial_1422_30829" cx="0" cy="0" r="1" gradientUnits="userSpaceOnUse" gradientTransform="translate(41.6172 22.5326) rotate(-42.7094) scale(2.90256 4.47417)">
      <stop offset="0.564164" stop-color="#EFEFFF"/>
      <stop offset="0.728168" stop-color="#EFEFFF" stop-opacity="0"/>
    </radialGradient>
    <radialGradient id="paint9_radial_1422_30829" cx="0" cy="0" r="1" gradientUnits="userSpaceOnUse" gradientTransform="translate(43.5015 22.3613) rotate(152.354) scale(10.8346)">
      <stop offset="0.400983" stop-color="#EEEEFF"/>
      <stop offset="1" stop-color="#D4D3FF"/>
    </radialGradient>
    <radialGradient id="paint10_radial_1422_30829" cx="0" cy="0" r="1" gradientUnits="userSpaceOnUse" gradientTransform="translate(28 42.1804) rotate(-90) scale(15.2768 37.5751)">
      <stop stop-color="#2DAC5B"/>
      <stop offset="1" stop-color="#35BD69"/>
    </radialGradient>
    <radialGradient id="paint11_radial_1422_30829" cx="0" cy="0" r="1" gradientUnits="userSpaceOnUse" gradientTransform="translate(20.2344 28.5461) rotate(50.3558) scale(14.9144 9.07098)">
      <stop stop-color="#4DC277"/>
      <stop offset="1" stop-color="#4DC277" stop-opacity="0"/>
    </radialGradient>
    <radialGradient id="paint12_radial_1422_30829" cx="0" cy="0" r="1" gradientUnits="userSpaceOnUse" gradientTransform="translate(47.25 21.418) rotate(90) scale(22.2219 8.75806)">
      <stop stop-color="#3BCC74"/>
      <stop offset="1" stop-color="#3BCC74" stop-opacity="0"/>
    </radialGradient>
    <radialGradient id="paint13_radial_1422_30829" cx="0" cy="0" r="1" gradientUnits="userSpaceOnUse" gradientTransform="translate(31.5 32.0461) rotate(110.45) scale(6.88715 4.50748)">
      <stop offset="0.350226" stop-color="#4CA876"/>
      <stop offset="1" stop-color="#4CA876" stop-opacity="0"/>
    </radialGradient>
    <radialGradient id="paint14_radial_1422_30829" cx="0" cy="0" r="1" gradientUnits="userSpaceOnUse" gradientTransform="translate(8.75 49.218) rotate(-49.844) scale(9.15881 13.6507)">
      <stop stop-color="#399E60"/>
      <stop offset="1" stop-color="#399E60" stop-opacity="0"/>
    </radialGradient>
    <radialGradient id="paint15_radial_1422_30829" cx="0" cy="0" r="1" gradientUnits="userSpaceOnUse" gradientTransform="translate(28 47.25) rotate(-90) scale(7.07738 20.6319)">
      <stop stop-color="#7FD86C"/>
      <stop offset="1" stop-color="#9FD660"/>
    </radialGradient>
    <radialGradient id="paint16_radial_1422_30829" cx="0" cy="0" r="1" gradientUnits="userSpaceOnUse" gradientTransform="translate(11.183 49.4646) rotate(-31.3955) scale(18.0544 24.4156)">
      <stop stop-color="#79C56C"/>
      <stop offset="1" stop-color="#79C56C" stop-opacity="0"/>
    </radialGradient>
    <radialGradient id="paint17_radial_1422_30829" cx="0" cy="0" r="1" gradientUnits="userSpaceOnUse" gradientTransform="translate(48.2376 49.6912) rotate(-133.877) scale(16.3491 16.4575)">
      <stop stop-color="#93EB81"/>
      <stop offset="1" stop-color="#93EB81" stop-opacity="0"/>
    </radialGradient>
    <linearGradient id="paint18_linear_1422_30829" x1="32.2937" y1="13.3933" x2="26.8255" y2="20.3699" gradientUnits="userSpaceOnUse">
      <stop stop-color="#FC8B23"/>
      <stop offset="1" stop-color="#E67639"/>
    </linearGradient>
    <radialGradient id="paint19_radial_1422_30829" cx="0" cy="0" r="1" gradientUnits="userSpaceOnUse" gradientTransform="translate(30.242 12.1715) rotate(138.155) scale(1.34607 1.18765)">
      <stop offset="0.300161" stop-color="#FFA13A"/>
      <stop offset="1" stop-color="#FFA13A" stop-opacity="0"/>
    </radialGradient>
    <radialGradient id="paint20_radial_1422_30829" cx="0" cy="0" r="1" gradientUnits="userSpaceOnUse" gradientTransform="translate(26.7399 11.7466) rotate(67.8105) scale(2.13994 1.88809)">
      <stop offset="0.300161" stop-color="#FF942A"/>
      <stop offset="1" stop-color="#FF942A" stop-opacity="0"/>
    </radialGradient>
    <radialGradient id="paint21_radial_1422_30829" cx="0" cy="0" r="1" gradientUnits="userSpaceOnUse" gradientTransform="translate(32.487 13.743) rotate(-164.745) scale(0.853223 1.1814)">
      <stop offset="0.300161" stop-color="#FFA13D"/>
      <stop offset="1" stop-color="#FFA13D" stop-opacity="0"/>
    </radialGradient>
    <radialGradient id="paint22_radial_1422_30829" cx="0" cy="0" r="1" gradientUnits="userSpaceOnUse" gradientTransform="translate(34.2082 14.9852) rotate(154.195) scale(1.51281 1.11732)">
      <stop offset="0.300161" stop-color="#FFA13D"/>
      <stop offset="1" stop-color="#FFA13D" stop-opacity="0"/>
    </radialGradient>
    <radialGradient id="paint23_radial_1422_30829" cx="0" cy="0" r="1" gradientUnits="userSpaceOnUse" gradientTransform="translate(34.5374 17.5445) rotate(-173.379) scale(1.68751 0.950968)">
      <stop offset="0.300161" stop-color="#FFA13D"/>
      <stop offset="1" stop-color="#FFA13D" stop-opacity="0"/>
    </radialGradient>
    <radialGradient id="paint24_radial_1422_30829" cx="0" cy="0" r="1" gradientUnits="userSpaceOnUse" gradientTransform="translate(33.0258 19.5051) rotate(-43.9639) scale(1.5307 1.47465)">
      <stop stop-color="#E0762A"/>
      <stop offset="1" stop-color="#E0762A" stop-opacity="0"/>
    </radialGradient>
    <radialGradient id="paint25_radial_1422_30829" cx="0" cy="0" r="1" gradientUnits="userSpaceOnUse" gradientTransform="translate(25.9317 19.1459) rotate(-127.747) scale(1.17351 1.13054)">
      <stop stop-color="#E0762A"/>
      <stop offset="1" stop-color="#E0762A" stop-opacity="0"/>
    </radialGradient>
    <radialGradient id="paint26_radial_1422_30829" cx="0" cy="0" r="1" gradientUnits="userSpaceOnUse" gradientTransform="translate(24.3302 15.1798) rotate(25.2777) scale(1.1917 1.44034)">
      <stop stop-color="#F0851D"/>
      <stop offset="1" stop-color="#F0851D" stop-opacity="0"/>
    </radialGradient>
    <radialGradient id="paint27_radial_1422_30829" cx="0" cy="0" r="1" gradientUnits="userSpaceOnUse" gradientTransform="translate(31.4437 21.2047) rotate(-142.487) scale(1.38939 1.31077)">
      <stop offset="0.336586" stop-color="#E3745B"/>
      <stop offset="1" stop-color="#E3745B" stop-opacity="0"/>
    </radialGradient>
    <radialGradient id="paint28_radial_1422_30829" cx="0" cy="0" r="1" gradientUnits="userSpaceOnUse" gradientTransform="translate(31.4934 14.4985) rotate(117.739) scale(6.82894 8.43308)">
      <stop offset="0.17178" stop-color="#FFCB38"/>
      <stop offset="1" stop-color="#DCA21C"/>
      <stop offset="1" stop-color="#E5AE1B"/>
    </radialGradient>
    <linearGradient id="paint29_linear_1422_30829" x1="6.125" y1="3.5" x2="6.125" y2="52.5" gradientUnits="userSpaceOnUse">
      <stop stop-color="#D38E57"/>
      <stop offset="0.272321" stop-color="#EFA570"/>
      <stop offset="0.79771" stop-color="#EFA570"/>
      <stop offset="1" stop-color="#D38E57"/>
    </linearGradient>
    <linearGradient id="paint30_linear_1422_30829" x1="7.15908" y1="49.1846" x2="6.76803" y2="48.7595" gradientUnits="userSpaceOnUse">
      <stop stop-color="#CB7734"/>
      <stop offset="1" stop-color="#CB7734" stop-opacity="0"/>
    </linearGradient>
    <linearGradient id="paint31_linear_1422_30829" x1="49.875" y1="3.5" x2="49.875" y2="52.5" gradientUnits="userSpaceOnUse">
      <stop stop-color="#CA7C50"/>
      <stop offset="1" stop-color="#E0966B"/>
    </linearGradient>
    <linearGradient id="paint32_linear_1422_30829" x1="49.2734" y1="6.5625" x2="49.5127" y2="6.80859" gradientUnits="userSpaceOnUse">
      <stop stop-color="#C2712E"/>
      <stop offset="1" stop-color="#C2712E" stop-opacity="0"/>
    </linearGradient>
    <linearGradient id="paint33_linear_1422_30829" x1="18.4995" y1="50.7488" x2="55.36" y2="50.7488" gradientUnits="userSpaceOnUse">
      <stop stop-color="#E69F70"/>
      <stop offset="1" stop-color="#D3895C"/>
    </linearGradient>
    <linearGradient id="paint34_linear_1422_30829" x1="28" y1="53.4844" x2="28" y2="51.0781" gradientUnits="userSpaceOnUse">
      <stop stop-color="#D47F6E"/>
      <stop offset="1" stop-color="#D47F6E" stop-opacity="0"/>
    </linearGradient>
    <linearGradient id="paint35_linear_1422_30829" x1="48.7697" y1="48.5702" x2="48.3706" y2="48.9693" gradientUnits="userSpaceOnUse">
      <stop stop-color="#C67331"/>
      <stop offset="1" stop-color="#C67331" stop-opacity="0"/>
    </linearGradient>
    <linearGradient id="paint36_linear_1422_30829" x1="47.8977" y1="7.65072" x2="6.31043" y2="7.65072" gradientUnits="userSpaceOnUse">
      <stop stop-color="#D99569"/>
      <stop offset="1" stop-color="#D28459"/>
    </linearGradient>
    <linearGradient id="paint37_linear_1422_30829" x1="28" y1="8.75" x2="28" y2="8.17578" gradientUnits="userSpaceOnUse">
      <stop stop-color="#CC8159"/>
      <stop offset="1" stop-color="#CC8159" stop-opacity="0"/>
    </linearGradient>
    <linearGradient id="paint38_linear_1422_30829" x1="6.84454" y1="7.2362" x2="7.79772" y2="6.35634" gradientUnits="userSpaceOnUse">
      <stop stop-color="#C77731"/>
      <stop offset="1" stop-color="#C77731" stop-opacity="0"/>
    </linearGradient>
  </defs>
</svg>