<svg xmlns="http://www.w3.org/2000/svg" width="56" height="57" viewBox="0 0 56 57" fill="none">
  <path d="M3.58203 10.982C3.58203 7.30934 6.55934 4.33203 10.232 4.33203H45.768C49.4407 4.33203 52.418 7.30934 52.418 10.982V46.518C52.418 50.1907 49.4407 53.168 45.768 53.168H10.232C6.55934 53.168 3.58203 50.1907 3.58203 46.518V10.982Z" fill="url(#paint0_linear_550_13331)"/>
  <path d="M3.58203 10.982C3.58203 7.30934 6.55934 4.33203 10.232 4.33203H45.768C49.4407 4.33203 52.418 7.30934 52.418 10.982V46.518C52.418 50.1907 49.4407 53.168 45.768 53.168H10.232C6.55934 53.168 3.58203 50.1907 3.58203 46.518V10.982Z" fill="url(#paint1_linear_550_13331)"/>
  <path d="M3.58203 10.982C3.58203 7.30934 6.55934 4.33203 10.232 4.33203H45.768C49.4407 4.33203 52.418 7.30934 52.418 10.982V46.518C52.418 50.1907 49.4407 53.168 45.768 53.168H10.232C6.55934 53.168 3.58203 50.1907 3.58203 46.518V10.982Z" fill="url(#paint2_radial_550_13331)"/>
  <path d="M3.58203 10.982C3.58203 7.30934 6.55934 4.33203 10.232 4.33203H45.768C49.4407 4.33203 52.418 7.30934 52.418 10.982V46.518C52.418 50.1907 49.4407 53.168 45.768 53.168H10.232C6.55934 53.168 3.58203 50.1907 3.58203 46.518V10.982Z" fill="url(#paint3_linear_550_13331)"/>
  <path d="M3.58203 10.982C3.58203 7.30934 6.55934 4.33203 10.232 4.33203H45.768C49.4407 4.33203 52.418 7.30934 52.418 10.982V46.518C52.418 50.1907 49.4407 53.168 45.768 53.168H10.232C6.55934 53.168 3.58203 50.1907 3.58203 46.518V10.982Z" fill="url(#paint4_radial_550_13331)"/>
  <path d="M3.58203 10.982C3.58203 7.30934 6.55934 4.33203 10.232 4.33203H45.768C49.4407 4.33203 52.418 7.30934 52.418 10.982V46.518C52.418 50.1907 49.4407 53.168 45.768 53.168H10.232C6.55934 53.168 3.58203 50.1907 3.58203 46.518V10.982Z" fill="url(#paint5_radial_550_13331)"/>
  <path d="M3.58203 10.982C3.58203 7.30934 6.55934 4.33203 10.232 4.33203H45.768C49.4407 4.33203 52.418 7.30934 52.418 10.982V46.518C52.418 50.1907 49.4407 53.168 45.768 53.168H10.232C6.55934 53.168 3.58203 50.1907 3.58203 46.518V10.982Z" fill="url(#paint6_radial_550_13331)"/>
  <path d="M3.58203 10.982C3.58203 7.30934 6.55934 4.33203 10.232 4.33203H45.768C49.4407 4.33203 52.418 7.30934 52.418 10.982V46.518C52.418 50.1907 49.4407 53.168 45.768 53.168H10.232C6.55934 53.168 3.58203 50.1907 3.58203 46.518V10.982Z" fill="url(#paint7_radial_550_13331)"/>
  <path d="M3.58203 10.982C3.58203 7.30934 6.55934 4.33203 10.232 4.33203H45.768C49.4407 4.33203 52.418 7.30934 52.418 10.982V46.518C52.418 50.1907 49.4407 53.168 45.768 53.168H10.232C6.55934 53.168 3.58203 50.1907 3.58203 46.518V10.982Z" fill="url(#paint8_linear_550_13331)"/>
  <path d="M3.58203 10.982C3.58203 7.30934 6.55934 4.33203 10.232 4.33203H45.768C49.4407 4.33203 52.418 7.30934 52.418 10.982V46.518C52.418 50.1907 49.4407 53.168 45.768 53.168H10.232C6.55934 53.168 3.58203 50.1907 3.58203 46.518V10.982Z" fill="url(#paint9_linear_550_13331)"/>
  <path d="M3.58203 10.982C3.58203 7.30934 6.55934 4.33203 10.232 4.33203H45.768C49.4407 4.33203 52.418 7.30934 52.418 10.982V46.518C52.418 50.1907 49.4407 53.168 45.768 53.168H10.232C6.55934 53.168 3.58203 50.1907 3.58203 46.518V10.982Z" fill="url(#paint10_linear_550_13331)"/>
  <path d="M3.58203 10.982C3.58203 7.30934 6.55934 4.33203 10.232 4.33203H45.768C49.4407 4.33203 52.418 7.30934 52.418 10.982V46.518C52.418 50.1907 49.4407 53.168 45.768 53.168H10.232C6.55934 53.168 3.58203 50.1907 3.58203 46.518V10.982Z" fill="url(#paint11_linear_550_13331)"/>
  <path d="M3.58203 10.982C3.58203 7.30934 6.55934 4.33203 10.232 4.33203H45.768C49.4407 4.33203 52.418 7.30934 52.418 10.982V46.518C52.418 50.1907 49.4407 53.168 45.768 53.168H10.232C6.55934 53.168 3.58203 50.1907 3.58203 46.518V10.982Z" fill="url(#paint12_linear_550_13331)"/>
  <path d="M3.58203 10.982C3.58203 7.30934 6.55934 4.33203 10.232 4.33203H45.768C49.4407 4.33203 52.418 7.30934 52.418 10.982V46.518C52.418 50.1907 49.4407 53.168 45.768 53.168H10.232C6.55934 53.168 3.58203 50.1907 3.58203 46.518V10.982Z" fill="url(#paint13_radial_550_13331)"/>
  <path d="M3.58203 10.982C3.58203 7.30934 6.55934 4.33203 10.232 4.33203H45.768C49.4407 4.33203 52.418 7.30934 52.418 10.982V46.518C52.418 50.1907 49.4407 53.168 45.768 53.168H10.232C6.55934 53.168 3.58203 50.1907 3.58203 46.518V10.982Z" fill="url(#paint14_radial_550_13331)"/>
  <path fill-rule="evenodd" clip-rule="evenodd" d="M20.166 4.33203H18.416V19.0156H3.58203V20.7656H18.416V36.4609H3.58203V38.2109H18.416V53.168H20.166V38.2109H35.916V53.168H37.666V38.2109H52.418V36.4609H37.666V20.7656H52.418V19.0156H37.666V4.33203H35.916V19.0156H20.166V4.33203ZM35.916 20.7656V36.4609H20.166V20.7656H35.916Z" fill="url(#paint15_linear_550_13331)"/>
  <path fill-rule="evenodd" clip-rule="evenodd" d="M20.166 4.33203H18.416V19.0156H3.58203V20.7656H18.416V36.4609H3.58203V38.2109H18.416V53.168H20.166V38.2109H35.916V53.168H37.666V38.2109H52.418V36.4609H37.666V20.7656H52.418V19.0156H37.666V4.33203H35.916V19.0156H20.166V4.33203ZM35.916 20.7656V36.4609H20.166V20.7656H35.916Z" fill="url(#paint16_linear_550_13331)"/>
  <path fill-rule="evenodd" clip-rule="evenodd" d="M20.166 4.33203H18.416V19.0156H3.58203V20.7656H18.416V36.4609H3.58203V38.2109H18.416V53.168H20.166V38.2109H35.916V53.168H37.666V38.2109H52.418V36.4609H37.666V20.7656H52.418V19.0156H37.666V4.33203H35.916V19.0156H20.166V4.33203ZM35.916 20.7656V36.4609H20.166V20.7656H35.916Z" fill="url(#paint17_linear_550_13331)"/>
  <path fill-rule="evenodd" clip-rule="evenodd" d="M20.166 4.33203H18.416V19.0156H3.58203V20.7656H18.416V36.4609H3.58203V38.2109H18.416V53.168H20.166V38.2109H35.916V53.168H37.666V38.2109H52.418V36.4609H37.666V20.7656H52.418V19.0156H37.666V4.33203H35.916V19.0156H20.166V4.33203ZM35.916 20.7656V36.4609H20.166V20.7656H35.916Z" fill="url(#paint18_radial_550_13331)"/>
  <path fill-rule="evenodd" clip-rule="evenodd" d="M20.166 4.33203H18.416V19.0156H3.58203V20.7656H18.416V36.4609H3.58203V38.2109H18.416V53.168H20.166V38.2109H35.916V53.168H37.666V38.2109H52.418V36.4609H37.666V20.7656H52.418V19.0156H37.666V4.33203H35.916V19.0156H20.166V4.33203ZM35.916 20.7656V36.4609H20.166V20.7656H35.916Z" fill="url(#paint19_linear_550_13331)"/>
  <path fill-rule="evenodd" clip-rule="evenodd" d="M20.166 4.33203H18.416V19.0156H3.58203V20.7656H18.416V36.4609H3.58203V38.2109H18.416V53.168H20.166V38.2109H35.916V53.168H37.666V38.2109H52.418V36.4609H37.666V20.7656H52.418V19.0156H37.666V4.33203H35.916V19.0156H20.166V4.33203ZM35.916 20.7656V36.4609H20.166V20.7656H35.916Z" fill="url(#paint20_linear_550_13331)"/>
  <path fill-rule="evenodd" clip-rule="evenodd" d="M20.166 4.33203H18.416V19.0156H3.58203V20.7656H18.416V36.4609H3.58203V38.2109H18.416V53.168H20.166V38.2109H35.916V53.168H37.666V38.2109H52.418V36.4609H37.666V20.7656H52.418V19.0156H37.666V4.33203H35.916V19.0156H20.166V4.33203ZM35.916 20.7656V36.4609H20.166V20.7656H35.916Z" fill="url(#paint21_linear_550_13331)"/>
  <path fill-rule="evenodd" clip-rule="evenodd" d="M20.166 4.33203H18.416V19.0156H3.58203V20.7656H18.416V36.4609H3.58203V38.2109H18.416V53.168H20.166V38.2109H35.916V53.168H37.666V38.2109H52.418V36.4609H37.666V20.7656H52.418V19.0156H37.666V4.33203H35.916V19.0156H20.166V4.33203ZM35.916 20.7656V36.4609H20.166V20.7656H35.916Z" fill="url(#paint22_radial_550_13331)"/>
  <path fill-rule="evenodd" clip-rule="evenodd" d="M20.166 4.33203H18.416V19.0156H3.58203V20.7656H18.416V36.4609H3.58203V38.2109H18.416V53.168H20.166V38.2109H35.916V53.168H37.666V38.2109H52.418V36.4609H37.666V20.7656H52.418V19.0156H37.666V4.33203H35.916V19.0156H20.166V4.33203ZM35.916 20.7656V36.4609H20.166V20.7656H35.916Z" fill="url(#paint23_radial_550_13331)"/>
  <path fill-rule="evenodd" clip-rule="evenodd" d="M20.166 4.33203H18.416V19.0156H3.58203V20.7656H18.416V36.4609H3.58203V38.2109H18.416V53.168H20.166V38.2109H35.916V53.168H37.666V38.2109H52.418V36.4609H37.666V20.7656H52.418V19.0156H37.666V4.33203H35.916V19.0156H20.166V4.33203ZM35.916 20.7656V36.4609H20.166V20.7656H35.916Z" fill="url(#paint24_radial_550_13331)"/>
  <path fill-rule="evenodd" clip-rule="evenodd" d="M20.166 4.33203H18.416V19.0156H3.58203V20.7656H18.416V36.4609H3.58203V38.2109H18.416V53.168H20.166V38.2109H35.916V53.168H37.666V38.2109H52.418V36.4609H37.666V20.7656H52.418V19.0156H37.666V4.33203H35.916V19.0156H20.166V4.33203ZM35.916 20.7656V36.4609H20.166V20.7656H35.916Z" fill="url(#paint25_radial_550_13331)"/>
  <path fill-rule="evenodd" clip-rule="evenodd" d="M20.166 4.33203H18.416V19.0156H3.58203V20.7656H18.416V36.4609H3.58203V38.2109H18.416V53.168H20.166V38.2109H35.916V53.168H37.666V38.2109H52.418V36.4609H37.666V20.7656H52.418V19.0156H37.666V4.33203H35.916V19.0156H20.166V4.33203ZM35.916 20.7656V36.4609H20.166V20.7656H35.916Z" fill="url(#paint26_radial_550_13331)"/>
  <path fill-rule="evenodd" clip-rule="evenodd" d="M20.166 4.33203H18.416V19.0156H3.58203V20.7656H18.416V36.4609H3.58203V38.2109H18.416V53.168H20.166V38.2109H35.916V53.168H37.666V38.2109H52.418V36.4609H37.666V20.7656H52.418V19.0156H37.666V4.33203H35.916V19.0156H20.166V4.33203ZM35.916 20.7656V36.4609H20.166V20.7656H35.916Z" fill="url(#paint27_radial_550_13331)"/>
  <path d="M52.1289 48.4643C52.3169 47.8491 52.418 47.1959 52.418 46.5191V43.8036L40.0225 31.4081C38.3401 29.7257 35.6216 29.6963 33.9031 31.3418L30.5308 34.5709C30.1872 34.8999 29.6437 34.8941 29.3072 34.5579L3.84625 9.12109C3.67425 9.71195 3.58203 10.3368 3.58203 10.9832V13.8045L26.8335 37.0339C28.5161 38.715 31.2335 38.7438 32.9514 37.0988L36.3237 33.8697C36.6674 33.5406 37.2111 33.5465 37.5476 33.883L52.1289 48.4643Z" fill="url(#paint28_linear_550_13331)"/>
  <path d="M52.1289 48.4643C52.3169 47.8491 52.418 47.1959 52.418 46.5191V43.8036L40.0225 31.4081C38.3401 29.7257 35.6216 29.6963 33.9031 31.3418L30.5308 34.5709C30.1872 34.8999 29.6437 34.8941 29.3072 34.5579L3.84625 9.12109C3.67425 9.71195 3.58203 10.3368 3.58203 10.9832V13.8045L26.8335 37.0339C28.5161 38.715 31.2335 38.7438 32.9514 37.0988L36.3237 33.8697C36.6674 33.5406 37.2111 33.5465 37.5476 33.883L52.1289 48.4643Z" fill="url(#paint29_linear_550_13331)"/>
  <path d="M52.1289 48.4643C52.3169 47.8491 52.418 47.1959 52.418 46.5191V43.8036L40.0225 31.4081C38.3401 29.7257 35.6216 29.6963 33.9031 31.3418L30.5308 34.5709C30.1872 34.8999 29.6437 34.8941 29.3072 34.5579L3.84625 9.12109C3.67425 9.71195 3.58203 10.3368 3.58203 10.9832V13.8045L26.8335 37.0339C28.5161 38.715 31.2335 38.7438 32.9514 37.0988L36.3237 33.8697C36.6674 33.5406 37.2111 33.5465 37.5476 33.883L52.1289 48.4643Z" fill="url(#paint30_linear_550_13331)"/>
  <path d="M52.1289 48.4643C52.3169 47.8491 52.418 47.1959 52.418 46.5191V43.8036L40.0225 31.4081C38.3401 29.7257 35.6216 29.6963 33.9031 31.3418L30.5308 34.5709C30.1872 34.8999 29.6437 34.8941 29.3072 34.5579L3.84625 9.12109C3.67425 9.71195 3.58203 10.3368 3.58203 10.9832V13.8045L26.8335 37.0339C28.5161 38.715 31.2335 38.7438 32.9514 37.0988L36.3237 33.8697C36.6674 33.5406 37.2111 33.5465 37.5476 33.883L52.1289 48.4643Z" fill="url(#paint31_linear_550_13331)"/>
  <path d="M52.1289 48.4643C52.3169 47.8491 52.418 47.1959 52.418 46.5191V43.8036L40.0225 31.4081C38.3401 29.7257 35.6216 29.6963 33.9031 31.3418L30.5308 34.5709C30.1872 34.8999 29.6437 34.8941 29.3072 34.5579L3.84625 9.12109C3.67425 9.71195 3.58203 10.3368 3.58203 10.9832V13.8045L26.8335 37.0339C28.5161 38.715 31.2335 38.7438 32.9514 37.0988L36.3237 33.8697C36.6674 33.5406 37.2111 33.5465 37.5476 33.883L52.1289 48.4643Z" fill="url(#paint32_radial_550_13331)"/>
  <path d="M52.1289 48.4643C52.3169 47.8491 52.418 47.1959 52.418 46.5191V43.8036L40.0225 31.4081C38.3401 29.7257 35.6216 29.6963 33.9031 31.3418L30.5308 34.5709C30.1872 34.8999 29.6437 34.8941 29.3072 34.5579L3.84625 9.12109C3.67425 9.71195 3.58203 10.3368 3.58203 10.9832V13.8045L26.8335 37.0339C28.5161 38.715 31.2335 38.7438 32.9514 37.0988L36.3237 33.8697C36.6674 33.5406 37.2111 33.5465 37.5476 33.883L52.1289 48.4643Z" fill="url(#paint33_linear_550_13331)"/>
  <path d="M52.1289 48.4643C52.3169 47.8491 52.418 47.1959 52.418 46.5191V43.8036L40.0225 31.4081C38.3401 29.7257 35.6216 29.6963 33.9031 31.3418L30.5308 34.5709C30.1872 34.8999 29.6437 34.8941 29.3072 34.5579L3.84625 9.12109C3.67425 9.71195 3.58203 10.3368 3.58203 10.9832V13.8045L26.8335 37.0339C28.5161 38.715 31.2335 38.7438 32.9514 37.0988L36.3237 33.8697C36.6674 33.5406 37.2111 33.5465 37.5476 33.883L52.1289 48.4643Z" fill="url(#paint34_linear_550_13331)" fill-opacity="0.7"/>
  <path d="M52.1289 48.4643C52.3169 47.8491 52.418 47.1959 52.418 46.5191V43.8036L40.0225 31.4081C38.3401 29.7257 35.6216 29.6963 33.9031 31.3418L30.5308 34.5709C30.1872 34.8999 29.6437 34.8941 29.3072 34.5579L3.84625 9.12109C3.67425 9.71195 3.58203 10.3368 3.58203 10.9832V13.8045L26.8335 37.0339C28.5161 38.715 31.2335 38.7438 32.9514 37.0988L36.3237 33.8697C36.6674 33.5406 37.2111 33.5465 37.5476 33.883L52.1289 48.4643Z" fill="url(#paint35_linear_550_13331)" fill-opacity="0.7"/>
  <path d="M52.1289 48.4643C52.3169 47.8491 52.418 47.1959 52.418 46.5191V43.8036L40.0225 31.4081C38.3401 29.7257 35.6216 29.6963 33.9031 31.3418L30.5308 34.5709C30.1872 34.8999 29.6437 34.8941 29.3072 34.5579L3.84625 9.12109C3.67425 9.71195 3.58203 10.3368 3.58203 10.9832V13.8045L26.8335 37.0339C28.5161 38.715 31.2335 38.7438 32.9514 37.0988L36.3237 33.8697C36.6674 33.5406 37.2111 33.5465 37.5476 33.883L52.1289 48.4643Z" fill="url(#paint36_linear_550_13331)" fill-opacity="0.6"/>
  <path d="M52.1289 48.4643C52.3169 47.8491 52.418 47.1959 52.418 46.5191V43.8036L40.0225 31.4081C38.3401 29.7257 35.6216 29.6963 33.9031 31.3418L30.5308 34.5709C30.1872 34.8999 29.6437 34.8941 29.3072 34.5579L3.84625 9.12109C3.67425 9.71195 3.58203 10.3368 3.58203 10.9832V13.8045L26.8335 37.0339C28.5161 38.715 31.2335 38.7438 32.9514 37.0988L36.3237 33.8697C36.6674 33.5406 37.2111 33.5465 37.5476 33.883L52.1289 48.4643Z" fill="url(#paint37_linear_550_13331)" fill-opacity="0.8"/>
  <path d="M52.1289 48.4643C52.3169 47.8491 52.418 47.1959 52.418 46.5191V43.8036L40.0225 31.4081C38.3401 29.7257 35.6216 29.6963 33.9031 31.3418L30.5308 34.5709C30.1872 34.8999 29.6437 34.8941 29.3072 34.5579L3.84625 9.12109C3.67425 9.71195 3.58203 10.3368 3.58203 10.9832V13.8045L26.8335 37.0339C28.5161 38.715 31.2335 38.7438 32.9514 37.0988L36.3237 33.8697C36.6674 33.5406 37.2111 33.5465 37.5476 33.883L52.1289 48.4643Z" fill="url(#paint38_radial_550_13331)"/>
  <path d="M52.1289 48.4643C52.3169 47.8491 52.418 47.1959 52.418 46.5191V43.8036L40.0225 31.4081C38.3401 29.7257 35.6216 29.6963 33.9031 31.3418L30.5308 34.5709C30.1872 34.8999 29.6437 34.8941 29.3072 34.5579L3.84625 9.12109C3.67425 9.71195 3.58203 10.3368 3.58203 10.9832V13.8045L26.8335 37.0339C28.5161 38.715 31.2335 38.7438 32.9514 37.0988L36.3237 33.8697C36.6674 33.5406 37.2111 33.5465 37.5476 33.883L52.1289 48.4643Z" fill="url(#paint39_radial_550_13331)"/>
  <path d="M52.1289 48.4643C52.3169 47.8491 52.418 47.1959 52.418 46.5191V43.8036L40.0225 31.4081C38.3401 29.7257 35.6216 29.6963 33.9031 31.3418L30.5308 34.5709C30.1872 34.8999 29.6437 34.8941 29.3072 34.5579L3.84625 9.12109C3.67425 9.71195 3.58203 10.3368 3.58203 10.9832V13.8045L26.8335 37.0339C28.5161 38.715 31.2335 38.7438 32.9514 37.0988L36.3237 33.8697C36.6674 33.5406 37.2111 33.5465 37.5476 33.883L52.1289 48.4643Z" fill="url(#paint40_radial_550_13331)"/>
  <path d="M52.1289 48.4643C52.3169 47.8491 52.418 47.1959 52.418 46.5191V43.8036L40.0225 31.4081C38.3401 29.7257 35.6216 29.6963 33.9031 31.3418L30.5308 34.5709C30.1872 34.8999 29.6437 34.8941 29.3072 34.5579L3.84625 9.12109C3.67425 9.71195 3.58203 10.3368 3.58203 10.9832V13.8045L26.8335 37.0339C28.5161 38.715 31.2335 38.7438 32.9514 37.0988L36.3237 33.8697C36.6674 33.5406 37.2111 33.5465 37.5476 33.883L52.1289 48.4643Z" fill="url(#paint41_radial_550_13331)"/>
  <path d="M52.1289 48.4643C52.3169 47.8491 52.418 47.1959 52.418 46.5191V43.8036L40.0225 31.4081C38.3401 29.7257 35.6216 29.6963 33.9031 31.3418L30.5308 34.5709C30.1872 34.8999 29.6437 34.8941 29.3072 34.5579L3.84625 9.12109C3.67425 9.71195 3.58203 10.3368 3.58203 10.9832V13.8045L26.8335 37.0339C28.5161 38.715 31.2335 38.7438 32.9514 37.0988L36.3237 33.8697C36.6674 33.5406 37.2111 33.5465 37.5476 33.883L52.1289 48.4643Z" fill="url(#paint42_radial_550_13331)"/>
  <path d="M52.1289 48.4643C52.3169 47.8491 52.418 47.1959 52.418 46.5191V43.8036L40.0225 31.4081C38.3401 29.7257 35.6216 29.6963 33.9031 31.3418L30.5308 34.5709C30.1872 34.8999 29.6437 34.8941 29.3072 34.5579L3.84625 9.12109C3.67425 9.71195 3.58203 10.3368 3.58203 10.9832V13.8045L26.8335 37.0339C28.5161 38.715 31.2335 38.7438 32.9514 37.0988L36.3237 33.8697C36.6674 33.5406 37.2111 33.5465 37.5476 33.883L52.1289 48.4643Z" fill="url(#paint43_radial_550_13331)" fill-opacity="0.8"/>
  <path d="M52.1289 48.4643C52.3169 47.8491 52.418 47.1959 52.418 46.5191V43.8036L40.0225 31.4081C38.3401 29.7257 35.6216 29.6963 33.9031 31.3418L30.5308 34.5709C30.1872 34.8999 29.6437 34.8941 29.3072 34.5579L3.84625 9.12109C3.67425 9.71195 3.58203 10.3368 3.58203 10.9832V13.8045L26.8335 37.0339C28.5161 38.715 31.2335 38.7438 32.9514 37.0988L36.3237 33.8697C36.6674 33.5406 37.2111 33.5465 37.5476 33.883L52.1289 48.4643Z" fill="url(#paint44_radial_550_13331)" fill-opacity="0.8"/>
  <path d="M52.1289 48.4643C52.3169 47.8491 52.418 47.1959 52.418 46.5191V43.8036L40.0225 31.4081C38.3401 29.7257 35.6216 29.6963 33.9031 31.3418L30.5308 34.5709C30.1872 34.8999 29.6437 34.8941 29.3072 34.5579L3.84625 9.12109C3.67425 9.71195 3.58203 10.3368 3.58203 10.9832V13.8045L26.8335 37.0339C28.5161 38.715 31.2335 38.7438 32.9514 37.0988L36.3237 33.8697C36.6674 33.5406 37.2111 33.5465 37.5476 33.883L52.1289 48.4643Z" fill="url(#paint45_radial_550_13331)" fill-opacity="0.6"/>
  <path d="M52.1289 48.4643C52.3169 47.8491 52.418 47.1959 52.418 46.5191V43.8036L40.0225 31.4081C38.3401 29.7257 35.6216 29.6963 33.9031 31.3418L30.5308 34.5709C30.1872 34.8999 29.6437 34.8941 29.3072 34.5579L3.84625 9.12109C3.67425 9.71195 3.58203 10.3368 3.58203 10.9832V13.8045L26.8335 37.0339C28.5161 38.715 31.2335 38.7438 32.9514 37.0988L36.3237 33.8697C36.6674 33.5406 37.2111 33.5465 37.5476 33.883L52.1289 48.4643Z" fill="url(#paint46_radial_550_13331)" fill-opacity="0.6"/>
  <path d="M52.1289 48.4643C52.3169 47.8491 52.418 47.1959 52.418 46.5191V43.8036L40.0225 31.4081C38.3401 29.7257 35.6216 29.6963 33.9031 31.3418L30.5308 34.5709C30.1872 34.8999 29.6437 34.8941 29.3072 34.5579L3.84625 9.12109C3.67425 9.71195 3.58203 10.3368 3.58203 10.9832V13.8045L26.8335 37.0339C28.5161 38.715 31.2335 38.7438 32.9514 37.0988L36.3237 33.8697C36.6674 33.5406 37.2111 33.5465 37.5476 33.883L52.1289 48.4643Z" fill="url(#paint47_radial_550_13331)" fill-opacity="0.6"/>
  <path d="M52.1289 48.4643C52.3169 47.8491 52.418 47.1959 52.418 46.5191V43.8036L40.0225 31.4081C38.3401 29.7257 35.6216 29.6963 33.9031 31.3418L30.5308 34.5709C30.1872 34.8999 29.6437 34.8941 29.3072 34.5579L3.84625 9.12109C3.67425 9.71195 3.58203 10.3368 3.58203 10.9832V13.8045L26.8335 37.0339C28.5161 38.715 31.2335 38.7438 32.9514 37.0988L36.3237 33.8697C36.6674 33.5406 37.2111 33.5465 37.5476 33.883L52.1289 48.4643Z" fill="url(#paint48_radial_550_13331)" fill-opacity="0.6"/>
  <path d="M52.1289 48.4643C52.3169 47.8491 52.418 47.1959 52.418 46.5191V43.8036L40.0225 31.4081C38.3401 29.7257 35.6216 29.6963 33.9031 31.3418L30.5308 34.5709C30.1872 34.8999 29.6437 34.8941 29.3072 34.5579L3.84625 9.12109C3.67425 9.71195 3.58203 10.3368 3.58203 10.9832V13.8045L26.8335 37.0339C28.5161 38.715 31.2335 38.7438 32.9514 37.0988L36.3237 33.8697C36.6674 33.5406 37.2111 33.5465 37.5476 33.883L52.1289 48.4643Z" fill="url(#paint49_radial_550_13331)" fill-opacity="0.3"/>
  <path d="M52.1289 48.4643C52.3169 47.8491 52.418 47.1959 52.418 46.5191V43.8036L40.0225 31.4081C38.3401 29.7257 35.6216 29.6963 33.9031 31.3418L30.5308 34.5709C30.1872 34.8999 29.6437 34.8941 29.3072 34.5579L3.84625 9.12109C3.67425 9.71195 3.58203 10.3368 3.58203 10.9832V13.8045L26.8335 37.0339C28.5161 38.715 31.2335 38.7438 32.9514 37.0988L36.3237 33.8697C36.6674 33.5406 37.2111 33.5465 37.5476 33.883L52.1289 48.4643Z" fill="url(#paint50_radial_550_13331)" fill-opacity="0.3"/>
  <path d="M52.1289 48.4643C52.3169 47.8491 52.418 47.1959 52.418 46.5191V43.8036L40.0225 31.4081C38.3401 29.7257 35.6216 29.6963 33.9031 31.3418L30.5308 34.5709C30.1872 34.8999 29.6437 34.8941 29.3072 34.5579L3.84625 9.12109C3.67425 9.71195 3.58203 10.3368 3.58203 10.9832V13.8045L26.8335 37.0339C28.5161 38.715 31.2335 38.7438 32.9514 37.0988L36.3237 33.8697C36.6674 33.5406 37.2111 33.5465 37.5476 33.883L52.1289 48.4643Z" fill="url(#paint51_radial_550_13331)" fill-opacity="0.4"/>
  <path d="M52.1289 48.4643C52.3169 47.8491 52.418 47.1959 52.418 46.5191V43.8036L40.0225 31.4081C38.3401 29.7257 35.6216 29.6963 33.9031 31.3418L30.5308 34.5709C30.1872 34.8999 29.6437 34.8941 29.3072 34.5579L3.84625 9.12109C3.67425 9.71195 3.58203 10.3368 3.58203 10.9832V13.8045L26.8335 37.0339C28.5161 38.715 31.2335 38.7438 32.9514 37.0988L36.3237 33.8697C36.6674 33.5406 37.2111 33.5465 37.5476 33.883L52.1289 48.4643Z" fill="url(#paint52_radial_550_13331)" fill-opacity="0.8"/>
  <path d="M52.1289 48.4643C52.3169 47.8491 52.418 47.1959 52.418 46.5191V43.8036L40.0225 31.4081C38.3401 29.7257 35.6216 29.6963 33.9031 31.3418L30.5308 34.5709C30.1872 34.8999 29.6437 34.8941 29.3072 34.5579L3.84625 9.12109C3.67425 9.71195 3.58203 10.3368 3.58203 10.9832V13.8045L26.8335 37.0339C28.5161 38.715 31.2335 38.7438 32.9514 37.0988L36.3237 33.8697C36.6674 33.5406 37.2111 33.5465 37.5476 33.883L52.1289 48.4643Z" fill="url(#paint53_radial_550_13331)" fill-opacity="0.9"/>
  <path d="M52.1289 48.4643C52.3169 47.8491 52.418 47.1959 52.418 46.5191V43.8036L40.0225 31.4081C38.3401 29.7257 35.6216 29.6963 33.9031 31.3418L30.5308 34.5709C30.1872 34.8999 29.6437 34.8941 29.3072 34.5579L3.84625 9.12109C3.67425 9.71195 3.58203 10.3368 3.58203 10.9832V13.8045L26.8335 37.0339C28.5161 38.715 31.2335 38.7438 32.9514 37.0988L36.3237 33.8697C36.6674 33.5406 37.2111 33.5465 37.5476 33.883L52.1289 48.4643Z" fill="url(#paint54_radial_550_13331)" fill-opacity="0.9"/>
  <defs>
    <linearGradient id="paint0_linear_550_13331" x1="47.4687" y1="7.53125" x2="20.7812" y2="41.5469" gradientUnits="userSpaceOnUse">
      <stop stop-color="#D8D1E0"/>
      <stop offset="1" stop-color="#D5C9E3"/>
    </linearGradient>
    <linearGradient id="paint1_linear_550_13331" x1="17.0417" y1="25.788" x2="14.825" y2="28.1071" gradientUnits="userSpaceOnUse">
      <stop offset="0.0753294" stop-color="#988FB6" stop-opacity="0"/>
      <stop offset="0.198432" stop-color="#988FB6"/>
      <stop offset="0.792217" stop-color="#988FB6" stop-opacity="0.140653"/>
      <stop offset="1" stop-color="#988FB6" stop-opacity="0"/>
    </linearGradient>
    <radialGradient id="paint2_radial_550_13331" cx="0" cy="0" r="1" gradientUnits="userSpaceOnUse" gradientTransform="translate(38.6995 50.7634) rotate(-126.903) scale(18.4571 10.313)">
      <stop offset="0.849049" stop-color="#D5C9E3"/>
      <stop offset="0.992265" stop-color="#D5C9E3" stop-opacity="0"/>
    </radialGradient>
    <linearGradient id="paint3_linear_550_13331" x1="40.2439" y1="35.5796" x2="37.9098" y2="37.9137" gradientUnits="userSpaceOnUse">
      <stop offset="0.0753294" stop-color="#988FB6" stop-opacity="0"/>
      <stop offset="0.198432" stop-color="#988FB6"/>
      <stop offset="0.792217" stop-color="#988FB6" stop-opacity="0.140653"/>
      <stop offset="1" stop-color="#988FB6" stop-opacity="0"/>
    </linearGradient>
    <radialGradient id="paint4_radial_550_13331" cx="0" cy="0" r="1" gradientUnits="userSpaceOnUse" gradientTransform="translate(29.7064 36.9127) rotate(93.4682) scale(3.35022)">
      <stop offset="0.160839" stop-color="#988FB6"/>
      <stop offset="0.711192" stop-color="#988FB6" stop-opacity="0.140653"/>
      <stop offset="0.883325" stop-color="#988FB6" stop-opacity="0.0316308"/>
      <stop offset="1" stop-color="#988FB6" stop-opacity="0"/>
    </radialGradient>
    <radialGradient id="paint5_radial_550_13331" cx="0" cy="0" r="1" gradientUnits="userSpaceOnUse" gradientTransform="translate(33.4954 35.5358) rotate(49.0142) scale(2.86167 5.9936)">
      <stop stop-color="#988FB6"/>
      <stop offset="0.711192" stop-color="#988FB6" stop-opacity="0.140653"/>
      <stop offset="0.883325" stop-color="#988FB6" stop-opacity="0.0316308"/>
      <stop offset="1" stop-color="#988FB6" stop-opacity="0"/>
    </radialGradient>
    <radialGradient id="paint6_radial_550_13331" cx="0" cy="0" r="1" gradientUnits="userSpaceOnUse" gradientTransform="translate(32.9243 28.0194) rotate(159.392) scale(7.66587)">
      <stop offset="0.577445" stop-color="#D7CDE1"/>
      <stop offset="0.862844" stop-color="#D7CDE1" stop-opacity="0.457673"/>
      <stop offset="0.992265" stop-color="#D7CDE1" stop-opacity="0"/>
    </radialGradient>
    <radialGradient id="paint7_radial_550_13331" cx="0" cy="0" r="1" gradientUnits="userSpaceOnUse" gradientTransform="translate(23.9028 5.1103) rotate(64.2519) scale(28.6528 20.6414)">
      <stop offset="0.678122" stop-color="#D8D1E0"/>
      <stop offset="1" stop-color="#D5C9E3" stop-opacity="0"/>
    </radialGradient>
    <linearGradient id="paint8_linear_550_13331" x1="28" y1="4.06801" x2="28" y2="8.37976" gradientUnits="userSpaceOnUse">
      <stop stop-color="#E0DFE2"/>
      <stop offset="1" stop-color="#E0DFE2" stop-opacity="0"/>
    </linearGradient>
    <linearGradient id="paint9_linear_550_13331" x1="28" y1="2.5238" x2="28" y2="5.23805" gradientUnits="userSpaceOnUse">
      <stop offset="0.493741" stop-color="#BABABA"/>
      <stop offset="0.796875" stop-color="#BABABA" stop-opacity="0.267485"/>
      <stop offset="1" stop-color="#BABABA" stop-opacity="0"/>
    </linearGradient>
    <linearGradient id="paint10_linear_550_13331" x1="3.58203" y1="28.75" x2="8.86631" y2="28.75" gradientUnits="userSpaceOnUse">
      <stop stop-color="#B9B2BF"/>
      <stop offset="0.695868" stop-color="#B9B2BF" stop-opacity="0.127979"/>
      <stop offset="1" stop-color="#B9B2BF" stop-opacity="0"/>
    </linearGradient>
    <linearGradient id="paint11_linear_550_13331" x1="28" y1="53.8898" x2="28" y2="46.9845" gradientUnits="userSpaceOnUse">
      <stop stop-color="#B9B2BF"/>
      <stop offset="1" stop-color="#B9B2BF" stop-opacity="0"/>
    </linearGradient>
    <linearGradient id="paint12_linear_550_13331" x1="37.5815" y1="53.6275" x2="37.5815" y2="49.6067" gradientUnits="userSpaceOnUse">
      <stop stop-color="#A88AC4"/>
      <stop offset="1" stop-color="#CDBCE0" stop-opacity="0"/>
    </linearGradient>
    <radialGradient id="paint13_radial_550_13331" cx="0" cy="0" r="1" gradientUnits="userSpaceOnUse" gradientTransform="translate(52.418 29.4419) rotate(177.86) scale(9.78685 38.1566)">
      <stop stop-color="#F2EDF5"/>
      <stop offset="1" stop-color="#DED3E7" stop-opacity="0"/>
    </radialGradient>
    <radialGradient id="paint14_radial_550_13331" cx="0" cy="0" r="1" gradientUnits="userSpaceOnUse" gradientTransform="translate(51.7761 5.80455) rotate(138.434) scale(8.63102 8.93374)">
      <stop stop-color="#F7F4F7"/>
      <stop offset="1" stop-color="#E2DCE5" stop-opacity="0"/>
    </radialGradient>
    <linearGradient id="paint15_linear_550_13331" x1="28" y1="8.37891" x2="28" y2="53.168" gradientUnits="userSpaceOnUse">
      <stop stop-color="#C2BEC6"/>
      <stop offset="1" stop-color="#BAACC6"/>
    </linearGradient>
    <linearGradient id="paint16_linear_550_13331" x1="53.8398" y1="32.332" x2="47.168" y2="32.332" gradientUnits="userSpaceOnUse">
      <stop stop-color="#D6D1DA"/>
      <stop offset="1" stop-color="#D6D1DA" stop-opacity="0"/>
    </linearGradient>
    <linearGradient id="paint17_linear_550_13331" x1="17.0417" y1="25.788" x2="14.825" y2="28.1071" gradientUnits="userSpaceOnUse">
      <stop offset="0.0753294" stop-color="#988FB6" stop-opacity="0"/>
      <stop offset="0.198432" stop-color="#988FB6"/>
      <stop offset="0.792217" stop-color="#988FB6" stop-opacity="0.140653"/>
      <stop offset="1" stop-color="#988FB6" stop-opacity="0"/>
    </linearGradient>
    <radialGradient id="paint18_radial_550_13331" cx="0" cy="0" r="1" gradientUnits="userSpaceOnUse" gradientTransform="translate(36.5439 49.281) rotate(-89.3179) scale(8.2521)">
      <stop offset="0.65311" stop-color="#BAACC6"/>
      <stop offset="1" stop-color="#BAACC6" stop-opacity="0"/>
    </radialGradient>
    <linearGradient id="paint19_linear_550_13331" x1="38.008" y1="54.4195" x2="38.008" y2="48.3274" gradientUnits="userSpaceOnUse">
      <stop stop-color="#9E83B7"/>
      <stop offset="1" stop-color="#9E83B7" stop-opacity="0"/>
    </linearGradient>
    <linearGradient id="paint20_linear_550_13331" x1="1.88672" y1="31.1289" x2="11.1836" y2="31.1289" gradientUnits="userSpaceOnUse">
      <stop stop-color="#96909C"/>
      <stop offset="1" stop-color="#96909C" stop-opacity="0"/>
    </linearGradient>
    <linearGradient id="paint21_linear_550_13331" x1="40.2439" y1="35.5796" x2="37.9098" y2="37.9137" gradientUnits="userSpaceOnUse">
      <stop offset="0.0753294" stop-color="#988FB6" stop-opacity="0"/>
      <stop offset="0.198432" stop-color="#988FB6"/>
      <stop offset="0.792217" stop-color="#988FB6" stop-opacity="0.140653"/>
      <stop offset="1" stop-color="#988FB6" stop-opacity="0"/>
    </linearGradient>
    <radialGradient id="paint22_radial_550_13331" cx="0" cy="0" r="1" gradientUnits="userSpaceOnUse" gradientTransform="translate(19.1568 14.8014) rotate(46.1534) scale(10.3517 9.25178)">
      <stop offset="0.777398" stop-color="#C2BEC6"/>
      <stop offset="1" stop-color="#C2BEC6" stop-opacity="0"/>
    </radialGradient>
    <radialGradient id="paint23_radial_550_13331" cx="0" cy="0" r="1" gradientUnits="userSpaceOnUse" gradientTransform="translate(34.0067 35.4974) rotate(48.4683) scale(2.87782 6.02742)">
      <stop stop-color="#988FB6"/>
      <stop offset="0.711192" stop-color="#988FB6" stop-opacity="0.140653"/>
      <stop offset="0.883325" stop-color="#988FB6" stop-opacity="0.0316308"/>
      <stop offset="1" stop-color="#988FB6" stop-opacity="0"/>
    </radialGradient>
    <radialGradient id="paint24_radial_550_13331" cx="0" cy="0" r="1" gradientUnits="userSpaceOnUse" gradientTransform="translate(29.7064 36.9127) rotate(93.4682) scale(3.35022)">
      <stop offset="0.160839" stop-color="#988FB6"/>
      <stop offset="0.711192" stop-color="#988FB6" stop-opacity="0.140653"/>
      <stop offset="0.883325" stop-color="#988FB6" stop-opacity="0.0316308"/>
      <stop offset="1" stop-color="#988FB6" stop-opacity="0"/>
    </radialGradient>
    <radialGradient id="paint25_radial_550_13331" cx="0" cy="0" r="1" gradientUnits="userSpaceOnUse" gradientTransform="translate(36.9305 32.9507) rotate(93.7314) scale(3.26492 3.28891)">
      <stop stop-color="#6B5F94" stop-opacity="0.78"/>
      <stop offset="0.784187" stop-color="#6B5F94" stop-opacity="0.140248"/>
      <stop offset="1" stop-color="#6B5F94" stop-opacity="0"/>
    </radialGradient>
    <radialGradient id="paint26_radial_550_13331" cx="0" cy="0" r="1" gradientUnits="userSpaceOnUse" gradientTransform="translate(39.3449 34.915) rotate(135) scale(2.27093 6.5525)">
      <stop stop-color="#6B5F94"/>
      <stop offset="0.48264" stop-color="#6B5F94" stop-opacity="0.318614"/>
      <stop offset="0.821076" stop-color="#6B5F94" stop-opacity="0.0565379"/>
      <stop offset="1" stop-color="#6B5F94" stop-opacity="0"/>
    </radialGradient>
    <radialGradient id="paint27_radial_550_13331" cx="0" cy="0" r="1" gradientUnits="userSpaceOnUse" gradientTransform="translate(29.9824 35.2008) rotate(86.1859) scale(5.03248)">
      <stop stop-color="#6B5F94"/>
      <stop offset="0.48264" stop-color="#6B5F94" stop-opacity="0.318614"/>
      <stop offset="0.821076" stop-color="#6B5F94" stop-opacity="0.0565379"/>
      <stop offset="1" stop-color="#6B5F94" stop-opacity="0"/>
    </radialGradient>
    <linearGradient id="paint28_linear_550_13331" x1="9.29947" y1="7.04034" x2="48.8633" y2="41.3019" gradientUnits="userSpaceOnUse">
      <stop stop-color="#F74157"/>
      <stop offset="1" stop-color="#E12680"/>
    </linearGradient>
    <linearGradient id="paint29_linear_550_13331" x1="8.10847" y1="7.29064" x2="4.62595" y2="13.8771" gradientUnits="userSpaceOnUse">
      <stop offset="0.420444" stop-color="#F2535B"/>
      <stop offset="1" stop-color="#FB545D" stop-opacity="0"/>
    </linearGradient>
    <linearGradient id="paint30_linear_550_13331" x1="17.7526" y1="22.6049" x2="14.8559" y2="25.4812" gradientUnits="userSpaceOnUse">
      <stop offset="0.132885" stop-color="#F95A62" stop-opacity="0"/>
      <stop offset="0.196683" stop-color="#F95A62" stop-opacity="0.351563"/>
      <stop offset="0.308322" stop-color="#F95A62"/>
      <stop offset="0.380799" stop-color="#F95A62"/>
      <stop offset="0.476753" stop-color="#F95A62" stop-opacity="0.58"/>
      <stop offset="0.576389" stop-color="#F95A62" stop-opacity="0"/>
    </linearGradient>
    <linearGradient id="paint31_linear_550_13331" x1="48.1979" y1="38.5403" x2="44.2804" y2="42.3726" gradientUnits="userSpaceOnUse">
      <stop offset="0.132885" stop-color="#FD5699" stop-opacity="0"/>
      <stop offset="0.196683" stop-color="#FD5699" stop-opacity="0.351563"/>
      <stop offset="0.308322" stop-color="#FF63A1"/>
      <stop offset="0.38907" stop-color="#FD5699" stop-opacity="0.8"/>
      <stop offset="0.491799" stop-color="#FD5699" stop-opacity="0.215104"/>
      <stop offset="0.576389" stop-color="#FD5699" stop-opacity="0"/>
    </linearGradient>
    <radialGradient id="paint32_radial_550_13331" cx="0" cy="0" r="1" gradientUnits="userSpaceOnUse" gradientTransform="translate(30.5221 36.7642) rotate(-119.374) scale(12.5236 15.5452)">
      <stop stop-color="#D82667"/>
      <stop offset="0.524806" stop-color="#D32167" stop-opacity="0.59"/>
      <stop offset="1" stop-color="#D74568" stop-opacity="0"/>
    </radialGradient>
    <linearGradient id="paint33_linear_550_13331" x1="14.3948" y1="25.4645" x2="16.306" y2="23.5002" gradientUnits="userSpaceOnUse">
      <stop stop-color="#C23240"/>
      <stop offset="0.643785" stop-color="#C23240" stop-opacity="0.265274"/>
      <stop offset="0.792092" stop-color="#C23240" stop-opacity="0.133759"/>
      <stop offset="0.894667" stop-color="#C23240" stop-opacity="0.0535496"/>
      <stop offset="1" stop-color="#C23240" stop-opacity="0"/>
    </linearGradient>
    <linearGradient id="paint34_linear_550_13331" x1="17.9834" y1="21.8043" x2="16.5399" y2="23.2477" gradientUnits="userSpaceOnUse">
      <stop stop-color="#F84E59" stop-opacity="0"/>
      <stop offset="0.117634" stop-color="#F84E59"/>
      <stop offset="0.643785" stop-color="#F84E59" stop-opacity="0.265274"/>
      <stop offset="0.792092" stop-color="#F84E59" stop-opacity="0.133759"/>
      <stop offset="0.894667" stop-color="#F84E59" stop-opacity="0.0535496"/>
      <stop offset="1" stop-color="#F84E59" stop-opacity="0"/>
    </linearGradient>
    <linearGradient id="paint35_linear_550_13331" x1="44.7135" y1="34.8587" x2="43.3112" y2="36.3597" gradientUnits="userSpaceOnUse">
      <stop stop-color="#F95A99"/>
      <stop offset="0.643785" stop-color="#F95A99" stop-opacity="0.265274"/>
      <stop offset="0.792092" stop-color="#F95A99" stop-opacity="0.133759"/>
      <stop offset="0.894667" stop-color="#F95A99" stop-opacity="0.0535496"/>
      <stop offset="1" stop-color="#F95A99" stop-opacity="0"/>
    </linearGradient>
    <linearGradient id="paint36_linear_550_13331" x1="54.6838" y1="48.9787" x2="40.225" y2="35.4527" gradientUnits="userSpaceOnUse">
      <stop stop-color="#D8207B"/>
      <stop offset="1" stop-color="#D8207B" stop-opacity="0"/>
    </linearGradient>
    <linearGradient id="paint37_linear_550_13331" x1="41.1579" y1="38.1477" x2="42.8417" y2="36.4834" gradientUnits="userSpaceOnUse">
      <stop stop-color="#C23274" stop-opacity="0"/>
      <stop offset="0.151164" stop-color="#C23274"/>
      <stop offset="0.643785" stop-color="#C23274" stop-opacity="0.265274"/>
      <stop offset="0.792092" stop-color="#C23274" stop-opacity="0.133759"/>
      <stop offset="0.894667" stop-color="#C23274" stop-opacity="0.0535496"/>
      <stop offset="1" stop-color="#C23274" stop-opacity="0"/>
    </linearGradient>
    <radialGradient id="paint38_radial_550_13331" cx="0" cy="0" r="1" gradientUnits="userSpaceOnUse" gradientTransform="translate(35.0219 31.4945) rotate(53.427) scale(4.46352 5.54047)">
      <stop offset="0.397474" stop-color="#E53375"/>
      <stop offset="0.735834" stop-color="#E53375" stop-opacity="0.594561"/>
      <stop offset="1" stop-color="#E53375" stop-opacity="0"/>
    </radialGradient>
    <radialGradient id="paint39_radial_550_13331" cx="0" cy="0" r="1" gradientUnits="userSpaceOnUse" gradientTransform="translate(32.4322 36.2594) rotate(-12.6723) scale(5.38031 6.67847)">
      <stop offset="0.397474" stop-color="#E53375"/>
      <stop offset="0.735834" stop-color="#E53375" stop-opacity="0.594561"/>
      <stop offset="1" stop-color="#E53375" stop-opacity="0"/>
    </radialGradient>
    <radialGradient id="paint40_radial_550_13331" cx="0" cy="0" r="1" gradientUnits="userSpaceOnUse" gradientTransform="translate(29.5332 38.7223) rotate(-76.5727) scale(2.46427 7.51619)">
      <stop offset="0.103204" stop-color="#C92064"/>
      <stop offset="0.643785" stop-color="#C92064" stop-opacity="0.265274"/>
      <stop offset="0.883033" stop-color="#C92064" stop-opacity="0.055322"/>
      <stop offset="1" stop-color="#C92064" stop-opacity="0"/>
    </radialGradient>
    <radialGradient id="paint41_radial_550_13331" cx="0" cy="0" r="1" gradientUnits="userSpaceOnUse" gradientTransform="translate(31.3968 38.8465) rotate(-117.122) scale(2.83263 8.63971)">
      <stop offset="0.103204" stop-color="#C92064"/>
      <stop offset="0.643785" stop-color="#C92064" stop-opacity="0.265274"/>
      <stop offset="0.883033" stop-color="#C92064" stop-opacity="0.055322"/>
      <stop offset="1" stop-color="#C92064" stop-opacity="0"/>
    </radialGradient>
    <radialGradient id="paint42_radial_550_13331" cx="0" cy="0" r="1" gradientUnits="userSpaceOnUse" gradientTransform="translate(34.3956 37.2101) rotate(-133.472) scale(2.98313 3.33098)">
      <stop offset="0.103204" stop-color="#D3296E"/>
      <stop offset="0.643785" stop-color="#D3296E" stop-opacity="0.265274"/>
      <stop offset="0.883033" stop-color="#D3296E" stop-opacity="0.055322"/>
      <stop offset="1" stop-color="#D3296E" stop-opacity="0"/>
    </radialGradient>
    <radialGradient id="paint43_radial_550_13331" cx="0" cy="0" r="1" gradientUnits="userSpaceOnUse" gradientTransform="translate(35.973 35.4713) rotate(-124.657) scale(2.77383 3.09728)">
      <stop offset="0.103204" stop-color="#D3296E"/>
      <stop offset="0.643785" stop-color="#D3296E" stop-opacity="0.265274"/>
      <stop offset="0.883033" stop-color="#D3296E" stop-opacity="0.055322"/>
      <stop offset="1" stop-color="#D3296E" stop-opacity="0"/>
    </radialGradient>
    <radialGradient id="paint44_radial_550_13331" cx="0" cy="0" r="1" gradientUnits="userSpaceOnUse" gradientTransform="translate(36.9255 34.3946) rotate(-85.0399) scale(2.28186 2.54794)">
      <stop stop-color="#D3296E"/>
      <stop offset="0.643785" stop-color="#D3296E" stop-opacity="0.265274"/>
      <stop offset="0.883033" stop-color="#D3296E" stop-opacity="0.055322"/>
      <stop offset="1" stop-color="#D3296E" stop-opacity="0"/>
    </radialGradient>
    <radialGradient id="paint45_radial_550_13331" cx="0" cy="0" r="1" gradientUnits="userSpaceOnUse" gradientTransform="translate(38.5921 32.0849) rotate(119.894) scale(1.22826 3.60907)">
      <stop stop-color="#FB5593"/>
      <stop offset="0.172737" stop-color="#FB5593" stop-opacity="0.8"/>
      <stop offset="0.425661" stop-color="#FB5593" stop-opacity="0.461552"/>
      <stop offset="0.6186" stop-color="#FB5593" stop-opacity="0.215104"/>
      <stop offset="0.805943" stop-color="#FB5593" stop-opacity="0.0801793"/>
      <stop offset="1" stop-color="#FB5593" stop-opacity="0"/>
    </radialGradient>
    <radialGradient id="paint46_radial_550_13331" cx="0" cy="0" r="1" gradientUnits="userSpaceOnUse" gradientTransform="translate(37.0808 31.4183) rotate(90.9093) scale(1.479 2.95987)">
      <stop stop-color="#FB5593" stop-opacity="0.89"/>
      <stop offset="0.172737" stop-color="#FB5593" stop-opacity="0.8"/>
      <stop offset="0.425661" stop-color="#FB5593" stop-opacity="0.461552"/>
      <stop offset="0.609375" stop-color="#FB5593" stop-opacity="0.215104"/>
      <stop offset="0.805943" stop-color="#FB5593" stop-opacity="0.0801793"/>
      <stop offset="1" stop-color="#FB5593" stop-opacity="0"/>
    </radialGradient>
    <radialGradient id="paint47_radial_550_13331" cx="0" cy="0" r="1" gradientUnits="userSpaceOnUse" gradientTransform="translate(35.2559 32.0933) rotate(55.069) scale(1.46854 3.52898)">
      <stop stop-color="#F7528E" stop-opacity="0.89"/>
      <stop offset="0.172737" stop-color="#F7528E" stop-opacity="0.8"/>
      <stop offset="0.425661" stop-color="#F7528E" stop-opacity="0.461552"/>
      <stop offset="0.6186" stop-color="#F7528E" stop-opacity="0.215104"/>
      <stop offset="0.805943" stop-color="#F7528E" stop-opacity="0.0801793"/>
      <stop offset="1" stop-color="#F7528E" stop-opacity="0"/>
    </radialGradient>
    <radialGradient id="paint48_radial_550_13331" cx="0" cy="0" r="1" gradientUnits="userSpaceOnUse" gradientTransform="translate(32.8791 34.0707) rotate(54.2461) scale(1.44622 4.40267)">
      <stop stop-color="#EB3E7A" stop-opacity="0.89"/>
      <stop offset="0.172737" stop-color="#EB3E7A" stop-opacity="0.8"/>
      <stop offset="0.425661" stop-color="#EB3E7A" stop-opacity="0.461552"/>
      <stop offset="0.6186" stop-color="#EB3E7A" stop-opacity="0.215104"/>
      <stop offset="0.805943" stop-color="#EB3E7A" stop-opacity="0.0801793"/>
      <stop offset="1" stop-color="#EB3E7A" stop-opacity="0"/>
    </radialGradient>
    <radialGradient id="paint49_radial_550_13331" cx="0" cy="0" r="1" gradientUnits="userSpaceOnUse" gradientTransform="translate(30.3434 35.9911) rotate(-97.0466) scale(1.12653 1.88571)">
      <stop stop-color="#F4567D" stop-opacity="0.89"/>
      <stop offset="0.172737" stop-color="#F4567D" stop-opacity="0.8"/>
      <stop offset="0.425661" stop-color="#F4567D" stop-opacity="0.461552"/>
      <stop offset="0.6186" stop-color="#F4567D" stop-opacity="0.215104"/>
      <stop offset="0.805943" stop-color="#F4567D" stop-opacity="0.0801793"/>
      <stop offset="1" stop-color="#F4567D" stop-opacity="0"/>
    </radialGradient>
    <radialGradient id="paint50_radial_550_13331" cx="0" cy="0" r="1" gradientUnits="userSpaceOnUse" gradientTransform="translate(31.8099 35.3637) rotate(-124.624) scale(1.03036 2.56715)">
      <stop stop-color="#F4567D" stop-opacity="0.89"/>
      <stop offset="0.172737" stop-color="#F4567D" stop-opacity="0.8"/>
      <stop offset="0.425661" stop-color="#F4567D" stop-opacity="0.461552"/>
      <stop offset="0.6186" stop-color="#F4567D" stop-opacity="0.215104"/>
      <stop offset="0.805943" stop-color="#F4567D" stop-opacity="0.0801793"/>
      <stop offset="1" stop-color="#F4567D" stop-opacity="0"/>
    </radialGradient>
    <radialGradient id="paint51_radial_550_13331" cx="0" cy="0" r="1" gradientUnits="userSpaceOnUse" gradientTransform="translate(28.8074 35.4524) rotate(-67.4794) scale(1.31821 3.04082)">
      <stop stop-color="#F4567D"/>
      <stop offset="0.172737" stop-color="#F4567D" stop-opacity="0.8"/>
      <stop offset="0.425661" stop-color="#F4567D" stop-opacity="0.461552"/>
      <stop offset="0.6186" stop-color="#F4567D" stop-opacity="0.215104"/>
      <stop offset="0.805943" stop-color="#F4567D" stop-opacity="0.0801793"/>
      <stop offset="1" stop-color="#F4567D" stop-opacity="0"/>
    </radialGradient>
    <radialGradient id="paint52_radial_550_13331" cx="0" cy="0" r="1" gradientUnits="userSpaceOnUse" gradientTransform="translate(31.6939 31.9003) rotate(41.1345) scale(2.36923 4.64775)">
      <stop stop-color="#C74C64"/>
      <stop offset="0.643785" stop-color="#C74C64" stop-opacity="0.265274"/>
      <stop offset="0.883033" stop-color="#C74C64" stop-opacity="0.055322"/>
      <stop offset="1" stop-color="#C74C64" stop-opacity="0"/>
    </radialGradient>
    <radialGradient id="paint53_radial_550_13331" cx="0" cy="0" r="1" gradientUnits="userSpaceOnUse" gradientTransform="translate(37.8936 28.0031) rotate(103.696) scale(3.25724 7.74351)">
      <stop stop-color="#D73D6F"/>
      <stop offset="0.643785" stop-color="#D73D6F" stop-opacity="0.265274"/>
      <stop offset="0.883033" stop-color="#D73D6F" stop-opacity="0.055322"/>
      <stop offset="1" stop-color="#D73D6F" stop-opacity="0"/>
    </radialGradient>
    <radialGradient id="paint54_radial_550_13331" cx="0" cy="0" r="1" gradientUnits="userSpaceOnUse" gradientTransform="translate(35.58 28.402) rotate(67.264) scale(3.02757 7.19752)">
      <stop stop-color="#CA4367"/>
      <stop offset="0.643785" stop-color="#CA4367" stop-opacity="0.265274"/>
      <stop offset="0.883033" stop-color="#CA4367" stop-opacity="0.055322"/>
      <stop offset="1" stop-color="#CA4367" stop-opacity="0"/>
    </radialGradient>
  </defs>
</svg>