<svg xmlns="http://www.w3.org/2000/svg" width="56" height="57" viewBox="0 0 56 57" fill="none">
  <path d="M14 3.75H43.75C45.683 3.75 47.25 5.317 47.25 7.25V45.75H14V3.75Z" fill="url(#paint0_linear_550_13358)"/>
  <path d="M14 3.75H43.75C45.683 3.75 47.25 5.317 47.25 7.25V45.75H14V3.75Z" fill="url(#paint1_linear_550_13358)"/>
  <path d="M11.375 3.75C9.92525 3.75 8.75 4.92525 8.75 6.375V49.25H10.5C10.5 48.2835 11.2835 47.5 12.25 47.5H14V3.75H11.375Z" fill="url(#paint2_linear_550_13358)"/>
  <path d="M11.375 3.75C9.92525 3.75 8.75 4.92525 8.75 6.375V49.25H10.5C10.5 48.2835 11.2835 47.5 12.25 47.5H14V3.75H11.375Z" fill="url(#paint3_radial_550_13358)"/>
  <path d="M11.375 45.75C9.92525 45.75 8.75 46.9253 8.75 48.375V50.125C8.75 51.5747 9.92525 52.75 11.375 52.75H45.3385C46.4814 52.75 47.25 52.1647 47.25 51H12.25C11.2835 51 10.5 50.2165 10.5 49.25C10.5 48.2835 11.2835 47.5 12.25 47.5H47.25V45.75H11.375Z" fill="url(#paint4_linear_550_13358)"/>
  <rect x="39.2383" y="3.75" width="2.18054" height="41.8633" fill="url(#paint5_linear_550_13358)"/>
  <rect width="2.369" height="6.89062" transform="matrix(1 0 0 -1 39.3047 52.5039)" fill="url(#paint6_linear_550_13358)"/>
  <path d="M21.7656 12.4453C21.7656 11.4788 22.5491 10.6953 23.5156 10.6953H32.7031C33.6696 10.6953 34.4531 11.4788 34.4531 12.4453V16.0547C34.4531 17.0212 33.6696 17.8047 32.7031 17.8047H23.5156C22.5491 17.8047 21.7656 17.0212 21.7656 16.0547V12.4453Z" fill="#DED7E6"/>
  <path d="M47.25 51V47.5H12.25C11.2835 47.5 10.5 48.2835 10.5 49.25C10.5 50.2165 11.2835 51 12.25 51H47.25Z" fill="url(#paint7_linear_550_13358)"/>
  <path d="M47.25 51V47.5H12.25C11.2835 47.5 10.5 48.2835 10.5 49.25C10.5 50.2165 11.2835 51 12.25 51H47.25Z" fill="url(#paint8_linear_550_13358)"/>
  <path d="M47.25 51V47.5H12.25C11.2835 47.5 10.5 48.2835 10.5 49.25C10.5 50.2165 11.2835 51 12.25 51H47.25Z" fill="url(#paint9_radial_550_13358)"/>
  <rect width="1.75" height="7.13672" transform="matrix(1 0 0 -1 40.332 52.75)" fill="url(#paint10_linear_550_13358)"/>
  <rect x="40.332" y="3.75" width="1.75" height="41.8633" fill="url(#paint11_linear_550_13358)"/>
  <defs>
    <linearGradient id="paint0_linear_550_13358" x1="30.625" y1="3.75" x2="30.625" y2="45.75" gradientUnits="userSpaceOnUse">
      <stop stop-color="#5D4573"/>
      <stop offset="1" stop-color="#4B3E59"/>
    </linearGradient>
    <linearGradient id="paint1_linear_550_13358" x1="50.2076" y1="9.66917" x2="45.4655" y2="9.83853" gradientUnits="userSpaceOnUse">
      <stop offset="0.408703" stop-color="#7B698D"/>
      <stop offset="1" stop-color="#7B698D" stop-opacity="0"/>
    </linearGradient>
    <linearGradient id="paint2_linear_550_13358" x1="9.10931" y1="29.5409" x2="14" y2="29.5409" gradientUnits="userSpaceOnUse">
      <stop stop-color="#50475B"/>
      <stop offset="1" stop-color="#453C4F"/>
    </linearGradient>
    <radialGradient id="paint3_radial_550_13358" cx="0" cy="0" r="1" gradientUnits="userSpaceOnUse" gradientTransform="translate(9.44803 46.9286) rotate(-90) scale(11.6295 2.04918)">
      <stop stop-color="#51475C"/>
      <stop offset="1" stop-color="#51475C" stop-opacity="0"/>
    </radialGradient>
    <linearGradient id="paint4_linear_550_13358" x1="11.2545" y1="50.9368" x2="47.25" y2="50.8804" gradientUnits="userSpaceOnUse">
      <stop stop-color="#512F70"/>
      <stop offset="1" stop-color="#4F2D6D"/>
    </linearGradient>
    <linearGradient id="paint5_linear_550_13358" x1="40.3285" y1="28.4696" x2="39.354" y2="28.4696" gradientUnits="userSpaceOnUse">
      <stop stop-color="#3B2D4A"/>
      <stop offset="1" stop-color="#3B2D4A" stop-opacity="0"/>
    </linearGradient>
    <linearGradient id="paint6_linear_550_13358" x1="1.18449" y1="4.0688" x2="0.125717" y2="4.0688" gradientUnits="userSpaceOnUse">
      <stop stop-color="#42215F"/>
      <stop offset="1" stop-color="#42215F" stop-opacity="0"/>
    </linearGradient>
    <linearGradient id="paint7_linear_550_13358" x1="11.7626" y1="49.9771" x2="46.9333" y2="49.9771" gradientUnits="userSpaceOnUse">
      <stop stop-color="#D5BCEB"/>
      <stop offset="1" stop-color="#DCCCED"/>
      <stop offset="1" stop-color="#E3D3F2"/>
    </linearGradient>
    <linearGradient id="paint8_linear_550_13358" x1="28.4375" y1="47.0415" x2="28.4375" y2="49.5254" gradientUnits="userSpaceOnUse">
      <stop stop-color="#9F84AE"/>
      <stop offset="1" stop-color="#C5B1D6" stop-opacity="0"/>
    </linearGradient>
    <radialGradient id="paint9_radial_550_13358" cx="0" cy="0" r="1" gradientUnits="userSpaceOnUse" gradientTransform="translate(40.5234 47.8828) rotate(90) scale(5.30469 1.3125)">
      <stop stop-color="#937BAD"/>
      <stop offset="1" stop-color="#B9A2C9" stop-opacity="0"/>
    </radialGradient>
    <linearGradient id="paint10_linear_550_13358" x1="0" y1="3.16833" x2="1.75" y2="3.16833" gradientUnits="userSpaceOnUse">
      <stop offset="0.339349" stop-color="#7D56C2"/>
      <stop offset="0.788086" stop-color="#8C6CCC"/>
    </linearGradient>
    <linearGradient id="paint11_linear_550_13358" x1="40.332" y1="23.3459" x2="42.4965" y2="23.3459" gradientUnits="userSpaceOnUse">
      <stop offset="0.373321" stop-color="#8168B6"/>
      <stop offset="0.868068" stop-color="#A38AD4"/>
    </linearGradient>
  </defs>
</svg>