<svg width="80" height="81" viewBox="0 0 80 81" fill="none" xmlns="http://www.w3.org/2000/svg">
<g id="Layer_1" clip-path="url(#clip0_550_13982)">
<path id="Rectangle 6865" d="M2.5 3.30664H47.5V22.6816L36.875 28.3066L30.625 33.9316L26.25 38.9316V48.3066H2.5V3.30664Z" fill="#F3F4FA"/>
<g id="Group">
<path id="Vector" d="M58.3333 32.1667C58.3333 31.2467 57.5867 30.5 56.6667 30.5H55.51C55.2233 30.17 54.9933 29.8033 54.68 29.49L50 24.81V8.83333C50 4.24 46.2633 0.5 41.6667 0.5H8.33333C3.73667 0.5 0 4.24 0 8.83333V42.1667C0 46.76 3.73667 50.5 8.33333 50.5H25C25.92 50.5 26.6667 49.7533 26.6667 48.8333C26.6667 47.9133 25.92 47.1667 25 47.1667H8.33333C5.57667 47.1667 3.33333 44.9233 3.33333 42.1667V17.1667H46.6667V22.8833C45.0733 22.6267 43.3833 23.1 42.1567 24.3233C41.5467 24.93 41.1233 25.6533 40.88 26.42C39.0633 25.79 36.8933 26.2567 35.49 27.6567C34.7267 28.42 34.25 29.3633 34.06 30.35C32.4733 30.12 30.8133 30.6667 29.6567 31.8233C28.55 32.93 28.05 34.4133 28.1467 35.8633C27.0267 36.0167 25.9867 36.5267 25.1733 37.34C23.1467 39.3667 23.1467 42.67 25.1733 44.6967L26.6667 46.19V48.8333V52.1667C26.6667 54.88 27.99 57.2733 30.0067 58.7967C30.0067 58.81 30 58.82 30 58.8333V60.5C30 61.42 30.7467 62.1667 31.6667 62.1667C32.5867 62.1667 33.3333 61.42 33.3333 60.5V60.33C33.8733 60.44 34.43 60.5 35 60.5H41.8333C51.85 60.5 60 52.35 60.0033 42.3367C60.0033 39.1767 59.1267 36.1767 57.62 33.4967C58.04 33.1933 58.3333 32.7233 58.3333 32.1667ZM3.33333 13.8333V8.83333C3.33333 6.07667 5.57667 3.83333 8.33333 3.83333H41.6667C44.4233 3.83333 46.6667 6.07667 46.6667 8.83333V13.8333H3.33333ZM41.8333 57.1667H35C32.2433 57.1667 30 54.9233 30 52.1667V49.5233L33.8233 53.3467C34.4733 53.9967 35.53 53.9967 36.18 53.3467C36.5033 53.02 36.6667 52.5933 36.6667 52.1667C36.6667 51.74 36.5033 51.3133 36.18 50.99L27.53 42.34C26.8 41.61 26.8 40.4267 27.53 39.6967C28.2333 38.99 29.47 38.99 30.1733 39.6967L33.8233 43.3467C34.4733 43.9967 35.53 43.9967 36.18 43.3467C36.5033 43.02 36.6667 42.5933 36.6667 42.1667C36.6667 41.74 36.5033 41.3133 36.18 40.99L32.0133 36.8233C31.2833 36.0933 31.2833 34.91 32.0133 34.18C32.7167 33.4733 33.9533 33.4733 34.6567 34.18L37.1567 36.68C37.8067 37.33 38.8633 37.33 39.5133 36.68C39.8367 36.3533 40 35.9267 40 35.5C40 35.0733 39.8367 34.6467 39.51 34.3267L37.8433 32.66C37.1133 31.93 37.1133 30.7467 37.8433 30.0167C38.5733 29.2867 39.7567 29.2867 40.4867 30.0167L42.1533 31.6833C42.8033 32.3333 43.86 32.3333 44.51 31.6833C44.8333 31.3567 44.9967 30.93 44.9967 30.5033C44.9967 30.0767 44.8367 29.65 44.51 29.3233C43.78 28.5933 43.78 27.41 44.51 26.68C45.24 25.95 46.4233 25.95 47.1533 26.68L52.32 31.8467C55.1233 34.6467 56.6667 38.37 56.6667 42.3333C56.6667 50.5133 50.0133 57.1667 41.8333 57.1667Z" fill="#B5B8D3"/>
<path id="Vector_2" d="M36.5791 76.8477C35.8091 76.561 35.1191 76.0811 34.5758 75.4611C33.9691 74.7711 32.9158 74.701 32.2258 75.3077C31.5325 75.9177 31.4625 76.9677 32.0691 77.6611C32.9758 78.6944 34.1258 79.491 35.4058 79.971C35.6025 80.0444 35.7958 80.0777 35.9925 80.0777C36.6658 80.0777 37.2991 79.6644 37.5525 78.9944C37.8791 78.1311 37.4391 77.171 36.5791 76.8477Z" fill="#B5B8D3"/>
<path id="Vector_3" d="M45.7826 77.166H42.5026C41.5826 77.166 40.8359 77.9127 40.8359 78.8327C40.8359 79.7527 41.5826 80.4993 42.5026 80.4993H45.7826C46.7059 80.4993 47.4493 79.7527 47.4493 78.8327C47.4493 77.9127 46.7026 77.166 45.7826 77.166Z" fill="#B5B8D3"/>
<path id="Vector_4" d="M74.2664 76.4378C73.5664 76.8678 72.7664 77.1145 71.9464 77.1578C71.023 77.2078 70.3197 77.9945 70.3697 78.9111C70.4164 79.8011 71.1497 80.4911 72.033 80.4911C72.063 80.4911 72.093 80.4911 72.123 80.4878C73.493 80.4145 74.8364 79.9978 76.0064 79.2811C76.793 78.7978 77.0397 77.7711 76.5597 76.9878C76.0764 76.2011 75.0397 75.9611 74.2664 76.4378Z" fill="#B5B8D3"/>
<path id="Vector_5" d="M33.3333 70.4051V67.1217C33.3333 66.2017 32.5867 65.4551 31.6667 65.4551C30.7467 65.4551 30 66.2017 30 67.1217V70.4051C30 71.3251 30.7467 72.0717 31.6667 72.0717C32.5867 72.0717 33.3333 71.3284 33.3333 70.4051Z" fill="#B5B8D3"/>
<path id="Vector_6" d="M78.3307 37.9453C77.4107 37.9453 76.6641 38.692 76.6641 39.612V42.892C76.6641 43.812 77.4107 44.5586 78.3307 44.5586C79.2507 44.5586 79.9974 43.8153 79.9974 42.892V39.612C79.9974 38.692 79.2507 37.9453 78.3307 37.9453Z" fill="#B5B8D3"/>
<path id="Vector_7" d="M72.7103 33.9469C73.5103 34.1169 74.2637 34.4869 74.8903 35.0202C75.207 35.2869 75.5903 35.4169 75.9703 35.4169C76.4436 35.4169 76.9103 35.2169 77.2436 34.8336C77.837 34.1302 77.7537 33.0802 77.0537 32.4836C76.0037 31.5936 74.7437 30.9702 73.407 30.6869C72.5303 30.5036 71.6203 31.0669 71.427 31.9702C71.237 32.8702 71.8103 33.7536 72.7103 33.9469Z" fill="#B5B8D3"/>
<path id="Vector_8" d="M55.6264 77.166H52.3464C51.4264 77.166 50.6797 77.9127 50.6797 78.8327C50.6797 79.7527 51.4264 80.4993 52.3464 80.4993H55.6264C56.5497 80.4993 57.293 79.7527 57.293 78.8327C57.293 77.9127 56.5464 77.166 55.6264 77.166Z" fill="#B5B8D3"/>
<path id="Vector_9" d="M78.3335 67.4766C77.4135 67.4766 76.6668 68.2232 76.6668 69.1432L76.6602 72.3632L78.3268 72.4266L80.0002 72.1666V69.1432C80.0002 68.2232 79.2535 67.4766 78.3335 67.4766Z" fill="#B5B8D3"/>
<path id="Vector_10" d="M78.3307 57.6328C77.4107 57.6328 76.6641 58.3795 76.6641 59.2995V62.5828C76.6641 63.5028 77.4107 64.2495 78.3307 64.2495C79.2507 64.2495 79.9974 63.5028 79.9974 62.5795V59.2995C79.9974 58.3795 79.2507 57.6328 78.3307 57.6328Z" fill="#B5B8D3"/>
<path id="Vector_11" d="M65.4779 77.166H62.1979C61.2779 77.166 60.5312 77.9127 60.5312 78.8327C60.5312 79.7527 61.2779 80.4993 62.1979 80.4993H65.4779C66.3979 80.4993 67.1446 79.7527 67.1446 78.8327C67.1446 77.9127 66.3979 77.166 65.4779 77.166Z" fill="#B5B8D3"/>
<path id="Vector_12" d="M78.3307 47.7891C77.4107 47.7891 76.6641 48.5357 76.6641 49.4557V52.7357C76.6641 53.6557 77.4107 54.4024 78.3307 54.4024C79.2507 54.4024 79.9974 53.6557 79.9974 52.7357V49.4557C79.9974 48.5357 79.2507 47.7891 78.3307 47.7891Z" fill="#B5B8D3"/>
<path id="Vector_13" d="M66.5092 30.5H63.2292C62.3092 30.5 61.5625 31.2467 61.5625 32.1667C61.5625 33.0867 62.3092 33.8333 63.2292 33.8333H66.5092C67.4292 33.8333 68.1758 33.0867 68.1758 32.1667C68.1758 31.2467 67.4292 30.5 66.5092 30.5Z" fill="#B5B8D3"/>
<path id="Vector_14" d="M8.33073 10.4993C9.2512 10.4993 9.9974 9.75316 9.9974 8.83268C9.9974 7.91221 9.2512 7.16602 8.33073 7.16602C7.41025 7.16602 6.66406 7.91221 6.66406 8.83268C6.66406 9.75316 7.41025 10.4993 8.33073 10.4993Z" fill="#B5B8D3"/>
<path id="Vector_15" d="M15.0026 10.4993C15.9231 10.4993 16.6693 9.75316 16.6693 8.83268C16.6693 7.91221 15.9231 7.16602 15.0026 7.16602C14.0821 7.16602 13.3359 7.91221 13.3359 8.83268C13.3359 9.75316 14.0821 10.4993 15.0026 10.4993Z" fill="#B5B8D3"/>
<path id="Vector_16" d="M21.6667 10.4993C22.5871 10.4993 23.3333 9.75316 23.3333 8.83268C23.3333 7.91221 22.5871 7.16602 21.6667 7.16602C20.7462 7.16602 20 7.91221 20 8.83268C20 9.75316 20.7462 10.4993 21.6667 10.4993Z" fill="#B5B8D3"/>
</g>
</g>
<defs>
<clipPath id="clip0_550_13982">
<rect width="80" height="80" fill="white" transform="translate(0 0.5)"/>
</clipPath>
</defs>
</svg>
