<svg xmlns="http://www.w3.org/2000/svg" width="56" height="57" viewBox="0 0 56 57" fill="none">
  <path fill-rule="evenodd" clip-rule="evenodd" d="M33.7181 14.5684L30.5873 15.5596L31.9826 19.9665C32.1447 20.4787 31.6934 20.9751 31.1681 20.8622L25.647 19.6757L24.957 22.8864L30.4682 24.0706C30.9959 24.1841 31.2021 24.8268 30.8389 25.2261L26.9666 29.4826L29.3957 31.6924L33.2506 27.4551C33.6137 27.056 34.2729 27.2005 34.4358 27.7149L36.3807 33.8583L39.5115 32.867L37.5472 26.6625C37.385 26.1504 37.8364 25.654 38.3616 25.7669L43.7225 26.9189L44.4125 23.7083L39.1166 22.5703C38.5889 22.4568 38.3827 21.8141 38.7459 21.4148L42.3121 17.4948L39.883 15.285L36.2961 19.2276C35.933 19.6267 35.2738 19.4823 35.111 18.9678L33.7181 14.5684ZM34.911 25.4855C36.0701 25.4855 37.0096 24.5459 37.0096 23.3869C37.0096 22.2278 36.0701 21.2882 34.911 21.2882C33.752 21.2882 32.8124 22.2278 32.8124 23.3869C32.8124 24.5459 33.752 25.4855 34.911 25.4855Z" fill="#4D4259"/>
  <path fill-rule="evenodd" clip-rule="evenodd" d="M33.7181 14.5684L30.5873 15.5596L31.9826 19.9665C32.1447 20.4787 31.6934 20.9751 31.1681 20.8622L25.647 19.6757L24.957 22.8864L30.4682 24.0706C30.9959 24.1841 31.2021 24.8268 30.8389 25.2261L26.9666 29.4826L29.3957 31.6924L33.2506 27.4551C33.6137 27.056 34.2729 27.2005 34.4358 27.7149L36.3807 33.8583L39.5115 32.867L37.5472 26.6625C37.385 26.1504 37.8364 25.654 38.3616 25.7669L43.7225 26.9189L44.4125 23.7083L39.1166 22.5703C38.5889 22.4568 38.3827 21.8141 38.7459 21.4148L42.3121 17.4948L39.883 15.285L36.2961 19.2276C35.933 19.6267 35.2738 19.4823 35.111 18.9678L33.7181 14.5684ZM34.911 25.4855C36.0701 25.4855 37.0096 24.5459 37.0096 23.3869C37.0096 22.2278 36.0701 21.2882 34.911 21.2882C33.752 21.2882 32.8124 22.2278 32.8124 23.3869C32.8124 24.5459 33.752 25.4855 34.911 25.4855Z" fill="url(#paint0_radial_550_13324)"/>
  <path fill-rule="evenodd" clip-rule="evenodd" d="M33.7181 14.5684L30.5873 15.5596L31.9826 19.9665C32.1447 20.4787 31.6934 20.9751 31.1681 20.8622L25.647 19.6757L24.957 22.8864L30.4682 24.0706C30.9959 24.1841 31.2021 24.8268 30.8389 25.2261L26.9666 29.4826L29.3957 31.6924L33.2506 27.4551C33.6137 27.056 34.2729 27.2005 34.4358 27.7149L36.3807 33.8583L39.5115 32.867L37.5472 26.6625C37.385 26.1504 37.8364 25.654 38.3616 25.7669L43.7225 26.9189L44.4125 23.7083L39.1166 22.5703C38.5889 22.4568 38.3827 21.8141 38.7459 21.4148L42.3121 17.4948L39.883 15.285L36.2961 19.2276C35.933 19.6267 35.2738 19.4823 35.111 18.9678L33.7181 14.5684ZM34.911 25.4855C36.0701 25.4855 37.0096 24.5459 37.0096 23.3869C37.0096 22.2278 36.0701 21.2882 34.911 21.2882C33.752 21.2882 32.8124 22.2278 32.8124 23.3869C32.8124 24.5459 33.752 25.4855 34.911 25.4855Z" fill="url(#paint1_linear_550_13324)"/>
  <path fill-rule="evenodd" clip-rule="evenodd" d="M33.7181 14.5684L30.5873 15.5596L31.9826 19.9665C32.1447 20.4787 31.6934 20.9751 31.1681 20.8622L25.647 19.6757L24.957 22.8864L30.4682 24.0706C30.9959 24.1841 31.2021 24.8268 30.8389 25.2261L26.9666 29.4826L29.3957 31.6924L33.2506 27.4551C33.6137 27.056 34.2729 27.2005 34.4358 27.7149L36.3807 33.8583L39.5115 32.867L37.5472 26.6625C37.385 26.1504 37.8364 25.654 38.3616 25.7669L43.7225 26.9189L44.4125 23.7083L39.1166 22.5703C38.5889 22.4568 38.3827 21.8141 38.7459 21.4148L42.3121 17.4948L39.883 15.285L36.2961 19.2276C35.933 19.6267 35.2738 19.4823 35.111 18.9678L33.7181 14.5684ZM34.911 25.4855C36.0701 25.4855 37.0096 24.5459 37.0096 23.3869C37.0096 22.2278 36.0701 21.2882 34.911 21.2882C33.752 21.2882 32.8124 22.2278 32.8124 23.3869C32.8124 24.5459 33.752 25.4855 34.911 25.4855Z" fill="url(#paint2_linear_550_13324)"/>
  <path fill-rule="evenodd" clip-rule="evenodd" d="M33.7181 14.5684L30.5873 15.5596L31.9826 19.9665C32.1447 20.4787 31.6934 20.9751 31.1681 20.8622L25.647 19.6757L24.957 22.8864L30.4682 24.0706C30.9959 24.1841 31.2021 24.8268 30.8389 25.2261L26.9666 29.4826L29.3957 31.6924L33.2506 27.4551C33.6137 27.056 34.2729 27.2005 34.4358 27.7149L36.3807 33.8583L39.5115 32.867L37.5472 26.6625C37.385 26.1504 37.8364 25.654 38.3616 25.7669L43.7225 26.9189L44.4125 23.7083L39.1166 22.5703C38.5889 22.4568 38.3827 21.8141 38.7459 21.4148L42.3121 17.4948L39.883 15.285L36.2961 19.2276C35.933 19.6267 35.2738 19.4823 35.111 18.9678L33.7181 14.5684ZM34.911 25.4855C36.0701 25.4855 37.0096 24.5459 37.0096 23.3869C37.0096 22.2278 36.0701 21.2882 34.911 21.2882C33.752 21.2882 32.8124 22.2278 32.8124 23.3869C32.8124 24.5459 33.752 25.4855 34.911 25.4855Z" fill="url(#paint3_linear_550_13324)"/>
  <path fill-rule="evenodd" clip-rule="evenodd" d="M33.7181 14.5684L30.5873 15.5596L31.9826 19.9665C32.1447 20.4787 31.6934 20.9751 31.1681 20.8622L25.647 19.6757L24.957 22.8864L30.4682 24.0706C30.9959 24.1841 31.2021 24.8268 30.8389 25.2261L26.9666 29.4826L29.3957 31.6924L33.2506 27.4551C33.6137 27.056 34.2729 27.2005 34.4358 27.7149L36.3807 33.8583L39.5115 32.867L37.5472 26.6625C37.385 26.1504 37.8364 25.654 38.3616 25.7669L43.7225 26.9189L44.4125 23.7083L39.1166 22.5703C38.5889 22.4568 38.3827 21.8141 38.7459 21.4148L42.3121 17.4948L39.883 15.285L36.2961 19.2276C35.933 19.6267 35.2738 19.4823 35.111 18.9678L33.7181 14.5684ZM34.911 25.4855C36.0701 25.4855 37.0096 24.5459 37.0096 23.3869C37.0096 22.2278 36.0701 21.2882 34.911 21.2882C33.752 21.2882 32.8124 22.2278 32.8124 23.3869C32.8124 24.5459 33.752 25.4855 34.911 25.4855Z" fill="url(#paint4_linear_550_13324)"/>
  <path fill-rule="evenodd" clip-rule="evenodd" d="M33.7181 14.5684L30.5873 15.5596L31.9826 19.9665C32.1447 20.4787 31.6934 20.9751 31.1681 20.8622L25.647 19.6757L24.957 22.8864L30.4682 24.0706C30.9959 24.1841 31.2021 24.8268 30.8389 25.2261L26.9666 29.4826L29.3957 31.6924L33.2506 27.4551C33.6137 27.056 34.2729 27.2005 34.4358 27.7149L36.3807 33.8583L39.5115 32.867L37.5472 26.6625C37.385 26.1504 37.8364 25.654 38.3616 25.7669L43.7225 26.9189L44.4125 23.7083L39.1166 22.5703C38.5889 22.4568 38.3827 21.8141 38.7459 21.4148L42.3121 17.4948L39.883 15.285L36.2961 19.2276C35.933 19.6267 35.2738 19.4823 35.111 18.9678L33.7181 14.5684ZM34.911 25.4855C36.0701 25.4855 37.0096 24.5459 37.0096 23.3869C37.0096 22.2278 36.0701 21.2882 34.911 21.2882C33.752 21.2882 32.8124 22.2278 32.8124 23.3869C32.8124 24.5459 33.752 25.4855 34.911 25.4855Z" fill="url(#paint5_linear_550_13324)"/>
  <path fill-rule="evenodd" clip-rule="evenodd" d="M33.7181 14.5684L30.5873 15.5596L31.9826 19.9665C32.1447 20.4787 31.6934 20.9751 31.1681 20.8622L25.647 19.6757L24.957 22.8864L30.4682 24.0706C30.9959 24.1841 31.2021 24.8268 30.8389 25.2261L26.9666 29.4826L29.3957 31.6924L33.2506 27.4551C33.6137 27.056 34.2729 27.2005 34.4358 27.7149L36.3807 33.8583L39.5115 32.867L37.5472 26.6625C37.385 26.1504 37.8364 25.654 38.3616 25.7669L43.7225 26.9189L44.4125 23.7083L39.1166 22.5703C38.5889 22.4568 38.3827 21.8141 38.7459 21.4148L42.3121 17.4948L39.883 15.285L36.2961 19.2276C35.933 19.6267 35.2738 19.4823 35.111 18.9678L33.7181 14.5684ZM34.911 25.4855C36.0701 25.4855 37.0096 24.5459 37.0096 23.3869C37.0096 22.2278 36.0701 21.2882 34.911 21.2882C33.752 21.2882 32.8124 22.2278 32.8124 23.3869C32.8124 24.5459 33.752 25.4855 34.911 25.4855Z" fill="url(#paint6_linear_550_13324)"/>
  <path fill-rule="evenodd" clip-rule="evenodd" d="M33.7181 14.5684L30.5873 15.5596L31.9826 19.9665C32.1447 20.4787 31.6934 20.9751 31.1681 20.8622L25.647 19.6757L24.957 22.8864L30.4682 24.0706C30.9959 24.1841 31.2021 24.8268 30.8389 25.2261L26.9666 29.4826L29.3957 31.6924L33.2506 27.4551C33.6137 27.056 34.2729 27.2005 34.4358 27.7149L36.3807 33.8583L39.5115 32.867L37.5472 26.6625C37.385 26.1504 37.8364 25.654 38.3616 25.7669L43.7225 26.9189L44.4125 23.7083L39.1166 22.5703C38.5889 22.4568 38.3827 21.8141 38.7459 21.4148L42.3121 17.4948L39.883 15.285L36.2961 19.2276C35.933 19.6267 35.2738 19.4823 35.111 18.9678L33.7181 14.5684ZM34.911 25.4855C36.0701 25.4855 37.0096 24.5459 37.0096 23.3869C37.0096 22.2278 36.0701 21.2882 34.911 21.2882C33.752 21.2882 32.8124 22.2278 32.8124 23.3869C32.8124 24.5459 33.752 25.4855 34.911 25.4855Z" fill="url(#paint7_radial_550_13324)"/>
  <path fill-rule="evenodd" clip-rule="evenodd" d="M33.7181 14.5684L30.5873 15.5596L31.9826 19.9665C32.1447 20.4787 31.6934 20.9751 31.1681 20.8622L25.647 19.6757L24.957 22.8864L30.4682 24.0706C30.9959 24.1841 31.2021 24.8268 30.8389 25.2261L26.9666 29.4826L29.3957 31.6924L33.2506 27.4551C33.6137 27.056 34.2729 27.2005 34.4358 27.7149L36.3807 33.8583L39.5115 32.867L37.5472 26.6625C37.385 26.1504 37.8364 25.654 38.3616 25.7669L43.7225 26.9189L44.4125 23.7083L39.1166 22.5703C38.5889 22.4568 38.3827 21.8141 38.7459 21.4148L42.3121 17.4948L39.883 15.285L36.2961 19.2276C35.933 19.6267 35.2738 19.4823 35.111 18.9678L33.7181 14.5684ZM34.911 25.4855C36.0701 25.4855 37.0096 24.5459 37.0096 23.3869C37.0096 22.2278 36.0701 21.2882 34.911 21.2882C33.752 21.2882 32.8124 22.2278 32.8124 23.3869C32.8124 24.5459 33.752 25.4855 34.911 25.4855Z" fill="url(#paint8_radial_550_13324)"/>
  <path fill-rule="evenodd" clip-rule="evenodd" d="M33.7181 14.5684L30.5873 15.5596L31.9826 19.9665C32.1447 20.4787 31.6934 20.9751 31.1681 20.8622L25.647 19.6757L24.957 22.8864L30.4682 24.0706C30.9959 24.1841 31.2021 24.8268 30.8389 25.2261L26.9666 29.4826L29.3957 31.6924L33.2506 27.4551C33.6137 27.056 34.2729 27.2005 34.4358 27.7149L36.3807 33.8583L39.5115 32.867L37.5472 26.6625C37.385 26.1504 37.8364 25.654 38.3616 25.7669L43.7225 26.9189L44.4125 23.7083L39.1166 22.5703C38.5889 22.4568 38.3827 21.8141 38.7459 21.4148L42.3121 17.4948L39.883 15.285L36.2961 19.2276C35.933 19.6267 35.2738 19.4823 35.111 18.9678L33.7181 14.5684ZM34.911 25.4855C36.0701 25.4855 37.0096 24.5459 37.0096 23.3869C37.0096 22.2278 36.0701 21.2882 34.911 21.2882C33.752 21.2882 32.8124 22.2278 32.8124 23.3869C32.8124 24.5459 33.752 25.4855 34.911 25.4855Z" fill="url(#paint9_radial_550_13324)"/>
  <path fill-rule="evenodd" clip-rule="evenodd" d="M33.7181 14.5684L30.5873 15.5596L31.9826 19.9665C32.1447 20.4787 31.6934 20.9751 31.1681 20.8622L25.647 19.6757L24.957 22.8864L30.4682 24.0706C30.9959 24.1841 31.2021 24.8268 30.8389 25.2261L26.9666 29.4826L29.3957 31.6924L33.2506 27.4551C33.6137 27.056 34.2729 27.2005 34.4358 27.7149L36.3807 33.8583L39.5115 32.867L37.5472 26.6625C37.385 26.1504 37.8364 25.654 38.3616 25.7669L43.7225 26.9189L44.4125 23.7083L39.1166 22.5703C38.5889 22.4568 38.3827 21.8141 38.7459 21.4148L42.3121 17.4948L39.883 15.285L36.2961 19.2276C35.933 19.6267 35.2738 19.4823 35.111 18.9678L33.7181 14.5684ZM34.911 25.4855C36.0701 25.4855 37.0096 24.5459 37.0096 23.3869C37.0096 22.2278 36.0701 21.2882 34.911 21.2882C33.752 21.2882 32.8124 22.2278 32.8124 23.3869C32.8124 24.5459 33.752 25.4855 34.911 25.4855Z" fill="url(#paint10_radial_550_13324)"/>
  <path fill-rule="evenodd" clip-rule="evenodd" d="M33.7181 14.5684L30.5873 15.5596L31.9826 19.9665C32.1447 20.4787 31.6934 20.9751 31.1681 20.8622L25.647 19.6757L24.957 22.8864L30.4682 24.0706C30.9959 24.1841 31.2021 24.8268 30.8389 25.2261L26.9666 29.4826L29.3957 31.6924L33.2506 27.4551C33.6137 27.056 34.2729 27.2005 34.4358 27.7149L36.3807 33.8583L39.5115 32.867L37.5472 26.6625C37.385 26.1504 37.8364 25.654 38.3616 25.7669L43.7225 26.9189L44.4125 23.7083L39.1166 22.5703C38.5889 22.4568 38.3827 21.8141 38.7459 21.4148L42.3121 17.4948L39.883 15.285L36.2961 19.2276C35.933 19.6267 35.2738 19.4823 35.111 18.9678L33.7181 14.5684ZM34.911 25.4855C36.0701 25.4855 37.0096 24.5459 37.0096 23.3869C37.0096 22.2278 36.0701 21.2882 34.911 21.2882C33.752 21.2882 32.8124 22.2278 32.8124 23.3869C32.8124 24.5459 33.752 25.4855 34.911 25.4855Z" fill="url(#paint11_radial_550_13324)"/>
  <path fill-rule="evenodd" clip-rule="evenodd" d="M33.7181 14.5684L30.5873 15.5596L31.9826 19.9665C32.1447 20.4787 31.6934 20.9751 31.1681 20.8622L25.647 19.6757L24.957 22.8864L30.4682 24.0706C30.9959 24.1841 31.2021 24.8268 30.8389 25.2261L26.9666 29.4826L29.3957 31.6924L33.2506 27.4551C33.6137 27.056 34.2729 27.2005 34.4358 27.7149L36.3807 33.8583L39.5115 32.867L37.5472 26.6625C37.385 26.1504 37.8364 25.654 38.3616 25.7669L43.7225 26.9189L44.4125 23.7083L39.1166 22.5703C38.5889 22.4568 38.3827 21.8141 38.7459 21.4148L42.3121 17.4948L39.883 15.285L36.2961 19.2276C35.933 19.6267 35.2738 19.4823 35.111 18.9678L33.7181 14.5684ZM34.911 25.4855C36.0701 25.4855 37.0096 24.5459 37.0096 23.3869C37.0096 22.2278 36.0701 21.2882 34.911 21.2882C33.752 21.2882 32.8124 22.2278 32.8124 23.3869C32.8124 24.5459 33.752 25.4855 34.911 25.4855Z" fill="url(#paint12_radial_550_13324)"/>
  <path fill-rule="evenodd" clip-rule="evenodd" d="M33.7181 14.5684L30.5873 15.5596L31.9826 19.9665C32.1447 20.4787 31.6934 20.9751 31.1681 20.8622L25.647 19.6757L24.957 22.8864L30.4682 24.0706C30.9959 24.1841 31.2021 24.8268 30.8389 25.2261L26.9666 29.4826L29.3957 31.6924L33.2506 27.4551C33.6137 27.056 34.2729 27.2005 34.4358 27.7149L36.3807 33.8583L39.5115 32.867L37.5472 26.6625C37.385 26.1504 37.8364 25.654 38.3616 25.7669L43.7225 26.9189L44.4125 23.7083L39.1166 22.5703C38.5889 22.4568 38.3827 21.8141 38.7459 21.4148L42.3121 17.4948L39.883 15.285L36.2961 19.2276C35.933 19.6267 35.2738 19.4823 35.111 18.9678L33.7181 14.5684ZM34.911 25.4855C36.0701 25.4855 37.0096 24.5459 37.0096 23.3869C37.0096 22.2278 36.0701 21.2882 34.911 21.2882C33.752 21.2882 32.8124 22.2278 32.8124 23.3869C32.8124 24.5459 33.752 25.4855 34.911 25.4855Z" fill="url(#paint13_radial_550_13324)"/>
  <path fill-rule="evenodd" clip-rule="evenodd" d="M33.7181 14.5684L30.5873 15.5596L31.9826 19.9665C32.1447 20.4787 31.6934 20.9751 31.1681 20.8622L25.647 19.6757L24.957 22.8864L30.4682 24.0706C30.9959 24.1841 31.2021 24.8268 30.8389 25.2261L26.9666 29.4826L29.3957 31.6924L33.2506 27.4551C33.6137 27.056 34.2729 27.2005 34.4358 27.7149L36.3807 33.8583L39.5115 32.867L37.5472 26.6625C37.385 26.1504 37.8364 25.654 38.3616 25.7669L43.7225 26.9189L44.4125 23.7083L39.1166 22.5703C38.5889 22.4568 38.3827 21.8141 38.7459 21.4148L42.3121 17.4948L39.883 15.285L36.2961 19.2276C35.933 19.6267 35.2738 19.4823 35.111 18.9678L33.7181 14.5684ZM34.911 25.4855C36.0701 25.4855 37.0096 24.5459 37.0096 23.3869C37.0096 22.2278 36.0701 21.2882 34.911 21.2882C33.752 21.2882 32.8124 22.2278 32.8124 23.3869C32.8124 24.5459 33.752 25.4855 34.911 25.4855Z" fill="url(#paint14_radial_550_13324)"/>
  <path fill-rule="evenodd" clip-rule="evenodd" d="M33.7181 14.5684L30.5873 15.5596L31.9826 19.9665C32.1447 20.4787 31.6934 20.9751 31.1681 20.8622L25.647 19.6757L24.957 22.8864L30.4682 24.0706C30.9959 24.1841 31.2021 24.8268 30.8389 25.2261L26.9666 29.4826L29.3957 31.6924L33.2506 27.4551C33.6137 27.056 34.2729 27.2005 34.4358 27.7149L36.3807 33.8583L39.5115 32.867L37.5472 26.6625C37.385 26.1504 37.8364 25.654 38.3616 25.7669L43.7225 26.9189L44.4125 23.7083L39.1166 22.5703C38.5889 22.4568 38.3827 21.8141 38.7459 21.4148L42.3121 17.4948L39.883 15.285L36.2961 19.2276C35.933 19.6267 35.2738 19.4823 35.111 18.9678L33.7181 14.5684ZM34.911 25.4855C36.0701 25.4855 37.0096 24.5459 37.0096 23.3869C37.0096 22.2278 36.0701 21.2882 34.911 21.2882C33.752 21.2882 32.8124 22.2278 32.8124 23.3869C32.8124 24.5459 33.752 25.4855 34.911 25.4855Z" fill="url(#paint15_radial_550_13324)"/>
  <path fill-rule="evenodd" clip-rule="evenodd" d="M34.9111 31.8246C39.5707 31.8246 43.348 28.0473 43.348 23.3877C43.348 18.7281 39.5707 14.9508 34.9111 14.9508C30.2516 14.9508 26.4742 18.7281 26.4742 23.3877C26.4742 28.0473 30.2516 31.8246 34.9111 31.8246ZM34.9111 34.0996C40.8272 34.0996 45.623 29.3037 45.623 23.3877C45.623 17.4717 40.8272 12.6758 34.9111 12.6758C28.9951 12.6758 24.1992 17.4717 24.1992 23.3877C24.1992 29.3037 28.9951 34.0996 34.9111 34.0996Z" fill="#A6A1AB"/>
  <path fill-rule="evenodd" clip-rule="evenodd" d="M34.9111 31.8246C39.5707 31.8246 43.348 28.0473 43.348 23.3877C43.348 18.7281 39.5707 14.9508 34.9111 14.9508C30.2516 14.9508 26.4742 18.7281 26.4742 23.3877C26.4742 28.0473 30.2516 31.8246 34.9111 31.8246ZM34.9111 34.0996C40.8272 34.0996 45.623 29.3037 45.623 23.3877C45.623 17.4717 40.8272 12.6758 34.9111 12.6758C28.9951 12.6758 24.1992 17.4717 24.1992 23.3877C24.1992 29.3037 28.9951 34.0996 34.9111 34.0996Z" fill="url(#paint16_radial_550_13324)"/>
  <path fill-rule="evenodd" clip-rule="evenodd" d="M34.9111 31.8246C39.5707 31.8246 43.348 28.0473 43.348 23.3877C43.348 18.7281 39.5707 14.9508 34.9111 14.9508C30.2516 14.9508 26.4742 18.7281 26.4742 23.3877C26.4742 28.0473 30.2516 31.8246 34.9111 31.8246ZM34.9111 34.0996C40.8272 34.0996 45.623 29.3037 45.623 23.3877C45.623 17.4717 40.8272 12.6758 34.9111 12.6758C28.9951 12.6758 24.1992 17.4717 24.1992 23.3877C24.1992 29.3037 28.9951 34.0996 34.9111 34.0996Z" fill="url(#paint17_radial_550_13324)"/>
  <path fill-rule="evenodd" clip-rule="evenodd" d="M16.0284 18.4732L13.1254 17.8332L12.2246 21.9196C12.1199 22.3945 11.5414 22.5794 11.1807 22.2531L7.38937 18.824L5.39529 21.0287L9.17977 24.4516C9.54214 24.7794 9.4129 25.3766 8.94742 25.5252L3.98512 27.1094L4.8892 29.9413L9.82918 28.3643C10.2945 28.2157 10.7458 28.6273 10.6407 29.1044L9.3849 34.8008L12.2879 35.4407L13.5562 29.6876C13.6609 29.2127 14.2394 29.0279 14.6001 29.3541L18.2814 32.6837L20.2755 30.479L16.6388 27.1898C16.2765 26.862 16.4057 26.2648 16.8712 26.1162L21.4412 24.6572L20.5371 21.8253L15.9407 23.2927C15.4753 23.4413 15.024 23.0297 15.1292 22.5527L16.0284 18.4732ZM12.0223 27.5717C12.931 28.0963 14.0928 27.785 14.6175 26.8763C15.1421 25.9677 14.8307 24.8058 13.9221 24.2812C13.0135 23.7566 11.8516 24.0679 11.327 24.9766C10.8024 25.8852 11.1137 27.0471 12.0223 27.5717Z" fill="#4D4259"/>
  <path fill-rule="evenodd" clip-rule="evenodd" d="M16.0284 18.4732L13.1254 17.8332L12.2246 21.9196C12.1199 22.3945 11.5414 22.5794 11.1807 22.2531L7.38937 18.824L5.39529 21.0287L9.17977 24.4516C9.54214 24.7794 9.4129 25.3766 8.94742 25.5252L3.98512 27.1094L4.8892 29.9413L9.82918 28.3643C10.2945 28.2157 10.7458 28.6273 10.6407 29.1044L9.3849 34.8008L12.2879 35.4407L13.5562 29.6876C13.6609 29.2127 14.2394 29.0279 14.6001 29.3541L18.2814 32.6837L20.2755 30.479L16.6388 27.1898C16.2765 26.862 16.4057 26.2648 16.8712 26.1162L21.4412 24.6572L20.5371 21.8253L15.9407 23.2927C15.4753 23.4413 15.024 23.0297 15.1292 22.5527L16.0284 18.4732ZM12.0223 27.5717C12.931 28.0963 14.0928 27.785 14.6175 26.8763C15.1421 25.9677 14.8307 24.8058 13.9221 24.2812C13.0135 23.7566 11.8516 24.0679 11.327 24.9766C10.8024 25.8852 11.1137 27.0471 12.0223 27.5717Z" fill="url(#paint18_radial_550_13324)"/>
  <path fill-rule="evenodd" clip-rule="evenodd" d="M16.0284 18.4732L13.1254 17.8332L12.2246 21.9196C12.1199 22.3945 11.5414 22.5794 11.1807 22.2531L7.38937 18.824L5.39529 21.0287L9.17977 24.4516C9.54214 24.7794 9.4129 25.3766 8.94742 25.5252L3.98512 27.1094L4.8892 29.9413L9.82918 28.3643C10.2945 28.2157 10.7458 28.6273 10.6407 29.1044L9.3849 34.8008L12.2879 35.4407L13.5562 29.6876C13.6609 29.2127 14.2394 29.0279 14.6001 29.3541L18.2814 32.6837L20.2755 30.479L16.6388 27.1898C16.2765 26.862 16.4057 26.2648 16.8712 26.1162L21.4412 24.6572L20.5371 21.8253L15.9407 23.2927C15.4753 23.4413 15.024 23.0297 15.1292 22.5527L16.0284 18.4732ZM12.0223 27.5717C12.931 28.0963 14.0928 27.785 14.6175 26.8763C15.1421 25.9677 14.8307 24.8058 13.9221 24.2812C13.0135 23.7566 11.8516 24.0679 11.327 24.9766C10.8024 25.8852 11.1137 27.0471 12.0223 27.5717Z" fill="url(#paint19_linear_550_13324)"/>
  <path fill-rule="evenodd" clip-rule="evenodd" d="M16.0284 18.4732L13.1254 17.8332L12.2246 21.9196C12.1199 22.3945 11.5414 22.5794 11.1807 22.2531L7.38937 18.824L5.39529 21.0287L9.17977 24.4516C9.54214 24.7794 9.4129 25.3766 8.94742 25.5252L3.98512 27.1094L4.8892 29.9413L9.82918 28.3643C10.2945 28.2157 10.7458 28.6273 10.6407 29.1044L9.3849 34.8008L12.2879 35.4407L13.5562 29.6876C13.6609 29.2127 14.2394 29.0279 14.6001 29.3541L18.2814 32.6837L20.2755 30.479L16.6388 27.1898C16.2765 26.862 16.4057 26.2648 16.8712 26.1162L21.4412 24.6572L20.5371 21.8253L15.9407 23.2927C15.4753 23.4413 15.024 23.0297 15.1292 22.5527L16.0284 18.4732ZM12.0223 27.5717C12.931 28.0963 14.0928 27.785 14.6175 26.8763C15.1421 25.9677 14.8307 24.8058 13.9221 24.2812C13.0135 23.7566 11.8516 24.0679 11.327 24.9766C10.8024 25.8852 11.1137 27.0471 12.0223 27.5717Z" fill="url(#paint20_linear_550_13324)"/>
  <path fill-rule="evenodd" clip-rule="evenodd" d="M16.0284 18.4732L13.1254 17.8332L12.2246 21.9196C12.1199 22.3945 11.5414 22.5794 11.1807 22.2531L7.38937 18.824L5.39529 21.0287L9.17977 24.4516C9.54214 24.7794 9.4129 25.3766 8.94742 25.5252L3.98512 27.1094L4.8892 29.9413L9.82918 28.3643C10.2945 28.2157 10.7458 28.6273 10.6407 29.1044L9.3849 34.8008L12.2879 35.4407L13.5562 29.6876C13.6609 29.2127 14.2394 29.0279 14.6001 29.3541L18.2814 32.6837L20.2755 30.479L16.6388 27.1898C16.2765 26.862 16.4057 26.2648 16.8712 26.1162L21.4412 24.6572L20.5371 21.8253L15.9407 23.2927C15.4753 23.4413 15.024 23.0297 15.1292 22.5527L16.0284 18.4732ZM12.0223 27.5717C12.931 28.0963 14.0928 27.785 14.6175 26.8763C15.1421 25.9677 14.8307 24.8058 13.9221 24.2812C13.0135 23.7566 11.8516 24.0679 11.327 24.9766C10.8024 25.8852 11.1137 27.0471 12.0223 27.5717Z" fill="url(#paint21_linear_550_13324)"/>
  <path fill-rule="evenodd" clip-rule="evenodd" d="M16.0284 18.4732L13.1254 17.8332L12.2246 21.9196C12.1199 22.3945 11.5414 22.5794 11.1807 22.2531L7.38937 18.824L5.39529 21.0287L9.17977 24.4516C9.54214 24.7794 9.4129 25.3766 8.94742 25.5252L3.98512 27.1094L4.8892 29.9413L9.82918 28.3643C10.2945 28.2157 10.7458 28.6273 10.6407 29.1044L9.3849 34.8008L12.2879 35.4407L13.5562 29.6876C13.6609 29.2127 14.2394 29.0279 14.6001 29.3541L18.2814 32.6837L20.2755 30.479L16.6388 27.1898C16.2765 26.862 16.4057 26.2648 16.8712 26.1162L21.4412 24.6572L20.5371 21.8253L15.9407 23.2927C15.4753 23.4413 15.024 23.0297 15.1292 22.5527L16.0284 18.4732ZM12.0223 27.5717C12.931 28.0963 14.0928 27.785 14.6175 26.8763C15.1421 25.9677 14.8307 24.8058 13.9221 24.2812C13.0135 23.7566 11.8516 24.0679 11.327 24.9766C10.8024 25.8852 11.1137 27.0471 12.0223 27.5717Z" fill="url(#paint22_linear_550_13324)"/>
  <path fill-rule="evenodd" clip-rule="evenodd" d="M16.0284 18.4732L13.1254 17.8332L12.2246 21.9196C12.1199 22.3945 11.5414 22.5794 11.1807 22.2531L7.38937 18.824L5.39529 21.0287L9.17977 24.4516C9.54214 24.7794 9.4129 25.3766 8.94742 25.5252L3.98512 27.1094L4.8892 29.9413L9.82918 28.3643C10.2945 28.2157 10.7458 28.6273 10.6407 29.1044L9.3849 34.8008L12.2879 35.4407L13.5562 29.6876C13.6609 29.2127 14.2394 29.0279 14.6001 29.3541L18.2814 32.6837L20.2755 30.479L16.6388 27.1898C16.2765 26.862 16.4057 26.2648 16.8712 26.1162L21.4412 24.6572L20.5371 21.8253L15.9407 23.2927C15.4753 23.4413 15.024 23.0297 15.1292 22.5527L16.0284 18.4732ZM12.0223 27.5717C12.931 28.0963 14.0928 27.785 14.6175 26.8763C15.1421 25.9677 14.8307 24.8058 13.9221 24.2812C13.0135 23.7566 11.8516 24.0679 11.327 24.9766C10.8024 25.8852 11.1137 27.0471 12.0223 27.5717Z" fill="url(#paint23_linear_550_13324)"/>
  <path fill-rule="evenodd" clip-rule="evenodd" d="M16.0284 18.4732L13.1254 17.8332L12.2246 21.9196C12.1199 22.3945 11.5414 22.5794 11.1807 22.2531L7.38937 18.824L5.39529 21.0287L9.17977 24.4516C9.54214 24.7794 9.4129 25.3766 8.94742 25.5252L3.98512 27.1094L4.8892 29.9413L9.82918 28.3643C10.2945 28.2157 10.7458 28.6273 10.6407 29.1044L9.3849 34.8008L12.2879 35.4407L13.5562 29.6876C13.6609 29.2127 14.2394 29.0279 14.6001 29.3541L18.2814 32.6837L20.2755 30.479L16.6388 27.1898C16.2765 26.862 16.4057 26.2648 16.8712 26.1162L21.4412 24.6572L20.5371 21.8253L15.9407 23.2927C15.4753 23.4413 15.024 23.0297 15.1292 22.5527L16.0284 18.4732ZM12.0223 27.5717C12.931 28.0963 14.0928 27.785 14.6175 26.8763C15.1421 25.9677 14.8307 24.8058 13.9221 24.2812C13.0135 23.7566 11.8516 24.0679 11.327 24.9766C10.8024 25.8852 11.1137 27.0471 12.0223 27.5717Z" fill="url(#paint24_linear_550_13324)"/>
  <path fill-rule="evenodd" clip-rule="evenodd" d="M16.0284 18.4732L13.1254 17.8332L12.2246 21.9196C12.1199 22.3945 11.5414 22.5794 11.1807 22.2531L7.38937 18.824L5.39529 21.0287L9.17977 24.4516C9.54214 24.7794 9.4129 25.3766 8.94742 25.5252L3.98512 27.1094L4.8892 29.9413L9.82918 28.3643C10.2945 28.2157 10.7458 28.6273 10.6407 29.1044L9.3849 34.8008L12.2879 35.4407L13.5562 29.6876C13.6609 29.2127 14.2394 29.0279 14.6001 29.3541L18.2814 32.6837L20.2755 30.479L16.6388 27.1898C16.2765 26.862 16.4057 26.2648 16.8712 26.1162L21.4412 24.6572L20.5371 21.8253L15.9407 23.2927C15.4753 23.4413 15.024 23.0297 15.1292 22.5527L16.0284 18.4732ZM12.0223 27.5717C12.931 28.0963 14.0928 27.785 14.6175 26.8763C15.1421 25.9677 14.8307 24.8058 13.9221 24.2812C13.0135 23.7566 11.8516 24.0679 11.327 24.9766C10.8024 25.8852 11.1137 27.0471 12.0223 27.5717Z" fill="url(#paint25_radial_550_13324)"/>
  <path fill-rule="evenodd" clip-rule="evenodd" d="M16.0284 18.4732L13.1254 17.8332L12.2246 21.9196C12.1199 22.3945 11.5414 22.5794 11.1807 22.2531L7.38937 18.824L5.39529 21.0287L9.17977 24.4516C9.54214 24.7794 9.4129 25.3766 8.94742 25.5252L3.98512 27.1094L4.8892 29.9413L9.82918 28.3643C10.2945 28.2157 10.7458 28.6273 10.6407 29.1044L9.3849 34.8008L12.2879 35.4407L13.5562 29.6876C13.6609 29.2127 14.2394 29.0279 14.6001 29.3541L18.2814 32.6837L20.2755 30.479L16.6388 27.1898C16.2765 26.862 16.4057 26.2648 16.8712 26.1162L21.4412 24.6572L20.5371 21.8253L15.9407 23.2927C15.4753 23.4413 15.024 23.0297 15.1292 22.5527L16.0284 18.4732ZM12.0223 27.5717C12.931 28.0963 14.0928 27.785 14.6175 26.8763C15.1421 25.9677 14.8307 24.8058 13.9221 24.2812C13.0135 23.7566 11.8516 24.0679 11.327 24.9766C10.8024 25.8852 11.1137 27.0471 12.0223 27.5717Z" fill="url(#paint26_radial_550_13324)"/>
  <path fill-rule="evenodd" clip-rule="evenodd" d="M16.0284 18.4732L13.1254 17.8332L12.2246 21.9196C12.1199 22.3945 11.5414 22.5794 11.1807 22.2531L7.38937 18.824L5.39529 21.0287L9.17977 24.4516C9.54214 24.7794 9.4129 25.3766 8.94742 25.5252L3.98512 27.1094L4.8892 29.9413L9.82918 28.3643C10.2945 28.2157 10.7458 28.6273 10.6407 29.1044L9.3849 34.8008L12.2879 35.4407L13.5562 29.6876C13.6609 29.2127 14.2394 29.0279 14.6001 29.3541L18.2814 32.6837L20.2755 30.479L16.6388 27.1898C16.2765 26.862 16.4057 26.2648 16.8712 26.1162L21.4412 24.6572L20.5371 21.8253L15.9407 23.2927C15.4753 23.4413 15.024 23.0297 15.1292 22.5527L16.0284 18.4732ZM12.0223 27.5717C12.931 28.0963 14.0928 27.785 14.6175 26.8763C15.1421 25.9677 14.8307 24.8058 13.9221 24.2812C13.0135 23.7566 11.8516 24.0679 11.327 24.9766C10.8024 25.8852 11.1137 27.0471 12.0223 27.5717Z" fill="url(#paint27_radial_550_13324)"/>
  <path fill-rule="evenodd" clip-rule="evenodd" d="M16.0284 18.4732L13.1254 17.8332L12.2246 21.9196C12.1199 22.3945 11.5414 22.5794 11.1807 22.2531L7.38937 18.824L5.39529 21.0287L9.17977 24.4516C9.54214 24.7794 9.4129 25.3766 8.94742 25.5252L3.98512 27.1094L4.8892 29.9413L9.82918 28.3643C10.2945 28.2157 10.7458 28.6273 10.6407 29.1044L9.3849 34.8008L12.2879 35.4407L13.5562 29.6876C13.6609 29.2127 14.2394 29.0279 14.6001 29.3541L18.2814 32.6837L20.2755 30.479L16.6388 27.1898C16.2765 26.862 16.4057 26.2648 16.8712 26.1162L21.4412 24.6572L20.5371 21.8253L15.9407 23.2927C15.4753 23.4413 15.024 23.0297 15.1292 22.5527L16.0284 18.4732ZM12.0223 27.5717C12.931 28.0963 14.0928 27.785 14.6175 26.8763C15.1421 25.9677 14.8307 24.8058 13.9221 24.2812C13.0135 23.7566 11.8516 24.0679 11.327 24.9766C10.8024 25.8852 11.1137 27.0471 12.0223 27.5717Z" fill="url(#paint28_radial_550_13324)"/>
  <path fill-rule="evenodd" clip-rule="evenodd" d="M16.0284 18.4732L13.1254 17.8332L12.2246 21.9196C12.1199 22.3945 11.5414 22.5794 11.1807 22.2531L7.38937 18.824L5.39529 21.0287L9.17977 24.4516C9.54214 24.7794 9.4129 25.3766 8.94742 25.5252L3.98512 27.1094L4.8892 29.9413L9.82918 28.3643C10.2945 28.2157 10.7458 28.6273 10.6407 29.1044L9.3849 34.8008L12.2879 35.4407L13.5562 29.6876C13.6609 29.2127 14.2394 29.0279 14.6001 29.3541L18.2814 32.6837L20.2755 30.479L16.6388 27.1898C16.2765 26.862 16.4057 26.2648 16.8712 26.1162L21.4412 24.6572L20.5371 21.8253L15.9407 23.2927C15.4753 23.4413 15.024 23.0297 15.1292 22.5527L16.0284 18.4732ZM12.0223 27.5717C12.931 28.0963 14.0928 27.785 14.6175 26.8763C15.1421 25.9677 14.8307 24.8058 13.9221 24.2812C13.0135 23.7566 11.8516 24.0679 11.327 24.9766C10.8024 25.8852 11.1137 27.0471 12.0223 27.5717Z" fill="url(#paint29_radial_550_13324)"/>
  <path fill-rule="evenodd" clip-rule="evenodd" d="M16.0284 18.4732L13.1254 17.8332L12.2246 21.9196C12.1199 22.3945 11.5414 22.5794 11.1807 22.2531L7.38937 18.824L5.39529 21.0287L9.17977 24.4516C9.54214 24.7794 9.4129 25.3766 8.94742 25.5252L3.98512 27.1094L4.8892 29.9413L9.82918 28.3643C10.2945 28.2157 10.7458 28.6273 10.6407 29.1044L9.3849 34.8008L12.2879 35.4407L13.5562 29.6876C13.6609 29.2127 14.2394 29.0279 14.6001 29.3541L18.2814 32.6837L20.2755 30.479L16.6388 27.1898C16.2765 26.862 16.4057 26.2648 16.8712 26.1162L21.4412 24.6572L20.5371 21.8253L15.9407 23.2927C15.4753 23.4413 15.024 23.0297 15.1292 22.5527L16.0284 18.4732ZM12.0223 27.5717C12.931 28.0963 14.0928 27.785 14.6175 26.8763C15.1421 25.9677 14.8307 24.8058 13.9221 24.2812C13.0135 23.7566 11.8516 24.0679 11.327 24.9766C10.8024 25.8852 11.1137 27.0471 12.0223 27.5717Z" fill="url(#paint30_radial_550_13324)"/>
  <path fill-rule="evenodd" clip-rule="evenodd" d="M16.0284 18.4732L13.1254 17.8332L12.2246 21.9196C12.1199 22.3945 11.5414 22.5794 11.1807 22.2531L7.38937 18.824L5.39529 21.0287L9.17977 24.4516C9.54214 24.7794 9.4129 25.3766 8.94742 25.5252L3.98512 27.1094L4.8892 29.9413L9.82918 28.3643C10.2945 28.2157 10.7458 28.6273 10.6407 29.1044L9.3849 34.8008L12.2879 35.4407L13.5562 29.6876C13.6609 29.2127 14.2394 29.0279 14.6001 29.3541L18.2814 32.6837L20.2755 30.479L16.6388 27.1898C16.2765 26.862 16.4057 26.2648 16.8712 26.1162L21.4412 24.6572L20.5371 21.8253L15.9407 23.2927C15.4753 23.4413 15.024 23.0297 15.1292 22.5527L16.0284 18.4732ZM12.0223 27.5717C12.931 28.0963 14.0928 27.785 14.6175 26.8763C15.1421 25.9677 14.8307 24.8058 13.9221 24.2812C13.0135 23.7566 11.8516 24.0679 11.327 24.9766C10.8024 25.8852 11.1137 27.0471 12.0223 27.5717Z" fill="url(#paint31_radial_550_13324)"/>
  <path fill-rule="evenodd" clip-rule="evenodd" d="M16.0284 18.4732L13.1254 17.8332L12.2246 21.9196C12.1199 22.3945 11.5414 22.5794 11.1807 22.2531L7.38937 18.824L5.39529 21.0287L9.17977 24.4516C9.54214 24.7794 9.4129 25.3766 8.94742 25.5252L3.98512 27.1094L4.8892 29.9413L9.82918 28.3643C10.2945 28.2157 10.7458 28.6273 10.6407 29.1044L9.3849 34.8008L12.2879 35.4407L13.5562 29.6876C13.6609 29.2127 14.2394 29.0279 14.6001 29.3541L18.2814 32.6837L20.2755 30.479L16.6388 27.1898C16.2765 26.862 16.4057 26.2648 16.8712 26.1162L21.4412 24.6572L20.5371 21.8253L15.9407 23.2927C15.4753 23.4413 15.024 23.0297 15.1292 22.5527L16.0284 18.4732ZM12.0223 27.5717C12.931 28.0963 14.0928 27.785 14.6175 26.8763C15.1421 25.9677 14.8307 24.8058 13.9221 24.2812C13.0135 23.7566 11.8516 24.0679 11.327 24.9766C10.8024 25.8852 11.1137 27.0471 12.0223 27.5717Z" fill="url(#paint32_radial_550_13324)"/>
  <path fill-rule="evenodd" clip-rule="evenodd" d="M9.26416 32.3532C12.8139 34.4026 17.353 33.1864 19.4025 29.6366C21.452 26.0868 20.2357 21.5478 16.6859 19.4983C13.1362 17.4488 8.59707 18.6651 6.5476 22.2148C4.49813 25.7646 5.71438 30.3037 9.26416 32.3532ZM8.12666 34.3234C12.7646 37.0011 18.695 35.412 21.3727 30.7741C24.0504 26.1362 22.4613 20.2058 17.8234 17.5281C13.1855 14.8504 7.25508 16.4394 4.57739 21.0773C1.8997 25.7152 3.48876 31.6457 8.12666 34.3234Z" fill="#A6A1AB"/>
  <path fill-rule="evenodd" clip-rule="evenodd" d="M9.26416 32.3532C12.8139 34.4026 17.353 33.1864 19.4025 29.6366C21.452 26.0868 20.2357 21.5478 16.6859 19.4983C13.1362 17.4488 8.59707 18.6651 6.5476 22.2148C4.49813 25.7646 5.71438 30.3037 9.26416 32.3532ZM8.12666 34.3234C12.7646 37.0011 18.695 35.412 21.3727 30.7741C24.0504 26.1362 22.4613 20.2058 17.8234 17.5281C13.1855 14.8504 7.25508 16.4394 4.57739 21.0773C1.8997 25.7152 3.48876 31.6457 8.12666 34.3234Z" fill="url(#paint33_radial_550_13324)"/>
  <path fill-rule="evenodd" clip-rule="evenodd" d="M9.26416 32.3532C12.8139 34.4026 17.353 33.1864 19.4025 29.6366C21.452 26.0868 20.2357 21.5478 16.6859 19.4983C13.1362 17.4488 8.59707 18.6651 6.5476 22.2148C4.49813 25.7646 5.71438 30.3037 9.26416 32.3532ZM8.12666 34.3234C12.7646 37.0011 18.695 35.412 21.3727 30.7741C24.0504 26.1362 22.4613 20.2058 17.8234 17.5281C13.1855 14.8504 7.25508 16.4394 4.57739 21.0773C1.8997 25.7152 3.48876 31.6457 8.12666 34.3234Z" fill="url(#paint34_radial_550_13324)"/>
  <path d="M9.92578 34.4719C9.92578 32.4422 11.5711 30.7969 13.6008 30.7969H35.618C37.6476 30.7969 39.293 32.4422 39.293 34.4719V48.9695C39.293 50.9992 37.6476 52.6445 35.618 52.6445H13.6008C11.5711 52.6445 9.92578 50.9992 9.92578 48.9695V34.4719Z" fill="url(#paint35_linear_550_13324)"/>
  <path d="M9.92578 34.4719C9.92578 32.4422 11.5711 30.7969 13.6008 30.7969H35.618C37.6476 30.7969 39.293 32.4422 39.293 34.4719V48.9695C39.293 50.9992 37.6476 52.6445 35.618 52.6445H13.6008C11.5711 52.6445 9.92578 50.9992 9.92578 48.9695V34.4719Z" fill="url(#paint36_linear_550_13324)"/>
  <path d="M9.92578 34.4719C9.92578 32.4422 11.5711 30.7969 13.6008 30.7969H35.618C37.6476 30.7969 39.293 32.4422 39.293 34.4719V48.9695C39.293 50.9992 37.6476 52.6445 35.618 52.6445H13.6008C11.5711 52.6445 9.92578 50.9992 9.92578 48.9695V34.4719Z" fill="url(#paint37_radial_550_13324)"/>
  <path d="M9.92578 34.4719C9.92578 32.4422 11.5711 30.7969 13.6008 30.7969H35.618C37.6476 30.7969 39.293 32.4422 39.293 34.4719V48.9695C39.293 50.9992 37.6476 52.6445 35.618 52.6445H13.6008C11.5711 52.6445 9.92578 50.9992 9.92578 48.9695V34.4719Z" fill="url(#paint38_radial_550_13324)"/>
  <path d="M9.92578 34.4719C9.92578 32.4422 11.5711 30.7969 13.6008 30.7969H35.618C37.6476 30.7969 39.293 32.4422 39.293 34.4719V48.9695C39.293 50.9992 37.6476 52.6445 35.618 52.6445H13.6008C11.5711 52.6445 9.92578 50.9992 9.92578 48.9695V34.4719Z" fill="url(#paint39_linear_550_13324)"/>
  <path d="M9.92578 34.4719C9.92578 32.4422 11.5711 30.7969 13.6008 30.7969H35.618C37.6476 30.7969 39.293 32.4422 39.293 34.4719V48.9695C39.293 50.9992 37.6476 52.6445 35.618 52.6445H13.6008C11.5711 52.6445 9.92578 50.9992 9.92578 48.9695V34.4719Z" fill="url(#paint40_radial_550_13324)"/>
  <path d="M9.92578 34.4719C9.92578 32.4422 11.5711 30.7969 13.6008 30.7969H35.618C37.6476 30.7969 39.293 32.4422 39.293 34.4719V48.9695C39.293 50.9992 37.6476 52.6445 35.618 52.6445H13.6008C11.5711 52.6445 9.92578 50.9992 9.92578 48.9695V34.4719Z" fill="url(#paint41_linear_550_13324)"/>
  <path d="M9.92578 34.4719C9.92578 32.4422 11.5711 30.7969 13.6008 30.7969H35.618C37.6476 30.7969 39.293 32.4422 39.293 34.4719V48.9695C39.293 50.9992 37.6476 52.6445 35.618 52.6445H13.6008C11.5711 52.6445 9.92578 50.9992 9.92578 48.9695V34.4719Z" fill="url(#paint42_radial_550_13324)"/>
  <path d="M9.92578 34.4719C9.92578 32.4422 11.5711 30.7969 13.6008 30.7969H35.618C37.6476 30.7969 39.293 32.4422 39.293 34.4719V48.9695C39.293 50.9992 37.6476 52.6445 35.618 52.6445H13.6008C11.5711 52.6445 9.92578 50.9992 9.92578 48.9695V34.4719Z" fill="url(#paint43_radial_550_13324)"/>
  <path d="M9.92578 34.4719C9.92578 32.4422 11.5711 30.7969 13.6008 30.7969H35.618C37.6476 30.7969 39.293 32.4422 39.293 34.4719V48.9695C39.293 50.9992 37.6476 52.6445 35.618 52.6445H13.6008C11.5711 52.6445 9.92578 50.9992 9.92578 48.9695V34.4719Z" fill="url(#paint44_radial_550_13324)"/>
  <path d="M9.92578 34.4719C9.92578 32.4422 11.5711 30.7969 13.6008 30.7969H35.618C37.6476 30.7969 39.293 32.4422 39.293 34.4719V48.9695C39.293 50.9992 37.6476 52.6445 35.618 52.6445H13.6008C11.5711 52.6445 9.92578 50.9992 9.92578 48.9695V34.4719Z" fill="url(#paint45_radial_550_13324)"/>
  <path d="M9.92578 34.4719C9.92578 32.4422 11.5711 30.7969 13.6008 30.7969H35.618C37.6476 30.7969 39.293 32.4422 39.293 34.4719V48.9695C39.293 50.9992 37.6476 52.6445 35.618 52.6445H13.6008C11.5711 52.6445 9.92578 50.9992 9.92578 48.9695V34.4719Z" fill="url(#paint46_linear_550_13324)"/>
  <path d="M9.92578 34.4719C9.92578 32.4422 11.5711 30.7969 13.6008 30.7969H35.618C37.6476 30.7969 39.293 32.4422 39.293 34.4719V48.9695C39.293 50.9992 37.6476 52.6445 35.618 52.6445H13.6008C11.5711 52.6445 9.92578 50.9992 9.92578 48.9695V34.4719Z" fill="url(#paint47_linear_550_13324)"/>
  <path d="M9.92578 34.4719C9.92578 32.4422 11.5711 30.7969 13.6008 30.7969H35.618C37.6476 30.7969 39.293 32.4422 39.293 34.4719V48.9695C39.293 50.9992 37.6476 52.6445 35.618 52.6445H13.6008C11.5711 52.6445 9.92578 50.9992 9.92578 48.9695V34.4719Z" fill="url(#paint48_linear_550_13324)"/>
  <path d="M9.92578 34.4719C9.92578 32.4422 11.5711 30.7969 13.6008 30.7969H35.618C37.6476 30.7969 39.293 32.4422 39.293 34.4719V48.9695C39.293 50.9992 37.6476 52.6445 35.618 52.6445H13.6008C11.5711 52.6445 9.92578 50.9992 9.92578 48.9695V34.4719Z" fill="url(#paint49_radial_550_13324)"/>
  <path d="M9.92578 34.4719C9.92578 32.4422 11.5711 30.7969 13.6008 30.7969H35.618C37.6476 30.7969 39.293 32.4422 39.293 34.4719V48.9695C39.293 50.9992 37.6476 52.6445 35.618 52.6445H13.6008C11.5711 52.6445 9.92578 50.9992 9.92578 48.9695V34.4719Z" fill="url(#paint50_radial_550_13324)"/>
  <path d="M9.92578 34.4719C9.92578 32.4422 11.5711 30.7969 13.6008 30.7969H35.618C37.6476 30.7969 39.293 32.4422 39.293 34.4719V48.9695C39.293 50.9992 37.6476 52.6445 35.618 52.6445H13.6008C11.5711 52.6445 9.92578 50.9992 9.92578 48.9695V34.4719Z" fill="url(#paint51_linear_550_13324)"/>
  <path d="M13.5898 40.3604C13.5898 39.896 13.9663 39.5195 14.4307 39.5195H22.6064C23.0708 39.5195 23.4473 39.896 23.4473 40.3604C23.4473 40.8247 23.0708 41.2012 22.6064 41.2012H14.4307C13.9663 41.2012 13.5898 40.8247 13.5898 40.3604Z" fill="url(#paint52_linear_550_13324)"/>
  <path d="M13.5898 40.3604C13.5898 39.896 13.9663 39.5195 14.4307 39.5195H22.6064C23.0708 39.5195 23.4473 39.896 23.4473 40.3604C23.4473 40.8247 23.0708 41.2012 22.6064 41.2012H14.4307C13.9663 41.2012 13.5898 40.8247 13.5898 40.3604Z" fill="url(#paint53_linear_550_13324)"/>
  <path d="M13.5898 40.3604C13.5898 39.896 13.9663 39.5195 14.4307 39.5195H22.6064C23.0708 39.5195 23.4473 39.896 23.4473 40.3604C23.4473 40.8247 23.0708 41.2012 22.6064 41.2012H14.4307C13.9663 41.2012 13.5898 40.8247 13.5898 40.3604Z" fill="url(#paint54_radial_550_13324)"/>
  <path d="M13.5898 40.3604C13.5898 39.896 13.9663 39.5195 14.4307 39.5195H22.6064C23.0708 39.5195 23.4473 39.896 23.4473 40.3604C23.4473 40.8247 23.0708 41.2012 22.6064 41.2012H14.4307C13.9663 41.2012 13.5898 40.8247 13.5898 40.3604Z" fill="url(#paint55_radial_550_13324)"/>
  <path d="M13.5898 43.4912C13.5898 43.0268 13.9663 42.6504 14.4307 42.6504H22.6064C23.0708 42.6504 23.4473 43.0268 23.4473 43.4912C23.4473 43.9556 23.0708 44.332 22.6064 44.332H14.4307C13.9663 44.332 13.5898 43.9556 13.5898 43.4912Z" fill="url(#paint56_linear_550_13324)"/>
  <path d="M13.5898 43.4912C13.5898 43.0268 13.9663 42.6504 14.4307 42.6504H22.6064C23.0708 42.6504 23.4473 43.0268 23.4473 43.4912C23.4473 43.9556 23.0708 44.332 22.6064 44.332H14.4307C13.9663 44.332 13.5898 43.9556 13.5898 43.4912Z" fill="url(#paint57_linear_550_13324)"/>
  <path d="M13.5898 43.4912C13.5898 43.0268 13.9663 42.6504 14.4307 42.6504H22.6064C23.0708 42.6504 23.4473 43.0268 23.4473 43.4912C23.4473 43.9556 23.0708 44.332 22.6064 44.332H14.4307C13.9663 44.332 13.5898 43.9556 13.5898 43.4912Z" fill="url(#paint58_radial_550_13324)"/>
  <path d="M13.5898 43.4912C13.5898 43.0268 13.9663 42.6504 14.4307 42.6504H22.6064C23.0708 42.6504 23.4473 43.0268 23.4473 43.4912C23.4473 43.9556 23.0708 44.332 22.6064 44.332H14.4307C13.9663 44.332 13.5898 43.9556 13.5898 43.4912Z" fill="url(#paint59_radial_550_13324)"/>
  <path d="M13.5898 46.6221C13.5898 46.1577 13.9663 45.7812 14.4307 45.7812H22.6064C23.0708 45.7812 23.4473 46.1577 23.4473 46.6221C23.4473 47.0864 23.0708 47.4629 22.6064 47.4629H14.4307C13.9663 47.4629 13.5898 47.0864 13.5898 46.6221Z" fill="url(#paint60_linear_550_13324)"/>
  <path d="M13.5898 46.6221C13.5898 46.1577 13.9663 45.7812 14.4307 45.7812H22.6064C23.0708 45.7812 23.4473 46.1577 23.4473 46.6221C23.4473 47.0864 23.0708 47.4629 22.6064 47.4629H14.4307C13.9663 47.4629 13.5898 47.0864 13.5898 46.6221Z" fill="url(#paint61_linear_550_13324)"/>
  <path d="M13.5898 46.6221C13.5898 46.1577 13.9663 45.7812 14.4307 45.7812H22.6064C23.0708 45.7812 23.4473 46.1577 23.4473 46.6221C23.4473 47.0864 23.0708 47.4629 22.6064 47.4629H14.4307C13.9663 47.4629 13.5898 47.0864 13.5898 46.6221Z" fill="url(#paint62_radial_550_13324)"/>
  <path d="M13.5898 46.6221C13.5898 46.1577 13.9663 45.7812 14.4307 45.7812H22.6064C23.0708 45.7812 23.4473 46.1577 23.4473 46.6221C23.4473 47.0864 23.0708 47.4629 22.6064 47.4629H14.4307C13.9663 47.4629 13.5898 47.0864 13.5898 46.6221Z" fill="url(#paint63_radial_550_13324)"/>
  <circle cx="34.0889" cy="36.0342" r="1.83887" fill="url(#paint64_linear_550_13324)"/>
  <circle cx="34.0889" cy="36.0342" r="1.83887" fill="url(#paint65_linear_550_13324)"/>
  <circle cx="34.0889" cy="36.0342" r="1.83887" fill="url(#paint66_radial_550_13324)"/>
  <rect x="39.293" y="36.7168" width="4.42969" height="9.88477" fill="url(#paint67_linear_550_13324)"/>
  <rect x="39.293" y="36.7168" width="4.42969" height="9.88477" fill="url(#paint68_linear_550_13324)"/>
  <rect x="39.293" y="36.7168" width="4.42969" height="9.88477" fill="url(#paint69_linear_550_13324)"/>
  <path d="M51.9258 32.7955C51.9258 32.0149 51.1044 31.5073 50.4062 31.8563L44.69 34.7144C44.0972 35.0109 43.7227 35.6168 43.7227 36.2797V47.2133C43.7227 47.8695 44.0897 48.4705 44.6735 48.7702L50.3963 51.7079C51.095 52.0666 51.9258 51.5592 51.9258 50.7738V32.7955Z" fill="url(#paint70_linear_550_13324)"/>
  <path d="M51.9258 32.7955C51.9258 32.0149 51.1044 31.5073 50.4062 31.8563L44.69 34.7144C44.0972 35.0109 43.7227 35.6168 43.7227 36.2797V47.2133C43.7227 47.8695 44.0897 48.4705 44.6735 48.7702L50.3963 51.7079C51.095 52.0666 51.9258 51.5592 51.9258 50.7738V32.7955Z" fill="url(#paint71_linear_550_13324)"/>
  <path d="M51.9258 32.7955C51.9258 32.0149 51.1044 31.5073 50.4062 31.8563L44.69 34.7144C44.0972 35.0109 43.7227 35.6168 43.7227 36.2797V47.2133C43.7227 47.8695 44.0897 48.4705 44.6735 48.7702L50.3963 51.7079C51.095 52.0666 51.9258 51.5592 51.9258 50.7738V32.7955Z" fill="url(#paint72_radial_550_13324)"/>
  <path d="M51.9258 32.7955C51.9258 32.0149 51.1044 31.5073 50.4062 31.8563L44.69 34.7144C44.0972 35.0109 43.7227 35.6168 43.7227 36.2797V47.2133C43.7227 47.8695 44.0897 48.4705 44.6735 48.7702L50.3963 51.7079C51.095 52.0666 51.9258 51.5592 51.9258 50.7738V32.7955Z" fill="url(#paint73_linear_550_13324)"/>
  <circle cx="34.0342" cy="46.0146" r="1.83887" fill="url(#paint74_linear_550_13324)"/>
  <circle cx="34.0342" cy="46.0146" r="1.83887" fill="url(#paint75_radial_550_13324)"/>
  <circle cx="34.0342" cy="46.0146" r="1.83887" fill="url(#paint76_radial_550_13324)"/>
  <circle cx="34.0342" cy="46.0146" r="1.83887" fill="url(#paint77_radial_550_13324)"/>
  <defs>
    <radialGradient id="paint0_radial_550_13324" cx="0" cy="0" r="1" gradientUnits="userSpaceOnUse" gradientTransform="translate(35.7382 18.6291) rotate(93.9568) scale(15.2656 10.0536)">
      <stop offset="0.583383" stop-color="#3A3043" stop-opacity="0"/>
      <stop offset="1" stop-color="#3A3043"/>
    </radialGradient>
    <linearGradient id="paint1_linear_550_13324" x1="32.5438" y1="15.2388" x2="33.1364" y2="17.0478" gradientUnits="userSpaceOnUse">
      <stop stop-color="#3A3043"/>
      <stop offset="1" stop-color="#3A3043" stop-opacity="0"/>
    </linearGradient>
    <linearGradient id="paint2_linear_550_13324" x1="40.9337" y1="16.4864" x2="39.7485" y2="17.6716" gradientUnits="userSpaceOnUse">
      <stop stop-color="#3A3043"/>
      <stop offset="1" stop-color="#3A3043" stop-opacity="0"/>
    </linearGradient>
    <linearGradient id="paint3_linear_550_13324" x1="43.7407" y1="24.8762" x2="42.8362" y2="24.6891" gradientUnits="userSpaceOnUse">
      <stop stop-color="#3A3043"/>
      <stop offset="1" stop-color="#3A3043" stop-opacity="0"/>
    </linearGradient>
    <linearGradient id="paint4_linear_550_13324" x1="37.9108" y1="31.9951" x2="37.343" y2="30.1496" gradientUnits="userSpaceOnUse">
      <stop offset="0.401042" stop-color="#3A3043"/>
      <stop offset="1" stop-color="#3A3043" stop-opacity="0"/>
    </linearGradient>
    <linearGradient id="paint5_linear_550_13324" x1="29.1938" y1="30.2423" x2="29.8145" y2="29.4354" gradientUnits="userSpaceOnUse">
      <stop offset="0.401042" stop-color="#3A3043"/>
      <stop offset="1" stop-color="#3A3043" stop-opacity="0"/>
    </linearGradient>
    <linearGradient id="paint6_linear_550_13324" x1="26.7292" y1="21.0527" x2="27.7887" y2="21.4219" gradientUnits="userSpaceOnUse">
      <stop offset="0.401042" stop-color="#3A3043"/>
      <stop offset="1" stop-color="#3A3043" stop-opacity="0"/>
    </linearGradient>
    <radialGradient id="paint7_radial_550_13324" cx="0" cy="0" r="1" gradientUnits="userSpaceOnUse" gradientTransform="translate(33.3226 15.7071) rotate(73.2562) scale(4.57498 0.754817)">
      <stop stop-color="#62596B"/>
      <stop offset="0.179786" stop-color="#62596B" stop-opacity="0.860044"/>
      <stop offset="0.78836" stop-color="#62596B" stop-opacity="0.131897"/>
      <stop offset="1" stop-color="#62596B" stop-opacity="0"/>
    </radialGradient>
    <radialGradient id="paint8_radial_550_13324" cx="0" cy="0" r="1" gradientUnits="userSpaceOnUse" gradientTransform="translate(41.6961 23.7186) rotate(-168.191) scale(3.40545 0.580237)">
      <stop stop-color="#62596B"/>
      <stop offset="0.238313" stop-color="#62596B" stop-opacity="0.888302"/>
      <stop offset="0.795785" stop-color="#62596B" stop-opacity="0.157"/>
      <stop offset="1" stop-color="#62596B" stop-opacity="0"/>
    </radialGradient>
    <radialGradient id="paint9_radial_550_13324" cx="0" cy="0" r="1" gradientUnits="userSpaceOnUse" gradientTransform="translate(37.9009 29.7808) rotate(-108.32) scale(3.95357 0.674553)">
      <stop stop-color="#62596B"/>
      <stop offset="0.204234" stop-color="#62596B" stop-opacity="0.905963"/>
      <stop offset="0.806455" stop-color="#62596B" stop-opacity="0.125721"/>
      <stop offset="1" stop-color="#62596B" stop-opacity="0"/>
    </radialGradient>
    <radialGradient id="paint10_radial_550_13324" cx="0" cy="0" r="1" gradientUnits="userSpaceOnUse" gradientTransform="translate(27.6696 20.6887) rotate(12.4238) scale(4.37654 0.689732)">
      <stop stop-color="#62596B"/>
      <stop offset="0.305138" stop-color="#62596B" stop-opacity="0.850661"/>
      <stop offset="0.834706" stop-color="#62596B" stop-opacity="0.124121"/>
      <stop offset="1" stop-color="#62596B" stop-opacity="0"/>
    </radialGradient>
    <radialGradient id="paint11_radial_550_13324" cx="0" cy="0" r="1" gradientUnits="userSpaceOnUse" gradientTransform="translate(34.8937 23.353) rotate(90) scale(2.89496 2.91981)">
      <stop offset="0.846528" stop-color="#62596B"/>
      <stop offset="0.966956" stop-color="#62596B" stop-opacity="0.16"/>
      <stop offset="1" stop-color="#62596B" stop-opacity="0"/>
    </radialGradient>
    <radialGradient id="paint12_radial_550_13324" cx="0" cy="0" r="1" gradientUnits="userSpaceOnUse" gradientTransform="translate(34.916 23.3424) rotate(90) scale(2.65043 2.67318)">
      <stop offset="0.835937" stop-color="#4D4259"/>
      <stop offset="1" stop-color="#4D4259" stop-opacity="0"/>
    </radialGradient>
    <radialGradient id="paint13_radial_550_13324" cx="0" cy="0" r="1" gradientUnits="userSpaceOnUse" gradientTransform="translate(34.0934 21.8873) rotate(133.249) scale(1.66224 5.58342)">
      <stop stop-color="#4D4259"/>
      <stop offset="0.715831" stop-color="#4D4259" stop-opacity="0.651066"/>
      <stop offset="0.858933" stop-color="#4D4259" stop-opacity="0.236834"/>
      <stop offset="1" stop-color="#4D4259" stop-opacity="0"/>
    </radialGradient>
    <radialGradient id="paint14_radial_550_13324" cx="0" cy="0" r="1" gradientUnits="userSpaceOnUse" gradientTransform="translate(36.6983 25.1167) rotate(-61.206) scale(1.12961 3.79432)">
      <stop stop-color="#4D4259"/>
      <stop offset="0.551836" stop-color="#4D4259" stop-opacity="0.651066"/>
      <stop offset="0.740636" stop-color="#4D4259" stop-opacity="0.236834"/>
      <stop offset="1" stop-color="#4D4259" stop-opacity="0"/>
    </radialGradient>
    <radialGradient id="paint15_radial_550_13324" cx="0" cy="0" r="1" gradientUnits="userSpaceOnUse" gradientTransform="translate(37.9338 17.3026) rotate(39.1736) scale(1.2648 3.62025)">
      <stop stop-color="#3D3348"/>
      <stop offset="0.4565" stop-color="#3D3348" stop-opacity="0.642031"/>
      <stop offset="1" stop-color="#3D3348" stop-opacity="0"/>
    </radialGradient>
    <radialGradient id="paint16_radial_550_13324" cx="0" cy="0" r="1" gradientUnits="userSpaceOnUse" gradientTransform="translate(35.332 23.1227) rotate(-39.7476) scale(10.2687)">
      <stop stop-color="#C0BEC3" stop-opacity="0"/>
      <stop offset="0.770605" stop-color="#C0BEC3" stop-opacity="0"/>
      <stop offset="0.880526" stop-color="#C0BEC3" stop-opacity="0.35"/>
      <stop offset="0.922114" stop-color="#C0BEC3" stop-opacity="0.81"/>
      <stop offset="0.9368" stop-color="#C0BEC3"/>
      <stop offset="0.954689" stop-color="#C0BEC3" stop-opacity="0.913823"/>
      <stop offset="0.975831" stop-color="#C0BEC3" stop-opacity="0.49"/>
      <stop offset="1" stop-color="#C0BEC3" stop-opacity="0"/>
    </radialGradient>
    <radialGradient id="paint17_radial_550_13324" cx="0" cy="0" r="1" gradientUnits="userSpaceOnUse" gradientTransform="translate(35.3371 23.5425) rotate(136.237) scale(4.82162 33.7032)">
      <stop stop-color="#A6A1AB"/>
      <stop offset="0.470874" stop-color="#A6A1AB" stop-opacity="0.695748"/>
      <stop offset="1" stop-color="#A6A1AB" stop-opacity="0"/>
    </radialGradient>
    <radialGradient id="paint18_radial_550_13324" cx="0" cy="0" r="1" gradientUnits="userSpaceOnUse" gradientTransform="translate(15.7741 22.5709) rotate(123.957) scale(13.8189 9.10086)">
      <stop offset="0.583383" stop-color="#3A3043" stop-opacity="0"/>
      <stop offset="1" stop-color="#3A3043"/>
    </radialGradient>
    <linearGradient id="paint19_linear_550_13324" x1="14.8044" y1="18.4673" x2="14.4502" y2="20.1537" gradientUnits="userSpaceOnUse">
      <stop stop-color="#3A3043"/>
      <stop offset="1" stop-color="#3A3043" stop-opacity="0"/>
    </linearGradient>
    <linearGradient id="paint20_linear_550_13324" x1="20.817" y1="23.2427" x2="19.3514" y2="23.6354" gradientUnits="userSpaceOnUse">
      <stop stop-color="#3A3043"/>
      <stop offset="1" stop-color="#3A3043" stop-opacity="0"/>
    </linearGradient>
    <linearGradient id="paint21_linear_550_13324" x1="19.2202" y1="31.0905" x2="18.5958" y2="30.5344" gradientUnits="userSpaceOnUse">
      <stop stop-color="#3A3043"/>
      <stop offset="1" stop-color="#3A3043" stop-opacity="0"/>
    </linearGradient>
    <linearGradient id="paint22_linear_550_13324" x1="11.4277" y1="34.0327" x2="11.8179" y2="32.3289" gradientUnits="userSpaceOnUse">
      <stop offset="0.401042" stop-color="#3A3043"/>
      <stop offset="1" stop-color="#3A3043" stop-opacity="0"/>
    </linearGradient>
    <linearGradient id="paint23_linear_550_13324" x1="5.38731" y1="28.7131" x2="6.23908" y2="28.3615" gradientUnits="userSpaceOnUse">
      <stop offset="0.401042" stop-color="#3A3043"/>
      <stop offset="1" stop-color="#3A3043" stop-opacity="0"/>
    </linearGradient>
    <linearGradient id="paint24_linear_550_13324" x1="7.6145" y1="20.3934" x2="8.27808" y2="21.1623" gradientUnits="userSpaceOnUse">
      <stop offset="0.401042" stop-color="#3A3043"/>
      <stop offset="1" stop-color="#3A3043" stop-opacity="0"/>
    </linearGradient>
    <radialGradient id="paint25_radial_550_13324" cx="0" cy="0" r="1" gradientUnits="userSpaceOnUse" gradientTransform="translate(15.203 19.1869) rotate(103.256) scale(4.14142 0.683285)">
      <stop stop-color="#62596B"/>
      <stop offset="0.179786" stop-color="#62596B" stop-opacity="0.860044"/>
      <stop offset="0.78836" stop-color="#62596B" stop-opacity="0.131897"/>
      <stop offset="1" stop-color="#62596B" stop-opacity="0"/>
    </radialGradient>
    <radialGradient id="paint26_radial_550_13324" cx="0" cy="0" r="1" gradientUnits="userSpaceOnUse" gradientTransform="translate(18.1413 29.2576) rotate(-138.191) scale(3.08272 0.52525)">
      <stop stop-color="#62596B"/>
      <stop offset="0.238313" stop-color="#62596B" stop-opacity="0.888302"/>
      <stop offset="0.795785" stop-color="#62596B" stop-opacity="0.157"/>
      <stop offset="1" stop-color="#62596B" stop-opacity="0"/>
    </radialGradient>
    <radialGradient id="paint27_radial_550_13324" cx="0" cy="0" r="1" gradientUnits="userSpaceOnUse" gradientTransform="translate(8.51652 20.5336) rotate(42.4238) scale(3.96178 0.624368)">
      <stop stop-color="#62596B"/>
      <stop offset="0.305138" stop-color="#62596B" stop-opacity="0.850661"/>
      <stop offset="0.834706" stop-color="#62596B" stop-opacity="0.124121"/>
      <stop offset="1" stop-color="#62596B" stop-opacity="0"/>
    </radialGradient>
    <radialGradient id="paint28_radial_550_13324" cx="0" cy="0" r="1" gradientUnits="userSpaceOnUse" gradientTransform="translate(12.974 25.892) rotate(120) scale(2.62062 2.64311)">
      <stop offset="0.846528" stop-color="#62596B"/>
      <stop offset="0.966956" stop-color="#62596B" stop-opacity="0.16"/>
      <stop offset="1" stop-color="#62596B" stop-opacity="0"/>
    </radialGradient>
    <radialGradient id="paint29_radial_550_13324" cx="0" cy="0" r="1" gradientUnits="userSpaceOnUse" gradientTransform="translate(12.9239 25.9262) rotate(118.86) scale(2.33556 2.3556)">
      <stop offset="0.835937" stop-color="#4D4259"/>
      <stop offset="1" stop-color="#4D4259" stop-opacity="0"/>
    </radialGradient>
    <radialGradient id="paint30_radial_550_13324" cx="0" cy="0" r="1" gradientUnits="userSpaceOnUse" gradientTransform="translate(13.01 24.3808) rotate(163.249) scale(1.50471 5.0543)">
      <stop stop-color="#4D4259"/>
      <stop offset="0.715831" stop-color="#4D4259" stop-opacity="0.651066"/>
      <stop offset="0.858933" stop-color="#4D4259" stop-opacity="0.236834"/>
      <stop offset="1" stop-color="#4D4259" stop-opacity="0"/>
    </radialGradient>
    <radialGradient id="paint31_radial_550_13324" cx="0" cy="0" r="1" gradientUnits="userSpaceOnUse" gradientTransform="translate(13.5904 28.0915) rotate(-31.206) scale(1.02256 3.43474)">
      <stop stop-color="#4D4259"/>
      <stop offset="0.551836" stop-color="#4D4259" stop-opacity="0.651066"/>
      <stop offset="0.740636" stop-color="#4D4259" stop-opacity="0.236834"/>
      <stop offset="1" stop-color="#4D4259" stop-opacity="0"/>
    </radialGradient>
    <radialGradient id="paint32_radial_550_13324" cx="0" cy="0" r="1" gradientUnits="userSpaceOnUse" gradientTransform="translate(18.0958 22.5248) rotate(69.1736) scale(1.14494 3.27717)">
      <stop stop-color="#3D3348"/>
      <stop offset="0.4565" stop-color="#3D3348" stop-opacity="0.642031"/>
      <stop offset="1" stop-color="#3D3348" stop-opacity="0"/>
    </radialGradient>
    <radialGradient id="paint33_radial_550_13324" cx="0" cy="0" r="1" gradientUnits="userSpaceOnUse" gradientTransform="translate(13.505 25.8103) rotate(-9.22994) scale(9.20046)">
      <stop stop-color="#C0BEC3" stop-opacity="0"/>
      <stop offset="0.770605" stop-color="#C0BEC3" stop-opacity="0"/>
      <stop offset="0.880526" stop-color="#C0BEC3" stop-opacity="0.35"/>
      <stop offset="0.922114" stop-color="#C0BEC3" stop-opacity="0.81"/>
      <stop offset="0.9368" stop-color="#C0BEC3"/>
      <stop offset="0.954689" stop-color="#C0BEC3" stop-opacity="0.913823"/>
      <stop offset="0.975831" stop-color="#C0BEC3" stop-opacity="0.49"/>
      <stop offset="1" stop-color="#C0BEC3" stop-opacity="0"/>
    </radialGradient>
    <radialGradient id="paint34_radial_550_13324" cx="0" cy="0" r="1" gradientUnits="userSpaceOnUse" gradientTransform="translate(13.0862 25.8453) rotate(131.042) scale(6.82556 47.7109)">
      <stop stop-color="#A6A1AB"/>
      <stop offset="0.470874" stop-color="#A6A1AB" stop-opacity="0.695748"/>
      <stop offset="1" stop-color="#A6A1AB" stop-opacity="0"/>
    </radialGradient>
    <linearGradient id="paint35_linear_550_13324" x1="24.6094" y1="30.7969" x2="24.6094" y2="52.6445" gradientUnits="userSpaceOnUse">
      <stop stop-color="#BFB8C7"/>
      <stop offset="0.9999" stop-color="#BFB4CB"/>
      <stop offset="1" stop-color="#BFB8C7" stop-opacity="0"/>
    </linearGradient>
    <linearGradient id="paint36_linear_550_13324" x1="13.2334" y1="40.7462" x2="10.132" y2="40.7462" gradientUnits="userSpaceOnUse">
      <stop stop-color="#B0A2BE" stop-opacity="0"/>
      <stop offset="0.24359" stop-color="#B0A2BE" stop-opacity="0.133736"/>
      <stop offset="1" stop-color="#B0A2BE"/>
    </linearGradient>
    <radialGradient id="paint37_radial_550_13324" cx="0" cy="0" r="1" gradientUnits="userSpaceOnUse" gradientTransform="translate(29.7047 32.5096) rotate(90) scale(1.73395 25.255)">
      <stop stop-color="#DEDCE1" stop-opacity="0.67"/>
      <stop offset="0.245738" stop-color="#DEDCE1" stop-opacity="0.587007"/>
      <stop offset="0.441449" stop-color="#DEDCE1" stop-opacity="0.434143"/>
      <stop offset="0.666064" stop-color="#DEDCE1" stop-opacity="0.198644"/>
      <stop offset="0.910601" stop-color="#DEDCE1" stop-opacity="0.03"/>
      <stop offset="1" stop-color="#DEDCE1" stop-opacity="0"/>
    </radialGradient>
    <radialGradient id="paint38_radial_550_13324" cx="0" cy="0" r="1" gradientUnits="userSpaceOnUse" gradientTransform="translate(36.7748 33.1977) rotate(115.769) scale(1.88485 4.25591)">
      <stop stop-color="#DEDCE1" stop-opacity="0.67"/>
      <stop offset="0.245738" stop-color="#DEDCE1" stop-opacity="0.587007"/>
      <stop offset="0.441449" stop-color="#DEDCE1" stop-opacity="0.434143"/>
      <stop offset="0.666064" stop-color="#DEDCE1" stop-opacity="0.198644"/>
      <stop offset="0.910601" stop-color="#DEDCE1" stop-opacity="0.03"/>
      <stop offset="1" stop-color="#DEDCE1" stop-opacity="0"/>
    </radialGradient>
    <linearGradient id="paint39_linear_550_13324" x1="37.9256" y1="40.7546" x2="39.9938" y2="40.7546" gradientUnits="userSpaceOnUse">
      <stop stop-color="#B286D8" stop-opacity="0"/>
      <stop offset="0.221848" stop-color="#B286D8" stop-opacity="0.0930413"/>
      <stop offset="0.560562" stop-color="#B286D8" stop-opacity="0.354375"/>
      <stop offset="1" stop-color="#B286D8"/>
    </linearGradient>
    <radialGradient id="paint40_radial_550_13324" cx="0" cy="0" r="1" gradientUnits="userSpaceOnUse" gradientTransform="translate(38.4922 44.321) rotate(180) scale(2.39261 30.0899)">
      <stop stop-color="#DEDCE1" stop-opacity="0.67"/>
      <stop offset="0.239143" stop-color="#DEDCE1" stop-opacity="0.587007"/>
      <stop offset="0.391813" stop-color="#DEDCE1" stop-opacity="0.434143"/>
      <stop offset="0.674251" stop-color="#DEDCE1" stop-opacity="0.198644"/>
      <stop offset="0.921076" stop-color="#DEDCE1" stop-opacity="0.03"/>
      <stop offset="1" stop-color="#DEDCE1" stop-opacity="0"/>
    </radialGradient>
    <linearGradient id="paint41_linear_550_13324" x1="24.6094" y1="51.024" x2="24.6094" y2="52.6445" gradientUnits="userSpaceOnUse">
      <stop stop-color="#B0A2BE" stop-opacity="0"/>
      <stop offset="0.312139" stop-color="#B0A2BE" stop-opacity="0.133736"/>
      <stop offset="1" stop-color="#B0A2BE"/>
    </linearGradient>
    <radialGradient id="paint42_radial_550_13324" cx="0" cy="0" r="1" gradientUnits="userSpaceOnUse" gradientTransform="translate(38.1702 51.9265) rotate(-133.187) scale(2.56441 9.17129)">
      <stop stop-color="#B0A2BE"/>
      <stop offset="0.749557" stop-color="#B0A2BE" stop-opacity="0.133736"/>
      <stop offset="0.899442" stop-color="#B0A2BE" stop-opacity="0.0282472"/>
      <stop offset="1" stop-color="#B0A2BE" stop-opacity="0"/>
    </radialGradient>
    <radialGradient id="paint43_radial_550_13324" cx="0" cy="0" r="1" gradientUnits="userSpaceOnUse" gradientTransform="translate(38.7843 31.3505) rotate(123.357) scale(3.31732 11.8793)">
      <stop stop-color="#BEB8C4"/>
      <stop offset="0.749557" stop-color="#BEB8C4" stop-opacity="0.133736"/>
      <stop offset="0.899442" stop-color="#BEB8C4" stop-opacity="0.0282472"/>
      <stop offset="1" stop-color="#BEB8C4" stop-opacity="0"/>
    </radialGradient>
    <radialGradient id="paint44_radial_550_13324" cx="0" cy="0" r="1" gradientUnits="userSpaceOnUse" gradientTransform="translate(9.51546 31.7732) rotate(32.052) scale(4.3916 15.6755)">
      <stop stop-color="#B0A2BE"/>
      <stop offset="0.749557" stop-color="#B0A2BE" stop-opacity="0.133736"/>
      <stop offset="0.899442" stop-color="#B0A2BE" stop-opacity="0.0282472"/>
      <stop offset="1" stop-color="#B0A2BE" stop-opacity="0"/>
    </radialGradient>
    <radialGradient id="paint45_radial_550_13324" cx="0" cy="0" r="1" gradientUnits="userSpaceOnUse" gradientTransform="translate(10.2395 52.14) rotate(-51.8448) scale(3.42527 12.2583)">
      <stop offset="0.202227" stop-color="#B0A2BE"/>
      <stop offset="0.749557" stop-color="#B0A2BE" stop-opacity="0.133736"/>
      <stop offset="0.899442" stop-color="#B0A2BE" stop-opacity="0.0282472"/>
      <stop offset="1" stop-color="#B0A2BE" stop-opacity="0"/>
    </radialGradient>
    <linearGradient id="paint46_linear_550_13324" x1="24.6094" y1="30.7969" x2="24.6094" y2="31.9549" gradientUnits="userSpaceOnUse">
      <stop stop-color="#BFBDC1"/>
      <stop offset="0.6056" stop-color="#BFBDC1" stop-opacity="0.164564"/>
      <stop offset="1" stop-color="#BFBDC1" stop-opacity="0"/>
    </linearGradient>
    <linearGradient id="paint47_linear_550_13324" x1="24.9949" y1="50.6258" x2="24.9949" y2="52.9989" gradientUnits="userSpaceOnUse">
      <stop stop-color="#B286D8" stop-opacity="0"/>
      <stop offset="0.221848" stop-color="#B286D8" stop-opacity="0.0930413"/>
      <stop offset="0.560562" stop-color="#B286D8" stop-opacity="0.354375"/>
      <stop offset="1" stop-color="#B286D8"/>
    </linearGradient>
    <linearGradient id="paint48_linear_550_13324" x1="39.293" y1="42.8987" x2="38.7554" y2="42.8987" gradientUnits="userSpaceOnUse">
      <stop offset="0.0677264" stop-color="#BEB8C4"/>
      <stop offset="0.659663" stop-color="#BEB8C4" stop-opacity="0.26958"/>
      <stop offset="1" stop-color="#BEB8C4" stop-opacity="0"/>
    </linearGradient>
    <radialGradient id="paint49_radial_550_13324" cx="0" cy="0" r="1" gradientUnits="userSpaceOnUse" gradientTransform="translate(33.4646 36.5733) rotate(135) scale(2.31443 2.95837)">
      <stop offset="0.345243" stop-color="#AA9CB9"/>
      <stop offset="0.868423" stop-color="#AA9CB9" stop-opacity="0.108452"/>
      <stop offset="1" stop-color="#AA9CB9" stop-opacity="0"/>
    </radialGradient>
    <radialGradient id="paint50_radial_550_13324" cx="0" cy="0" r="1" gradientUnits="userSpaceOnUse" gradientTransform="translate(33.5247 46.575) rotate(135) scale(2.39184)">
      <stop offset="0.420416" stop-color="#AA9CB9"/>
      <stop offset="0.896106" stop-color="#AA9CB9" stop-opacity="0.148631"/>
      <stop offset="1" stop-color="#AA9CB9" stop-opacity="0"/>
    </radialGradient>
    <linearGradient id="paint51_linear_550_13324" x1="9.88341" y1="42.418" x2="10.582" y2="42.418" gradientUnits="userSpaceOnUse">
      <stop stop-color="#C5C1CA"/>
      <stop offset="1" stop-color="#C5C1CA" stop-opacity="0"/>
    </linearGradient>
    <linearGradient id="paint52_linear_550_13324" x1="14.957" y1="40.668" x2="22.5586" y2="40.668" gradientUnits="userSpaceOnUse">
      <stop stop-color="#3B284D"/>
      <stop offset="1" stop-color="#32273F"/>
    </linearGradient>
    <linearGradient id="paint53_linear_550_13324" x1="18.5186" y1="39.5195" x2="18.5186" y2="41.0188" gradientUnits="userSpaceOnUse">
      <stop stop-color="#4A3E56" stop-opacity="0"/>
      <stop offset="0.307101" stop-color="#4A3E56" stop-opacity="0.225232"/>
      <stop offset="0.404662" stop-color="#4A3E56" stop-opacity="0.411642"/>
      <stop offset="0.546939" stop-color="#4A3E56" stop-opacity="0.87"/>
      <stop offset="0.67702" stop-color="#4A3E56"/>
      <stop offset="0.815231" stop-color="#4A3E56" stop-opacity="0.78"/>
      <stop offset="1" stop-color="#4A3E56" stop-opacity="0"/>
    </linearGradient>
    <radialGradient id="paint54_radial_550_13324" cx="0" cy="0" r="1" gradientUnits="userSpaceOnUse" gradientTransform="translate(18.7733 40.3604) rotate(180) scale(5.1437 2.92809)">
      <stop stop-color="#3B284D" stop-opacity="0"/>
      <stop offset="0.911879" stop-color="#3B284D" stop-opacity="0.114429"/>
      <stop offset="1" stop-color="#3B284D"/>
    </radialGradient>
    <radialGradient id="paint55_radial_550_13324" cx="0" cy="0" r="1" gradientUnits="userSpaceOnUse" gradientTransform="translate(18.3492 40.3604) scale(5.12819 2.91926)">
      <stop stop-color="#32273F" stop-opacity="0"/>
      <stop offset="0.861963" stop-color="#32273F" stop-opacity="0.114429"/>
      <stop offset="1" stop-color="#32273F"/>
    </radialGradient>
    <linearGradient id="paint56_linear_550_13324" x1="14.957" y1="43.7988" x2="22.5586" y2="43.7988" gradientUnits="userSpaceOnUse">
      <stop stop-color="#3B284D"/>
      <stop offset="1" stop-color="#32273F"/>
    </linearGradient>
    <linearGradient id="paint57_linear_550_13324" x1="18.5186" y1="42.6504" x2="18.5186" y2="44.1497" gradientUnits="userSpaceOnUse">
      <stop stop-color="#4A3E56" stop-opacity="0"/>
      <stop offset="0.307101" stop-color="#4A3E56" stop-opacity="0.225232"/>
      <stop offset="0.404662" stop-color="#4A3E56" stop-opacity="0.411642"/>
      <stop offset="0.546939" stop-color="#4A3E56" stop-opacity="0.87"/>
      <stop offset="0.67702" stop-color="#4A3E56"/>
      <stop offset="0.815231" stop-color="#4A3E56" stop-opacity="0.78"/>
      <stop offset="1" stop-color="#4A3E56" stop-opacity="0"/>
    </linearGradient>
    <radialGradient id="paint58_radial_550_13324" cx="0" cy="0" r="1" gradientUnits="userSpaceOnUse" gradientTransform="translate(18.7733 43.4912) rotate(180) scale(5.1437 2.92809)">
      <stop stop-color="#3B284D" stop-opacity="0"/>
      <stop offset="0.911879" stop-color="#3B284D" stop-opacity="0.114429"/>
      <stop offset="1" stop-color="#3B284D"/>
    </radialGradient>
    <radialGradient id="paint59_radial_550_13324" cx="0" cy="0" r="1" gradientUnits="userSpaceOnUse" gradientTransform="translate(18.3492 43.4912) scale(5.12819 2.91926)">
      <stop stop-color="#32273F" stop-opacity="0"/>
      <stop offset="0.861963" stop-color="#32273F" stop-opacity="0.114429"/>
      <stop offset="1" stop-color="#32273F"/>
    </radialGradient>
    <linearGradient id="paint60_linear_550_13324" x1="14.957" y1="46.9297" x2="22.5586" y2="46.9297" gradientUnits="userSpaceOnUse">
      <stop stop-color="#3B284D"/>
      <stop offset="1" stop-color="#32273F"/>
    </linearGradient>
    <linearGradient id="paint61_linear_550_13324" x1="18.5186" y1="45.7812" x2="18.5186" y2="47.2806" gradientUnits="userSpaceOnUse">
      <stop stop-color="#4A3E56" stop-opacity="0"/>
      <stop offset="0.307101" stop-color="#4A3E56" stop-opacity="0.225232"/>
      <stop offset="0.404662" stop-color="#4A3E56" stop-opacity="0.411642"/>
      <stop offset="0.546939" stop-color="#4A3E56" stop-opacity="0.87"/>
      <stop offset="0.67702" stop-color="#4A3E56"/>
      <stop offset="0.815231" stop-color="#4A3E56" stop-opacity="0.78"/>
      <stop offset="1" stop-color="#4A3E56" stop-opacity="0"/>
    </linearGradient>
    <radialGradient id="paint62_radial_550_13324" cx="0" cy="0" r="1" gradientUnits="userSpaceOnUse" gradientTransform="translate(18.7733 46.6221) rotate(180) scale(5.1437 2.92809)">
      <stop stop-color="#3B284D" stop-opacity="0"/>
      <stop offset="0.911879" stop-color="#3B284D" stop-opacity="0.114429"/>
      <stop offset="1" stop-color="#3B284D"/>
    </radialGradient>
    <radialGradient id="paint63_radial_550_13324" cx="0" cy="0" r="1" gradientUnits="userSpaceOnUse" gradientTransform="translate(18.3492 46.6221) scale(5.12819 2.91926)">
      <stop stop-color="#32273F" stop-opacity="0"/>
      <stop offset="0.861963" stop-color="#32273F" stop-opacity="0.114429"/>
      <stop offset="1" stop-color="#32273F"/>
    </radialGradient>
    <linearGradient id="paint64_linear_550_13324" x1="35.4158" y1="34.1953" x2="33.3708" y2="37.7107" gradientUnits="userSpaceOnUse">
      <stop stop-color="white"/>
      <stop offset="0.93966" stop-color="#BA9FD1"/>
    </linearGradient>
    <linearGradient id="paint65_linear_550_13324" x1="33.7499" y1="35.7997" x2="32.1111" y2="35.1056" gradientUnits="userSpaceOnUse">
      <stop offset="0.11065" stop-color="#BCB6C1" stop-opacity="0"/>
      <stop offset="0.86621" stop-color="#BCB6C1"/>
    </linearGradient>
    <radialGradient id="paint66_radial_550_13324" cx="0" cy="0" r="1" gradientUnits="userSpaceOnUse" gradientTransform="translate(34.0889 36.0342) rotate(135) scale(1.58751)">
      <stop offset="0.690227" stop-color="#E1D7EB"/>
      <stop offset="0.886886" stop-color="#E1D7EB" stop-opacity="0.526316"/>
      <stop offset="1" stop-color="#E1D7EB" stop-opacity="0.35"/>
    </radialGradient>
    <linearGradient id="paint67_linear_550_13324" x1="41.5078" y1="36.7168" x2="41.5078" y2="44.4414" gradientUnits="userSpaceOnUse">
      <stop stop-color="#ADABAE"/>
      <stop offset="1" stop-color="#9481A8"/>
    </linearGradient>
    <linearGradient id="paint68_linear_550_13324" x1="43.4492" y1="46.7246" x2="43.4492" y2="44.6875" gradientUnits="userSpaceOnUse">
      <stop stop-color="#9E75C2"/>
      <stop offset="1" stop-color="#84699E" stop-opacity="0"/>
    </linearGradient>
    <linearGradient id="paint69_linear_550_13324" x1="44.3242" y1="44.8789" x2="42.4102" y2="44.8789" gradientUnits="userSpaceOnUse">
      <stop stop-color="#848087"/>
      <stop offset="1" stop-color="#848087" stop-opacity="0"/>
    </linearGradient>
    <linearGradient id="paint70_linear_550_13324" x1="47.8242" y1="40.6122" x2="47.8242" y2="50.2372" gradientUnits="userSpaceOnUse">
      <stop stop-color="#343137"/>
      <stop offset="1" stop-color="#402B54"/>
    </linearGradient>
    <linearGradient id="paint71_linear_550_13324" x1="46.8125" y1="50.1004" x2="48.207" y2="47.3934" gradientUnits="userSpaceOnUse">
      <stop stop-color="#694787"/>
      <stop offset="1" stop-color="#442D59" stop-opacity="0"/>
    </linearGradient>
    <radialGradient id="paint72_radial_550_13324" cx="0" cy="0" r="1" gradientUnits="userSpaceOnUse" gradientTransform="translate(51.4883 39.8465) rotate(90) scale(10.4453 0.91461)">
      <stop offset="0.196335" stop-color="#5A5560"/>
      <stop offset="0.830201" stop-color="#5A5560" stop-opacity="0.147901"/>
      <stop offset="1" stop-color="#5A5560" stop-opacity="0"/>
    </radialGradient>
    <linearGradient id="paint73_linear_550_13324" x1="47.3585" y1="33.5868" x2="48.0552" y2="35.1807" gradientUnits="userSpaceOnUse">
      <stop stop-color="#464548"/>
      <stop offset="0.660312" stop-color="#464548" stop-opacity="0.168084"/>
      <stop offset="1" stop-color="#464548" stop-opacity="0"/>
    </linearGradient>
    <linearGradient id="paint74_linear_550_13324" x1="35.3612" y1="44.1758" x2="33.3161" y2="47.6912" gradientUnits="userSpaceOnUse">
      <stop stop-color="#FF4676"/>
      <stop offset="1" stop-color="#BC3E68"/>
    </linearGradient>
    <radialGradient id="paint75_radial_550_13324" cx="0" cy="0" r="1" gradientUnits="userSpaceOnUse" gradientTransform="translate(34.9338 47.0197) rotate(-135.385) scale(3.21597 3.99515)">
      <stop offset="0.665345" stop-color="#B9526A" stop-opacity="0"/>
      <stop offset="1" stop-color="#B9526A"/>
    </radialGradient>
    <radialGradient id="paint76_radial_550_13324" cx="0" cy="0" r="1" gradientUnits="userSpaceOnUse" gradientTransform="translate(34.3126 45.8358) rotate(-179.729) scale(1.64719)">
      <stop offset="0.61204" stop-color="#FF6285"/>
      <stop offset="0.893649" stop-color="#FF6285" stop-opacity="0.15335"/>
      <stop offset="1" stop-color="#FF6285" stop-opacity="0"/>
    </radialGradient>
    <radialGradient id="paint77_radial_550_13324" cx="0" cy="0" r="1" gradientUnits="userSpaceOnUse" gradientTransform="translate(33.9665 46.1145) rotate(157.27) scale(1.54241 1.63897)">
      <stop offset="0.558723" stop-color="#F4396B"/>
      <stop offset="0.768215" stop-color="#F4396B" stop-opacity="0.610111"/>
      <stop offset="0.890943" stop-color="#F4396B" stop-opacity="0.277991"/>
      <stop offset="1" stop-color="#F4396B" stop-opacity="0"/>
    </radialGradient>
  </defs>
</svg>