<svg width="1678" height="171" viewBox="0 0 1678 171" fill="none" xmlns="http://www.w3.org/2000/svg">
<rect width="1678" height="171" rx="10" fill="url(#paint0_linear_393_68448)" fill-opacity="0.3"/>
<mask id="mask0_393_68448" style="mask-type:alpha" maskUnits="userSpaceOnUse" x="0" y="0" width="1678" height="169">
<rect width="1678" height="169" fill="url(#paint1_linear_393_68448)"/>
</mask>
<g mask="url(#mask0_393_68448)">
<ellipse cx="1626.87" cy="44" rx="145.514" ry="111" fill="white" fill-opacity="0.03"/>
<ellipse cx="1570.5" cy="44" rx="145.514" ry="111" fill="#5C51EA" fill-opacity="0.05"/>
<path d="M1355.87 9.50575L1357.22 9.50575L1357.22 11.8017L1359.55 11.8017L1359.55 13.2017L1357.22 13.2017L1357.22 15.4978L1355.87 15.4978L1355.87 13.2017L1353.46 13.2017L1353.46 11.8017L1355.87 11.8017L1355.87 9.50575Z" fill="url(#paint2_linear_393_68448)"/>
<path d="M1355.87 28.5057L1357.22 28.5057L1357.22 30.8017L1359.55 30.8017L1359.55 32.2017L1357.22 32.2017L1357.22 34.4978L1355.87 34.4978L1355.87 32.2017L1353.46 32.2017L1353.46 30.8017L1355.87 30.8017L1355.87 28.5057Z" fill="url(#paint3_linear_393_68448)"/>
<path d="M1355.87 47.5057L1357.22 47.5057L1357.22 49.8017L1359.55 49.8017L1359.55 51.2017L1357.22 51.2017L1357.22 53.4978L1355.87 53.4978L1355.87 51.2017L1353.46 51.2017L1353.46 49.8017L1355.87 49.8017L1355.87 47.5057Z" fill="url(#paint4_linear_393_68448)"/>
<path d="M1355.87 66.5057L1357.22 66.5057L1357.22 68.8017L1359.55 68.8017L1359.55 70.2017L1357.22 70.2017L1357.22 72.4978L1355.87 72.4978L1355.87 70.2017L1353.46 70.2017L1353.46 68.8017L1355.87 68.8017L1355.87 66.5057Z" fill="url(#paint5_linear_393_68448)"/>
<path d="M1355.87 85.5057L1357.22 85.5057L1357.22 87.8017L1359.55 87.8017L1359.55 89.2017L1357.22 89.2017L1357.22 91.4978L1355.87 91.4978L1355.87 89.2017L1353.46 89.2017L1353.46 87.8017L1355.87 87.8017L1355.87 85.5057Z" fill="url(#paint6_linear_393_68448)"/>
<path d="M1355.87 104.506L1357.22 104.506L1357.22 106.802L1359.55 106.802L1359.55 108.202L1357.22 108.202L1357.22 110.498L1355.87 110.498L1355.87 108.202L1353.46 108.202L1353.46 106.802L1355.87 106.802L1355.87 104.506Z" fill="url(#paint7_linear_393_68448)"/>
<path d="M1355.87 123.506L1357.22 123.506L1357.22 125.802L1359.55 125.802L1359.55 127.202L1357.22 127.202L1357.22 129.498L1355.87 129.498L1355.87 127.202L1353.46 127.202L1353.46 125.802L1355.87 125.802L1355.87 123.506Z" fill="url(#paint8_linear_393_68448)"/>
<path d="M1330.96 9.50575L1332.32 9.50575L1332.32 11.8017L1334.64 11.8017L1334.64 13.2017L1332.32 13.2017L1332.32 15.4978L1330.96 15.4978L1330.96 13.2017L1328.55 13.2017L1328.55 11.8017L1330.96 11.8017L1330.96 9.50575Z" fill="url(#paint9_linear_393_68448)"/>
<path d="M1330.96 28.5057L1332.32 28.5057L1332.32 30.8017L1334.64 30.8017L1334.64 32.2017L1332.32 32.2017L1332.32 34.4978L1330.96 34.4978L1330.96 32.2017L1328.55 32.2017L1328.55 30.8017L1330.96 30.8017L1330.96 28.5057Z" fill="url(#paint10_linear_393_68448)"/>
<path d="M1330.96 47.5057L1332.32 47.5057L1332.32 49.8017L1334.64 49.8017L1334.64 51.2017L1332.32 51.2017L1332.32 53.4978L1330.96 53.4978L1330.96 51.2017L1328.55 51.2017L1328.55 49.8017L1330.96 49.8017L1330.96 47.5057Z" fill="url(#paint11_linear_393_68448)"/>
<path d="M1330.96 66.5057L1332.32 66.5057L1332.32 68.8017L1334.64 68.8017L1334.64 70.2017L1332.32 70.2017L1332.32 72.4978L1330.96 72.4978L1330.96 70.2017L1328.55 70.2017L1328.55 68.8017L1330.96 68.8017L1330.96 66.5057Z" fill="url(#paint12_linear_393_68448)"/>
<path d="M1330.96 85.5057L1332.32 85.5057L1332.32 87.8017L1334.64 87.8017L1334.64 89.2017L1332.32 89.2017L1332.32 91.4978L1330.96 91.4978L1330.96 89.2017L1328.55 89.2017L1328.55 87.8017L1330.96 87.8017L1330.96 85.5057Z" fill="url(#paint13_linear_393_68448)"/>
<path d="M1330.96 104.506L1332.32 104.506L1332.32 106.802L1334.64 106.802L1334.64 108.202L1332.32 108.202L1332.32 110.498L1330.96 110.498L1330.96 108.202L1328.55 108.202L1328.55 106.802L1330.96 106.802L1330.96 104.506Z" fill="url(#paint14_linear_393_68448)"/>
<path d="M1330.96 123.506L1332.32 123.506L1332.32 125.802L1334.64 125.802L1334.64 127.202L1332.32 127.202L1332.32 129.498L1330.96 129.498L1330.96 127.202L1328.55 127.202L1328.55 125.802L1330.96 125.802L1330.96 123.506Z" fill="url(#paint15_linear_393_68448)"/>
<path d="M1306.05 9.50575L1307.4 9.50575L1307.4 11.8017L1309.73 11.8017L1309.73 13.2017L1307.4 13.2017L1307.4 15.4978L1306.05 15.4978L1306.05 13.2017L1303.64 13.2017L1303.64 11.8017L1306.05 11.8017L1306.05 9.50575Z" fill="url(#paint16_linear_393_68448)"/>
<path d="M1306.05 28.5057L1307.4 28.5057L1307.4 30.8017L1309.73 30.8017L1309.73 32.2017L1307.4 32.2017L1307.4 34.4978L1306.05 34.4978L1306.05 32.2017L1303.64 32.2017L1303.64 30.8017L1306.05 30.8017L1306.05 28.5057Z" fill="url(#paint17_linear_393_68448)"/>
<path d="M1306.05 47.5057L1307.4 47.5057L1307.4 49.8017L1309.73 49.8017L1309.73 51.2017L1307.4 51.2017L1307.4 53.4978L1306.05 53.4978L1306.05 51.2017L1303.64 51.2017L1303.64 49.8017L1306.05 49.8017L1306.05 47.5057Z" fill="url(#paint18_linear_393_68448)"/>
<path d="M1306.05 66.5057L1307.4 66.5057L1307.4 68.8017L1309.73 68.8017L1309.73 70.2017L1307.4 70.2017L1307.4 72.4978L1306.05 72.4978L1306.05 70.2017L1303.64 70.2017L1303.64 68.8017L1306.05 68.8017L1306.05 66.5057Z" fill="url(#paint19_linear_393_68448)"/>
<path d="M1306.05 85.5057L1307.4 85.5057L1307.4 87.8017L1309.73 87.8017L1309.73 89.2017L1307.4 89.2017L1307.4 91.4978L1306.05 91.4978L1306.05 89.2017L1303.64 89.2017L1303.64 87.8017L1306.05 87.8017L1306.05 85.5057Z" fill="url(#paint20_linear_393_68448)"/>
<path d="M1306.05 104.506L1307.4 104.506L1307.4 106.802L1309.73 106.802L1309.73 108.202L1307.4 108.202L1307.4 110.498L1306.05 110.498L1306.05 108.202L1303.64 108.202L1303.64 106.802L1306.05 106.802L1306.05 104.506Z" fill="url(#paint21_linear_393_68448)"/>
<path d="M1306.05 123.506L1307.4 123.506L1307.4 125.802L1309.73 125.802L1309.73 127.202L1307.4 127.202L1307.4 129.498L1306.05 129.498L1306.05 127.202L1303.64 127.202L1303.64 125.802L1306.05 125.802L1306.05 123.506Z" fill="url(#paint22_linear_393_68448)"/>
<path d="M1281.15 9.50575L1282.5 9.50575L1282.5 11.8017L1284.83 11.8017L1284.83 13.2017L1282.5 13.2017L1282.5 15.4978L1281.15 15.4978L1281.15 13.2017L1278.74 13.2017L1278.74 11.8017L1281.15 11.8017L1281.15 9.50575Z" fill="url(#paint23_linear_393_68448)"/>
<path d="M1281.15 28.5057L1282.5 28.5057L1282.5 30.8017L1284.83 30.8017L1284.83 32.2017L1282.5 32.2017L1282.5 34.4978L1281.15 34.4978L1281.15 32.2017L1278.74 32.2017L1278.74 30.8017L1281.15 30.8017L1281.15 28.5057Z" fill="url(#paint24_linear_393_68448)"/>
<path d="M1281.15 47.5057L1282.5 47.5057L1282.5 49.8017L1284.83 49.8017L1284.83 51.2017L1282.5 51.2017L1282.5 53.4978L1281.15 53.4978L1281.15 51.2017L1278.74 51.2017L1278.74 49.8017L1281.15 49.8017L1281.15 47.5057Z" fill="url(#paint25_linear_393_68448)"/>
<path d="M1281.15 66.5057L1282.5 66.5057L1282.5 68.8017L1284.83 68.8017L1284.83 70.2017L1282.5 70.2017L1282.5 72.4978L1281.15 72.4978L1281.15 70.2017L1278.74 70.2017L1278.74 68.8017L1281.15 68.8017L1281.15 66.5057Z" fill="url(#paint26_linear_393_68448)"/>
<path d="M1281.15 85.5057L1282.5 85.5057L1282.5 87.8017L1284.83 87.8017L1284.83 89.2017L1282.5 89.2017L1282.5 91.4978L1281.15 91.4978L1281.15 89.2017L1278.74 89.2017L1278.74 87.8017L1281.15 87.8017L1281.15 85.5057Z" fill="url(#paint27_linear_393_68448)"/>
<path d="M1281.15 104.506L1282.5 104.506L1282.5 106.802L1284.83 106.802L1284.83 108.202L1282.5 108.202L1282.5 110.498L1281.15 110.498L1281.15 108.202L1278.74 108.202L1278.74 106.802L1281.15 106.802L1281.15 104.506Z" fill="url(#paint28_linear_393_68448)"/>
<path d="M1281.15 123.506L1282.5 123.506L1282.5 125.802L1284.83 125.802L1284.83 127.202L1282.5 127.202L1282.5 129.498L1281.15 129.498L1281.15 127.202L1278.74 127.202L1278.74 125.802L1281.15 125.802L1281.15 123.506Z" fill="url(#paint29_linear_393_68448)"/>
<path d="M1256.23 9.50575L1257.59 9.50575L1257.59 11.8017L1259.91 11.8017L1259.91 13.2017L1257.59 13.2017L1257.59 15.4978L1256.23 15.4978L1256.23 13.2017L1253.82 13.2017L1253.82 11.8017L1256.23 11.8017L1256.23 9.50575Z" fill="url(#paint30_linear_393_68448)"/>
<path d="M1256.23 28.5057L1257.59 28.5057L1257.59 30.8017L1259.91 30.8017L1259.91 32.2017L1257.59 32.2017L1257.59 34.4978L1256.23 34.4978L1256.23 32.2017L1253.82 32.2017L1253.82 30.8017L1256.23 30.8017L1256.23 28.5057Z" fill="url(#paint31_linear_393_68448)"/>
<path d="M1256.23 47.5057L1257.59 47.5057L1257.59 49.8017L1259.91 49.8017L1259.91 51.2017L1257.59 51.2017L1257.59 53.4978L1256.23 53.4978L1256.23 51.2017L1253.82 51.2017L1253.82 49.8017L1256.23 49.8017L1256.23 47.5057Z" fill="url(#paint32_linear_393_68448)"/>
<path d="M1256.23 66.5057L1257.59 66.5057L1257.59 68.8017L1259.91 68.8017L1259.91 70.2017L1257.59 70.2017L1257.59 72.4978L1256.23 72.4978L1256.23 70.2017L1253.82 70.2017L1253.82 68.8017L1256.23 68.8017L1256.23 66.5057Z" fill="url(#paint33_linear_393_68448)"/>
<path d="M1256.23 85.5057L1257.59 85.5057L1257.59 87.8017L1259.91 87.8017L1259.91 89.2017L1257.59 89.2017L1257.59 91.4978L1256.23 91.4978L1256.23 89.2017L1253.82 89.2017L1253.82 87.8017L1256.23 87.8017L1256.23 85.5057Z" fill="url(#paint34_linear_393_68448)"/>
<path d="M1256.23 104.506L1257.59 104.506L1257.59 106.802L1259.91 106.802L1259.91 108.202L1257.59 108.202L1257.59 110.498L1256.23 110.498L1256.23 108.202L1253.82 108.202L1253.82 106.802L1256.23 106.802L1256.23 104.506Z" fill="url(#paint35_linear_393_68448)"/>
<path d="M1256.23 123.506L1257.59 123.506L1257.59 125.802L1259.91 125.802L1259.91 127.202L1257.59 127.202L1257.59 129.498L1256.23 129.498L1256.23 127.202L1253.82 127.202L1253.82 125.802L1256.23 125.802L1256.23 123.506Z" fill="url(#paint36_linear_393_68448)"/>
<path d="M1231.33 9.50575L1232.68 9.50575L1232.68 11.8017L1235.01 11.8017L1235.01 13.2017L1232.68 13.2017L1232.68 15.4978L1231.33 15.4978L1231.33 13.2017L1228.92 13.2017L1228.92 11.8017L1231.33 11.8017L1231.33 9.50575Z" fill="url(#paint37_linear_393_68448)"/>
<path d="M1231.33 28.5057L1232.68 28.5057L1232.68 30.8017L1235.01 30.8017L1235.01 32.2017L1232.68 32.2017L1232.68 34.4978L1231.33 34.4978L1231.33 32.2017L1228.92 32.2017L1228.92 30.8017L1231.33 30.8017L1231.33 28.5057Z" fill="url(#paint38_linear_393_68448)"/>
<path d="M1231.33 47.5057L1232.68 47.5057L1232.68 49.8017L1235.01 49.8017L1235.01 51.2017L1232.68 51.2017L1232.68 53.4978L1231.33 53.4978L1231.33 51.2017L1228.92 51.2017L1228.92 49.8017L1231.33 49.8017L1231.33 47.5057Z" fill="url(#paint39_linear_393_68448)"/>
<path d="M1231.33 66.5057L1232.68 66.5057L1232.68 68.8017L1235.01 68.8017L1235.01 70.2017L1232.68 70.2017L1232.68 72.4978L1231.33 72.4978L1231.33 70.2017L1228.92 70.2017L1228.92 68.8017L1231.33 68.8017L1231.33 66.5057Z" fill="url(#paint40_linear_393_68448)"/>
<path d="M1231.33 85.5057L1232.68 85.5057L1232.68 87.8017L1235.01 87.8017L1235.01 89.2017L1232.68 89.2017L1232.68 91.4978L1231.33 91.4978L1231.33 89.2017L1228.92 89.2017L1228.92 87.8017L1231.33 87.8017L1231.33 85.5057Z" fill="url(#paint41_linear_393_68448)"/>
<path d="M1231.33 104.506L1232.68 104.506L1232.68 106.802L1235.01 106.802L1235.01 108.202L1232.68 108.202L1232.68 110.498L1231.33 110.498L1231.33 108.202L1228.92 108.202L1228.92 106.802L1231.33 106.802L1231.33 104.506Z" fill="url(#paint42_linear_393_68448)"/>
<path d="M1231.33 123.506L1232.68 123.506L1232.68 125.802L1235.01 125.802L1235.01 127.202L1232.68 127.202L1232.68 129.498L1231.33 129.498L1231.33 127.202L1228.92 127.202L1228.92 125.802L1231.33 125.802L1231.33 123.506Z" fill="url(#paint43_linear_393_68448)"/>
<path d="M1206.42 9.50575L1207.78 9.50575L1207.78 11.8017L1210.1 11.8017L1210.1 13.2017L1207.78 13.2017L1207.78 15.4978L1206.42 15.4978L1206.42 13.2017L1204.01 13.2017L1204.01 11.8017L1206.42 11.8017L1206.42 9.50575Z" fill="url(#paint44_linear_393_68448)"/>
<path d="M1206.42 28.5057L1207.78 28.5057L1207.78 30.8017L1210.1 30.8017L1210.1 32.2017L1207.78 32.2017L1207.78 34.4978L1206.42 34.4978L1206.42 32.2017L1204.01 32.2017L1204.01 30.8017L1206.42 30.8017L1206.42 28.5057Z" fill="url(#paint45_linear_393_68448)"/>
<path d="M1206.42 47.5057L1207.78 47.5057L1207.78 49.8017L1210.1 49.8017L1210.1 51.2017L1207.78 51.2017L1207.78 53.4978L1206.42 53.4978L1206.42 51.2017L1204.01 51.2017L1204.01 49.8017L1206.42 49.8017L1206.42 47.5057Z" fill="url(#paint46_linear_393_68448)"/>
<path d="M1206.42 66.5057L1207.78 66.5057L1207.78 68.8017L1210.1 68.8017L1210.1 70.2017L1207.78 70.2017L1207.78 72.4978L1206.42 72.4978L1206.42 70.2017L1204.01 70.2017L1204.01 68.8017L1206.42 68.8017L1206.42 66.5057Z" fill="url(#paint47_linear_393_68448)"/>
<path d="M1206.42 85.5057L1207.78 85.5057L1207.78 87.8017L1210.1 87.8017L1210.1 89.2017L1207.78 89.2017L1207.78 91.4978L1206.42 91.4978L1206.42 89.2017L1204.01 89.2017L1204.01 87.8017L1206.42 87.8017L1206.42 85.5057Z" fill="url(#paint48_linear_393_68448)"/>
<path d="M1206.42 104.506L1207.78 104.506L1207.78 106.802L1210.1 106.802L1210.1 108.202L1207.78 108.202L1207.78 110.498L1206.42 110.498L1206.42 108.202L1204.01 108.202L1204.01 106.802L1206.42 106.802L1206.42 104.506Z" fill="url(#paint49_linear_393_68448)"/>
<path d="M1206.42 123.506L1207.78 123.506L1207.78 125.802L1210.1 125.802L1210.1 127.202L1207.78 127.202L1207.78 129.498L1206.42 129.498L1206.42 127.202L1204.01 127.202L1204.01 125.802L1206.42 125.802L1206.42 123.506Z" fill="url(#paint50_linear_393_68448)"/>
<path d="M1181.51 9.50575L1182.86 9.50575L1182.86 11.8017L1185.19 11.8017L1185.19 13.2017L1182.86 13.2017L1182.86 15.4978L1181.51 15.4978L1181.51 13.2017L1179.1 13.2017L1179.1 11.8017L1181.51 11.8017L1181.51 9.50575Z" fill="url(#paint51_linear_393_68448)"/>
<path d="M1181.51 28.5057L1182.86 28.5057L1182.86 30.8017L1185.19 30.8017L1185.19 32.2017L1182.86 32.2017L1182.86 34.4978L1181.51 34.4978L1181.51 32.2017L1179.1 32.2017L1179.1 30.8017L1181.51 30.8017L1181.51 28.5057Z" fill="url(#paint52_linear_393_68448)"/>
<path d="M1181.51 47.5057L1182.86 47.5057L1182.86 49.8017L1185.19 49.8017L1185.19 51.2017L1182.86 51.2017L1182.86 53.4978L1181.51 53.4978L1181.51 51.2017L1179.1 51.2017L1179.1 49.8017L1181.51 49.8017L1181.51 47.5057Z" fill="url(#paint53_linear_393_68448)"/>
<path d="M1181.51 66.5057L1182.86 66.5057L1182.86 68.8017L1185.19 68.8017L1185.19 70.2017L1182.86 70.2017L1182.86 72.4978L1181.51 72.4978L1181.51 70.2017L1179.1 70.2017L1179.1 68.8017L1181.51 68.8017L1181.51 66.5057Z" fill="url(#paint54_linear_393_68448)"/>
<path d="M1181.51 85.5057L1182.86 85.5057L1182.86 87.8017L1185.19 87.8017L1185.19 89.2017L1182.86 89.2017L1182.86 91.4978L1181.51 91.4978L1181.51 89.2017L1179.1 89.2017L1179.1 87.8017L1181.51 87.8017L1181.51 85.5057Z" fill="url(#paint55_linear_393_68448)"/>
<path d="M1181.51 104.506L1182.86 104.506L1182.86 106.802L1185.19 106.802L1185.19 108.202L1182.86 108.202L1182.86 110.498L1181.51 110.498L1181.51 108.202L1179.1 108.202L1179.1 106.802L1181.51 106.802L1181.51 104.506Z" fill="url(#paint56_linear_393_68448)"/>
<path d="M1181.51 123.506L1182.86 123.506L1182.86 125.802L1185.19 125.802L1185.19 127.202L1182.86 127.202L1182.86 129.498L1181.51 129.498L1181.51 127.202L1179.1 127.202L1179.1 125.802L1181.51 125.802L1181.51 123.506Z" fill="url(#paint57_linear_393_68448)"/>
<path d="M1156.61 9.50575L1157.97 9.50575L1157.97 11.8017L1160.29 11.8017L1160.29 13.2017L1157.97 13.2017L1157.97 15.4978L1156.61 15.4978L1156.61 13.2017L1154.2 13.2017L1154.2 11.8017L1156.61 11.8017L1156.61 9.50575Z" fill="url(#paint58_linear_393_68448)"/>
<path d="M1156.61 28.5057L1157.97 28.5057L1157.97 30.8017L1160.29 30.8017L1160.29 32.2017L1157.97 32.2017L1157.97 34.4978L1156.61 34.4978L1156.61 32.2017L1154.2 32.2017L1154.2 30.8017L1156.61 30.8017L1156.61 28.5057Z" fill="url(#paint59_linear_393_68448)"/>
<path d="M1156.61 47.5057L1157.97 47.5057L1157.97 49.8017L1160.29 49.8017L1160.29 51.2017L1157.97 51.2017L1157.97 53.4978L1156.61 53.4978L1156.61 51.2017L1154.2 51.2017L1154.2 49.8017L1156.61 49.8017L1156.61 47.5057Z" fill="url(#paint60_linear_393_68448)"/>
<path d="M1156.61 66.5057L1157.97 66.5057L1157.97 68.8017L1160.29 68.8017L1160.29 70.2017L1157.97 70.2017L1157.97 72.4978L1156.61 72.4978L1156.61 70.2017L1154.2 70.2017L1154.2 68.8017L1156.61 68.8017L1156.61 66.5057Z" fill="url(#paint61_linear_393_68448)"/>
<path d="M1156.61 85.5057L1157.97 85.5057L1157.97 87.8017L1160.29 87.8017L1160.29 89.2017L1157.97 89.2017L1157.97 91.4978L1156.61 91.4978L1156.61 89.2017L1154.2 89.2017L1154.2 87.8017L1156.61 87.8017L1156.61 85.5057Z" fill="url(#paint62_linear_393_68448)"/>
<path d="M1156.61 104.506L1157.97 104.506L1157.97 106.802L1160.29 106.802L1160.29 108.202L1157.97 108.202L1157.97 110.498L1156.61 110.498L1156.61 108.202L1154.2 108.202L1154.2 106.802L1156.61 106.802L1156.61 104.506Z" fill="url(#paint63_linear_393_68448)"/>
<path d="M1156.61 123.506L1157.97 123.506L1157.97 125.802L1160.29 125.802L1160.29 127.202L1157.97 127.202L1157.97 129.498L1156.61 129.498L1156.61 127.202L1154.2 127.202L1154.2 125.802L1156.61 125.802L1156.61 123.506Z" fill="url(#paint64_linear_393_68448)"/>
<path d="M1131.69 9.50575L1133.05 9.50575L1133.05 11.8017L1135.38 11.8017L1135.38 13.2017L1133.05 13.2017L1133.05 15.4978L1131.69 15.4978L1131.69 13.2017L1129.29 13.2017L1129.29 11.8017L1131.69 11.8017L1131.69 9.50575Z" fill="url(#paint65_linear_393_68448)"/>
<path d="M1131.69 28.5057L1133.05 28.5057L1133.05 30.8017L1135.38 30.8017L1135.38 32.2017L1133.05 32.2017L1133.05 34.4978L1131.69 34.4978L1131.69 32.2017L1129.29 32.2017L1129.29 30.8017L1131.69 30.8017L1131.69 28.5057Z" fill="url(#paint66_linear_393_68448)"/>
<path d="M1131.69 47.5057L1133.05 47.5057L1133.05 49.8017L1135.38 49.8017L1135.38 51.2017L1133.05 51.2017L1133.05 53.4978L1131.69 53.4978L1131.69 51.2017L1129.29 51.2017L1129.29 49.8017L1131.69 49.8017L1131.69 47.5057Z" fill="url(#paint67_linear_393_68448)"/>
<path d="M1131.69 66.5057L1133.05 66.5057L1133.05 68.8017L1135.38 68.8017L1135.38 70.2017L1133.05 70.2017L1133.05 72.4978L1131.69 72.4978L1131.69 70.2017L1129.29 70.2017L1129.29 68.8017L1131.69 68.8017L1131.69 66.5057Z" fill="url(#paint68_linear_393_68448)"/>
<path d="M1131.69 85.5057L1133.05 85.5057L1133.05 87.8017L1135.38 87.8017L1135.38 89.2017L1133.05 89.2017L1133.05 91.4978L1131.69 91.4978L1131.69 89.2017L1129.29 89.2017L1129.29 87.8017L1131.69 87.8017L1131.69 85.5057Z" fill="url(#paint69_linear_393_68448)"/>
<path d="M1131.69 104.506L1133.05 104.506L1133.05 106.802L1135.38 106.802L1135.38 108.202L1133.05 108.202L1133.05 110.498L1131.69 110.498L1131.69 108.202L1129.29 108.202L1129.29 106.802L1131.69 106.802L1131.69 104.506Z" fill="url(#paint70_linear_393_68448)"/>
<path d="M1131.69 123.506L1133.05 123.506L1133.05 125.802L1135.38 125.802L1135.38 127.202L1133.05 127.202L1133.05 129.498L1131.69 129.498L1131.69 127.202L1129.29 127.202L1129.29 125.802L1131.69 125.802L1131.69 123.506Z" fill="url(#paint71_linear_393_68448)"/>
<path d="M1455.5 66.5057L1456.86 66.5057L1456.86 68.8017L1459.18 68.8017L1459.18 70.2017L1456.86 70.2017L1456.86 72.4978L1455.5 72.4978L1455.5 70.2017L1453.09 70.2017L1453.09 68.8017L1455.5 68.8017L1455.5 66.5057Z" fill="url(#paint72_linear_393_68448)"/>
<path d="M1455.5 85.5057L1456.86 85.5057L1456.86 87.8017L1459.18 87.8017L1459.18 89.2017L1456.86 89.2017L1456.86 91.4978L1455.5 91.4978L1455.5 89.2017L1453.09 89.2017L1453.09 87.8017L1455.5 87.8017L1455.5 85.5057Z" fill="url(#paint73_linear_393_68448)"/>
<path d="M1455.5 104.506L1456.86 104.506L1456.86 106.802L1459.18 106.802L1459.18 108.202L1456.86 108.202L1456.86 110.498L1455.5 110.498L1455.5 108.202L1453.09 108.202L1453.09 106.802L1455.5 106.802L1455.5 104.506Z" fill="url(#paint74_linear_393_68448)"/>
<path d="M1455.5 123.506L1456.86 123.506L1456.86 125.802L1459.18 125.802L1459.18 127.202L1456.86 127.202L1456.86 129.498L1455.5 129.498L1455.5 127.202L1453.09 127.202L1453.09 125.802L1455.5 125.802L1455.5 123.506Z" fill="url(#paint75_linear_393_68448)"/>
<path d="M1455.5 142.506L1456.86 142.506L1456.86 144.802L1459.18 144.802L1459.18 146.202L1456.86 146.202L1456.86 148.498L1455.5 148.498L1455.5 146.202L1453.09 146.202L1453.09 144.802L1455.5 144.802L1455.5 142.506Z" fill="url(#paint76_linear_393_68448)"/>
<path d="M1455.5 161.506L1456.86 161.506L1456.86 163.802L1459.18 163.802L1459.18 165.202L1456.86 165.202L1456.86 167.498L1455.5 167.498L1455.5 165.202L1453.09 165.202L1453.09 163.802L1455.5 163.802L1455.5 161.506Z" fill="url(#paint77_linear_393_68448)"/>
<path d="M1430.59 66.5057L1431.95 66.5057L1431.95 68.8017L1434.27 68.8017L1434.27 70.2017L1431.95 70.2017L1431.95 72.4978L1430.59 72.4978L1430.59 70.2017L1428.18 70.2017L1428.18 68.8017L1430.59 68.8017L1430.59 66.5057Z" fill="url(#paint78_linear_393_68448)"/>
<path d="M1430.59 85.5057L1431.95 85.5057L1431.95 87.8017L1434.27 87.8017L1434.27 89.2017L1431.95 89.2017L1431.95 91.4978L1430.59 91.4978L1430.59 89.2017L1428.18 89.2017L1428.18 87.8017L1430.59 87.8017L1430.59 85.5057Z" fill="url(#paint79_linear_393_68448)"/>
<path d="M1430.59 104.506L1431.95 104.506L1431.95 106.802L1434.27 106.802L1434.27 108.202L1431.95 108.202L1431.95 110.498L1430.59 110.498L1430.59 108.202L1428.18 108.202L1428.18 106.802L1430.59 106.802L1430.59 104.506Z" fill="url(#paint80_linear_393_68448)"/>
<path d="M1430.59 123.506L1431.95 123.506L1431.95 125.802L1434.27 125.802L1434.27 127.202L1431.95 127.202L1431.95 129.498L1430.59 129.498L1430.59 127.202L1428.18 127.202L1428.18 125.802L1430.59 125.802L1430.59 123.506Z" fill="url(#paint81_linear_393_68448)"/>
<path d="M1430.59 142.506L1431.95 142.506L1431.95 144.802L1434.27 144.802L1434.27 146.202L1431.95 146.202L1431.95 148.498L1430.59 148.498L1430.59 146.202L1428.18 146.202L1428.18 144.802L1430.59 144.802L1430.59 142.506Z" fill="url(#paint82_linear_393_68448)"/>
<path d="M1430.59 161.506L1431.95 161.506L1431.95 163.802L1434.27 163.802L1434.27 165.202L1431.95 165.202L1431.95 167.498L1430.59 167.498L1430.59 165.202L1428.18 165.202L1428.18 163.802L1430.59 163.802L1430.59 161.506Z" fill="url(#paint83_linear_393_68448)"/>
<path d="M1405.69 66.5057L1407.04 66.5057L1407.04 68.8017L1409.37 68.8017L1409.37 70.2017L1407.04 70.2017L1407.04 72.4978L1405.69 72.4978L1405.69 70.2017L1403.28 70.2017L1403.28 68.8017L1405.69 68.8017L1405.69 66.5057Z" fill="url(#paint84_linear_393_68448)"/>
<path d="M1405.69 85.5057L1407.04 85.5057L1407.04 87.8017L1409.37 87.8017L1409.37 89.2017L1407.04 89.2017L1407.04 91.4978L1405.69 91.4978L1405.69 89.2017L1403.28 89.2017L1403.28 87.8017L1405.69 87.8017L1405.69 85.5057Z" fill="url(#paint85_linear_393_68448)"/>
<path d="M1405.69 104.506L1407.04 104.506L1407.04 106.802L1409.37 106.802L1409.37 108.202L1407.04 108.202L1407.04 110.498L1405.69 110.498L1405.69 108.202L1403.28 108.202L1403.28 106.802L1405.69 106.802L1405.69 104.506Z" fill="url(#paint86_linear_393_68448)"/>
<path d="M1405.69 123.506L1407.04 123.506L1407.04 125.802L1409.37 125.802L1409.37 127.202L1407.04 127.202L1407.04 129.498L1405.69 129.498L1405.69 127.202L1403.28 127.202L1403.28 125.802L1405.69 125.802L1405.69 123.506Z" fill="url(#paint87_linear_393_68448)"/>
<path d="M1405.69 142.506L1407.04 142.506L1407.04 144.802L1409.37 144.802L1409.37 146.202L1407.04 146.202L1407.04 148.498L1405.69 148.498L1405.69 146.202L1403.28 146.202L1403.28 144.802L1405.69 144.802L1405.69 142.506Z" fill="url(#paint88_linear_393_68448)"/>
<path d="M1405.69 161.506L1407.04 161.506L1407.04 163.802L1409.37 163.802L1409.37 165.202L1407.04 165.202L1407.04 167.498L1405.69 167.498L1405.69 165.202L1403.28 165.202L1403.28 163.802L1405.69 163.802L1405.69 161.506Z" fill="url(#paint89_linear_393_68448)"/>
<path d="M1380.78 66.5057L1382.14 66.5057L1382.14 68.8017L1384.46 68.8017L1384.46 70.2017L1382.14 70.2017L1382.14 72.4978L1380.78 72.4978L1380.78 70.2017L1378.37 70.2017L1378.37 68.8017L1380.78 68.8017L1380.78 66.5057Z" fill="url(#paint90_linear_393_68448)"/>
<path d="M1380.78 85.5057L1382.14 85.5057L1382.14 87.8017L1384.46 87.8017L1384.46 89.2017L1382.14 89.2017L1382.14 91.4978L1380.78 91.4978L1380.78 89.2017L1378.37 89.2017L1378.37 87.8017L1380.78 87.8017L1380.78 85.5057Z" fill="url(#paint91_linear_393_68448)"/>
<path d="M1380.78 104.506L1382.14 104.506L1382.14 106.802L1384.46 106.802L1384.46 108.202L1382.14 108.202L1382.14 110.498L1380.78 110.498L1380.78 108.202L1378.37 108.202L1378.37 106.802L1380.78 106.802L1380.78 104.506Z" fill="url(#paint92_linear_393_68448)"/>
<path d="M1380.78 123.506L1382.14 123.506L1382.14 125.802L1384.46 125.802L1384.46 127.202L1382.14 127.202L1382.14 129.498L1380.78 129.498L1380.78 127.202L1378.37 127.202L1378.37 125.802L1380.78 125.802L1380.78 123.506Z" fill="url(#paint93_linear_393_68448)"/>
<path d="M1380.78 142.506L1382.14 142.506L1382.14 144.802L1384.46 144.802L1384.46 146.202L1382.14 146.202L1382.14 148.498L1380.78 148.498L1380.78 146.202L1378.37 146.202L1378.37 144.802L1380.78 144.802L1380.78 142.506Z" fill="url(#paint94_linear_393_68448)"/>
<path d="M1380.78 161.506L1382.14 161.506L1382.14 163.802L1384.46 163.802L1384.46 165.202L1382.14 165.202L1382.14 167.498L1380.78 167.498L1380.78 165.202L1378.37 165.202L1378.37 163.802L1380.78 163.802L1380.78 161.506Z" fill="url(#paint95_linear_393_68448)"/>
<path d="M1355.87 66.5057L1357.22 66.5057L1357.22 68.8017L1359.55 68.8017L1359.55 70.2017L1357.22 70.2017L1357.22 72.4978L1355.87 72.4978L1355.87 70.2017L1353.46 70.2017L1353.46 68.8017L1355.87 68.8017L1355.87 66.5057Z" fill="url(#paint96_linear_393_68448)"/>
<path d="M1355.87 85.5057L1357.22 85.5057L1357.22 87.8017L1359.55 87.8017L1359.55 89.2017L1357.22 89.2017L1357.22 91.4978L1355.87 91.4978L1355.87 89.2017L1353.46 89.2017L1353.46 87.8017L1355.87 87.8017L1355.87 85.5057Z" fill="url(#paint97_linear_393_68448)"/>
<path d="M1355.87 104.506L1357.22 104.506L1357.22 106.802L1359.55 106.802L1359.55 108.202L1357.22 108.202L1357.22 110.498L1355.87 110.498L1355.87 108.202L1353.46 108.202L1353.46 106.802L1355.87 106.802L1355.87 104.506Z" fill="url(#paint98_linear_393_68448)"/>
<path d="M1355.87 123.506L1357.22 123.506L1357.22 125.802L1359.55 125.802L1359.55 127.202L1357.22 127.202L1357.22 129.498L1355.87 129.498L1355.87 127.202L1353.46 127.202L1353.46 125.802L1355.87 125.802L1355.87 123.506Z" fill="url(#paint99_linear_393_68448)"/>
<path d="M1355.87 142.506L1357.22 142.506L1357.22 144.802L1359.55 144.802L1359.55 146.202L1357.22 146.202L1357.22 148.498L1355.87 148.498L1355.87 146.202L1353.46 146.202L1353.46 144.802L1355.87 144.802L1355.87 142.506Z" fill="url(#paint100_linear_393_68448)"/>
<path d="M1355.87 161.506L1357.22 161.506L1357.22 163.802L1359.55 163.802L1359.55 165.202L1357.22 165.202L1357.22 167.498L1355.87 167.498L1355.87 165.202L1353.46 165.202L1353.46 163.802L1355.87 163.802L1355.87 161.506Z" fill="url(#paint101_linear_393_68448)"/>
<path d="M1330.96 66.5057L1332.32 66.5057L1332.32 68.8017L1334.64 68.8017L1334.64 70.2017L1332.32 70.2017L1332.32 72.4978L1330.96 72.4978L1330.96 70.2017L1328.55 70.2017L1328.55 68.8017L1330.96 68.8017L1330.96 66.5057Z" fill="url(#paint102_linear_393_68448)"/>
<path d="M1330.96 85.5057L1332.32 85.5057L1332.32 87.8017L1334.64 87.8017L1334.64 89.2017L1332.32 89.2017L1332.32 91.4978L1330.96 91.4978L1330.96 89.2017L1328.55 89.2017L1328.55 87.8017L1330.96 87.8017L1330.96 85.5057Z" fill="url(#paint103_linear_393_68448)"/>
<path d="M1330.96 104.506L1332.32 104.506L1332.32 106.802L1334.64 106.802L1334.64 108.202L1332.32 108.202L1332.32 110.498L1330.96 110.498L1330.96 108.202L1328.55 108.202L1328.55 106.802L1330.96 106.802L1330.96 104.506Z" fill="url(#paint104_linear_393_68448)"/>
<path d="M1330.96 123.506L1332.32 123.506L1332.32 125.802L1334.64 125.802L1334.64 127.202L1332.32 127.202L1332.32 129.498L1330.96 129.498L1330.96 127.202L1328.55 127.202L1328.55 125.802L1330.96 125.802L1330.96 123.506Z" fill="url(#paint105_linear_393_68448)"/>
<path d="M1330.96 142.506L1332.32 142.506L1332.32 144.802L1334.64 144.802L1334.64 146.202L1332.32 146.202L1332.32 148.498L1330.96 148.498L1330.96 146.202L1328.55 146.202L1328.55 144.802L1330.96 144.802L1330.96 142.506Z" fill="url(#paint106_linear_393_68448)"/>
<path d="M1330.96 161.506L1332.32 161.506L1332.32 163.802L1334.64 163.802L1334.64 165.202L1332.32 165.202L1332.32 167.498L1330.96 167.498L1330.96 165.202L1328.55 165.202L1328.55 163.802L1330.96 163.802L1330.96 161.506Z" fill="url(#paint107_linear_393_68448)"/>
<path d="M1306.05 66.5057L1307.41 66.5057L1307.41 68.8017L1309.73 68.8017L1309.73 70.2017L1307.41 70.2017L1307.41 72.4978L1306.05 72.4978L1306.05 70.2017L1303.64 70.2017L1303.64 68.8017L1306.05 68.8017L1306.05 66.5057Z" fill="url(#paint108_linear_393_68448)"/>
<path d="M1306.05 85.5057L1307.41 85.5057L1307.41 87.8017L1309.73 87.8017L1309.73 89.2017L1307.41 89.2017L1307.41 91.4978L1306.05 91.4978L1306.05 89.2017L1303.64 89.2017L1303.64 87.8017L1306.05 87.8017L1306.05 85.5057Z" fill="url(#paint109_linear_393_68448)"/>
<path d="M1306.05 104.506L1307.41 104.506L1307.41 106.802L1309.73 106.802L1309.73 108.202L1307.41 108.202L1307.41 110.498L1306.05 110.498L1306.05 108.202L1303.64 108.202L1303.64 106.802L1306.05 106.802L1306.05 104.506Z" fill="url(#paint110_linear_393_68448)"/>
<path d="M1306.05 123.506L1307.41 123.506L1307.41 125.802L1309.73 125.802L1309.73 127.202L1307.41 127.202L1307.41 129.498L1306.05 129.498L1306.05 127.202L1303.64 127.202L1303.64 125.802L1306.05 125.802L1306.05 123.506Z" fill="url(#paint111_linear_393_68448)"/>
<path d="M1306.05 142.506L1307.41 142.506L1307.41 144.802L1309.73 144.802L1309.73 146.202L1307.41 146.202L1307.41 148.498L1306.05 148.498L1306.05 146.202L1303.64 146.202L1303.64 144.802L1306.05 144.802L1306.05 142.506Z" fill="url(#paint112_linear_393_68448)"/>
<path d="M1306.05 161.506L1307.41 161.506L1307.41 163.802L1309.73 163.802L1309.73 165.202L1307.41 165.202L1307.41 167.498L1306.05 167.498L1306.05 165.202L1303.64 165.202L1303.64 163.802L1306.05 163.802L1306.05 161.506Z" fill="url(#paint113_linear_393_68448)"/>
<path d="M1281.15 66.5057L1282.5 66.5057L1282.5 68.8017L1284.83 68.8017L1284.83 70.2017L1282.5 70.2017L1282.5 72.4978L1281.15 72.4978L1281.15 70.2017L1278.74 70.2017L1278.74 68.8017L1281.15 68.8017L1281.15 66.5057Z" fill="url(#paint114_linear_393_68448)"/>
<path d="M1281.15 85.5057L1282.5 85.5057L1282.5 87.8017L1284.83 87.8017L1284.83 89.2017L1282.5 89.2017L1282.5 91.4978L1281.15 91.4978L1281.15 89.2017L1278.74 89.2017L1278.74 87.8017L1281.15 87.8017L1281.15 85.5057Z" fill="url(#paint115_linear_393_68448)"/>
<path d="M1281.15 104.506L1282.5 104.506L1282.5 106.802L1284.83 106.802L1284.83 108.202L1282.5 108.202L1282.5 110.498L1281.15 110.498L1281.15 108.202L1278.74 108.202L1278.74 106.802L1281.15 106.802L1281.15 104.506Z" fill="url(#paint116_linear_393_68448)"/>
<path d="M1281.15 123.506L1282.5 123.506L1282.5 125.802L1284.83 125.802L1284.83 127.202L1282.5 127.202L1282.5 129.498L1281.15 129.498L1281.15 127.202L1278.74 127.202L1278.74 125.802L1281.15 125.802L1281.15 123.506Z" fill="url(#paint117_linear_393_68448)"/>
<path d="M1281.15 142.506L1282.5 142.506L1282.5 144.802L1284.83 144.802L1284.83 146.202L1282.5 146.202L1282.5 148.498L1281.15 148.498L1281.15 146.202L1278.74 146.202L1278.74 144.802L1281.15 144.802L1281.15 142.506Z" fill="url(#paint118_linear_393_68448)"/>
<path d="M1281.15 161.506L1282.5 161.506L1282.5 163.802L1284.83 163.802L1284.83 165.202L1282.5 165.202L1282.5 167.498L1281.15 167.498L1281.15 165.202L1278.74 165.202L1278.74 163.802L1281.15 163.802L1281.15 161.506Z" fill="url(#paint119_linear_393_68448)"/>
<path d="M1256.24 66.5057L1257.6 66.5057L1257.6 68.8017L1259.92 68.8017L1259.92 70.2017L1257.6 70.2017L1257.6 72.4978L1256.24 72.4978L1256.24 70.2017L1253.83 70.2017L1253.83 68.8017L1256.24 68.8017L1256.24 66.5057Z" fill="url(#paint120_linear_393_68448)"/>
<path d="M1256.24 85.5057L1257.6 85.5057L1257.6 87.8017L1259.92 87.8017L1259.92 89.2017L1257.6 89.2017L1257.6 91.4978L1256.24 91.4978L1256.24 89.2017L1253.83 89.2017L1253.83 87.8017L1256.24 87.8017L1256.24 85.5057Z" fill="url(#paint121_linear_393_68448)"/>
<path d="M1256.24 104.506L1257.6 104.506L1257.6 106.802L1259.92 106.802L1259.92 108.202L1257.6 108.202L1257.6 110.498L1256.24 110.498L1256.24 108.202L1253.83 108.202L1253.83 106.802L1256.24 106.802L1256.24 104.506Z" fill="url(#paint122_linear_393_68448)"/>
<path d="M1256.24 123.506L1257.6 123.506L1257.6 125.802L1259.92 125.802L1259.92 127.202L1257.6 127.202L1257.6 129.498L1256.24 129.498L1256.24 127.202L1253.83 127.202L1253.83 125.802L1256.24 125.802L1256.24 123.506Z" fill="url(#paint123_linear_393_68448)"/>
<path d="M1256.24 142.506L1257.6 142.506L1257.6 144.802L1259.92 144.802L1259.92 146.202L1257.6 146.202L1257.6 148.498L1256.24 148.498L1256.24 146.202L1253.83 146.202L1253.83 144.802L1256.24 144.802L1256.24 142.506Z" fill="url(#paint124_linear_393_68448)"/>
<path d="M1256.24 161.506L1257.6 161.506L1257.6 163.802L1259.92 163.802L1259.92 165.202L1257.6 165.202L1257.6 167.498L1256.24 167.498L1256.24 165.202L1253.83 165.202L1253.83 163.802L1256.24 163.802L1256.24 161.506Z" fill="url(#paint125_linear_393_68448)"/>
<path d="M1231.33 66.5057L1232.68 66.5057L1232.68 68.8017L1235.01 68.8017L1235.01 70.2017L1232.68 70.2017L1232.68 72.4978L1231.33 72.4978L1231.33 70.2017L1228.92 70.2017L1228.92 68.8017L1231.33 68.8017L1231.33 66.5057Z" fill="url(#paint126_linear_393_68448)"/>
<path d="M1231.33 85.5057L1232.68 85.5057L1232.68 87.8017L1235.01 87.8017L1235.01 89.2017L1232.68 89.2017L1232.68 91.4978L1231.33 91.4978L1231.33 89.2017L1228.92 89.2017L1228.92 87.8017L1231.33 87.8017L1231.33 85.5057Z" fill="url(#paint127_linear_393_68448)"/>
<path d="M1231.33 104.506L1232.68 104.506L1232.68 106.802L1235.01 106.802L1235.01 108.202L1232.68 108.202L1232.68 110.498L1231.33 110.498L1231.33 108.202L1228.92 108.202L1228.92 106.802L1231.33 106.802L1231.33 104.506Z" fill="url(#paint128_linear_393_68448)"/>
<path d="M1231.33 123.506L1232.68 123.506L1232.68 125.802L1235.01 125.802L1235.01 127.202L1232.68 127.202L1232.68 129.498L1231.33 129.498L1231.33 127.202L1228.92 127.202L1228.92 125.802L1231.33 125.802L1231.33 123.506Z" fill="url(#paint129_linear_393_68448)"/>
<path d="M1231.33 142.506L1232.68 142.506L1232.68 144.802L1235.01 144.802L1235.01 146.202L1232.68 146.202L1232.68 148.498L1231.33 148.498L1231.33 146.202L1228.92 146.202L1228.92 144.802L1231.33 144.802L1231.33 142.506Z" fill="url(#paint130_linear_393_68448)"/>
<path d="M1231.33 161.506L1232.68 161.506L1232.68 163.802L1235.01 163.802L1235.01 165.202L1232.68 165.202L1232.68 167.498L1231.33 167.498L1231.33 165.202L1228.92 165.202L1228.92 163.802L1231.33 163.802L1231.33 161.506Z" fill="url(#paint131_linear_393_68448)"/>
<path fill-rule="evenodd" clip-rule="evenodd" d="M789.327 232.192C780.188 246.751 794 275.827 798.986 289.691C808.84 317.109 820.32 343.683 831.447 370.399C842.574 397.115 853.785 423.819 862.967 451.549C868.931 469.552 876.283 490.162 875.039 510.722C872.384 554.532 816.275 518.227 800.446 510.869C760.173 492.155 715.902 467.655 668.1 465.988C639.563 464.994 619.655 478.066 608.042 506.296C604.251 515.47 602.628 527.471 593.666 533.629C584.095 540.206 571.586 540.317 561.712 539.608C525.707 537.009 492.354 521.318 461.513 507.11C428.238 491.822 396.047 474.184 363.989 457.452C350.396 450.357 332.783 448.342 317.066 445.964C296.462 442.846 275.605 440.549 254.824 438.005C209.128 432.374 161.841 426.888 120.544 409.799C94.6817 399.099 69.8259 382.017 62.9531 352.832C59.5025 338.178 63.5648 321.241 66.0934 305.626C69.1345 286.755 72.5343 267.876 74.991 249.019C82.8985 188.283 80.3062 123.491 28.7406 93.1092C20.9389 88.5144 12.3098 85.529 4.17842 81.5345C-0.996958 78.986 -4.65456 75.2204 -2.77185 68.2619C1.93931 50.8029 31.8361 35.0862 45.4781 26.457C75.3431 7.57023 106.185 -9.24754 136.476 -27.2141C156.513 -39.0942 187.313 -53.5265 200.43 -73.8819C212.118 -92.0189 198.812 -116.601 192.71 -131.788C186.988 -146.012 174.427 -168.319 184.039 -186.048C188.7 -194.644 197.93 -198.937 206.402 -201.578C221.238 -206.186 235.695 -207.333 250.466 -213.728C274.694 -224.223 300.906 -242.42 314.003 -266.872C323.078 -283.816 321.531 -298.861 317.427 -314.628C315.703 -321.257 314.022 -326.19 318.195 -333.274C324.816 -344.526 336.091 -354.184 345.767 -362.751C380.389 -393.416 419.035 -420.342 458.013 -443.957C477.49 -455.759 497.658 -467.129 518.529 -474.953C532.213 -480.101 549.737 -485.575 561.649 -479.276C575.449 -471.998 586.521 -458.722 597.296 -447.479C617.416 -426.475 636.464 -404.414 655.266 -382.173C698.741 -330.729 740.584 -277.835 780.794 -223.493C809.099 -185.187 838.223 -146.414 860.513 -103.576C864.841 -95.1899 868.281 -86.2584 870.789 -76.902C873.538 -67.0147 880.128 -59.7645 887.29 -53.1725C931.747 -12.2586 995.904 8.16557 1052.86 29.7965C1067.32 35.2898 1081.78 40.7747 1095.97 46.7666C1108.17 51.9176 1123.8 56.4776 1132.44 66.5618C1149.47 86.4234 1111.03 106.248 1095.07 114.169C1038.88 142.059 978.508 158.891 920.38 177.921C892.724 186.998 864.973 195.963 837.575 206.515C823.318 211.994 797.338 219.429 789.327 232.192Z" stroke="url(#paint132_linear_393_68448)"/>
<path fill-rule="evenodd" clip-rule="evenodd" d="M777.818 229.39C776.937 249.431 785.275 268.984 791.397 286.476C800.204 311.654 810.135 336.284 819.514 361.182C828.38 384.725 837.183 408.449 843.518 433.216C847.38 448.319 852.591 466.692 848.185 483.692C838.642 520.546 786.025 486.442 771.771 480.02C736.34 464.046 697.334 444.097 655.277 443.97C629.014 443.891 610.069 456.738 599.224 482.725C595.47 491.716 593.645 500.119 585.147 506.551C575.315 513.996 562.753 515.246 552.026 515.148C518.423 514.841 486.718 501.82 457.792 489.644C427.909 477.065 397.282 463.155 370.926 446.928C360.385 440.443 345.248 437.719 332.466 435.011C312.794 430.85 292.84 427.495 273.037 423.717C232.787 416.047 191.894 407.541 156.011 390.103C130.104 377.513 106.386 359.187 95.9326 331.186C85.345 302.798 92.626 271.287 96.7042 239.833C103.776 185.464 109.611 117.903 67.9919 83.6786C61.6822 78.4869 54.2879 75.5983 47.318 71.465C43.7322 69.3423 39.8739 66.5732 40.5819 61.5068C42.4202 48.3542 68.0107 36.0292 77.6332 30.2864C104.222 14.4151 131.657 0.453334 158.567 -14.6725C179.936 -26.6815 205.295 -39.1741 222.386 -57.7552C243.125 -80.3038 222.792 -114.854 222.856 -138.399C222.973 -179.223 270.584 -177.41 297.859 -182.52C329.178 -188.383 365.642 -209.983 363.53 -245.724C362.719 -259.392 357.734 -269.913 362.767 -284.538C370.64 -307.411 389.049 -328.584 405.752 -346.489C430.874 -373.397 459.319 -398.118 489.582 -418.452C511.256 -433.007 546.089 -455.381 567.324 -441.126C581.628 -431.544 593.616 -417.77 605.359 -404.991C622.945 -385.859 639.597 -365.842 655.924 -345.561C693.65 -298.799 729.51 -250.264 762.985 -200.028C785.821 -165.745 835.828 -48.4884 841.297 -42.3613C857.61 -24.0987 882.179 -12.8422 904.435 -2.60145C934.04 11.0232 965.003 22.2006 995.763 33.6498C1010.4 39.1092 1025.34 44.2277 1039.51 50.5846C1049.59 55.1101 1062.65 61.3238 1067.16 72.1209C1075.95 93.1901 1039.61 111.626 1024.42 119.519C977.847 143.725 928.172 159.758 879.895 177.477C856.199 186.181 832.311 194.749 809.065 205.39C799.684 209.69 778.358 217.011 777.818 229.39Z" stroke="url(#paint133_linear_393_68448)"/>
<path fill-rule="evenodd" clip-rule="evenodd" d="M760.582 230.817C765.281 274.328 784.163 314.804 796.695 355.683C802.983 376.205 809.138 397.126 811.877 419.064C813.304 430.473 815.004 444.846 809.202 456.641C793.676 488.192 746.084 457.72 730.36 450.936C699.954 437.827 666.12 422.204 630.168 423.523C608.2 424.335 590.62 435.411 580.93 457.044C576.63 466.642 573.92 475.293 564.981 482.23C555.925 489.258 544.777 491.707 534.529 492.546C505.071 494.968 476.331 485.552 450.733 476.329C420.719 465.483 391.94 452.25 364.627 436.738C340.698 423.164 311.334 418.419 284.166 411.171C248.178 401.566 212.181 390.77 180.496 372.822C155.475 358.643 133.453 339.305 121.41 312.426C109.193 285.077 110.737 254.599 114.765 222.956C120.855 175.122 130.717 111.919 100.117 76.3948C95.6698 71.224 90.4221 68.1457 84.6849 64.6284C81.8974 62.921 78.1878 60.8912 78.8923 56.7481C80.5928 46.7735 103.391 37.7209 110.449 34.0972C132.977 22.5288 155.961 12.2577 178.625 1.07198C199.784 -9.3709 222.348 -19.9826 241.138 -35.3868C271.056 -59.9245 247.786 -95.7701 266.989 -124.06C278.913 -141.622 302.332 -146.375 320.065 -148.855C341.889 -151.895 367.909 -147.739 387.979 -163.706C402.929 -175.598 399.667 -188.828 400.071 -203.623C400.753 -228.69 416.339 -254.937 431.497 -276.377C451.976 -305.35 477.38 -332.313 505.362 -354.114C518.046 -363.998 532.128 -373.81 546.924 -378.879C560.787 -383.631 569.955 -381.887 579.657 -374.301C609.349 -351.07 632.94 -317.525 655.912 -286.56C684.773 -247.653 711.912 -207.19 736.317 -164.898C752.957 -136.057 769.636 -106.033 779.442 -73.1402C781.997 -64.5659 784.398 -55.4455 784.25 -45.9915C784.157 -38.8755 782.754 -33.6998 786.388 -27.692C797.165 -9.88863 821.662 -0.13895 839.972 8.25704C869.244 21.6887 899.962 32.5493 930.391 43.7882C948.156 50.332 983.315 59.9861 986.309 82.8843C988.891 102.655 960.33 118.98 945.654 127.457C908.534 148.892 868.742 163.899 830.083 180.572C812.365 188.213 794.207 195.752 777.269 205.703C772.947 208.238 766.654 211.299 763.318 215.387C759.508 220.08 760.015 225.46 760.582 230.817Z" stroke="url(#paint134_linear_393_68448)"/>
<path fill-rule="evenodd" clip-rule="evenodd" d="M763.038 222.56C768.156 261.54 780.922 298.078 788.789 336.179C792.316 353.262 795.596 370.96 794.974 389.203C794.641 399.013 793.354 410.905 786.246 419.569C765.846 444.435 726.134 420.274 708.482 413.051C682.27 402.293 652.363 389.608 621.353 392.463C601.04 394.332 586.842 405.426 578.142 424.803C568.813 445.589 553.528 456.189 532.096 459.227C505.233 463.025 478.613 456.309 454.854 448.982C426.245 440.131 398.959 428.506 373.329 414.248C348.404 400.38 320.922 392.208 293.869 382.052C258.003 368.583 222.38 352.481 194.773 326.76C170.738 304.363 155.028 274.658 151.355 239.595C147.505 202.992 158.153 165.049 159.858 127.699C160.922 104.402 161.594 73.1976 146.821 56.1327C141.894 50.4411 128.257 47.4227 140.589 38.7094C147.64 33.7252 156.728 30.8842 164.422 27.828C176.855 22.8885 189.368 18.3082 201.842 13.5493C228.432 3.40366 256.338 -6.56256 281.253 -22.0413C312.634 -41.5238 304.578 -73.5033 324.509 -99.5278C335.233 -113.534 351.838 -120.469 367.376 -124.601C377.434 -127.282 387.574 -128.85 397.639 -129.994C408.151 -131.191 419.241 -130.477 429.754 -133.646C444.729 -138.149 447.752 -151.235 453.659 -164.151C464.034 -186.853 476.961 -208.654 492.147 -229.06C510.755 -254.073 532.627 -278.362 557.902 -296.682C567.739 -303.816 578.992 -310.944 590.415 -313.181C601.838 -315.418 609.329 -310.903 616.743 -304.504C638.749 -285.548 656.071 -259.307 672.56 -234.398C693.196 -203.221 712.104 -170.567 728.194 -136.279C739.3 -112.609 749.791 -87.8336 754.692 -61.0976C756.115 -53.3182 757.07 -45.2876 756.743 -37.0573C756.522 -31.4117 754.34 -25.1264 755.926 -19.9582C760.906 -3.8117 785.705 5.22949 799.445 11.6897C826.865 24.5843 856.657 32.8487 884.159 45.5431C899.17 52.4698 923.124 62.6145 925.027 82.1035C926.819 100.426 904.731 116.146 890.781 125.533C863.356 143.992 833.585 157.622 804.853 173.073C793.036 179.434 780.382 185.936 769.772 194.721C760.327 202.554 761.729 212.567 763.038 222.56Z" stroke="url(#paint135_linear_393_68448)"/>
<path fill-rule="evenodd" clip-rule="evenodd" d="M757.821 219.214C760.448 252.526 768.432 285.077 770.941 318.846C772.405 338.619 775.296 372.087 754.471 387.892C731.601 405.267 700.214 389.516 681.166 381.842C658.493 372.708 631.611 362.388 604.63 366.538C596.098 367.849 587.528 371.02 580.635 377.515C573.256 384.465 571.193 392.863 566.358 401.167C556.216 418.585 538.435 427.486 520.43 430.543C494.978 434.868 469.705 429.93 446.818 423.71C420.902 416.641 396.197 406.864 373.054 394.521C350.929 382.739 328.635 371.716 306.031 360.642C276.46 346.176 247.882 329.281 225.182 305.796C202.825 282.655 187.698 253.407 182.737 219.502C177.9 186.42 182.574 151.566 189.198 117.045C192.959 97.4532 197.315 67.5083 187.029 51.1855C182.457 43.9238 175.553 40.6157 188.851 35.0144C205.597 27.9618 224.054 24.9509 241.165 20.3894C265.853 13.8038 291.108 7.13394 315.083 -3.53147C330.394 -10.3416 340.925 -19.232 349.506 -33.9784C356.037 -45.2156 360.944 -57.1566 368.947 -67.6739C387.725 -92.3619 417.235 -100.521 443.855 -108.572C460.977 -113.749 475.599 -116.873 490.536 -129.206C508.193 -143.779 523.182 -161.86 539.177 -178.224C556.745 -196.194 575.551 -214.605 597.063 -227.247C616.214 -238.503 631.721 -239.901 645.395 -226.936C666.727 -206.719 681.462 -176.859 694.477 -149.559C707.729 -121.78 719.355 -92.2707 724.949 -60.743C727.967 -43.7189 726.425 -26.4119 727.741 -9.13912C729.416 12.5575 759.299 20.4344 775.67 27.3068C802.848 38.7148 894.385 65.1029 853.245 114.295C836.073 134.827 810.801 148.807 789.405 163.633C780.53 169.789 768.958 176.69 762.219 185.553C754.88 195.206 757.037 209.19 757.821 219.214Z" stroke="url(#paint136_linear_393_68448)"/>
<path fill-rule="evenodd" clip-rule="evenodd" d="M749.72 212.23C749.575 241.085 752.863 270.152 749.689 299.726C747.646 318.886 742.238 343.073 722.316 353.978C699.831 366.283 672.872 357.698 653.566 350.596C633.676 343.276 610.462 333.7 586.738 339.51C579.187 341.364 571.51 345.185 566.303 351.862C561.304 358.265 559.01 366.095 553.979 372.645C542.686 387.355 526.209 395.694 509.526 399.245C460.173 409.754 408.676 390.719 369.603 371.068C350.047 361.229 331.336 348.87 312.728 337.271C288.582 322.22 265.658 305.159 247.269 283.478C208.168 237.389 200.671 176.95 210.074 111.622C213.035 91.0602 218.628 70.0719 215.249 50.5106C213.514 40.4151 217.975 36.1747 228.179 33.1834C244.129 28.5109 260.756 27.2798 276.75 24.7939C299.497 21.2596 322.684 17.7252 345.112 10.9495C360.573 6.27836 373.091 0.524609 384.24 -12.8268C392.191 -22.3456 398.487 -32.9967 405.902 -42.8822C419.993 -61.6595 437.988 -78.1803 458.304 -89.2054C474.427 -97.9339 491.317 -104.687 508.179 -110.727C530.112 -118.6 550.233 -127.739 570.835 -139.947C598.125 -156.097 642.843 -188.852 665.893 -161.786C691.314 -131.928 702.615 -84.166 704.708 -42.5603C705.412 -28.5904 703.372 -12.9885 708.268 -0.378769C715.608 18.4806 730.524 25.822 747.748 34.843C773.529 48.355 833.504 71.6402 806.775 115.124C796.183 132.352 779.332 145.035 765.749 159.815C750.512 176.355 749.799 192.555 749.72 212.23Z" stroke="url(#paint137_linear_393_68448)"/>
<path fill-rule="evenodd" clip-rule="evenodd" d="M740.829 204.965C736.37 240.321 737.097 302.665 694.267 322.008C671.638 332.233 646.265 327.179 625.942 321.424C609.577 316.807 591.423 308.741 572.42 315.735C558.451 320.879 553.372 336.407 542.861 346.525C529.826 359.066 513.52 366.353 497.081 369.624C451.143 378.769 404.435 364.377 367.196 346.918C328.524 328.781 292.109 299.013 266.372 265.121C234.286 222.856 224.015 169.452 229.75 111.706C230.811 101.048 232.4 90.3746 233.696 79.7043C234.56 72.5441 233.978 64.8697 235.613 57.7206C238.344 45.8032 247.781 39.8613 258.733 36.9316C274.491 32.709 290.775 32.3766 306.422 31.2231C327.825 29.6385 349.459 28.407 370.853 24.5878C385.236 22.011 400.439 19.0815 412.23 7.66847C420.273 -0.114771 426.804 -9.40718 432.633 -18.7873C445.129 -38.9015 456.319 -54.5948 476.277 -68.5261C509.075 -91.3811 547.338 -107.306 583.915 -118.057C612.62 -126.494 657.718 -139.334 675.753 -114.06C691.947 -91.4052 689.302 -59.0167 691.419 -30.5862C692.449 -16.7643 694.931 -3.32882 700.127 8.85677C706.679 24.2188 715.796 34.0234 729.331 43.1092C752.11 58.4027 788.402 78.3945 775.234 115.035C770.376 128.557 760.881 140.21 754.603 153.193C746.279 170.347 743.077 187.13 740.829 204.965Z" stroke="url(#paint138_linear_393_68448)"/>
<path fill-rule="evenodd" clip-rule="evenodd" d="M727.509 196.538C717.494 232.516 705.384 278.127 664.858 293.424C645.227 300.835 624.762 299.972 605.994 297.496C592.552 295.725 574.473 287.756 560.017 296.483C549.388 302.911 540.827 314.996 530.259 322.315C515.734 332.379 499.546 338.44 483.259 341.279C440.826 348.681 398.51 337.872 363.337 322.617C286.917 289.464 239.644 207.591 245.043 116.751C246.648 89.6714 245.718 59.4576 278.092 48C313.426 35.5091 351.317 40.9103 386.353 37.2711C399.736 35.8854 416.502 34.5763 428.99 25.8738C436.499 20.6439 442.188 12.1143 447.135 4.60601C459.745 -14.5106 472.179 -31.1261 490.533 -45.4901C518.889 -67.6914 552.252 -84.3754 584.948 -95.2109C613.461 -104.658 651.207 -113.526 667.356 -87.3578C679.723 -67.2708 677.983 -39.3975 682.521 -15.7814C687.562 10.5135 700.112 33.0595 718.503 50.5413C736.403 67.5322 757.55 83.777 753.643 113.797C752.303 124.095 749.597 136.916 745.271 146.814C738.088 163.108 732.148 179.738 727.509 196.538V196.538Z" stroke="url(#paint139_linear_393_68448)"/>
<path fill-rule="evenodd" clip-rule="evenodd" d="M712.067 188.097C696.716 221.664 676.585 254.49 640.423 268.256C623.549 274.676 606.244 276.433 589.29 277.352C576.815 278.029 564.584 277.698 552.193 283.058C540.716 288.019 529.896 295.1 518.498 300.39C503.43 307.421 487.753 312.118 472.07 314.302C432.781 319.739 394.284 311.671 360.996 298.359C344.878 291.921 327.947 284.065 315.579 271.92C303.632 260.195 293.345 246.192 284.741 231.653C266.439 200.759 256.606 164.466 257.442 125.578C258.02 98.9065 263.861 75.7558 292.688 63.592C325.184 49.8827 361.256 51.8861 393.832 49.0455C416.174 47.0972 440.3 46.3602 457.108 26.0443C470.485 9.87995 482.858 -5.63257 499.367 -18.8737C523.798 -38.362 551.045 -53.3176 579.492 -62.8532C605.466 -71.5091 633.906 -75.48 650.212 -54.9406C663.123 -38.6552 666.553 -15.6168 674.558 3.78308C683.462 25.4312 697.65 42.2599 713.695 58.237C728.101 72.6156 739.751 89.1792 740.641 111.771C740.826 116.39 740.938 121.371 740.335 126.11C739.565 132.157 736.351 136.858 733.367 142.518C725.479 157.446 719.016 172.905 712.067 188.097Z" stroke="url(#paint140_linear_393_68448)"/>
<path fill-rule="evenodd" clip-rule="evenodd" d="M693.261 181.587C674.096 211.053 649.967 235.728 617.868 249.64C604.141 255.594 590.07 259.04 576.118 263.772C564.878 267.59 554.33 271.083 542.913 273.094C515.848 277.837 489.507 288.554 462.3 291.14C425.964 294.616 390.713 288.54 359.254 276.952C343.892 271.296 328.816 264.199 315.76 254.552C304.545 246.266 296.68 233.792 289.761 221.625C276.194 197.785 266.589 169.005 266.88 139.156C267.523 73.3478 350.998 69.2792 395.494 64.5822C415.959 62.4197 444.955 62.7074 463.001 46.5627C475.895 35.0306 487.299 22.4014 501.131 11.9301C538.282 -16.19 594.357 -42.7342 630.036 -16.4468C645.306 -5.20178 654.448 12.5866 665.985 27.3757C677.863 42.6053 692.144 55.134 706.31 68.0894C719.551 80.1947 728.582 92.2472 729.427 112.237C729.835 121.785 724.104 129.935 719.1 138.745C710.875 153.215 702.33 167.624 693.261 181.587Z" stroke="url(#paint141_linear_393_68448)"/>
<path fill-rule="evenodd" clip-rule="evenodd" d="M675.21 177.136C640.551 218.59 586.189 255.132 535.307 262.988C475.454 272.229 415.286 274.86 362.231 256.758C337.633 248.365 311.999 237.1 297.951 214.713C287.256 197.681 276.635 175.051 279.141 152.426C285.267 97.081 355.629 87.559 395.969 81.7349C417.687 78.6 443.266 77.8737 464.529 67.7833C476.861 61.935 487.92 51.4279 499.583 44.0122C534.926 21.54 576.72 10.4219 611.987 23.091C628.292 28.9507 641.798 39.4623 655.411 49.3351C669.345 59.4404 684.068 68.7013 697.39 79.5737C708.024 88.2543 719.806 99.6695 715.087 116.503C709.145 137.717 689.362 160.206 675.21 177.136Z" stroke="url(#paint142_linear_393_68448)"/>
<path fill-rule="evenodd" clip-rule="evenodd" d="M655.31 176.238C619.459 213.49 573.991 244.291 525.358 252.169C499.569 256.345 473.602 254.923 448.509 253.814C420.067 252.556 392.102 248.474 366.2 240.105C333.948 229.687 283.96 209.265 292.265 164.1C300.509 119.27 359.334 106.767 393.676 100.075C415.688 95.7942 438.096 93.0279 460.167 87.2968C472.133 84.1905 483.073 79.0788 494.66 74.1442C526.72 60.4488 563.216 55.4686 594.831 59.2086C625.474 62.8314 658.654 74.779 682.75 91.6303C693.151 98.8959 698.336 107.64 693.628 122.239C687.068 142.526 670.122 160.851 655.31 176.238Z" stroke="url(#paint143_linear_393_68448)"/>
<path fill-rule="evenodd" clip-rule="evenodd" d="M632.885 179.539C600.282 211.79 559.149 235.259 516.335 242.357C468.342 250.314 418.104 242.305 375.532 229.255C352.905 222.314 302.581 209.312 310.649 174.822C318.718 140.333 366.692 127.451 393.849 120.755C426.792 112.656 460.947 106.075 494.249 100.784C523.191 96.1769 553.651 91.9258 582.066 91.5663C598.116 91.3256 613.904 92.5446 629.244 95.2087C640.588 97.2057 655.428 99.0881 663.929 106.538C685.366 125.336 648.476 164.119 632.885 179.539Z" stroke="url(#paint144_linear_393_68448)"/>
<path fill-rule="evenodd" clip-rule="evenodd" d="M607.031 180.708C542.608 240.24 457.305 241.242 388.584 221.03C372.617 216.33 326.439 205.392 332.062 179.793C337.517 154.975 377.572 143.255 396.412 137.63C454.792 120.199 515.61 116.521 573.971 111.881C592.188 110.433 626.967 104.783 637.8 121.563C649.552 139.798 620.386 168.362 607.031 180.708Z" stroke="url(#paint145_linear_393_68448)"/>
<path fill-rule="evenodd" clip-rule="evenodd" d="M577.967 183.379C527.855 225.812 458.434 228.696 405.665 213.886C392.741 210.257 359.052 202.408 359.532 183.445C359.973 165.901 391.287 156.659 403.287 152.752C430.004 144.05 457.757 139.911 484.937 136.198C510.073 132.757 535.593 129.1 560.405 128.064C573.471 127.522 598.889 125.065 604.279 139.385C610.086 154.796 589.094 173.956 577.967 183.379Z" stroke="url(#paint146_linear_393_68448)"/>
<path fill-rule="evenodd" clip-rule="evenodd" d="M545.802 186.537C511.176 213.245 461.749 216.381 425.772 207.11C416.094 204.612 394.64 200.057 393.221 187.299C391.915 175.55 410.178 168.967 418.422 165.827C454.962 151.905 499.471 145.73 536 146.786C545.184 147.052 562.053 146.962 564.878 157.692C567.772 168.707 553.754 180.406 545.802 186.537Z" stroke="url(#paint147_linear_393_68448)"/>
<path fill-rule="evenodd" clip-rule="evenodd" d="M512.858 188.048C494.775 200.842 467.221 203.158 448.476 198.635C435.285 195.449 423.128 185.78 442.291 176.449C461.318 167.194 487.996 163.646 507.226 165.977C521.896 167.758 528.388 177.058 512.858 188.048Z" stroke="url(#paint148_linear_393_68448)"/>
</g>
<defs>
<linearGradient id="paint0_linear_393_68448" x1="255.404" y1="40.5468" x2="283.214" y2="246.169" gradientUnits="userSpaceOnUse">
<stop stop-color="#6C60FF"/>
<stop offset="1" stop-color="#3B2ED1"/>
</linearGradient>
<linearGradient id="paint1_linear_393_68448" x1="255.404" y1="40.0725" x2="282.578" y2="243.375" gradientUnits="userSpaceOnUse">
<stop stop-color="#6C60FF"/>
<stop offset="1" stop-color="#3B2ED1"/>
</linearGradient>
<linearGradient id="paint2_linear_393_68448" x1="1360.34" y1="9.36986" x2="1357.64" y2="16.6759" gradientUnits="userSpaceOnUse">
<stop stop-color="#6C60FF"/>
<stop offset="1" stop-color="#3B2ED1"/>
</linearGradient>
<linearGradient id="paint3_linear_393_68448" x1="1360.34" y1="28.3699" x2="1357.64" y2="35.6759" gradientUnits="userSpaceOnUse">
<stop stop-color="#6C60FF"/>
<stop offset="1" stop-color="#3B2ED1"/>
</linearGradient>
<linearGradient id="paint4_linear_393_68448" x1="1360.34" y1="47.3699" x2="1357.64" y2="54.6759" gradientUnits="userSpaceOnUse">
<stop stop-color="#6C60FF"/>
<stop offset="1" stop-color="#3B2ED1"/>
</linearGradient>
<linearGradient id="paint5_linear_393_68448" x1="1360.34" y1="66.3699" x2="1357.64" y2="73.6759" gradientUnits="userSpaceOnUse">
<stop stop-color="#6C60FF"/>
<stop offset="1" stop-color="#3B2ED1"/>
</linearGradient>
<linearGradient id="paint6_linear_393_68448" x1="1360.34" y1="85.3699" x2="1357.64" y2="92.6759" gradientUnits="userSpaceOnUse">
<stop stop-color="#6C60FF"/>
<stop offset="1" stop-color="#3B2ED1"/>
</linearGradient>
<linearGradient id="paint7_linear_393_68448" x1="1360.34" y1="104.37" x2="1357.64" y2="111.676" gradientUnits="userSpaceOnUse">
<stop stop-color="#6C60FF"/>
<stop offset="1" stop-color="#3B2ED1"/>
</linearGradient>
<linearGradient id="paint8_linear_393_68448" x1="1360.34" y1="123.37" x2="1357.64" y2="130.676" gradientUnits="userSpaceOnUse">
<stop stop-color="#6C60FF"/>
<stop offset="1" stop-color="#3B2ED1"/>
</linearGradient>
<linearGradient id="paint9_linear_393_68448" x1="1335.43" y1="9.36986" x2="1332.73" y2="16.6759" gradientUnits="userSpaceOnUse">
<stop stop-color="#6C60FF"/>
<stop offset="1" stop-color="#3B2ED1"/>
</linearGradient>
<linearGradient id="paint10_linear_393_68448" x1="1335.43" y1="28.3699" x2="1332.73" y2="35.6759" gradientUnits="userSpaceOnUse">
<stop stop-color="#6C60FF"/>
<stop offset="1" stop-color="#3B2ED1"/>
</linearGradient>
<linearGradient id="paint11_linear_393_68448" x1="1335.43" y1="47.3699" x2="1332.73" y2="54.6759" gradientUnits="userSpaceOnUse">
<stop stop-color="#6C60FF"/>
<stop offset="1" stop-color="#3B2ED1"/>
</linearGradient>
<linearGradient id="paint12_linear_393_68448" x1="1335.43" y1="66.3699" x2="1332.73" y2="73.6759" gradientUnits="userSpaceOnUse">
<stop stop-color="#6C60FF"/>
<stop offset="1" stop-color="#3B2ED1"/>
</linearGradient>
<linearGradient id="paint13_linear_393_68448" x1="1335.43" y1="85.3699" x2="1332.73" y2="92.6759" gradientUnits="userSpaceOnUse">
<stop stop-color="#6C60FF"/>
<stop offset="1" stop-color="#3B2ED1"/>
</linearGradient>
<linearGradient id="paint14_linear_393_68448" x1="1335.43" y1="104.37" x2="1332.73" y2="111.676" gradientUnits="userSpaceOnUse">
<stop stop-color="#6C60FF"/>
<stop offset="1" stop-color="#3B2ED1"/>
</linearGradient>
<linearGradient id="paint15_linear_393_68448" x1="1335.43" y1="123.37" x2="1332.73" y2="130.676" gradientUnits="userSpaceOnUse">
<stop stop-color="#6C60FF"/>
<stop offset="1" stop-color="#3B2ED1"/>
</linearGradient>
<linearGradient id="paint16_linear_393_68448" x1="1310.52" y1="9.36986" x2="1307.82" y2="16.6759" gradientUnits="userSpaceOnUse">
<stop stop-color="#6C60FF"/>
<stop offset="1" stop-color="#3B2ED1"/>
</linearGradient>
<linearGradient id="paint17_linear_393_68448" x1="1310.52" y1="28.3699" x2="1307.82" y2="35.6759" gradientUnits="userSpaceOnUse">
<stop stop-color="#6C60FF"/>
<stop offset="1" stop-color="#3B2ED1"/>
</linearGradient>
<linearGradient id="paint18_linear_393_68448" x1="1310.52" y1="47.3699" x2="1307.82" y2="54.6759" gradientUnits="userSpaceOnUse">
<stop stop-color="#6C60FF"/>
<stop offset="1" stop-color="#3B2ED1"/>
</linearGradient>
<linearGradient id="paint19_linear_393_68448" x1="1310.52" y1="66.3699" x2="1307.82" y2="73.6759" gradientUnits="userSpaceOnUse">
<stop stop-color="#6C60FF"/>
<stop offset="1" stop-color="#3B2ED1"/>
</linearGradient>
<linearGradient id="paint20_linear_393_68448" x1="1310.52" y1="85.3699" x2="1307.82" y2="92.6759" gradientUnits="userSpaceOnUse">
<stop stop-color="#6C60FF"/>
<stop offset="1" stop-color="#3B2ED1"/>
</linearGradient>
<linearGradient id="paint21_linear_393_68448" x1="1310.52" y1="104.37" x2="1307.82" y2="111.676" gradientUnits="userSpaceOnUse">
<stop stop-color="#6C60FF"/>
<stop offset="1" stop-color="#3B2ED1"/>
</linearGradient>
<linearGradient id="paint22_linear_393_68448" x1="1310.52" y1="123.37" x2="1307.82" y2="130.676" gradientUnits="userSpaceOnUse">
<stop stop-color="#6C60FF"/>
<stop offset="1" stop-color="#3B2ED1"/>
</linearGradient>
<linearGradient id="paint23_linear_393_68448" x1="1285.62" y1="9.36986" x2="1282.92" y2="16.6759" gradientUnits="userSpaceOnUse">
<stop stop-color="#6C60FF"/>
<stop offset="1" stop-color="#3B2ED1"/>
</linearGradient>
<linearGradient id="paint24_linear_393_68448" x1="1285.62" y1="28.3699" x2="1282.92" y2="35.6759" gradientUnits="userSpaceOnUse">
<stop stop-color="#6C60FF"/>
<stop offset="1" stop-color="#3B2ED1"/>
</linearGradient>
<linearGradient id="paint25_linear_393_68448" x1="1285.62" y1="47.3699" x2="1282.92" y2="54.6759" gradientUnits="userSpaceOnUse">
<stop stop-color="#6C60FF"/>
<stop offset="1" stop-color="#3B2ED1"/>
</linearGradient>
<linearGradient id="paint26_linear_393_68448" x1="1285.62" y1="66.3699" x2="1282.92" y2="73.6759" gradientUnits="userSpaceOnUse">
<stop stop-color="#6C60FF"/>
<stop offset="1" stop-color="#3B2ED1"/>
</linearGradient>
<linearGradient id="paint27_linear_393_68448" x1="1285.62" y1="85.3699" x2="1282.92" y2="92.6759" gradientUnits="userSpaceOnUse">
<stop stop-color="#6C60FF"/>
<stop offset="1" stop-color="#3B2ED1"/>
</linearGradient>
<linearGradient id="paint28_linear_393_68448" x1="1285.62" y1="104.37" x2="1282.92" y2="111.676" gradientUnits="userSpaceOnUse">
<stop stop-color="#6C60FF"/>
<stop offset="1" stop-color="#3B2ED1"/>
</linearGradient>
<linearGradient id="paint29_linear_393_68448" x1="1285.62" y1="123.37" x2="1282.92" y2="130.676" gradientUnits="userSpaceOnUse">
<stop stop-color="#6C60FF"/>
<stop offset="1" stop-color="#3B2ED1"/>
</linearGradient>
<linearGradient id="paint30_linear_393_68448" x1="1260.7" y1="9.36986" x2="1258" y2="16.6759" gradientUnits="userSpaceOnUse">
<stop stop-color="#6C60FF"/>
<stop offset="1" stop-color="#3B2ED1"/>
</linearGradient>
<linearGradient id="paint31_linear_393_68448" x1="1260.7" y1="28.3699" x2="1258" y2="35.6759" gradientUnits="userSpaceOnUse">
<stop stop-color="#6C60FF"/>
<stop offset="1" stop-color="#3B2ED1"/>
</linearGradient>
<linearGradient id="paint32_linear_393_68448" x1="1260.7" y1="47.3699" x2="1258" y2="54.6759" gradientUnits="userSpaceOnUse">
<stop stop-color="#6C60FF"/>
<stop offset="1" stop-color="#3B2ED1"/>
</linearGradient>
<linearGradient id="paint33_linear_393_68448" x1="1260.7" y1="66.3699" x2="1258" y2="73.6759" gradientUnits="userSpaceOnUse">
<stop stop-color="#6C60FF"/>
<stop offset="1" stop-color="#3B2ED1"/>
</linearGradient>
<linearGradient id="paint34_linear_393_68448" x1="1260.7" y1="85.3699" x2="1258" y2="92.6759" gradientUnits="userSpaceOnUse">
<stop stop-color="#6C60FF"/>
<stop offset="1" stop-color="#3B2ED1"/>
</linearGradient>
<linearGradient id="paint35_linear_393_68448" x1="1260.7" y1="104.37" x2="1258" y2="111.676" gradientUnits="userSpaceOnUse">
<stop stop-color="#6C60FF"/>
<stop offset="1" stop-color="#3B2ED1"/>
</linearGradient>
<linearGradient id="paint36_linear_393_68448" x1="1260.7" y1="123.37" x2="1258" y2="130.676" gradientUnits="userSpaceOnUse">
<stop stop-color="#6C60FF"/>
<stop offset="1" stop-color="#3B2ED1"/>
</linearGradient>
<linearGradient id="paint37_linear_393_68448" x1="1235.8" y1="9.36986" x2="1233.1" y2="16.6759" gradientUnits="userSpaceOnUse">
<stop stop-color="#6C60FF"/>
<stop offset="1" stop-color="#3B2ED1"/>
</linearGradient>
<linearGradient id="paint38_linear_393_68448" x1="1235.8" y1="28.3699" x2="1233.1" y2="35.6759" gradientUnits="userSpaceOnUse">
<stop stop-color="#6C60FF"/>
<stop offset="1" stop-color="#3B2ED1"/>
</linearGradient>
<linearGradient id="paint39_linear_393_68448" x1="1235.8" y1="47.3699" x2="1233.1" y2="54.6759" gradientUnits="userSpaceOnUse">
<stop stop-color="#6C60FF"/>
<stop offset="1" stop-color="#3B2ED1"/>
</linearGradient>
<linearGradient id="paint40_linear_393_68448" x1="1235.8" y1="66.3699" x2="1233.1" y2="73.6759" gradientUnits="userSpaceOnUse">
<stop stop-color="#6C60FF"/>
<stop offset="1" stop-color="#3B2ED1"/>
</linearGradient>
<linearGradient id="paint41_linear_393_68448" x1="1235.8" y1="85.3699" x2="1233.1" y2="92.6759" gradientUnits="userSpaceOnUse">
<stop stop-color="#6C60FF"/>
<stop offset="1" stop-color="#3B2ED1"/>
</linearGradient>
<linearGradient id="paint42_linear_393_68448" x1="1235.8" y1="104.37" x2="1233.1" y2="111.676" gradientUnits="userSpaceOnUse">
<stop stop-color="#6C60FF"/>
<stop offset="1" stop-color="#3B2ED1"/>
</linearGradient>
<linearGradient id="paint43_linear_393_68448" x1="1235.8" y1="123.37" x2="1233.1" y2="130.676" gradientUnits="userSpaceOnUse">
<stop stop-color="#6C60FF"/>
<stop offset="1" stop-color="#3B2ED1"/>
</linearGradient>
<linearGradient id="paint44_linear_393_68448" x1="1210.89" y1="9.36986" x2="1208.19" y2="16.6759" gradientUnits="userSpaceOnUse">
<stop stop-color="#6C60FF"/>
<stop offset="1" stop-color="#3B2ED1"/>
</linearGradient>
<linearGradient id="paint45_linear_393_68448" x1="1210.89" y1="28.3699" x2="1208.19" y2="35.6759" gradientUnits="userSpaceOnUse">
<stop stop-color="#6C60FF"/>
<stop offset="1" stop-color="#3B2ED1"/>
</linearGradient>
<linearGradient id="paint46_linear_393_68448" x1="1210.89" y1="47.3699" x2="1208.19" y2="54.6759" gradientUnits="userSpaceOnUse">
<stop stop-color="#6C60FF"/>
<stop offset="1" stop-color="#3B2ED1"/>
</linearGradient>
<linearGradient id="paint47_linear_393_68448" x1="1210.89" y1="66.3699" x2="1208.19" y2="73.6759" gradientUnits="userSpaceOnUse">
<stop stop-color="#6C60FF"/>
<stop offset="1" stop-color="#3B2ED1"/>
</linearGradient>
<linearGradient id="paint48_linear_393_68448" x1="1210.89" y1="85.3699" x2="1208.19" y2="92.6759" gradientUnits="userSpaceOnUse">
<stop stop-color="#6C60FF"/>
<stop offset="1" stop-color="#3B2ED1"/>
</linearGradient>
<linearGradient id="paint49_linear_393_68448" x1="1210.89" y1="104.37" x2="1208.19" y2="111.676" gradientUnits="userSpaceOnUse">
<stop stop-color="#6C60FF"/>
<stop offset="1" stop-color="#3B2ED1"/>
</linearGradient>
<linearGradient id="paint50_linear_393_68448" x1="1210.89" y1="123.37" x2="1208.19" y2="130.676" gradientUnits="userSpaceOnUse">
<stop stop-color="#6C60FF"/>
<stop offset="1" stop-color="#3B2ED1"/>
</linearGradient>
<linearGradient id="paint51_linear_393_68448" x1="1185.98" y1="9.36986" x2="1183.28" y2="16.6759" gradientUnits="userSpaceOnUse">
<stop stop-color="#6C60FF"/>
<stop offset="1" stop-color="#3B2ED1"/>
</linearGradient>
<linearGradient id="paint52_linear_393_68448" x1="1185.98" y1="28.3699" x2="1183.28" y2="35.6759" gradientUnits="userSpaceOnUse">
<stop stop-color="#6C60FF"/>
<stop offset="1" stop-color="#3B2ED1"/>
</linearGradient>
<linearGradient id="paint53_linear_393_68448" x1="1185.98" y1="47.3699" x2="1183.28" y2="54.6759" gradientUnits="userSpaceOnUse">
<stop stop-color="#6C60FF"/>
<stop offset="1" stop-color="#3B2ED1"/>
</linearGradient>
<linearGradient id="paint54_linear_393_68448" x1="1185.98" y1="66.3699" x2="1183.28" y2="73.6759" gradientUnits="userSpaceOnUse">
<stop stop-color="#6C60FF"/>
<stop offset="1" stop-color="#3B2ED1"/>
</linearGradient>
<linearGradient id="paint55_linear_393_68448" x1="1185.98" y1="85.3699" x2="1183.28" y2="92.6759" gradientUnits="userSpaceOnUse">
<stop stop-color="#6C60FF"/>
<stop offset="1" stop-color="#3B2ED1"/>
</linearGradient>
<linearGradient id="paint56_linear_393_68448" x1="1185.98" y1="104.37" x2="1183.28" y2="111.676" gradientUnits="userSpaceOnUse">
<stop stop-color="#6C60FF"/>
<stop offset="1" stop-color="#3B2ED1"/>
</linearGradient>
<linearGradient id="paint57_linear_393_68448" x1="1185.98" y1="123.37" x2="1183.28" y2="130.676" gradientUnits="userSpaceOnUse">
<stop stop-color="#6C60FF"/>
<stop offset="1" stop-color="#3B2ED1"/>
</linearGradient>
<linearGradient id="paint58_linear_393_68448" x1="1161.08" y1="9.36986" x2="1158.38" y2="16.6759" gradientUnits="userSpaceOnUse">
<stop stop-color="#6C60FF"/>
<stop offset="1" stop-color="#3B2ED1"/>
</linearGradient>
<linearGradient id="paint59_linear_393_68448" x1="1161.08" y1="28.3699" x2="1158.38" y2="35.6759" gradientUnits="userSpaceOnUse">
<stop stop-color="#6C60FF"/>
<stop offset="1" stop-color="#3B2ED1"/>
</linearGradient>
<linearGradient id="paint60_linear_393_68448" x1="1161.08" y1="47.3699" x2="1158.38" y2="54.6759" gradientUnits="userSpaceOnUse">
<stop stop-color="#6C60FF"/>
<stop offset="1" stop-color="#3B2ED1"/>
</linearGradient>
<linearGradient id="paint61_linear_393_68448" x1="1161.08" y1="66.3699" x2="1158.38" y2="73.6759" gradientUnits="userSpaceOnUse">
<stop stop-color="#6C60FF"/>
<stop offset="1" stop-color="#3B2ED1"/>
</linearGradient>
<linearGradient id="paint62_linear_393_68448" x1="1161.08" y1="85.3699" x2="1158.38" y2="92.6759" gradientUnits="userSpaceOnUse">
<stop stop-color="#6C60FF"/>
<stop offset="1" stop-color="#3B2ED1"/>
</linearGradient>
<linearGradient id="paint63_linear_393_68448" x1="1161.08" y1="104.37" x2="1158.38" y2="111.676" gradientUnits="userSpaceOnUse">
<stop stop-color="#6C60FF"/>
<stop offset="1" stop-color="#3B2ED1"/>
</linearGradient>
<linearGradient id="paint64_linear_393_68448" x1="1161.08" y1="123.37" x2="1158.38" y2="130.676" gradientUnits="userSpaceOnUse">
<stop stop-color="#6C60FF"/>
<stop offset="1" stop-color="#3B2ED1"/>
</linearGradient>
<linearGradient id="paint65_linear_393_68448" x1="1136.16" y1="9.36986" x2="1133.46" y2="16.6759" gradientUnits="userSpaceOnUse">
<stop stop-color="#6C60FF"/>
<stop offset="1" stop-color="#3B2ED1"/>
</linearGradient>
<linearGradient id="paint66_linear_393_68448" x1="1136.16" y1="28.3699" x2="1133.46" y2="35.6759" gradientUnits="userSpaceOnUse">
<stop stop-color="#6C60FF"/>
<stop offset="1" stop-color="#3B2ED1"/>
</linearGradient>
<linearGradient id="paint67_linear_393_68448" x1="1136.16" y1="47.3699" x2="1133.46" y2="54.6759" gradientUnits="userSpaceOnUse">
<stop stop-color="#6C60FF"/>
<stop offset="1" stop-color="#3B2ED1"/>
</linearGradient>
<linearGradient id="paint68_linear_393_68448" x1="1136.16" y1="66.3699" x2="1133.46" y2="73.6759" gradientUnits="userSpaceOnUse">
<stop stop-color="#6C60FF"/>
<stop offset="1" stop-color="#3B2ED1"/>
</linearGradient>
<linearGradient id="paint69_linear_393_68448" x1="1136.16" y1="85.3699" x2="1133.46" y2="92.6759" gradientUnits="userSpaceOnUse">
<stop stop-color="#6C60FF"/>
<stop offset="1" stop-color="#3B2ED1"/>
</linearGradient>
<linearGradient id="paint70_linear_393_68448" x1="1136.16" y1="104.37" x2="1133.46" y2="111.676" gradientUnits="userSpaceOnUse">
<stop stop-color="#6C60FF"/>
<stop offset="1" stop-color="#3B2ED1"/>
</linearGradient>
<linearGradient id="paint71_linear_393_68448" x1="1136.16" y1="123.37" x2="1133.46" y2="130.676" gradientUnits="userSpaceOnUse">
<stop stop-color="#6C60FF"/>
<stop offset="1" stop-color="#3B2ED1"/>
</linearGradient>
<linearGradient id="paint72_linear_393_68448" x1="1459.97" y1="66.3699" x2="1457.27" y2="73.6759" gradientUnits="userSpaceOnUse">
<stop stop-color="#6C60FF"/>
<stop offset="1" stop-color="#3B2ED1"/>
</linearGradient>
<linearGradient id="paint73_linear_393_68448" x1="1459.97" y1="85.3699" x2="1457.27" y2="92.6759" gradientUnits="userSpaceOnUse">
<stop stop-color="#6C60FF"/>
<stop offset="1" stop-color="#3B2ED1"/>
</linearGradient>
<linearGradient id="paint74_linear_393_68448" x1="1459.97" y1="104.37" x2="1457.27" y2="111.676" gradientUnits="userSpaceOnUse">
<stop stop-color="#6C60FF"/>
<stop offset="1" stop-color="#3B2ED1"/>
</linearGradient>
<linearGradient id="paint75_linear_393_68448" x1="1459.97" y1="123.37" x2="1457.27" y2="130.676" gradientUnits="userSpaceOnUse">
<stop stop-color="#6C60FF"/>
<stop offset="1" stop-color="#3B2ED1"/>
</linearGradient>
<linearGradient id="paint76_linear_393_68448" x1="1459.97" y1="142.37" x2="1457.27" y2="149.676" gradientUnits="userSpaceOnUse">
<stop stop-color="#6C60FF"/>
<stop offset="1" stop-color="#3B2ED1"/>
</linearGradient>
<linearGradient id="paint77_linear_393_68448" x1="1459.97" y1="161.37" x2="1457.27" y2="168.676" gradientUnits="userSpaceOnUse">
<stop stop-color="#6C60FF"/>
<stop offset="1" stop-color="#3B2ED1"/>
</linearGradient>
<linearGradient id="paint78_linear_393_68448" x1="1435.06" y1="66.3699" x2="1432.36" y2="73.6759" gradientUnits="userSpaceOnUse">
<stop stop-color="#6C60FF"/>
<stop offset="1" stop-color="#3B2ED1"/>
</linearGradient>
<linearGradient id="paint79_linear_393_68448" x1="1435.06" y1="85.3699" x2="1432.36" y2="92.6759" gradientUnits="userSpaceOnUse">
<stop stop-color="#6C60FF"/>
<stop offset="1" stop-color="#3B2ED1"/>
</linearGradient>
<linearGradient id="paint80_linear_393_68448" x1="1435.06" y1="104.37" x2="1432.36" y2="111.676" gradientUnits="userSpaceOnUse">
<stop stop-color="#6C60FF"/>
<stop offset="1" stop-color="#3B2ED1"/>
</linearGradient>
<linearGradient id="paint81_linear_393_68448" x1="1435.06" y1="123.37" x2="1432.36" y2="130.676" gradientUnits="userSpaceOnUse">
<stop stop-color="#6C60FF"/>
<stop offset="1" stop-color="#3B2ED1"/>
</linearGradient>
<linearGradient id="paint82_linear_393_68448" x1="1435.06" y1="142.37" x2="1432.36" y2="149.676" gradientUnits="userSpaceOnUse">
<stop stop-color="#6C60FF"/>
<stop offset="1" stop-color="#3B2ED1"/>
</linearGradient>
<linearGradient id="paint83_linear_393_68448" x1="1435.06" y1="161.37" x2="1432.36" y2="168.676" gradientUnits="userSpaceOnUse">
<stop stop-color="#6C60FF"/>
<stop offset="1" stop-color="#3B2ED1"/>
</linearGradient>
<linearGradient id="paint84_linear_393_68448" x1="1410.16" y1="66.3699" x2="1407.46" y2="73.6759" gradientUnits="userSpaceOnUse">
<stop stop-color="#6C60FF"/>
<stop offset="1" stop-color="#3B2ED1"/>
</linearGradient>
<linearGradient id="paint85_linear_393_68448" x1="1410.16" y1="85.3699" x2="1407.46" y2="92.6759" gradientUnits="userSpaceOnUse">
<stop stop-color="#6C60FF"/>
<stop offset="1" stop-color="#3B2ED1"/>
</linearGradient>
<linearGradient id="paint86_linear_393_68448" x1="1410.16" y1="104.37" x2="1407.46" y2="111.676" gradientUnits="userSpaceOnUse">
<stop stop-color="#6C60FF"/>
<stop offset="1" stop-color="#3B2ED1"/>
</linearGradient>
<linearGradient id="paint87_linear_393_68448" x1="1410.16" y1="123.37" x2="1407.46" y2="130.676" gradientUnits="userSpaceOnUse">
<stop stop-color="#6C60FF"/>
<stop offset="1" stop-color="#3B2ED1"/>
</linearGradient>
<linearGradient id="paint88_linear_393_68448" x1="1410.16" y1="142.37" x2="1407.46" y2="149.676" gradientUnits="userSpaceOnUse">
<stop stop-color="#6C60FF"/>
<stop offset="1" stop-color="#3B2ED1"/>
</linearGradient>
<linearGradient id="paint89_linear_393_68448" x1="1410.16" y1="161.37" x2="1407.46" y2="168.676" gradientUnits="userSpaceOnUse">
<stop stop-color="#6C60FF"/>
<stop offset="1" stop-color="#3B2ED1"/>
</linearGradient>
<linearGradient id="paint90_linear_393_68448" x1="1385.25" y1="66.3699" x2="1382.55" y2="73.6759" gradientUnits="userSpaceOnUse">
<stop stop-color="#6C60FF"/>
<stop offset="1" stop-color="#3B2ED1"/>
</linearGradient>
<linearGradient id="paint91_linear_393_68448" x1="1385.25" y1="85.3699" x2="1382.55" y2="92.6759" gradientUnits="userSpaceOnUse">
<stop stop-color="#6C60FF"/>
<stop offset="1" stop-color="#3B2ED1"/>
</linearGradient>
<linearGradient id="paint92_linear_393_68448" x1="1385.25" y1="104.37" x2="1382.55" y2="111.676" gradientUnits="userSpaceOnUse">
<stop stop-color="#6C60FF"/>
<stop offset="1" stop-color="#3B2ED1"/>
</linearGradient>
<linearGradient id="paint93_linear_393_68448" x1="1385.25" y1="123.37" x2="1382.55" y2="130.676" gradientUnits="userSpaceOnUse">
<stop stop-color="#6C60FF"/>
<stop offset="1" stop-color="#3B2ED1"/>
</linearGradient>
<linearGradient id="paint94_linear_393_68448" x1="1385.25" y1="142.37" x2="1382.55" y2="149.676" gradientUnits="userSpaceOnUse">
<stop stop-color="#6C60FF"/>
<stop offset="1" stop-color="#3B2ED1"/>
</linearGradient>
<linearGradient id="paint95_linear_393_68448" x1="1385.25" y1="161.37" x2="1382.55" y2="168.676" gradientUnits="userSpaceOnUse">
<stop stop-color="#6C60FF"/>
<stop offset="1" stop-color="#3B2ED1"/>
</linearGradient>
<linearGradient id="paint96_linear_393_68448" x1="1360.34" y1="66.3699" x2="1357.64" y2="73.6759" gradientUnits="userSpaceOnUse">
<stop stop-color="#6C60FF"/>
<stop offset="1" stop-color="#3B2ED1"/>
</linearGradient>
<linearGradient id="paint97_linear_393_68448" x1="1360.34" y1="85.3699" x2="1357.64" y2="92.6759" gradientUnits="userSpaceOnUse">
<stop stop-color="#6C60FF"/>
<stop offset="1" stop-color="#3B2ED1"/>
</linearGradient>
<linearGradient id="paint98_linear_393_68448" x1="1360.34" y1="104.37" x2="1357.64" y2="111.676" gradientUnits="userSpaceOnUse">
<stop stop-color="#6C60FF"/>
<stop offset="1" stop-color="#3B2ED1"/>
</linearGradient>
<linearGradient id="paint99_linear_393_68448" x1="1360.34" y1="123.37" x2="1357.64" y2="130.676" gradientUnits="userSpaceOnUse">
<stop stop-color="#6C60FF"/>
<stop offset="1" stop-color="#3B2ED1"/>
</linearGradient>
<linearGradient id="paint100_linear_393_68448" x1="1360.34" y1="142.37" x2="1357.64" y2="149.676" gradientUnits="userSpaceOnUse">
<stop stop-color="#6C60FF"/>
<stop offset="1" stop-color="#3B2ED1"/>
</linearGradient>
<linearGradient id="paint101_linear_393_68448" x1="1360.34" y1="161.37" x2="1357.64" y2="168.676" gradientUnits="userSpaceOnUse">
<stop stop-color="#6C60FF"/>
<stop offset="1" stop-color="#3B2ED1"/>
</linearGradient>
<linearGradient id="paint102_linear_393_68448" x1="1335.43" y1="66.3699" x2="1332.73" y2="73.6759" gradientUnits="userSpaceOnUse">
<stop stop-color="#6C60FF"/>
<stop offset="1" stop-color="#3B2ED1"/>
</linearGradient>
<linearGradient id="paint103_linear_393_68448" x1="1335.43" y1="85.3699" x2="1332.73" y2="92.6759" gradientUnits="userSpaceOnUse">
<stop stop-color="#6C60FF"/>
<stop offset="1" stop-color="#3B2ED1"/>
</linearGradient>
<linearGradient id="paint104_linear_393_68448" x1="1335.43" y1="104.37" x2="1332.73" y2="111.676" gradientUnits="userSpaceOnUse">
<stop stop-color="#6C60FF"/>
<stop offset="1" stop-color="#3B2ED1"/>
</linearGradient>
<linearGradient id="paint105_linear_393_68448" x1="1335.43" y1="123.37" x2="1332.73" y2="130.676" gradientUnits="userSpaceOnUse">
<stop stop-color="#6C60FF"/>
<stop offset="1" stop-color="#3B2ED1"/>
</linearGradient>
<linearGradient id="paint106_linear_393_68448" x1="1335.43" y1="142.37" x2="1332.73" y2="149.676" gradientUnits="userSpaceOnUse">
<stop stop-color="#6C60FF"/>
<stop offset="1" stop-color="#3B2ED1"/>
</linearGradient>
<linearGradient id="paint107_linear_393_68448" x1="1335.43" y1="161.37" x2="1332.73" y2="168.676" gradientUnits="userSpaceOnUse">
<stop stop-color="#6C60FF"/>
<stop offset="1" stop-color="#3B2ED1"/>
</linearGradient>
<linearGradient id="paint108_linear_393_68448" x1="1310.52" y1="66.3699" x2="1307.82" y2="73.6759" gradientUnits="userSpaceOnUse">
<stop stop-color="#6C60FF"/>
<stop offset="1" stop-color="#3B2ED1"/>
</linearGradient>
<linearGradient id="paint109_linear_393_68448" x1="1310.52" y1="85.3699" x2="1307.82" y2="92.6759" gradientUnits="userSpaceOnUse">
<stop stop-color="#6C60FF"/>
<stop offset="1" stop-color="#3B2ED1"/>
</linearGradient>
<linearGradient id="paint110_linear_393_68448" x1="1310.52" y1="104.37" x2="1307.82" y2="111.676" gradientUnits="userSpaceOnUse">
<stop stop-color="#6C60FF"/>
<stop offset="1" stop-color="#3B2ED1"/>
</linearGradient>
<linearGradient id="paint111_linear_393_68448" x1="1310.52" y1="123.37" x2="1307.82" y2="130.676" gradientUnits="userSpaceOnUse">
<stop stop-color="#6C60FF"/>
<stop offset="1" stop-color="#3B2ED1"/>
</linearGradient>
<linearGradient id="paint112_linear_393_68448" x1="1310.52" y1="142.37" x2="1307.82" y2="149.676" gradientUnits="userSpaceOnUse">
<stop stop-color="#6C60FF"/>
<stop offset="1" stop-color="#3B2ED1"/>
</linearGradient>
<linearGradient id="paint113_linear_393_68448" x1="1310.52" y1="161.37" x2="1307.82" y2="168.676" gradientUnits="userSpaceOnUse">
<stop stop-color="#6C60FF"/>
<stop offset="1" stop-color="#3B2ED1"/>
</linearGradient>
<linearGradient id="paint114_linear_393_68448" x1="1285.62" y1="66.3699" x2="1282.92" y2="73.6759" gradientUnits="userSpaceOnUse">
<stop stop-color="#6C60FF"/>
<stop offset="1" stop-color="#3B2ED1"/>
</linearGradient>
<linearGradient id="paint115_linear_393_68448" x1="1285.62" y1="85.3699" x2="1282.92" y2="92.6759" gradientUnits="userSpaceOnUse">
<stop stop-color="#6C60FF"/>
<stop offset="1" stop-color="#3B2ED1"/>
</linearGradient>
<linearGradient id="paint116_linear_393_68448" x1="1285.62" y1="104.37" x2="1282.92" y2="111.676" gradientUnits="userSpaceOnUse">
<stop stop-color="#6C60FF"/>
<stop offset="1" stop-color="#3B2ED1"/>
</linearGradient>
<linearGradient id="paint117_linear_393_68448" x1="1285.62" y1="123.37" x2="1282.92" y2="130.676" gradientUnits="userSpaceOnUse">
<stop stop-color="#6C60FF"/>
<stop offset="1" stop-color="#3B2ED1"/>
</linearGradient>
<linearGradient id="paint118_linear_393_68448" x1="1285.62" y1="142.37" x2="1282.92" y2="149.676" gradientUnits="userSpaceOnUse">
<stop stop-color="#6C60FF"/>
<stop offset="1" stop-color="#3B2ED1"/>
</linearGradient>
<linearGradient id="paint119_linear_393_68448" x1="1285.62" y1="161.37" x2="1282.92" y2="168.676" gradientUnits="userSpaceOnUse">
<stop stop-color="#6C60FF"/>
<stop offset="1" stop-color="#3B2ED1"/>
</linearGradient>
<linearGradient id="paint120_linear_393_68448" x1="1260.71" y1="66.3699" x2="1258.01" y2="73.6759" gradientUnits="userSpaceOnUse">
<stop stop-color="#6C60FF"/>
<stop offset="1" stop-color="#3B2ED1"/>
</linearGradient>
<linearGradient id="paint121_linear_393_68448" x1="1260.71" y1="85.3699" x2="1258.01" y2="92.6759" gradientUnits="userSpaceOnUse">
<stop stop-color="#6C60FF"/>
<stop offset="1" stop-color="#3B2ED1"/>
</linearGradient>
<linearGradient id="paint122_linear_393_68448" x1="1260.71" y1="104.37" x2="1258.01" y2="111.676" gradientUnits="userSpaceOnUse">
<stop stop-color="#6C60FF"/>
<stop offset="1" stop-color="#3B2ED1"/>
</linearGradient>
<linearGradient id="paint123_linear_393_68448" x1="1260.71" y1="123.37" x2="1258.01" y2="130.676" gradientUnits="userSpaceOnUse">
<stop stop-color="#6C60FF"/>
<stop offset="1" stop-color="#3B2ED1"/>
</linearGradient>
<linearGradient id="paint124_linear_393_68448" x1="1260.71" y1="142.37" x2="1258.01" y2="149.676" gradientUnits="userSpaceOnUse">
<stop stop-color="#6C60FF"/>
<stop offset="1" stop-color="#3B2ED1"/>
</linearGradient>
<linearGradient id="paint125_linear_393_68448" x1="1260.71" y1="161.37" x2="1258.01" y2="168.676" gradientUnits="userSpaceOnUse">
<stop stop-color="#6C60FF"/>
<stop offset="1" stop-color="#3B2ED1"/>
</linearGradient>
<linearGradient id="paint126_linear_393_68448" x1="1235.8" y1="66.3699" x2="1233.1" y2="73.6759" gradientUnits="userSpaceOnUse">
<stop stop-color="#6C60FF"/>
<stop offset="1" stop-color="#3B2ED1"/>
</linearGradient>
<linearGradient id="paint127_linear_393_68448" x1="1235.8" y1="85.3699" x2="1233.1" y2="92.6759" gradientUnits="userSpaceOnUse">
<stop stop-color="#6C60FF"/>
<stop offset="1" stop-color="#3B2ED1"/>
</linearGradient>
<linearGradient id="paint128_linear_393_68448" x1="1235.8" y1="104.37" x2="1233.1" y2="111.676" gradientUnits="userSpaceOnUse">
<stop stop-color="#6C60FF"/>
<stop offset="1" stop-color="#3B2ED1"/>
</linearGradient>
<linearGradient id="paint129_linear_393_68448" x1="1235.8" y1="123.37" x2="1233.1" y2="130.676" gradientUnits="userSpaceOnUse">
<stop stop-color="#6C60FF"/>
<stop offset="1" stop-color="#3B2ED1"/>
</linearGradient>
<linearGradient id="paint130_linear_393_68448" x1="1235.8" y1="142.37" x2="1233.1" y2="149.676" gradientUnits="userSpaceOnUse">
<stop stop-color="#6C60FF"/>
<stop offset="1" stop-color="#3B2ED1"/>
</linearGradient>
<linearGradient id="paint131_linear_393_68448" x1="1235.8" y1="161.37" x2="1233.1" y2="168.676" gradientUnits="userSpaceOnUse">
<stop stop-color="#6C60FF"/>
<stop offset="1" stop-color="#3B2ED1"/>
</linearGradient>
<linearGradient id="paint132_linear_393_68448" x1="404.014" y1="-296.239" x2="673.065" y2="351.151" gradientUnits="userSpaceOnUse">
<stop stop-color="#6C60FF"/>
<stop offset="1" stop-color="#3B2ED1"/>
</linearGradient>
<linearGradient id="paint133_linear_393_68448" x1="415.085" y1="-272.977" x2="667.289" y2="327.486" gradientUnits="userSpaceOnUse">
<stop stop-color="#6C60FF"/>
<stop offset="1" stop-color="#3B2ED1"/>
</linearGradient>
<linearGradient id="paint134_linear_393_68448" x1="413.119" y1="-235.633" x2="643.807" y2="312.851" gradientUnits="userSpaceOnUse">
<stop stop-color="#6C60FF"/>
<stop offset="1" stop-color="#3B2ED1"/>
</linearGradient>
<linearGradient id="paint135_linear_393_68448" x1="426.491" y1="-201.793" x2="634.01" y2="293.124" gradientUnits="userSpaceOnUse">
<stop stop-color="#6C60FF"/>
<stop offset="1" stop-color="#3B2ED1"/>
</linearGradient>
<linearGradient id="paint136_linear_393_68448" x1="429.447" y1="-160.247" x2="613.731" y2="282.535" gradientUnits="userSpaceOnUse">
<stop stop-color="#6C60FF"/>
<stop offset="1" stop-color="#3B2ED1"/>
</linearGradient>
<linearGradient id="paint137_linear_393_68448" x1="429.319" y1="-125.018" x2="595.739" y2="270.891" gradientUnits="userSpaceOnUse">
<stop stop-color="#6C60FF"/>
<stop offset="1" stop-color="#3B2ED1"/>
</linearGradient>
<linearGradient id="paint138_linear_393_68448" x1="430.081" y1="-98.5748" x2="581.747" y2="257.932" gradientUnits="userSpaceOnUse">
<stop stop-color="#6C60FF"/>
<stop offset="1" stop-color="#3B2ED1"/>
</linearGradient>
<linearGradient id="paint139_linear_393_68448" x1="433.808" y1="-79.3128" x2="574.391" y2="240.977" gradientUnits="userSpaceOnUse">
<stop stop-color="#6C60FF"/>
<stop offset="1" stop-color="#3B2ED1"/>
</linearGradient>
<linearGradient id="paint140_linear_393_68448" x1="432.002" y1="-52.5006" x2="556.067" y2="234.873" gradientUnits="userSpaceOnUse">
<stop stop-color="#6C60FF"/>
<stop offset="1" stop-color="#3B2ED1"/>
</linearGradient>
<linearGradient id="paint141_linear_393_68448" x1="427.103" y1="-20.0181" x2="531.397" y2="237.379" gradientUnits="userSpaceOnUse">
<stop stop-color="#6C60FF"/>
<stop offset="1" stop-color="#3B2ED1"/>
</linearGradient>
<linearGradient id="paint142_linear_393_68448" x1="425.677" y1="11.5138" x2="509.575" y2="242.369" gradientUnits="userSpaceOnUse">
<stop stop-color="#6C60FF"/>
<stop offset="1" stop-color="#3B2ED1"/>
</linearGradient>
<linearGradient id="paint143_linear_393_68448" x1="429.107" y1="32.6497" x2="500.056" y2="238.704" gradientUnits="userSpaceOnUse">
<stop stop-color="#6C60FF"/>
<stop offset="1" stop-color="#3B2ED1"/>
</linearGradient>
<linearGradient id="paint144_linear_393_68448" x1="436.272" y1="52.5433" x2="498.66" y2="233.277" gradientUnits="userSpaceOnUse">
<stop stop-color="#6C60FF"/>
<stop offset="1" stop-color="#3B2ED1"/>
</linearGradient>
<linearGradient id="paint145_linear_393_68448" x1="441.623" y1="72.1986" x2="494.805" y2="225.958" gradientUnits="userSpaceOnUse">
<stop stop-color="#6C60FF"/>
<stop offset="1" stop-color="#3B2ED1"/>
</linearGradient>
<linearGradient id="paint146_linear_393_68448" x1="446.515" y1="96.8839" x2="487.702" y2="219.34" gradientUnits="userSpaceOnUse">
<stop stop-color="#6C60FF"/>
<stop offset="1" stop-color="#3B2ED1"/>
</linearGradient>
<linearGradient id="paint147_linear_393_68448" x1="453.671" y1="126.105" x2="481.933" y2="212.06" gradientUnits="userSpaceOnUse">
<stop stop-color="#6C60FF"/>
<stop offset="1" stop-color="#3B2ED1"/>
</linearGradient>
<linearGradient id="paint148_linear_393_68448" x1="463.311" y1="156.536" x2="477.396" y2="201.66" gradientUnits="userSpaceOnUse">
<stop stop-color="#6C60FF"/>
<stop offset="1" stop-color="#3B2ED1"/>
</linearGradient>
</defs>
</svg>
