<svg width="12" height="13" viewBox="0 0 12 13" fill="none" xmlns="http://www.w3.org/2000/svg">
<g id="Group">
<path id="Vector" d="M10.4451 3.59878C10.5575 3.59878 10.6659 3.55418 10.7459 3.47421L11.924 2.29605C12.0814 2.13862 11.9789 1.86843 11.7571 1.85451L11.1302 1.81515L11.5393 1.40605C11.6079 1.3374 11.6079 1.2261 11.5393 1.15747C11.4706 1.08882 11.3593 1.08882 11.2907 1.15747L10.8816 1.56658L10.8422 0.93962C10.8283 0.717409 10.5578 0.615596 10.4007 0.772721L9.22249 1.95088C9.13622 2.03716 9.09115 2.15648 9.09879 2.27823L9.13929 2.92342C8.156 2.08501 6.88871 1.60422 5.54626 1.60422C2.48088 1.60422 0 4.0848 0 7.15049C0 8.53403 0.512343 9.85917 1.44269 10.8817C1.50806 10.9535 1.61922 10.9588 1.69101 10.8935C1.76282 10.8281 1.76807 10.717 1.70275 10.6451C0.83142 9.68744 0.351562 8.44635 0.351562 7.15049C0.351562 4.28611 2.6819 1.95576 5.54626 1.95576C6.88857 1.95576 8.15166 2.47021 9.09645 3.35168L8.29437 4.15373C7.56901 3.48789 6.60322 3.08043 5.54626 3.08043C3.30205 3.08043 1.47625 4.90624 1.47625 7.15046C1.47625 7.79635 1.63207 8.43969 1.92691 9.01096C1.92693 9.01098 1.92693 9.01101 1.92696 9.01103C2.61013 10.3348 3.98603 11.2205 5.54628 11.2205C7.46883 11.2205 9.14093 9.86254 9.53173 7.978C9.55144 7.88293 9.49036 7.78989 9.3953 7.77017C9.30026 7.75046 9.20721 7.81154 9.1875 7.9066C8.83153 9.62308 7.3002 10.8689 5.54631 10.8689C4.14922 10.8689 2.88206 10.0952 2.23938 8.8498C2.23938 8.84978 2.23935 8.84976 2.23935 8.84973C1.96631 8.32063 1.82784 7.74892 1.82784 7.15046C1.82784 5.1001 3.49593 3.432 5.54628 3.432C6.50652 3.432 7.38443 3.80001 8.04586 4.40224L7.25094 5.19717C6.79475 4.79855 6.19827 4.55667 5.54628 4.55667C4.11608 4.55667 2.95253 5.72023 2.95253 7.15044C2.95253 8.58065 4.11608 9.7442 5.54628 9.7442C6.97648 9.7442 8.14006 8.58065 8.14006 7.15044C8.14006 6.49845 7.89818 5.90197 7.49954 5.44578L8.29451 4.6508C8.89207 5.30691 9.25922 6.17635 9.26466 7.12881C9.2652 7.22553 9.34381 7.30358 9.44041 7.30358H9.44145C9.53852 7.30302 9.61676 7.22387 9.61622 7.12679C9.61022 6.07831 9.20379 5.12175 8.54311 4.40217L9.34523 3.60004C10.2229 4.53846 10.741 5.79406 10.741 7.15041C10.7409 10.0149 8.41062 12.3452 5.54626 12.3452C4.35965 12.3452 3.19935 11.9347 2.27913 11.1894C2.20364 11.1283 2.09303 11.1399 2.03189 11.2153C1.97078 11.2908 1.98241 11.4015 2.05783 11.4626C3.04047 12.2585 4.27935 12.6968 5.54626 12.6968C8.61164 12.6968 11.0925 10.2162 11.0925 7.15049C11.0925 5.95018 10.7153 4.80781 10.0017 3.84691C9.92787 3.74742 9.85092 3.65097 9.7714 3.55729C10.4605 3.60058 10.4233 3.59878 10.4451 3.59878ZM7.78847 7.15049C7.78847 8.38684 6.78263 9.39269 5.54626 9.39269C4.30991 9.39269 3.30407 8.38684 3.30407 7.15049C3.30407 5.91413 4.30991 4.90828 5.54626 4.90828C6.10131 4.90828 6.6098 5.11109 7.00177 5.44636L6.20185 6.24629C6.01754 6.11229 5.79104 6.03296 5.54626 6.03296C4.93007 6.03296 4.42874 6.53429 4.42874 7.15049C4.42874 7.76668 4.93007 8.26801 5.54626 8.26801C6.16248 8.26801 6.6638 7.76668 6.6638 7.15049C6.6638 6.90568 6.58447 6.67918 6.45048 6.49489L7.2504 5.69496C7.58565 6.08693 7.78847 6.59544 7.78847 7.15049ZM5.42195 7.2748C5.49062 7.34345 5.6019 7.34345 5.67055 7.2748L6.19747 6.74787C6.27012 6.86494 6.31222 7.00287 6.31222 7.15051C6.31222 7.57288 5.9686 7.91647 5.54624 7.91647C5.12387 7.91647 4.78028 7.57285 4.78028 7.15051C4.78028 6.72816 5.12387 6.38455 5.54624 6.38455C5.69387 6.38455 5.8318 6.42664 5.94887 6.49927L5.42192 7.02622C5.3533 7.09484 5.3533 7.20615 5.42195 7.2748ZM9.44967 2.2562C9.44834 2.23509 9.45616 2.21439 9.47112 2.19946L10.5042 1.1664L10.5501 1.89803L9.4935 2.95464L9.44967 2.2562ZM9.7421 3.20322L10.7987 2.14661L11.5303 2.19252L10.4973 3.2256C10.4823 3.24056 10.4615 3.2485 10.4405 3.24705L9.7421 3.20322Z" fill="#3259FF"/>
</g>
</svg>
