<svg width="14" height="15" viewBox="0 0 14 15" fill="none" xmlns="http://www.w3.org/2000/svg">
<g id="fluent:arrow-rotate-clockwise-24-regular">
<path id="Vector" d="M8.20218 6.29753C7.88337 5.97872 7.45097 5.79961 7.0001 5.79961C6.54923 5.79961 6.11683 5.97872 5.79802 6.29753C5.4792 6.61634 5.3001 7.04874 5.3001 7.49961C5.3001 7.95048 5.4792 8.38288 5.79802 8.70169C6.11683 9.0205 6.54923 9.19961 7.0001 9.19961C7.45097 9.19961 7.88337 9.0205 8.20218 8.70169C8.52099 8.38288 8.7001 7.95048 8.7001 7.49961C8.7001 7.04874 8.52099 6.61634 8.20218 6.29753ZM6.50512 7.00463C6.6364 6.87336 6.81445 6.79961 7.0001 6.79961C7.18575 6.79961 7.3638 6.87336 7.49507 7.00463C7.62635 7.13591 7.7001 7.31396 7.7001 7.49961C7.7001 7.68526 7.62635 7.86331 7.49507 7.99458C7.3638 8.12586 7.18575 8.19961 7.0001 8.19961C6.81445 8.19961 6.6364 8.12586 6.50512 7.99458C6.37385 7.86331 6.3001 7.68526 6.3001 7.49961C6.3001 7.31396 6.37385 7.13591 6.50512 7.00463Z" fill="#4C4C66" stroke="#4C4C66" stroke-width="0.1"/>
<path id="Vector_2" d="M9.5881 12.1904L9.58742 10.5688L9.58756 10.5688L9.58728 10.5647L9.58222 10.4911L9.58236 10.4911L9.5818 10.487C9.56102 10.3359 9.48367 10.1984 9.36539 10.1022C9.2471 10.006 9.09671 9.95823 8.94458 9.96862C8.79246 9.97901 8.64995 10.0468 8.54585 10.1582C8.44176 10.2696 8.38383 10.4164 8.38378 10.5689V10.5689V13.4576H8.38364L8.38393 13.4617L8.38898 13.5354L8.38884 13.5354L8.3894 13.5394C8.40918 13.6835 8.48046 13.8156 8.59006 13.9111C8.69966 14.0067 8.84017 14.0594 8.9856 14.0594H11.8743V14.0595L11.8784 14.0593L11.9521 14.0542L11.9521 14.0543L11.9562 14.0538C12.1072 14.033 12.2448 13.9557 12.341 13.8374C12.4372 13.7191 12.485 13.5687 12.4746 13.4166C12.4642 13.2644 12.3964 13.1219 12.285 13.0178C12.1736 12.9137 12.0268 12.8558 11.8743 12.8558H11.8743H10.7882C11.8832 12.0816 12.716 10.9892 13.172 9.72476C13.65 8.39899 13.6884 6.95452 13.2814 5.60524C12.8744 4.25597 12.0437 3.07364 10.9123 2.23335C9.78087 1.39307 8.40892 0.939498 6.99961 0.939819L9.5881 12.1904ZM9.5881 12.1904C10.605 11.6293 11.4128 10.7522 11.8884 9.69063C12.3778 8.59853 12.4873 7.37404 12.1996 6.21244C11.9119 5.05084 11.2435 4.01902 10.301 3.28155C9.35857 2.54407 8.19631 2.14341 6.99961 2.14345C5.57907 2.14345 4.21671 2.70776 3.21223 3.71223C2.20776 4.71671 1.64345 6.07907 1.64345 7.49961C1.64345 7.65922 1.58004 7.81229 1.46718 7.92516C1.35432 8.03802 1.20125 8.10143 1.04163 8.10143C0.882023 8.10143 0.728948 8.03802 0.616086 7.92516C0.503224 7.81229 0.439818 7.65922 0.439818 7.49961C0.439818 5.75984 1.13094 4.09134 2.36114 2.86114C3.59133 1.63094 5.25984 0.939822 6.9996 0.939819L9.5881 12.1904Z" fill="#4C4C66" stroke="#4C4C66" stroke-width="0.120363"/>
</g>
</svg>
