<svg width="15" height="15" viewBox="0 0 15 15" fill="none" xmlns="http://www.w3.org/2000/svg">
<path d="M8.7012 6.29753C8.38239 5.97872 7.94999 5.79961 7.49912 5.79961C7.04825 5.79961 6.61585 5.97872 6.29704 6.29753C5.97823 6.61634 5.79912 7.04874 5.79912 7.49961C5.79912 7.95048 5.97823 8.38288 6.29704 8.70169C6.61585 9.0205 7.04825 9.19961 7.49912 9.19961C7.94999 9.19961 8.38239 9.0205 8.7012 8.70169C9.02001 8.38288 9.19912 7.95048 9.19912 7.49961C9.19912 7.04874 9.02001 6.61634 8.7012 6.29753ZM7.00415 7.00463C7.13542 6.87336 7.31347 6.79961 7.49912 6.79961C7.68477 6.79961 7.86282 6.87336 7.9941 7.00463C8.12537 7.13591 8.19912 7.31396 8.19912 7.49961C8.19912 7.68526 8.12537 7.86331 7.9941 7.99458C7.86282 8.12586 7.68477 8.19961 7.49912 8.19961C7.31347 8.19961 7.13542 8.12586 7.00415 7.99458C6.87287 7.86331 6.79912 7.68526 6.79912 7.49961C6.79912 7.31396 6.87287 7.13591 7.00415 7.00463Z" fill="#4C4C66" stroke="#4C4C66" stroke-width="0.1"/>
<path d="M10.0876 12.1904L10.0869 10.5688L10.0871 10.5688L10.0868 10.5647L10.0817 10.4911L10.0819 10.4911L10.0813 10.487C10.0605 10.3359 9.98318 10.1984 9.8649 10.1022C9.74662 10.006 9.59622 9.95823 9.44409 9.96862C9.29197 9.97901 9.14946 10.0468 9.04537 10.1582C8.94127 10.2696 8.88334 10.4164 8.8833 10.5689V10.5689V13.4576H8.88316L8.88344 13.4617L8.88849 13.5354L8.88836 13.5354L8.88891 13.5394C8.90869 13.6835 8.97997 13.8156 9.08957 13.9111C9.19917 14.0067 9.33968 14.0594 9.48511 14.0594H12.3738V14.0595L12.3779 14.0593L12.4516 14.0542L12.4516 14.0543L12.4557 14.0538C12.6068 14.033 12.7443 13.9557 12.8405 13.8374C12.9367 13.7191 12.9845 13.5687 12.9741 13.4166C12.9637 13.2644 12.8959 13.1219 12.7845 13.0178C12.6731 12.9137 12.5263 12.8558 12.3738 12.8558H12.3738H11.2878C12.3827 12.0816 13.2155 10.9892 13.6715 9.72476C14.1495 8.39899 14.1879 6.95452 13.7809 5.60524C13.3739 4.25597 12.5432 3.07364 11.4118 2.23335C10.2804 1.39307 8.90844 0.939498 7.49912 0.939819L10.0876 12.1904ZM10.0876 12.1904C11.1045 11.6293 11.9123 10.7522 12.388 9.69063C12.8773 8.59853 12.9868 7.37404 12.6991 6.21244C12.4114 5.05084 11.743 4.01902 10.8005 3.28155C9.85808 2.54407 8.69583 2.14341 7.49912 2.14345C6.07858 2.14345 4.71622 2.70776 3.71174 3.71223C2.70727 4.71671 2.14296 6.07907 2.14296 7.49961C2.14296 7.65922 2.07956 7.81229 1.96669 7.92516C1.85383 8.03802 1.70076 8.10143 1.54115 8.10143C1.38153 8.10143 1.22846 8.03802 1.1156 7.92516C1.00274 7.81229 0.93933 7.65922 0.93933 7.49961C0.93933 5.75984 1.63045 4.09134 2.86065 2.86114C4.09084 1.63094 5.75935 0.939822 7.49911 0.939819L10.0876 12.1904Z" fill="#4C4C66" stroke="#4C4C66" stroke-width="0.120363"/>
</svg>
