<svg width="10" height="12" viewBox="0 0 10 12" fill="none" xmlns="http://www.w3.org/2000/svg">
<path id="Vector" fill-rule="evenodd" clip-rule="evenodd" d="M5.00247 2.98417e-09C5.16702 -1.41103e-05 5.3279 0.0500327 5.46484 0.143837C5.60177 0.237642 5.70865 0.371008 5.772 0.52714L8.89142 8.22424L8.90601 8.26024L9.94067 10.8132C10.0218 11.0223 10.0196 11.2557 9.93474 11.4632C9.84984 11.6707 9.68897 11.8355 9.48687 11.922C9.28478 12.0086 9.05768 12.0099 8.85463 11.9258C8.65157 11.8417 8.48885 11.6788 8.4016 11.4724L7.57329 9.42852H2.43165L1.60333 11.4728C1.5182 11.6826 1.35548 11.8491 1.15097 11.9356C0.946457 12.022 0.716904 12.0215 0.512811 11.9339C0.308717 11.8464 0.1468 11.6791 0.0626811 11.4689C-0.0214381 11.2586 -0.0208694 11.0226 0.0642618 10.8128L1.09893 8.26024L1.11352 8.22381L4.23293 0.527568C4.29622 0.371357 4.40307 0.2379 4.54001 0.144015C4.67696 0.0501311 4.83787 2.11547e-05 5.00247 2.98417e-09ZM3.12657 7.71424H6.87837L5.00247 3.0857L3.12657 7.71424Z" fill="#4C4C66"/>
</svg>
