<svg xmlns="http://www.w3.org/2000/svg" width="12" height="15" viewBox="0 0 12 15" fill="none">
  <path fill-rule="evenodd" clip-rule="evenodd" d="M0.123535 10.0982L0.123535 4.90235C0.123535 2.69321 1.9144 0.902344 4.12354 0.902344L7.99982 0.902344C10.209 0.902344 11.9998 2.6932 11.9998 4.90234V7.16302C11.9998 7.56037 11.9407 7.95162 11.8273 8.32502H9.36065C7.62978 8.32502 6.22663 9.72817 6.22663 11.459V13.9257C5.85323 14.0391 5.46197 14.0982 5.06462 14.0982H4.12353C1.91439 14.0982 0.123535 12.3074 0.123535 10.0982ZM7.21632 13.4702C7.45908 13.3153 7.68622 13.1335 7.89305 12.9266L10.8282 9.99144C11.0351 9.78462 11.2169 9.55748 11.3718 9.31472H9.36065C8.17637 9.31472 7.21632 10.2748 7.21632 11.459V13.4702ZM2.92766 4.20131C2.92766 3.92802 3.14921 3.70647 3.4225 3.70647H8.70085C8.97415 3.70647 9.1957 3.92802 9.1957 4.20131C9.1957 4.47461 8.97415 4.69616 8.70085 4.69616H3.4225C3.14921 4.69616 2.92766 4.47461 2.92766 4.20131ZM3.4225 6.34564C3.14921 6.34564 2.92766 6.56719 2.92766 6.84049C2.92766 7.11378 3.14921 7.33533 3.4225 7.33533H6.06168C6.33498 7.33533 6.55652 7.11378 6.55652 6.84049C6.55652 6.56719 6.33498 6.34564 6.06168 6.34564H3.4225Z" fill="#4C4C66"/>
</svg>