<svg width="5" height="4" viewBox="0 0 5 4" fill="none" xmlns="http://www.w3.org/2000/svg">
<path d="M2.49793 3.81141C2.17126 3.81141 1.87126 3.73474 1.59793 3.58141C1.3246 3.42141 1.1046 3.20807 0.93793 2.94141C0.771263 2.67474 0.68793 2.37474 0.68793 2.04141C0.68793 1.73474 0.764596 1.44807 0.91793 1.18141C1.07793 0.908073 1.2946 0.688073 1.56793 0.521406C1.84126 0.348073 2.15126 0.261406 2.49793 0.261406C2.81793 0.261406 3.1146 0.338073 3.38793 0.491406C3.66793 0.644739 3.89126 0.858073 4.05793 1.13141C4.2246 1.39807 4.30793 1.70141 4.30793 2.04141C4.30793 2.36807 4.2246 2.66474 4.05793 2.93141C3.89793 3.19807 3.68126 3.41141 3.40793 3.57141C3.1346 3.73141 2.83126 3.81141 2.49793 3.81141Z" fill="#444A5A"/>
</svg>
