<svg xmlns="http://www.w3.org/2000/svg" width="15" height="15" viewBox="0 0 15 15" fill="none">
  <path d="M14 8.60176L12.0896 7.2263C11.097 6.51158 9.74035 6.58545 8.83115 7.40373L6.16886 9.79979C5.25965 10.6181 3.90303 10.6919 2.91035 9.97721L1 8.60176M3.6 13.8018H11.4C12.8359 13.8018 14 12.6377 14 11.2018V3.40176C14 1.96582 12.8359 0.801758 11.4 0.801758H3.6C2.16406 0.801758 1 1.96582 1 3.40176V11.2018C1 12.6377 2.16406 13.8018 3.6 13.8018ZM6.85 5.02676C6.85 5.92422 6.12246 6.65176 5.225 6.65176C4.32754 6.65176 3.6 5.92422 3.6 5.02676C3.6 4.12929 4.32754 3.40176 5.225 3.40176C6.12246 3.40176 6.85 4.12929 6.85 5.02676Z" stroke="#4C4C66" stroke-width="1.5" stroke-linecap="round"/>
</svg>