<svg xmlns="http://www.w3.org/2000/svg" width="10" height="12" viewBox="0 0 10 12" fill="none">
  <path d="M8.61986 11.71C8.4732 11.71 8.35986 11.67 8.27986 11.59C8.19986 11.51 8.12653 11.4434 8.05986 11.39L0.719863 1.07004C0.62653 0.923373 0.579863 0.796707 0.579863 0.690041C0.579863 0.583374 0.619863 0.49004 0.699863 0.41004C0.793197 0.330039 0.893197 0.290039 0.999863 0.290039H1.91986C2.07986 0.290039 2.19986 0.330039 2.27986 0.41004C2.3732 0.49004 2.44653 0.563373 2.49986 0.630039L9.85986 10.93C9.9132 11.0234 9.94653 11.0967 9.95986 11.15C9.98653 11.2034 9.99986 11.2567 9.99986 11.31C9.99986 11.4167 9.95986 11.51 9.87986 11.59C9.79986 11.67 9.69986 11.71 9.57986 11.71H8.61986ZM0.819863 11.71C0.68653 11.71 0.573197 11.67 0.479863 11.59C0.399863 11.4967 0.359863 11.3834 0.359863 11.25V8.25004C0.359863 7.63671 0.419863 7.05671 0.539863 6.51004C0.659863 5.95004 0.893197 5.42337 1.23986 4.93004C1.59986 4.42337 2.1332 3.95004 2.83986 3.51004L3.75986 4.85004C3.27986 5.15671 2.91986 5.51004 2.67986 5.91004C2.43986 6.29671 2.27986 6.70337 2.19986 7.13004C2.11986 7.54337 2.07986 7.94337 2.07986 8.33004V11.25C2.07986 11.3834 2.0332 11.4967 1.93986 11.59C1.85986 11.67 1.7532 11.71 1.61986 11.71H0.819863ZM7.01986 8.05004L6.19986 6.67004C6.8532 6.36337 7.3132 6.04337 7.57986 5.71004C7.85986 5.37671 8.02653 5.03004 8.07986 4.67004C8.1332 4.29671 8.15986 3.91004 8.15986 3.51004V0.750039C8.15986 0.616706 8.19986 0.510039 8.27986 0.430039C8.3732 0.336706 8.48653 0.290039 8.61986 0.290039H9.45986C9.5932 0.290039 9.69986 0.336706 9.77986 0.430039C9.8732 0.510039 9.91986 0.616706 9.91986 0.750039V3.61004C9.91986 4.17004 9.8532 4.71004 9.71986 5.23004C9.58653 5.75004 9.3132 6.24337 8.89986 6.71004C8.49986 7.17671 7.8732 7.62337 7.01986 8.05004Z" fill="#3259FF"/>
</svg>