<svg width="10" height="13" viewBox="0 0 10 13" fill="none" xmlns="http://www.w3.org/2000/svg">
<path id="&#215;&#144;" d="M8.61986 12.2091C8.4732 12.2091 8.35986 12.1691 8.27986 12.0891C8.19986 12.0091 8.12653 11.9424 8.05986 11.8891L0.719863 1.56906C0.62653 1.4224 0.579863 1.29573 0.579863 1.18906C0.579863 1.0824 0.619863 0.989063 0.699863 0.909063C0.793197 0.829063 0.893197 0.789062 0.999863 0.789062H1.91986C2.07986 0.789062 2.19986 0.829063 2.27986 0.909063C2.3732 0.989063 2.44653 1.0624 2.49986 1.12906L9.85986 11.4291C9.9132 11.5224 9.94653 11.5957 9.95986 11.6491C9.98653 11.7024 9.99986 11.7557 9.99986 11.8091C9.99986 11.9157 9.95986 12.0091 9.87986 12.0891C9.79986 12.1691 9.69986 12.2091 9.57986 12.2091H8.61986ZM0.819863 12.2091C0.68653 12.2091 0.573197 12.1691 0.479863 12.0891C0.399863 11.9957 0.359863 11.8824 0.359863 11.7491V8.74906C0.359863 8.13573 0.419863 7.55573 0.539863 7.00906C0.659863 6.44906 0.893197 5.9224 1.23986 5.42906C1.59986 4.9224 2.1332 4.44906 2.83986 4.00906L3.75986 5.34906C3.27986 5.65573 2.91986 6.00906 2.67986 6.40906C2.43986 6.79573 2.27986 7.2024 2.19986 7.62906C2.11986 8.0424 2.07986 8.4424 2.07986 8.82906V11.7491C2.07986 11.8824 2.0332 11.9957 1.93986 12.0891C1.85986 12.1691 1.7532 12.2091 1.61986 12.2091H0.819863ZM7.01986 8.54906L6.19986 7.16906C6.8532 6.8624 7.3132 6.5424 7.57986 6.20906C7.85986 5.87573 8.02653 5.52906 8.07986 5.16906C8.1332 4.79573 8.15986 4.40906 8.15986 4.00906V1.24906C8.15986 1.11573 8.19986 1.00906 8.27986 0.929063C8.3732 0.835729 8.48653 0.789062 8.61986 0.789062H9.45986C9.5932 0.789062 9.69986 0.835729 9.77986 0.929063C9.8732 1.00906 9.91986 1.11573 9.91986 1.24906V4.10906C9.91986 4.66906 9.8532 5.20906 9.71986 5.72906C9.58653 6.24906 9.3132 6.7424 8.89986 7.20906C8.49986 7.67573 7.8732 8.1224 7.01986 8.54906Z" fill="#3259FF"/>
</svg>
