<svg width="10" height="13" viewBox="0 0 10 13" fill="none" xmlns="http://www.w3.org/2000/svg">
<path id="Vector" fill-rule="evenodd" clip-rule="evenodd" d="M5.00247 0.697266C5.16702 0.697252 5.3279 0.747298 5.46484 0.841103C5.60177 0.934907 5.70865 1.06827 5.772 1.22441L8.89142 8.9215L8.90601 8.95751L9.94067 11.5105C10.0218 11.7195 10.0196 11.953 9.93474 12.1605C9.84984 12.3679 9.68897 12.5327 9.48687 12.6193C9.28478 12.7058 9.05768 12.7072 8.85463 12.623C8.65157 12.5389 8.48885 12.3761 8.4016 12.1696L7.57329 10.1258H2.43165L1.60333 12.1701C1.5182 12.3799 1.35548 12.5463 1.15097 12.6328C0.946457 12.7193 0.716904 12.7187 0.512811 12.6312C0.308717 12.5437 0.1468 12.3764 0.0626811 12.1661C-0.0214381 11.9559 -0.0208694 11.7199 0.0642618 11.5101L1.09893 8.95751L1.11352 8.92108L4.23293 1.22483C4.29622 1.06862 4.40307 0.935165 4.54001 0.841281C4.67696 0.747397 4.83787 0.697287 5.00247 0.697266ZM3.12657 8.41151H6.87837L5.00247 3.78296L3.12657 8.41151Z" fill="#3259FF"/>
</svg>
