<svg width="15" height="11" viewBox="0 0 15 11" fill="none" xmlns="http://www.w3.org/2000/svg">
<path id="Vector" d="M3.00063 0.5C3.00063 0.367392 2.94795 0.240215 2.85418 0.146447C2.76042 0.0526785 2.63324 0 2.50063 0C2.36802 0 2.24085 0.0526785 2.14708 0.146447C2.05331 0.240215 2.00063 0.367392 2.00063 0.5V9.293L0.854632 8.146C0.760745 8.05211 0.633407 7.99937 0.500632 7.99937C0.367856 7.99937 0.240518 8.05211 0.146632 8.146C0.052745 8.23989 3.1283e-09 8.36722 0 8.5C-3.1283e-09 8.63278 0.052745 8.76011 0.146632 8.854L2.14663 10.853L2.15363 10.86C2.24751 10.9515 2.37375 11.0023 2.50487 11.0011C2.63598 11 2.76134 10.9471 2.85363 10.854L4.85363 8.854C4.90012 8.80758 4.93701 8.75245 4.96219 8.69177C4.98738 8.6311 5.00036 8.56605 5.00041 8.50035C5.00046 8.43466 4.98756 8.36959 4.96246 8.30888C4.93737 8.24816 4.90055 8.19299 4.85413 8.1465C4.80771 8.10001 4.75258 8.06312 4.69191 8.03794C4.63123 8.01275 4.56618 7.99977 4.50049 7.99972C4.43479 7.99968 4.36972 8.01257 4.30901 8.03767C4.2483 8.06277 4.19312 8.09958 4.14663 8.146L3.00063 9.293V0.5ZM6.50063 1.5C6.50063 1.36739 6.55331 1.24021 6.64708 1.14645C6.74085 1.05268 6.86802 1 7.00063 1H14.0006C14.1332 1 14.2604 1.05268 14.3542 1.14645C14.448 1.24021 14.5006 1.36739 14.5006 1.5C14.5006 1.63261 14.448 1.75979 14.3542 1.85355C14.2604 1.94732 14.1332 2 14.0006 2H7.00063C6.86802 2 6.74085 1.94732 6.64708 1.85355C6.55331 1.75979 6.50063 1.63261 6.50063 1.5ZM7.00063 4C6.86802 4 6.74085 4.05268 6.64708 4.14645C6.55331 4.24021 6.50063 4.36739 6.50063 4.5C6.50063 4.63261 6.55331 4.75979 6.64708 4.85355C6.74085 4.94732 6.86802 5 7.00063 5H12.0006C12.1332 5 12.2604 4.94732 12.3542 4.85355C12.448 4.75979 12.5006 4.63261 12.5006 4.5C12.5006 4.36739 12.448 4.24021 12.3542 4.14645C12.2604 4.05268 12.1332 4 12.0006 4H7.00063ZM7.00063 7C6.86802 7 6.74085 7.05268 6.64708 7.14645C6.55331 7.24021 6.50063 7.36739 6.50063 7.5C6.50063 7.63261 6.55331 7.75979 6.64708 7.85355C6.74085 7.94732 6.86802 8 7.00063 8H10.0006C10.1332 8 10.2604 7.94732 10.3542 7.85355C10.448 7.75979 10.5006 7.63261 10.5006 7.5C10.5006 7.36739 10.448 7.24021 10.3542 7.14645C10.2604 7.05268 10.1332 7 10.0006 7H7.00063ZM7.00063 10C6.86802 10 6.74085 10.0527 6.64708 10.1464C6.55331 10.2402 6.50063 10.3674 6.50063 10.5C6.50063 10.6326 6.55331 10.7598 6.64708 10.8536C6.74085 10.9473 6.86802 11 7.00063 11H8.00063C8.13324 11 8.26042 10.9473 8.35419 10.8536C8.44795 10.7598 8.50063 10.6326 8.50063 10.5C8.50063 10.3674 8.44795 10.2402 8.35419 10.1464C8.26042 10.0527 8.13324 10 8.00063 10H7.00063Z" fill="#3259FF"/>
</svg>
