<svg width="14" height="15" viewBox="0 0 14 15" fill="none" xmlns="http://www.w3.org/2000/svg">
<path id="Vector" d="M4.95129 5.12271L6.51037 1.81828C6.55576 1.72265 6.62555 1.64221 6.71194 1.586C6.79833 1.52978 6.89789 1.5 6.99946 1.5C7.10103 1.5 7.20059 1.52978 7.28698 1.586C7.37336 1.64221 7.44316 1.72265 7.48855 1.81828L9.04763 5.12271L12.5331 5.65576C12.6336 5.67043 12.7282 5.71455 12.806 5.78309C12.8839 5.85163 12.9418 5.94182 12.9733 6.04338C13.0048 6.14493 13.0085 6.25375 12.984 6.35741C12.9596 6.46108 12.9079 6.55542 12.8349 6.62965L10.3133 9.20018L10.9086 12.8318C10.9848 13.2979 10.5167 13.6528 10.1164 13.433L6.99946 11.7177L3.8819 13.433C3.48223 13.6535 3.01415 13.2979 3.09036 12.8311L3.68567 9.19955L1.16401 6.62902C1.09139 6.55473 1.04003 6.46049 1.01577 6.35701C0.991502 6.25353 0.995307 6.14496 1.02675 6.04364C1.0582 5.94232 1.11602 5.85232 1.19364 5.78386C1.27127 5.71541 1.36558 5.67124 1.46587 5.65639L4.95129 5.12271Z" stroke="#3259FF" stroke-width="1.5" stroke-linecap="round" stroke-linejoin="round"/>
</svg>
