<svg xmlns="http://www.w3.org/2000/svg" width="18" height="17" viewBox="0 0 18 17" fill="none">
  <path d="M8.20746 1.24111C8.45694 0.473392 9.54306 0.473393 9.79254 1.24111L11.0582 5.13604C11.1698 5.47936 11.4897 5.71181 11.8507 5.71182L15.9462 5.71198C16.7534 5.71201 17.089 6.74497 16.436 7.21947L13.1228 9.62682C12.8308 9.83903 12.7086 10.2151 12.8201 10.5585L14.0855 14.4535C14.3349 15.2212 13.4562 15.8596 12.8031 15.3852L9.4898 12.9781C9.19773 12.7659 8.80227 12.7659 8.5102 12.9781L5.19685 15.3852C4.54377 15.8596 3.66508 15.2212 3.9145 14.4535L5.17991 10.5585C5.29145 10.2151 5.16924 9.83903 4.8772 9.62682L1.56403 7.21947C0.910975 6.74497 1.2466 5.71201 2.05384 5.71198L6.14926 5.71182C6.51026 5.71181 6.83019 5.47936 6.94176 5.13604L8.20746 1.24111Z" stroke="#4F35BE"/>
</svg>