<svg width="22" height="23" viewBox="0 0 22 23" fill="none" xmlns="http://www.w3.org/2000/svg">
<g id="time quarter past">
<path id="combo sape" fill-rule="evenodd" clip-rule="evenodd" d="M10.6981 0.691664C10.7984 0.688894 10.899 0.6875 11 0.6875C16.9371 0.6875 21.75 5.50044 21.75 11.4375C21.75 11.5385 21.7486 11.6391 21.7458 11.7394C21.7344 12.1535 21.3895 12.4799 20.9754 12.4684C20.5614 12.457 20.235 12.1121 20.2464 11.698C20.2488 11.6115 20.25 11.5246 20.25 11.4375C20.25 6.32887 16.1086 2.1875 11 2.1875C10.9129 2.1875 10.826 2.1887 10.7395 2.19109C10.3254 2.20253 9.9805 1.87614 9.96907 1.46208C9.95763 1.04802 10.284 0.703097 10.6981 0.691664ZM8.13329 1.82493C8.28109 2.21188 8.08722 2.64538 7.70028 2.79318C7.53835 2.85503 7.3786 2.9213 7.22118 2.99186C6.84319 3.16126 6.39944 2.99217 6.23004 2.61418C6.06063 2.23619 6.22972 1.79244 6.60771 1.62304C6.79082 1.54098 6.97666 1.46388 7.16504 1.39192C7.55199 1.24412 7.98549 1.43799 8.13329 1.82493ZM4.67494 3.65552C4.95955 3.95646 4.94632 4.43115 4.64537 4.71577C4.51962 4.8347 4.3972 4.95712 4.27827 5.08287C3.99365 5.38382 3.51896 5.39705 3.21802 5.11244C2.91708 4.82782 2.90384 4.35313 3.18846 4.05219C3.32654 3.90618 3.46868 3.76404 3.61469 3.62596C3.91563 3.34134 4.39032 3.35458 4.67494 3.65552ZM2.17668 6.66754C2.55467 6.83694 2.72376 7.28069 2.55436 7.65868C2.4838 7.8161 2.41753 7.97585 2.35568 8.13778C2.20788 8.52472 1.77438 8.71859 1.38743 8.57079C1.00049 8.42299 0.80662 7.98949 0.954421 7.60254C1.02638 7.41416 1.10348 7.22832 1.18554 7.04521C1.35494 6.66723 1.79869 6.49813 2.17668 6.66754ZM1.02458 10.4066C1.43864 10.418 1.76503 10.7629 1.75359 11.177C1.7512 11.2635 1.75 11.3504 1.75 11.4375C1.75 11.5246 1.7512 11.6115 1.75359 11.698C1.76503 12.1121 1.43864 12.457 1.02458 12.4684C0.610524 12.4799 0.265597 12.1535 0.254164 11.7394C0.251394 11.6391 0.25 11.5385 0.25 11.4375C0.25 11.3365 0.251394 11.2359 0.254164 11.1356C0.265597 10.7215 0.610524 10.3951 1.02458 10.4066ZM1.38743 14.3042C1.77438 14.1564 2.20788 14.3503 2.35568 14.7372C2.41753 14.8991 2.4838 15.0589 2.55436 15.2163C2.72376 15.5943 2.55467 16.0381 2.17668 16.2075C1.79869 16.3769 1.35494 16.2078 1.18554 15.8298C1.10348 15.6467 1.02638 15.4608 0.954421 15.2725C0.80662 14.8855 1.00049 14.452 1.38743 14.3042ZM20.6126 14.3042C20.9995 14.452 21.1934 14.8855 21.0456 15.2725C20.9736 15.4608 20.8965 15.6467 20.8145 15.8298C20.6451 16.2078 20.2013 16.3769 19.8233 16.2075C19.4453 16.0381 19.2762 15.5943 19.4456 15.2163C19.5162 15.0589 19.5825 14.8991 19.6443 14.7372C19.7921 14.3503 20.2256 14.1564 20.6126 14.3042ZM3.21802 17.7626C3.51896 17.4779 3.99365 17.4912 4.27827 17.7921C4.3972 17.9179 4.51962 18.0403 4.64537 18.1592C4.94632 18.4438 4.95955 18.9185 4.67494 19.2195C4.39032 19.5204 3.91563 19.5337 3.61469 19.249C3.46868 19.111 3.32654 18.9688 3.18846 18.8228C2.90384 18.5219 2.91708 18.0472 3.21802 17.7626ZM18.782 17.7626C19.0829 18.0472 19.0962 18.5219 18.8115 18.8228C18.6735 18.9688 18.5313 19.111 18.3853 19.249C18.0844 19.5337 17.6097 19.5204 17.3251 19.2195C17.0404 18.9185 17.0537 18.4438 17.3546 18.1592C17.4804 18.0403 17.6028 17.9179 17.7217 17.7921C18.0063 17.4912 18.481 17.4779 18.782 17.7626ZM15.77 20.2608C15.9394 20.6388 15.7703 21.0826 15.3923 21.252C15.2092 21.334 15.0233 21.4111 14.835 21.4831C14.448 21.6309 14.0145 21.437 13.8667 21.0501C13.7189 20.6631 13.9128 20.2296 14.2997 20.0818C14.4616 20.02 14.6214 19.9537 14.7788 19.8831C15.1568 19.7137 15.6006 19.8828 15.77 20.2608ZM6.23004 20.2608C6.39944 19.8828 6.84319 19.7137 7.22118 19.8831C7.3786 19.9537 7.53835 20.02 7.70028 20.0818C8.08722 20.2296 8.28109 20.6631 8.13329 21.0501C7.98549 21.437 7.55199 21.6309 7.16504 21.4831C6.97666 21.4111 6.79082 21.334 6.60771 21.252C6.22973 21.0826 6.06063 20.6388 6.23004 20.2608ZM9.96907 21.4129C9.9805 20.9989 10.3254 20.6725 10.7395 20.6839C10.826 20.6863 10.9129 20.6875 11 20.6875C11.0871 20.6875 11.174 20.6863 11.2605 20.6839C11.6746 20.6725 12.0195 20.9989 12.0309 21.4129C12.0424 21.827 11.716 22.1719 11.3019 22.1833C11.2016 22.1861 11.101 22.1875 11 22.1875C10.899 22.1875 10.7984 22.1861 10.6981 22.1833C10.284 22.1719 9.95763 21.827 9.96907 21.4129ZM11 4.6875C10.5858 4.6875 10.25 5.02329 10.25 5.4375V9.58288C9.51704 9.87957 9 10.5982 9 11.4375C9 12.5421 9.89543 13.4375 11 13.4375C11.8393 13.4375 12.5579 12.9205 12.8546 12.1875H15C15.4142 12.1875 15.75 11.8517 15.75 11.4375C15.75 11.0233 15.4142 10.6875 15 10.6875H12.8546C12.6517 10.1861 12.2513 9.78582 11.75 9.58288V5.4375C11.75 5.02329 11.4142 4.6875 11 4.6875Z" fill="#7D81B2"/>
</g>
</svg>
