<svg xmlns="http://www.w3.org/2000/svg" width="20" height="21" viewBox="0 0 20 21" fill="none">
  <path d="M13.3673 15.6957L6.90236 9.2307L6.90236 12.342C6.90236 12.6073 6.80674 12.8282 6.63299 13.0019C6.30166 13.3333 5.6858 13.4016 5.28612 13.0019C5.10732 12.8231 5.01641 12.6023 5.01675 12.342L5.01675 6.98278C5.01675 6.76189 5.04065 6.51306 5.28612 6.26759C5.53159 6.02212 5.74372 5.99788 5.99087 5.99788L11.3605 5.99822C11.6208 5.99788 11.8417 6.08879 12.0205 6.26759C12.4205 6.66761 12.3518 7.28313 12.0205 7.61446C11.8467 7.78821 11.6258 7.88383 11.3605 7.88383L8.24923 7.88383L14.7142 14.3488C15.0859 14.7205 15.0859 15.3239 14.7142 15.6957C14.3425 16.0674 13.7391 16.0674 13.3673 15.6957Z" fill="url(#paint0_linear_834_9583)"/>
  <defs>
    <linearGradient id="paint0_linear_834_9583" x1="4.95079" y1="9.47297" x2="13.4109" y2="9.24706" gradientUnits="userSpaceOnUse">
      <stop stop-color="#6C60FF"/>
      <stop offset="1" stop-color="#3B2ED1"/>
    </linearGradient>
  </defs>
</svg>