<svg width="24" height="24" viewBox="0 0 24 24" fill="none" xmlns="http://www.w3.org/2000/svg">
<g id="Layer_1">
<g id="Group">
<g id="Group_2">
<g id="Group_3">
<path id="Vector" d="M11.1055 4.90764C11.1055 6.51219 11.1055 8.10662 11.1055 9.71116C11.1055 12.2528 11.1055 14.7911 11.1055 17.3328C11.1055 17.9193 11.1055 18.5058 11.1055 19.0924C11.1055 19.5643 11.5234 20.0227 12.0122 19.9991C12.501 19.9755 12.919 19.6014 12.919 19.0924C12.919 17.4878 12.919 15.8934 12.919 14.2888C12.919 11.7472 12.919 9.2089 12.919 6.66725C12.919 6.08071 12.919 5.49418 12.919 4.90764C12.919 4.43572 12.501 3.97728 12.0122 4.00087C11.5234 4.02447 11.1055 4.39864 11.1055 4.90764Z" fill="white"/>
</g>
</g>
<g id="Group_4">
<g id="Group_5">
<path id="Vector_2" d="M12.7458 19.6623C14.3672 18.0409 15.9885 16.4195 17.6166 14.7914C17.8458 14.5621 18.0751 14.3329 18.3076 14.1003C18.6515 13.7565 18.6515 13.1632 18.3076 12.8194C17.9638 12.4756 17.3706 12.4756 17.0267 12.8194C15.4054 14.4408 13.784 16.0622 12.1559 17.6903C11.9267 17.9196 11.6975 18.1488 11.4649 18.3814C11.1211 18.7252 11.1211 19.3185 11.4649 19.6623C11.8087 20.0061 12.3986 20.0061 12.7458 19.6623Z" fill="white"/>
</g>
</g>
<g id="Group_6">
<g id="Group_7">
<path id="Vector_3" d="M12.542 18.3472C10.9207 16.7258 9.2993 15.1044 7.6712 13.4762C7.44198 13.247 7.21277 13.0178 6.98018 12.7852C6.63636 12.4414 6.0431 12.4414 5.69927 12.7852C5.35545 13.129 5.35545 13.7223 5.69927 14.0662C7.32063 15.6876 8.94199 17.309 10.5701 18.9371C10.7993 19.1663 11.0285 19.3955 11.2611 19.6281C11.6049 19.972 12.1982 19.972 12.542 19.6281C12.8926 19.2843 12.8926 18.6978 12.542 18.3472Z" fill="white"/>
</g>
</g>
</g>
</g>
</svg>
