<svg width="40" height="40" viewBox="0 0 40 40" fill="none" xmlns="http://www.w3.org/2000/svg">
<g id="Vector">
<path d="M0.933594 19.9996C0.933594 30.5867 9.5467 39.1998 20.1338 39.1998C30.7205 39.1998 39.3336 30.5867 39.3336 19.9996C39.3336 9.41248 30.7205 0.799805 20.1338 0.799805C9.5467 0.799805 0.933594 9.41248 0.933594 19.9996ZM22.0068 12.5646V22.9114L24.703 20.216C25.4346 19.4845 26.6199 19.4845 27.3519 20.216C28.0835 20.9476 28.0835 22.1334 27.3519 22.8649L21.4589 28.7576C21.372 28.8449 21.2748 28.9242 21.1717 28.9923C21.1274 29.0222 21.0793 29.0422 21.0328 29.0682C20.9723 29.1014 20.914 29.138 20.8496 29.1649C20.7891 29.1892 20.7252 29.2041 20.663 29.2224C20.608 29.239 20.5569 29.2599 20.4998 29.2706C20.3792 29.2957 20.2565 29.3081 20.1334 29.3081C20.0098 29.3081 19.8871 29.2957 19.7665 29.2706C19.7099 29.2599 19.6587 29.239 19.6038 29.2224C19.5416 29.2041 19.4777 29.1892 19.4172 29.1649C19.3532 29.138 19.2944 29.1018 19.2339 29.0682C19.1875 29.0422 19.1385 29.0226 19.095 28.9923C18.9915 28.9242 18.8944 28.8449 18.8079 28.7576L12.9157 22.8649C12.1837 22.1334 12.1837 20.9476 12.9157 20.216C13.6472 19.4845 14.8326 19.4845 15.5646 20.216L18.2608 22.9114V12.5646C18.2608 11.5292 19.0997 10.6916 20.1338 10.6916C21.1679 10.6916 22.0068 11.5292 22.0068 12.5646Z" fill="#F1F3FB"/>
<path d="M0.933594 19.9996C0.933594 30.5867 9.5467 39.1998 20.1338 39.1998C30.7205 39.1998 39.3336 30.5867 39.3336 19.9996C39.3336 9.41248 30.7205 0.799805 20.1338 0.799805C9.5467 0.799805 0.933594 9.41248 0.933594 19.9996ZM22.0068 12.5646V22.9114L24.703 20.216C25.4346 19.4845 26.6199 19.4845 27.3519 20.216C28.0835 20.9476 28.0835 22.1334 27.3519 22.8649L21.4589 28.7576C21.372 28.8449 21.2748 28.9242 21.1717 28.9923C21.1274 29.0222 21.0793 29.0422 21.0328 29.0682C20.9723 29.1014 20.914 29.138 20.8496 29.1649C20.7891 29.1892 20.7252 29.2041 20.663 29.2224C20.608 29.239 20.5569 29.2599 20.4998 29.2706C20.3792 29.2957 20.2565 29.3081 20.1334 29.3081C20.0098 29.3081 19.8871 29.2957 19.7665 29.2706C19.7099 29.2599 19.6587 29.239 19.6038 29.2224C19.5416 29.2041 19.4777 29.1892 19.4172 29.1649C19.3532 29.138 19.2944 29.1018 19.2339 29.0682C19.1875 29.0422 19.1385 29.0226 19.095 28.9923C18.9915 28.9242 18.8944 28.8449 18.8079 28.7576L12.9157 22.8649C12.1837 22.1334 12.1837 20.9476 12.9157 20.216C13.6472 19.4845 14.8326 19.4845 15.5646 20.216L18.2608 22.9114V12.5646C18.2608 11.5292 19.0997 10.6916 20.1338 10.6916C21.1679 10.6916 22.0068 11.5292 22.0068 12.5646Z" fill="white" fill-opacity="0.5"/>
</g>
</svg>
