<svg xmlns="http://www.w3.org/2000/svg" width="21" height="20" viewBox="0 0 21 20" fill="none">
  <path d="M15 3L18 6M7.99992 5.07007C6.24571 5.32001 4.65156 6.22592 3.53904 7.60505C2.42651 8.98419 1.87841 10.7339 2.00528 12.5013C2.13216 14.2687 2.92457 15.9222 4.22269 17.1283C5.5208 18.3343 7.228 19.0033 8.99992 19.0001C10.6833 19.0003 12.3104 18.3938 13.583 17.2918C14.8556 16.1899 15.6884 14.6662 15.9289 13.0001M11 13.0001L19.385 4.58511C19.7788 4.19126 20.0001 3.65709 20.0001 3.10011C20.0001 2.54312 19.7788 2.00895 19.385 1.61511C18.9912 1.22126 18.457 1 17.9 1C17.343 1 16.8088 1.22126 16.415 1.61511L8 10.0001V13.0001H11Z" stroke="#3259FF" stroke-width="2" stroke-linecap="round" stroke-linejoin="round"/>
</svg>