<svg width="48" height="49" viewBox="0 0 48 49" fill="none" xmlns="http://www.w3.org/2000/svg">
<g id="Media / Icon" clip-path="url(#clip0_393_63456)">
<path id="Icon" d="M22.0979 6.29077C22.6967 4.44825 25.3033 4.44825 25.9021 6.29078L28.9398 15.6386C29.2075 16.4626 29.9754 17.0205 30.8418 17.0205L40.6708 17.0209C42.6082 17.0209 43.4137 19.5 41.8463 20.6388L33.8947 26.4165C33.1938 26.9258 32.9005 27.8284 33.1682 28.6524L36.2052 38.0005C36.8038 39.8431 34.695 41.3752 33.1276 40.2365L25.1755 34.4595C24.4746 33.9503 23.5254 33.9503 22.8245 34.4595L14.8724 40.2365C13.305 41.3752 11.1962 39.8431 11.7948 38.0005L14.8318 28.6524C15.0995 27.8284 14.8062 26.9258 14.1053 26.4165L6.15366 20.6388C4.58634 19.5 5.39185 17.0209 7.32922 17.0209L17.1582 17.0205C18.0246 17.0205 18.7925 16.4626 19.0602 15.6386L22.0979 6.29077Z" fill="#DADBE8"/>
</g>
<defs>
<clipPath id="clip0_393_63456">
<rect width="48" height="48" fill="white" transform="translate(0 0.4375)"/>
</clipPath>
</defs>
</svg>
