<svg width="21" height="22" viewBox="0 0 21 22" fill="none" xmlns="http://www.w3.org/2000/svg">
<g id="warning_6939131 1" clip-path="url(#clip0_1505_29805)">
<g id="Layer_1">
<path id="Vector" d="M10.5 1.45898C5.06625 1.45898 0.65625 5.86898 0.65625 11.3027C0.65625 16.7365 5.06625 21.1465 10.5 21.1465C15.9338 21.1465 20.3438 16.7365 20.3438 11.3027C20.3438 5.86898 15.9338 1.45898 10.5 1.45898ZM10.5 17.209C9.77812 17.209 9.1875 16.6184 9.1875 15.8965C9.1875 15.1746 9.77812 14.584 10.5 14.584C11.2219 14.584 11.8125 15.1746 11.8125 15.8965C11.8125 16.6184 11.2219 17.209 10.5 17.209ZM12.0028 7.03055L11.5631 12.2937C11.5172 12.8449 11.0578 13.2715 10.5 13.2715C9.94219 13.2715 9.48281 12.8449 9.43688 12.2937L8.99719 7.03055C8.925 6.15117 9.61406 5.39648 10.5 5.39648C11.34 5.39648 12.0094 6.07898 12.0094 6.90586C12.0094 6.94523 12.0094 6.99117 12.0028 7.03055Z" fill="#FC4E84"/>
</g>
</g>
<defs>
<clipPath id="clip0_1505_29805">
<rect width="21" height="21" fill="white" transform="translate(0 0.802734)"/>
</clipPath>
</defs>
</svg>
