<svg xmlns="http://www.w3.org/2000/svg" width="48" height="58" viewBox="0 0 48 58" fill="none">
  <path d="M29.8251 1.80996L29.8251 1.80994C29.3689 1.35366 28.7498 1.09727 28.1045 1.09727H18.9208C16.6291 1.09724 12.7694 1.09759 11.2569 1.22114C9.68911 1.34925 8.28357 1.62176 6.9742 2.28892C4.91696 3.33715 3.24438 5.00973 2.19614 7.06698C1.52898 8.37634 1.25648 9.78189 1.12837 11.3497C1.00473 12.8632 1.00446 14.7269 1.00449 17.0136V41.0476C1.00446 43.3344 1.00473 45.198 1.12837 46.7115C1.25648 48.2792 1.52898 49.6848 2.19617 50.9943C3.24437 53.0514 4.91695 54.724 6.9742 55.7722L6.79261 56.1286L6.97421 55.7722C8.28358 56.4394 9.68914 56.712 11.2569 56.84C12.7693 56.9636 16.6291 56.9639 18.9208 56.9639H43.6878C45.0318 56.9639 46.1212 55.8745 46.1212 54.5306C46.1212 53.1867 45.0318 52.0973 43.6878 52.0973H19.0378C16.6227 52.0973 12.9496 52.0954 11.6532 51.9894C11.6532 51.9894 11.6532 51.9894 11.6532 51.9894L11.6858 51.5907C10.4436 51.4893 9.80835 51.3054 9.36522 51.0796L29.8251 1.80996ZM29.8251 1.80996L46.8251 18.8099L29.8251 1.80996ZM31.2207 10.088L30.5378 9.40518V10.3709V11.4639C30.5378 13.0907 30.5398 14.1647 30.6069 14.9876L30.6069 14.9877C30.6718 15.7818 30.7852 16.1258 30.8903 16.3319C31.2003 16.9402 31.6947 17.4348 32.3032 17.7449L32.3034 17.745C32.5095 17.8498 32.8534 17.9633 33.6474 18.0281C34.4705 18.0954 35.5443 18.0973 37.1712 18.0973H38.2643H39.2299L38.5471 17.4144L31.2207 10.088ZM31.2467 16.1502C31.1753 16.0102 31.0684 15.7248 31.0055 14.9551L31.2467 16.1502Z" fill="url(#paint0_linear_1941_14227)" stroke="#F2F4FA" stroke-width="0.8"/>
  <path d="M38.2649 18.0975H39.2306L38.5477 17.4147L31.2213 10.0883L30.5385 9.40541V10.3711V11.4642C30.5385 13.0909 30.5404 14.1649 30.6075 14.9878L30.6075 14.9879C30.6724 15.782 30.7859 16.126 30.8909 16.3321C31.201 16.9404 31.6953 17.4351 32.3039 17.7451L32.3041 17.7452C32.5102 17.8501 32.854 17.9635 33.648 18.0284L33.648 18.0284C34.4711 18.0956 35.545 18.0975 37.1718 18.0975H38.2649Z" fill="#159DFF" stroke="#159DFF" stroke-width="0.8"/>
  <defs>
    <linearGradient id="paint0_linear_1941_14227" x1="2.60449" y1="0.697266" x2="53.6044" y2="0.697266" gradientUnits="userSpaceOnUse">
      <stop stop-color="#3259FF"/>
      <stop offset="1" stop-color="#47A3FF"/>
    </linearGradient>
  </defs>
</svg>