<svg width="24" height="25" viewBox="0 0 24 25" fill="none" xmlns="http://www.w3.org/2000/svg">
<g id="Media / Icon" clip-path="url(#clip0_393_63442)">
<path id="Icon" d="M11.049 3.36414C11.3483 2.44287 12.6517 2.44288 12.951 3.36414L14.4699 8.03805C14.6038 8.45004 14.9877 8.72898 15.4209 8.72899L20.3354 8.72918C21.3041 8.72922 21.7068 9.96877 20.9232 10.5382L16.9474 13.427C16.5969 13.6816 16.4503 14.133 16.5841 14.545L18.1026 19.219C18.4019 20.1403 17.3475 20.9064 16.5638 20.337L12.5878 17.4485C12.2373 17.1939 11.7627 17.1939 11.4122 17.4485L7.43622 20.337C6.65252 20.9064 5.5981 20.1403 5.8974 19.219L7.41589 14.545C7.54974 14.133 7.40309 13.6816 7.05263 13.427L3.07683 10.5382C2.29317 9.96877 2.69592 8.72922 3.66461 8.72918L8.57911 8.72899C9.01231 8.72898 9.39623 8.45004 9.53012 8.03805L11.049 3.36414Z" fill="#F59E0B"/>
</g>
<defs>
<clipPath id="clip0_393_63442">
<rect width="24" height="24" fill="white" transform="translate(0 0.4375)"/>
</clipPath>
</defs>
</svg>
