<svg xmlns="http://www.w3.org/2000/svg" width="15" height="15" viewBox="0 0 15 15" fill="none">
  <path d="M14 8.8L12.0896 7.42454C11.097 6.70982 9.74035 6.78369 8.83115 7.60197L6.16886 9.99803C5.25965 10.8163 3.90303 10.8902 2.91035 10.1755L1 8.8M3.6 14H11.4C12.8359 14 14 12.8359 14 11.4V3.6C14 2.16406 12.8359 1 11.4 1H3.6C2.16406 1 1 2.16406 1 3.6V11.4C1 12.8359 2.16406 14 3.6 14ZM6.85 5.225C6.85 6.12246 6.12246 6.85 5.225 6.85C4.32754 6.85 3.6 6.12246 3.6 5.225C3.6 4.32754 4.32754 3.6 5.225 3.6C6.12246 3.6 6.85 4.32754 6.85 5.225Z" stroke="#767689" stroke-width="1.5" stroke-linecap="round"/>
</svg>