<svg xmlns="http://www.w3.org/2000/svg" width="12" height="14" viewBox="0 0 12 14" fill="none">
  <path fill-rule="evenodd" clip-rule="evenodd" d="M0.123535 9.89998V4.70411C0.123535 2.49497 1.9144 0.704102 4.12354 0.704102H7.99982C10.209 0.704102 11.9998 2.49496 11.9998 4.7041V6.96477C11.9998 7.36213 11.9407 7.75338 11.8273 8.12678H9.36065C7.62978 8.12678 6.22663 9.52993 6.22663 11.2608L6.22663 13.7275C5.85323 13.8409 5.46197 13.9 5.06462 13.9H4.12353C1.91439 13.9 0.123535 12.1091 0.123535 9.89998ZM7.21632 13.272C7.45908 13.1171 7.68622 12.9352 7.89305 12.7284L10.8282 9.7932C11.0351 9.58638 11.2169 9.35924 11.3718 9.11647H9.36065C8.17637 9.11647 7.21632 10.0765 7.21632 11.2608L7.21632 13.272ZM2.92756 4.00317C2.92756 3.72988 3.14911 3.50833 3.42241 3.50833H8.70076C8.97405 3.50833 9.1956 3.72988 9.1956 4.00317C9.1956 4.27647 8.97405 4.49802 8.70076 4.49802L3.42241 4.49802C3.14911 4.49802 2.92756 4.27647 2.92756 4.00317ZM3.42241 6.1475C3.14911 6.1475 2.92756 6.36905 2.92756 6.64235C2.92756 6.91564 3.14911 7.13719 3.42241 7.13719H6.06158C6.33488 7.13719 6.55643 6.91564 6.55643 6.64235C6.55643 6.36905 6.33488 6.1475 6.06158 6.1475H3.42241Z" fill="#4C4C66" fill-opacity="0.7"/>
</svg>