<svg xmlns="http://www.w3.org/2000/svg" width="30" height="30" viewBox="0 0 30 30" fill="none">
  <path d="M5.86182 15.0319C5.86182 19.8292 9.76463 23.732 14.5619 23.732C19.359 23.732 23.2618 19.8292 23.2618 15.0319C23.2618 10.2347 19.359 6.33203 14.5619 6.33203C9.76463 6.33203 5.86182 10.2347 5.86182 15.0319ZM15.4106 11.6629V16.3513L16.6323 15.13C16.9638 14.7985 17.5009 14.7985 17.8326 15.13C18.1641 15.4615 18.1641 15.9988 17.8326 16.3303L15.1623 19.0004C15.123 19.04 15.0789 19.0759 15.0322 19.1068C15.0121 19.1203 14.9903 19.1294 14.9693 19.1411C14.9419 19.1562 14.9154 19.1728 14.8863 19.185C14.8588 19.196 14.8299 19.2027 14.8017 19.211C14.7768 19.2186 14.7536 19.228 14.7278 19.2328C14.6731 19.2442 14.6175 19.2498 14.5617 19.2498C14.5057 19.2498 14.4501 19.2442 14.3955 19.2328C14.3698 19.228 14.3466 19.2186 14.3217 19.211C14.2936 19.2027 14.2646 19.196 14.2372 19.185C14.2082 19.1728 14.1816 19.1564 14.1542 19.1411C14.1331 19.1294 14.1109 19.1205 14.0912 19.1068C14.0443 19.0759 14.0003 19.04 13.9611 19.0004L11.2912 16.3303C10.9595 15.9988 10.9595 15.4615 11.2912 15.13C11.6227 14.7985 12.1598 14.7985 12.4915 15.13L13.7132 16.3513V11.6629C13.7132 11.1938 14.0933 10.8142 14.5619 10.8142C15.0305 10.8142 15.4106 11.1938 15.4106 11.6629Z" fill="#7D81B2" fill-opacity="0.5"/>
</svg>