<svg xmlns="http://www.w3.org/2000/svg" width="25" height="25" viewBox="0 0 25 25" fill="none">
  <path d="M16.6028 17.902L8.84485 10.144L8.84485 13.8776C8.84485 14.196 8.7301 14.461 8.5216 14.6695C8.124 15.0671 7.38498 15.1491 6.90536 14.6695C6.6908 14.455 6.5817 14.1899 6.58211 13.8776L6.58211 7.44652C6.58211 7.18146 6.6108 6.88286 6.90536 6.5883C7.19992 6.29374 7.45447 6.26464 7.75106 6.26464L14.1946 6.26505C14.507 6.26464 14.772 6.37374 14.9866 6.58829C15.4666 7.06832 15.3842 7.80694 14.9866 8.20454C14.7781 8.41303 14.513 8.52779 14.1946 8.52779L10.4611 8.52779L18.2191 16.2858C18.6651 16.7318 18.6651 17.4559 18.2191 17.902C17.773 18.3481 17.0489 18.3481 16.6028 17.902Z" fill="#7D81B2" fill-opacity="0.5"/>
  <path d="M7.75106 6.20464L7.75106 6.20464L14.1945 6.20505C14.5225 6.20462 14.8029 6.31981 15.029 6.54587C15.5352 7.05207 15.4472 7.82878 15.029 8.24696C14.8093 8.4667 14.5289 8.58779 14.1946 8.58779L10.6059 8.58779L18.2615 16.2433C18.731 16.7128 18.731 17.4749 18.2615 17.9444C17.792 18.4139 17.0299 18.4139 16.5604 17.9444L8.90485 10.2889L8.90485 13.8776C8.90485 14.2119 8.78377 14.4922 8.56403 14.7119C8.14583 15.1301 7.36872 15.2177 6.86293 14.7119C6.63689 14.4859 6.5217 14.2055 6.52211 13.8776C6.52211 13.8775 6.52211 13.8775 6.52211 13.8775L6.52211 7.44652C6.52211 7.17495 6.55186 6.85693 6.86293 6.54587C7.01604 6.39276 7.16134 6.30626 7.30913 6.25887C7.45588 6.21183 7.60135 6.20464 7.75106 6.20464Z" stroke="#7D81B2" stroke-opacity="0.5" stroke-width="0.12"/>
</svg>