<svg width="25" height="24" viewBox="0 0 25 24" fill="none" xmlns="http://www.w3.org/2000/svg">
<g id="Huge-icon/multimedia and audio/outline/headphones-silent">
<path id="Rectangle 346" d="M3.08984 16C3.08984 14.3431 4.4727 13 6.17854 13C7.88438 13 9.26724 14.3431 9.26724 16V18C9.26724 19.6569 7.88438 21 6.17854 21C4.4727 21 3.08984 19.6569 3.08984 18V16Z" stroke="#7D81B2" stroke-width="1.5"/>
<path id="Subtract" fill-rule="evenodd" clip-rule="evenodd" d="M14.6953 16C14.6953 13.9085 16.4347 12.25 18.534 12.25C20.6333 12.25 22.3727 13.9085 22.3727 16V18C22.3727 20.0915 20.6333 21.75 18.534 21.75C16.4347 21.75 14.6953 20.0915 14.6953 18V16ZM18.534 13.75C17.2216 13.75 16.1953 14.7778 16.1953 16V18C16.1953 19.2222 17.2216 20.25 18.534 20.25C19.8464 20.25 20.8727 19.2222 20.8727 18V16C20.8727 14.7778 19.8464 13.75 18.534 13.75Z" fill="#7D81B2"/>
<path id="Subtract_2" fill-rule="evenodd" clip-rule="evenodd" d="M12.3559 3.75C7.63188 3.75 3.83984 7.4641 3.83984 12V16V16.75H2.33984V16V12C2.33984 6.59477 6.84495 2.25 12.3559 2.25C17.8669 2.25 22.372 6.59477 22.372 12V16V16.75H20.872V16V12C20.872 7.4641 17.08 3.75 12.3559 3.75Z" fill="#7D81B2"/>
</g>
</svg>
