<svg width="25" height="25" viewBox="0 0 25 25" fill="none" xmlns="http://www.w3.org/2000/svg">
<g id="Huge-icon/multimedia and audio/outline/headphones-silent">
<path id="Vector 925" d="M2.06102 2.4375L22.6523 22.4375" stroke="#7D81B2" stroke-width="1.5" stroke-linecap="round"/>
<path id="Rectangle 346" d="M3.08984 16.4375C3.08984 14.7806 4.4727 13.4375 6.17854 13.4375C7.88438 13.4375 9.26724 14.7806 9.26724 16.4375V18.4375C9.26724 20.0944 7.88438 21.4375 6.17854 21.4375C4.4727 21.4375 3.08984 20.0944 3.08984 18.4375V16.4375Z" stroke="#7D81B2" stroke-width="1.5"/>
<path id="Subtract" fill-rule="evenodd" clip-rule="evenodd" d="M22.312 19.107C22.3519 18.8901 22.3727 18.6664 22.3727 18.4375V16.4375C22.3727 14.346 20.6333 12.6875 18.534 12.6875C17.7365 12.6875 16.9909 12.9269 16.3729 13.3384L17.4896 14.4231C17.8023 14.2726 18.1563 14.1875 18.534 14.1875C19.8464 14.1875 20.8727 15.2153 20.8727 16.4375V17.709L22.312 19.107ZM17.5466 20.4784L19.2406 22.1238C19.0112 22.1656 18.775 22.1875 18.534 22.1875C16.4347 22.1875 14.6953 20.529 14.6953 18.4375V17.709L16.4063 19.3709C16.6364 19.8553 17.0403 20.2513 17.5466 20.4784Z" fill="#7D81B2"/>
<path id="Subtract_2" fill-rule="evenodd" clip-rule="evenodd" d="M8.09056 5.29461C9.34279 4.59107 10.7987 4.1875 12.3559 4.1875C17.08 4.1875 20.872 7.9016 20.872 12.4375V16.4375V17.1875H22.372V16.4375V12.4375C22.372 7.03227 17.8669 2.6875 12.3559 2.6875C10.3796 2.6875 8.53257 3.24629 6.97633 4.21237L8.09056 5.29461ZM4.77038 6.06978L5.84808 7.11653C4.59377 8.55586 3.83984 10.415 3.83984 12.4375V16.4375V17.1875H2.33984V16.4375V12.4375C2.33984 9.9984 3.2572 7.77523 4.77038 6.06978Z" fill="#7D81B2"/>
</g>
</svg>
