<svg width="24" height="25" viewBox="0 0 24 25" fill="none" xmlns="http://www.w3.org/2000/svg">
<g id="Huge-icon/interface/outline/disk">
<path id="Vector" d="M17.616 3.67157L18.1463 3.14124V3.14124L17.616 3.67157ZM20.8284 6.88398L20.2981 7.41431L20.8284 6.88398ZM6.25 22.5V23.25H7.75V22.5H6.25ZM16.25 22.5V23.25H17.75V22.5H16.25ZM15 8.25C15.4142 8.25 15.75 7.91421 15.75 7.5C15.75 7.08579 15.4142 6.75 15 6.75V8.25ZM9 6.75C8.58579 6.75 8.25 7.08579 8.25 7.5C8.25 7.91421 8.58579 8.25 9 8.25V6.75ZM21.25 9.71241V18.5H22.75V9.71241H21.25ZM18 21.75H6V23.25H18V21.75ZM2.75 18.5V6.5H1.25V18.5H2.75ZM6 3.25H14.7876V1.75H6V3.25ZM17.0857 4.2019L20.2981 7.41431L21.3588 6.35365L18.1463 3.14124L17.0857 4.2019ZM14.7876 3.25C15.6495 3.25 16.4762 3.59241 17.0857 4.2019L18.1463 3.14124C17.2556 2.25045 16.0474 1.75 14.7876 1.75V3.25ZM6 21.75C4.20507 21.75 2.75 20.2949 2.75 18.5H1.25C1.25 21.1234 3.37665 23.25 6 23.25V21.75ZM21.25 18.5C21.25 20.2949 19.7949 21.75 18 21.75V23.25C20.6234 23.25 22.75 21.1234 22.75 18.5H21.25ZM22.75 9.71241C22.75 8.45263 22.2496 7.24445 21.3588 6.35365L20.2981 7.41431C20.9076 8.02381 21.25 8.85046 21.25 9.71241H22.75ZM2.75 6.5C2.75 4.70507 4.20508 3.25 6 3.25V1.75C3.37665 1.75 1.25 3.87665 1.25 6.5H2.75ZM7.75 22.5V16.5H6.25V22.5H7.75ZM9 15.25H15V13.75H9V15.25ZM16.25 16.5V22.5H17.75V16.5H16.25ZM15 15.25C15.6904 15.25 16.25 15.8096 16.25 16.5H17.75C17.75 14.9812 16.5188 13.75 15 13.75V15.25ZM7.75 16.5C7.75 15.8096 8.30964 15.25 9 15.25V13.75C7.48122 13.75 6.25 14.9812 6.25 16.5H7.75ZM15 6.75L9 6.75V8.25L15 8.25V6.75Z" fill="#FB2265"/>
</g>
</svg>
