<svg xmlns="http://www.w3.org/2000/svg" width="32" height="32" viewBox="0 0 32 32" fill="none">
  <g opacity="0.5">
    <path d="M4.9465 23.65C4.85273 23.7438 4.80005 23.871 4.80005 24.0036V28.2965C4.80005 28.5726 5.02391 28.7965 5.30005 28.7965H9.59294C9.72555 28.7965 9.85273 28.7438 9.9465 28.65L24.1998 14.3967C24.3951 14.2014 24.3951 13.8848 24.1998 13.6896L19.9069 9.39669C19.7117 9.20143 19.3951 9.20143 19.1998 9.39669L4.9465 23.65ZM28.4067 10.1898C28.9267 9.6698 28.9267 8.82314 28.4067 8.30314L25.2934 5.1898C24.7734 4.6698 23.9267 4.6698 23.4067 5.1898L21.3203 7.27625C21.125 7.47151 21.125 7.7881 21.3203 7.98336L25.6132 12.2763C25.8084 12.4715 26.125 12.4715 26.3203 12.2763L28.4067 10.1898Z" fill="#7D81B2"/>
  </g>
</svg>