<svg width="36" height="36" viewBox="0 0 36 36" fill="none" xmlns="http://www.w3.org/2000/svg">
<circle cx="18" cy="18" r="16.5" transform="matrix(1 0 0 -1 0 36)" stroke="#FB2265" stroke-width="3"/>
<path d="M16.3587 22.335C16.2047 20.445 16.0507 18.618 15.8967 16.854C15.7567 15.09 15.6867 13.249 15.6867 11.331V7.089C15.9947 7.019 16.3447 6.97 16.7367 6.942C17.1427 6.9 17.5417 6.879 17.9337 6.879C18.3397 6.879 18.7387 6.9 19.1307 6.942C19.5227 6.97 19.8727 7.019 20.1807 7.089V11.331C20.1807 13.249 20.1107 15.09 19.9707 16.854C19.8307 18.618 19.6767 20.445 19.5087 22.335C19.2567 22.419 18.9907 22.475 18.7107 22.503C18.4447 22.531 18.1857 22.545 17.9337 22.545C17.6957 22.545 17.4367 22.531 17.1567 22.503C16.8767 22.475 16.6107 22.419 16.3587 22.335ZM17.9337 25.548C18.3397 25.548 18.7457 25.597 19.1517 25.695C19.5717 25.779 19.9147 25.898 20.1807 26.052C20.2927 26.234 20.3767 26.528 20.4327 26.934C20.5027 27.34 20.5377 27.683 20.5377 27.963C20.5377 28.243 20.5027 28.586 20.4327 28.992C20.3767 29.384 20.2927 29.671 20.1807 29.853C19.9147 30.007 19.5717 30.126 19.1517 30.21C18.7457 30.308 18.3397 30.357 17.9337 30.357C17.0097 30.357 16.2607 30.189 15.6867 29.853C15.5887 29.671 15.5047 29.384 15.4347 28.992C15.3787 28.586 15.3507 28.243 15.3507 27.963C15.3507 27.683 15.3787 27.34 15.4347 26.934C15.5047 26.528 15.5887 26.234 15.6867 26.052C16.2607 25.716 17.0097 25.548 17.9337 25.548Z" fill="#FB2265"/>
</svg>
