<svg width="12" height="13" viewBox="0 0 12 13" fill="none" xmlns="http://www.w3.org/2000/svg">
<path id="Vector" d="M5.32883 4.35294V6.81919C5.32883 7.05375 5.45558 7.27491 5.65572 7.39554L7.73712 8.63537C7.97728 8.77611 8.28416 8.69569 8.42425 8.46113C8.56435 8.21986 8.49096 7.91158 8.2508 7.77084L6.33618 6.62484V4.34624C6.3295 4.07817 6.10269 3.8503 5.82917 3.8503C5.55565 3.8503 5.32883 4.07817 5.32883 4.35294ZM12 4.85557V1.31033C12 1.00875 11.6398 0.861314 11.4329 1.07577L10.2455 2.26869C9.62057 1.64087 8.86553 1.15922 8.03415 0.858046C7.20278 0.556867 6.31551 0.44357 5.43557 0.526225C2.64035 0.780892 0.338794 3.03939 0.0319202 5.84743C-0.130295 7.42193 0.33011 8.99739 1.31381 10.2339C2.29751 11.4705 3.72566 12.269 5.29016 12.4572C6.85467 12.6454 8.43012 12.2082 9.67664 11.24C10.9232 10.2718 11.7409 8.85007 11.9533 7.28161C12 6.87951 11.6865 6.53101 11.2862 6.53101C10.9526 6.53101 10.6724 6.77898 10.6324 7.10737C10.3455 9.44629 8.33753 11.2558 5.92923 11.2223C3.45423 11.1887 1.36615 9.09109 1.32613 6.59803C1.2861 3.98434 3.40086 1.83977 5.99595 1.83977C7.28348 1.83977 8.45094 2.36921 9.29818 3.21364L7.9039 4.61431C7.69042 4.82876 7.83719 5.19066 8.13739 5.19066H11.6664C11.8532 5.19066 12 5.04322 12 4.85557Z" fill="#4C4C66"/>
</svg>
