<svg xmlns="http://www.w3.org/2000/svg" width="15" height="12" viewBox="0 0 15 12" fill="none">
  <path d="M3.64704 11.4531C3.64704 11.5857 3.59618 11.7129 3.50564 11.8067C3.41511 11.9004 3.29233 11.9531 3.1643 11.9531C3.03627 11.9531 2.91348 11.9004 2.82295 11.8067C2.73242 11.7129 2.68156 11.5857 2.68156 11.4531V2.66009L1.57513 3.80709C1.53024 3.85358 1.47696 3.89046 1.41832 3.91562C1.35967 3.94077 1.29682 3.95372 1.23335 3.95372C1.16987 3.95372 1.10702 3.94077 1.04838 3.91562C0.989736 3.89046 0.936452 3.85358 0.891569 3.80709C0.846686 3.7606 0.811083 3.70541 0.786793 3.64467C0.762502 3.58393 0.75 3.51883 0.75 3.45309C0.75 3.38735 0.762502 3.32224 0.786793 3.26151C0.811083 3.20077 0.846686 3.14558 0.891569 3.09909L2.82252 1.10008L2.82928 1.09308C2.92027 1.00226 3.04202 0.952022 3.16838 0.953143C3.29474 0.954265 3.41563 1.00666 3.50511 1.09908L5.43606 3.09909C5.48094 3.14551 5.51656 3.20063 5.54087 3.26131C5.56519 3.32199 5.57773 3.38704 5.57777 3.45274C5.57782 3.51843 5.56537 3.5835 5.54114 3.64421C5.5169 3.70493 5.48136 3.7601 5.43654 3.80659C5.39172 3.85308 5.3385 3.88997 5.27992 3.91515C5.22134 3.94034 5.15854 3.95332 5.09511 3.95337C5.03168 3.95342 4.96886 3.94052 4.91024 3.91542C4.85162 3.89032 4.79835 3.85351 4.75347 3.80709L3.64704 2.66009V11.4531ZM7.0262 2.45309C7.0262 2.32048 7.07706 2.1933 7.16759 2.09953C7.25812 2.00576 7.38091 1.95308 7.50894 1.95308H14.2673C14.3953 1.95308 14.5181 2.00576 14.6086 2.09953C14.6991 2.1933 14.75 2.32048 14.75 2.45309C14.75 2.58569 14.6991 2.71287 14.6086 2.80664C14.5181 2.90041 14.3953 2.95309 14.2673 2.95309H7.50894C7.38091 2.95309 7.25812 2.90041 7.16759 2.80664C7.07706 2.71287 7.0262 2.58569 7.0262 2.45309ZM7.50894 4.9531C7.38091 4.9531 7.25812 5.00577 7.16759 5.09954C7.07706 5.19331 7.0262 5.32049 7.0262 5.4531C7.0262 5.58571 7.07706 5.71288 7.16759 5.80665C7.25812 5.90042 7.38091 5.9531 7.50894 5.9531H12.3363C12.4643 5.9531 12.5871 5.90042 12.6777 5.80665C12.7682 5.71288 12.819 5.58571 12.819 5.4531C12.819 5.32049 12.7682 5.19331 12.6777 5.09954C12.5871 5.00577 12.4643 4.9531 12.3363 4.9531H7.50894ZM7.50894 7.95311C7.38091 7.95311 7.25812 8.00579 7.16759 8.09956C7.07706 8.19332 7.0262 8.3205 7.0262 8.45311C7.0262 8.58572 7.07706 8.7129 7.16759 8.80667C7.25812 8.90043 7.38091 8.95311 7.50894 8.95311H10.4054C10.5334 8.95311 10.6562 8.90043 10.7467 8.80667C10.8372 8.7129 10.8881 8.58572 10.8881 8.45311C10.8881 8.3205 10.8372 8.19332 10.7467 8.09956C10.6562 8.00579 10.5334 7.95311 10.4054 7.95311H7.50894ZM7.50894 10.9531C7.38091 10.9531 7.25812 11.0058 7.16759 11.0996C7.07706 11.1933 7.0262 11.3205 7.0262 11.4531C7.0262 11.5857 7.07706 11.7129 7.16759 11.8067C7.25812 11.9004 7.38091 11.9531 7.50894 11.9531H8.47441C8.60244 11.9531 8.72523 11.9004 8.81576 11.8067C8.90629 11.7129 8.95715 11.5857 8.95715 11.4531C8.95715 11.3205 8.90629 11.1933 8.81576 11.0996C8.72523 11.0058 8.60244 10.9531 8.47441 10.9531H7.50894Z" fill="#3259FF"/>
</svg>