<svg width="30" height="31" viewBox="0 0 30 31" fill="none" xmlns="http://www.w3.org/2000/svg">
<g id="fluent-mdl2:sort-lines">
<path id="Vector" d="M6.78376 20.5422C6.78376 20.659 6.9239 20.7187 7.00817 20.6378L8.28795 19.4092C8.59103 19.1183 9.06968 19.1183 9.37276 19.4092C9.6935 19.7171 9.6939 20.23 9.37365 20.5384L7.11731 22.7113C6.48249 23.3226 5.47789 23.3226 4.84307 22.7113L2.58673 20.5384C2.26648 20.23 2.26688 19.7171 2.58762 19.4092C2.89069 19.1183 3.36935 19.1183 3.67243 19.4092L4.95221 20.6378C5.03648 20.7187 5.17662 20.659 5.17662 20.5422V3.45592C5.17662 3.01212 5.53639 2.65234 5.98019 2.65234C6.42399 2.65234 6.78376 3.01212 6.78376 3.45592V20.5422ZM12.3766 16.5381C11.9506 16.5381 11.6052 16.1927 11.6052 15.7666C11.6052 15.3406 11.9506 14.9952 12.3766 14.9952H17.2623C17.6884 14.9952 18.0338 15.3406 18.0338 15.7666C18.0338 16.1927 17.6884 16.5381 17.2623 16.5381H12.3766ZM12.3766 11.9095C11.9506 11.9095 11.6052 11.5641 11.6052 11.1381C11.6052 10.712 11.9506 10.3666 12.3766 10.3666H22.0838C22.5098 10.3666 22.8552 10.712 22.8552 11.1381C22.8552 11.5641 22.5098 11.9095 22.0838 11.9095H12.3766ZM11.6052 6.50949C11.6052 6.08344 11.9506 5.73806 12.3766 5.73806H26.9052C27.3312 5.73806 27.6766 6.08344 27.6766 6.50949C27.6766 6.93553 27.3312 7.28092 26.9052 7.28092H12.3766C11.9506 7.28092 11.6052 6.93553 11.6052 6.50949Z" fill="#9599C6"/>
</g>
</svg>
