<svg width="14" height="11" viewBox="0 0 14 11" fill="none" xmlns="http://www.w3.org/2000/svg">
<path id="Vector" d="M2.89704 10.5C2.89704 10.6326 2.84618 10.7598 2.75564 10.8536C2.66511 10.9473 2.54233 11 2.4143 11C2.28627 11 2.16348 10.9473 2.07295 10.8536C1.98242 10.7598 1.93156 10.6326 1.93156 10.5V1.70696L0.825126 2.85397C0.780243 2.90045 0.726959 2.93733 0.668316 2.96249C0.609674 2.98765 0.546821 3.0006 0.483347 3.0006C0.419873 3.0006 0.357021 2.98765 0.298378 2.96249C0.239736 2.93733 0.186452 2.90045 0.141569 2.85397C0.0966862 2.80748 0.0610831 2.75229 0.0367926 2.69155C0.0125022 2.63081 -9.45837e-10 2.56571 0 2.49996C9.45838e-10 2.43422 0.0125022 2.36912 0.0367926 2.30838C0.0610831 2.24764 0.0966862 2.19245 0.141569 2.14596L2.07252 0.146955L2.07928 0.139955C2.17027 0.0491378 2.29202 -0.00110342 2.41838 1.83901e-05C2.54474 0.0011402 2.66563 0.0535355 2.75511 0.145955L4.68606 2.14596C4.73094 2.19239 4.76656 2.24751 4.79087 2.30819C4.81519 2.36887 4.82773 2.43391 4.82777 2.49961C4.82782 2.56531 4.81537 2.63037 4.79114 2.69109C4.7669 2.7518 4.73136 2.80698 4.68654 2.85347C4.64172 2.89995 4.5885 2.93684 4.52992 2.96203C4.47134 2.98721 4.40854 3.0002 4.34511 3.00024C4.28168 3.00029 4.21886 2.9874 4.16024 2.9623C4.10162 2.9372 4.04835 2.90039 4.00347 2.85397L2.89704 1.70696V10.5ZM6.2762 1.49996C6.2762 1.36735 6.32706 1.24017 6.41759 1.14641C6.50812 1.05264 6.63091 0.999958 6.75894 0.999958H13.5173C13.6453 0.999958 13.7681 1.05264 13.8586 1.14641C13.9491 1.24017 14 1.36735 14 1.49996C14 1.63257 13.9491 1.75975 13.8586 1.85352C13.7681 1.94728 13.6453 1.99996 13.5173 1.99996H6.75894C6.63091 1.99996 6.50812 1.94728 6.41759 1.85352C6.32706 1.75975 6.2762 1.63257 6.2762 1.49996ZM6.75894 3.99997C6.63091 3.99997 6.50812 4.05265 6.41759 4.14642C6.32706 4.24019 6.2762 4.36736 6.2762 4.49997C6.2762 4.63258 6.32706 4.75976 6.41759 4.85353C6.50812 4.9473 6.63091 4.99998 6.75894 4.99998H11.5863C11.7143 4.99998 11.8371 4.9473 11.9277 4.85353C12.0182 4.75976 12.069 4.63258 12.069 4.49997C12.069 4.36736 12.0182 4.24019 11.9277 4.14642C11.8371 4.05265 11.7143 3.99997 11.5863 3.99997H6.75894ZM6.75894 6.99998C6.63091 6.99998 6.50812 7.05266 6.41759 7.14643C6.32706 7.2402 6.2762 7.36738 6.2762 7.49999C6.2762 7.63259 6.32706 7.75977 6.41759 7.85354C6.50812 7.94731 6.63091 7.99999 6.75894 7.99999H9.65536C9.78339 7.99999 9.90618 7.94731 9.99671 7.85354C10.0872 7.75977 10.1381 7.63259 10.1381 7.49999C10.1381 7.36738 10.0872 7.2402 9.99671 7.14643C9.90618 7.05266 9.78339 6.99998 9.65536 6.99998H6.75894ZM6.75894 10C6.63091 10 6.50812 10.0527 6.41759 10.1464C6.32706 10.2402 6.2762 10.3674 6.2762 10.5C6.2762 10.6326 6.32706 10.7598 6.41759 10.8536C6.50812 10.9473 6.63091 11 6.75894 11H7.72441C7.85244 11 7.97523 10.9473 8.06576 10.8536C8.15629 10.7598 8.20715 10.6326 8.20715 10.5C8.20715 10.3674 8.15629 10.2402 8.06576 10.1464C7.97523 10.0527 7.85244 10 7.72441 10H6.75894Z" fill="#4C4C66"/>
</svg>
