<svg width="12" height="13" viewBox="0 0 12 13" fill="none" xmlns="http://www.w3.org/2000/svg">
<path id="Vector" d="M5.32883 4.5502V7.01646C5.32883 7.25102 5.45558 7.47218 5.65572 7.59281L7.73712 8.83264C7.97728 8.97337 8.28416 8.89295 8.42425 8.65839C8.56435 8.41713 8.49096 8.10885 8.2508 7.96811L6.33618 6.8221V4.5435C6.3295 4.27543 6.10269 4.04757 5.82917 4.04757C5.55565 4.04757 5.32883 4.27543 5.32883 4.5502ZM12 5.05284V1.5076C12 1.20602 11.6398 1.05858 11.4329 1.27304L10.2455 2.46595C9.62057 1.83814 8.86553 1.35649 8.03415 1.05531C7.20278 0.754132 6.31551 0.640835 5.43557 0.723491C2.64035 0.978158 0.338794 3.23666 0.0319202 6.0447C-0.130295 7.6192 0.33011 9.19465 1.31381 10.4312C2.29751 11.6677 3.72566 12.4662 5.29016 12.6545C6.85467 12.8427 8.43012 12.4055 9.67664 11.4373C10.9232 10.469 11.7409 9.04733 11.9533 7.47888C12 7.07677 11.6865 6.72828 11.2862 6.72828C10.9526 6.72828 10.6724 6.97625 10.6324 7.30463C10.3455 9.64355 8.33753 11.453 5.92923 11.4195C3.45423 11.386 1.36615 9.28836 1.32613 6.7953C1.2861 4.18161 3.40086 2.03704 5.99595 2.03704C7.28348 2.03704 8.45094 2.56648 9.29818 3.4109L7.9039 4.81157C7.69042 5.02603 7.83719 5.38793 8.13739 5.38793H11.6664C11.8532 5.38793 12 5.24049 12 5.05284Z" fill="#4C4C66"/>
</svg>
