<svg xmlns="http://www.w3.org/2000/svg" width="14" height="14" viewBox="0 0 14 14" fill="none">
  <path d="M4.95129 4.62271L6.51037 1.31828C6.55576 1.22265 6.62555 1.14221 6.71194 1.086C6.79833 1.02978 6.89789 1 6.99946 1C7.10103 1 7.20059 1.02978 7.28698 1.086C7.37336 1.14221 7.44316 1.22265 7.48855 1.31828L9.04763 4.62271L12.5331 5.15576C12.6336 5.17043 12.7282 5.21455 12.806 5.28309C12.8839 5.35163 12.9418 5.44182 12.9733 5.54338C13.0048 5.64493 13.0085 5.75375 12.984 5.85741C12.9596 5.96108 12.9079 6.05542 12.8349 6.12965L10.3133 8.70018L10.9086 12.3318C10.9848 12.7979 10.5167 13.1528 10.1164 12.933L6.99946 11.2177L3.8819 12.933C3.48223 13.1535 3.01415 12.7979 3.09036 12.3311L3.68567 8.69955L1.16401 6.12902C1.09139 6.05473 1.04003 5.96049 1.01577 5.85701C0.991502 5.75353 0.995307 5.64496 1.02675 5.54364C1.0582 5.44232 1.11602 5.35232 1.19364 5.28386C1.27127 5.21541 1.36558 5.17124 1.46587 5.15639L4.95129 4.62271Z" stroke="#4C4C66" stroke-width="1.5" stroke-linecap="round" stroke-linejoin="round"/>
</svg>