<svg width="147" height="87" viewBox="0 0 147 87" fill="none" xmlns="http://www.w3.org/2000/svg">
<path d="M104.484 83.9055V46.4047C104.484 45.0416 103.364 43.9048 101.983 43.9048H46.9861C45.6031 43.9048 44.4844 45.024 44.4844 46.4047V83.9055C44.4844 85.2686 45.6045 86.4054 46.9861 86.4054H101.983C103.366 86.4054 104.484 85.2862 104.484 83.9055Z" fill="#E8EBF4"/>
<rect x="50.6719" y="36.603" width="50.1533" height="2.14946" rx="1.07473" fill="#E8EBF4"/>
<rect x="62.1328" y="28.7212" width="25.0767" height="2.14946" rx="1.07473" fill="#E8EBF4"/>
<path fill-rule="evenodd" clip-rule="evenodd" d="M76.4863 57.7207C76.4863 57.1684 76.0386 56.7207 75.4863 56.7207C74.934 56.7207 74.4863 57.1684 74.4863 57.7207V63.7208H68.4844C67.9321 63.7208 67.4844 64.1685 67.4844 64.7208C67.4844 65.2731 67.9321 65.7208 68.4844 65.7208H74.4863V71.7207C74.4863 72.273 74.934 72.7207 75.4863 72.7207C76.0386 72.7207 76.4863 72.273 76.4863 71.7207V65.7208H82.4844C83.0367 65.7208 83.4844 65.2731 83.4844 64.7208C83.4844 64.1685 83.0367 63.7208 82.4844 63.7208H76.4863V57.7207Z" fill="#7D81B3"/>
<path d="M143.935 4.8203H141.526V2.41137C141.526 1.77248 141.273 1.15976 140.821 0.708C140.369 0.256238 139.756 0.00244141 139.117 0.00244141C138.479 0.00244141 137.866 0.256238 137.414 0.708C136.962 1.15976 136.708 1.77248 136.708 2.41137V4.8203H134.3C133.661 4.8203 133.048 5.0741 132.596 5.52586C132.144 5.97762 131.891 6.59034 131.891 7.22923C131.891 7.86811 132.144 8.48083 132.596 8.9326C133.048 9.38436 133.661 9.63816 134.3 9.63816H136.708V12.0471C136.708 12.686 136.962 13.2987 137.414 13.7505C137.866 14.2022 138.479 14.456 139.117 14.456C139.756 14.456 140.369 14.2022 140.821 13.7505C141.273 13.2987 141.526 12.686 141.526 12.0471V9.63816H143.935C144.574 9.63816 145.187 9.38436 145.639 8.9326C146.09 8.48083 146.344 7.86811 146.344 7.22923C146.344 6.59034 146.09 5.97762 145.639 5.52586C145.187 5.0741 144.574 4.8203 143.935 4.8203Z" fill="#E8EBF4"/>
<path d="M131.811 41.5192L128.341 42.4999L127.36 39.03C127.1 38.1097 126.485 37.3304 125.651 36.8636C124.816 36.3968 123.83 36.2807 122.91 36.5408C121.989 36.8009 121.21 37.4159 120.743 38.2505C120.277 39.0852 120.16 40.0711 120.421 40.9914L121.401 44.4613L117.931 45.442C117.011 45.7021 116.232 46.3172 115.765 47.1518C115.298 47.9865 115.182 48.9724 115.442 49.8927C115.702 50.813 116.317 51.5922 117.152 52.059C117.987 52.5259 118.973 52.642 119.893 52.3819L123.363 51.4012L124.343 54.8711C124.604 55.7914 125.219 56.5706 126.053 57.0375C126.888 57.5043 127.874 57.6204 128.794 57.3603C129.714 57.1002 130.494 56.4852 130.96 55.6505C131.427 54.8159 131.543 53.8299 131.283 52.9097L130.303 49.4397L133.772 48.459C134.693 48.1989 135.472 47.5839 135.939 46.7492C136.406 45.9146 136.522 44.9287 136.262 44.0084C136.002 43.0881 135.387 42.3088 134.552 41.842C133.717 41.3752 132.731 41.2591 131.811 41.5192Z" fill="#E8EBF4"/>
<path d="M32.5716 28.7805L26.8523 27.9126L27.7202 22.1933C27.9504 20.6764 27.5686 19.1303 26.6587 17.8949C25.7489 16.6596 24.3856 15.8363 22.8688 15.6061C21.3519 15.3759 19.8058 15.7577 18.5704 16.6676C17.3351 17.5774 16.5118 18.9407 16.2816 20.4575L15.4137 26.1768L9.69444 25.3089C8.17759 25.0787 6.63143 25.4605 5.3961 26.3704C4.16076 27.2802 3.33745 28.6434 3.10727 30.1603C2.87709 31.6771 3.2589 33.2233 4.16872 34.4586C5.07853 35.694 6.44181 36.5173 7.95866 36.7475L13.6779 37.6154L12.8101 43.3346C12.5799 44.8515 12.9617 46.3977 13.8715 47.633C14.7813 48.8683 16.1446 49.6916 17.6615 49.9218C19.1783 50.152 20.7245 49.7702 21.9598 48.8604C23.1951 47.9506 24.0184 46.5873 24.2486 45.0704L25.1165 39.3511L30.8358 40.219C32.3526 40.4492 33.8988 40.0674 35.1341 39.1576C36.3695 38.2478 37.1928 36.8845 37.423 35.3676C37.6532 33.8508 37.2713 32.3046 36.3615 31.0693C35.4517 29.834 34.0884 29.0106 32.5716 28.7805Z" fill="#E8EBF4"/>
</svg>
