<svg xmlns="http://www.w3.org/2000/svg" width="68" height="68" viewBox="0 0 68 68" fill="none">
  <g clip-path="url(#clip0_1801_23409)">
    <path d="M37.2206 9.1127L37.2206 9.11268C36.7644 8.65639 36.1453 8.4 35.5 8.4H26.3163C24.0246 8.39997 20.1649 8.40032 18.6524 8.52388C17.0846 8.65198 15.6791 8.92449 14.3697 9.59165C12.3125 10.6399 10.6399 12.3125 9.59165 14.3697C8.92449 15.6791 8.65198 17.0846 8.52388 18.6524C8.40024 20.1659 8.39997 22.0297 8.4 24.3163V48.3504C8.39997 50.6371 8.40024 52.5007 8.52388 54.0142C8.65198 55.582 8.92449 56.9875 9.59168 58.2971C10.6399 60.3542 12.3125 62.0267 14.3697 63.0749L14.1881 63.4313L14.3697 63.0749C15.6791 63.7421 17.0846 64.0147 18.6524 64.1428C20.1648 64.2663 24.0246 64.2667 26.3163 64.2667H34.0833C35.4273 64.2667 36.5167 63.1773 36.5167 61.8333C36.5167 60.4894 35.4273 59.4 34.0833 59.4H26.4333C24.0182 59.4 20.3451 59.3981 19.0487 59.2921C19.0487 59.2921 19.0487 59.2921 19.0487 59.2921L19.0813 58.8935C17.8391 58.792 17.2039 58.6081 16.7607 58.3823L37.2206 9.1127ZM37.2206 9.1127L54.2206 26.1127L37.2206 9.1127ZM38.6162 17.3908L37.9333 16.7079V17.6736V18.7667C37.9333 20.3934 37.9353 21.4674 38.0024 22.2903L38.0024 22.2904C38.0673 23.0845 38.1808 23.4285 38.2858 23.6346C38.5958 24.2429 39.0902 24.7376 39.6988 25.0476L39.6989 25.0477C39.905 25.1526 40.2489 25.266 41.0429 25.3309C41.866 25.3981 42.9398 25.4 44.5667 25.4H45.6598H46.6255L45.9426 24.7172L38.6162 17.3908ZM46.5505 52.4426L46.8333 52.7255L47.1162 52.4426L56.4461 43.1127C57.3963 42.1625 58.9371 42.1625 59.8873 43.1127C60.8375 44.0629 60.8375 45.6037 59.8873 46.5539L48.5539 57.8873C47.6037 58.8375 46.0629 58.8375 45.1127 57.8873L39.4461 52.2206C38.4959 51.2704 38.4959 49.7296 39.4461 48.7794C40.3963 47.8292 41.9371 47.8292 42.8873 48.7794L46.5505 52.4426Z" fill="url(#paint0_linear_1801_23409)" stroke="#F3FCFF" stroke-width="0.8"/>
    <path d="M45.6604 25.0002L38.334 17.6738V18.7669C38.334 20.4005 38.3363 21.4553 38.4017 22.258C38.4646 23.0278 38.5714 23.3131 38.6428 23.4532C38.9145 23.9863 39.3477 24.4198 39.881 24.6914C40.0212 24.7628 40.3066 24.8696 41.0761 24.9324C41.8791 24.998 42.9336 25.0002 44.5673 25.0002H45.6604Z" fill="#159DFF" fill-opacity="0.8"/>
    <path d="M45.6604 25.4002H46.6261L45.9433 24.7174L38.6168 17.391L37.934 16.7081V17.6738V18.7669C37.934 20.3936 37.9359 21.4677 38.003 22.2906L38.003 22.2906C38.0679 23.0847 38.1814 23.4288 38.2864 23.6349C38.5965 24.2431 39.0908 24.7378 39.6994 25.0478L39.6996 25.0479C39.9057 25.1528 40.2495 25.2662 41.0435 25.3311L41.0435 25.3311C41.8666 25.3983 42.9405 25.4002 44.5673 25.4002H45.6604Z" stroke="#159DFF" stroke-opacity="0.8" stroke-width="0.8"/>
    <path d="M46.3918 50.6565L46.7495 51.0142L47.1072 50.6565L58.9064 38.8573C60.1081 37.6556 62.0567 37.6556 63.2584 38.8573C64.4601 40.059 64.4601 42.0076 63.2584 43.2093L48.9255 57.5421C47.7238 58.7438 45.7752 58.7438 44.5736 57.5421L37.4071 50.3757C36.2054 49.174 36.2054 47.2254 37.4071 46.0237C38.6088 44.8221 40.5574 44.8221 41.7591 46.0237L46.3918 50.6565Z" fill="url(#paint1_linear_1801_23409)" stroke="#F3FCFF" stroke-width="1.01173"/>
  </g>
  <defs>
    <linearGradient id="paint0_linear_1801_23409" x1="10" y1="8" x2="60.9999" y2="8" gradientUnits="userSpaceOnUse">
      <stop stop-color="#3259FF"/>
      <stop offset="1" stop-color="#47A3FF"/>
    </linearGradient>
    <linearGradient id="paint1_linear_1801_23409" x1="0.167078" y1="-5.99852" x2="64.6648" y2="-5.99852" gradientUnits="userSpaceOnUse">
      <stop stop-color="#3259FF"/>
      <stop offset="1" stop-color="#47A3FF"/>
    </linearGradient>
    <clipPath id="clip0_1801_23409">
      <rect width="68" height="68" fill="white"/>
    </clipPath>
  </defs>
</svg>