<svg xmlns="http://www.w3.org/2000/svg" width="24" height="24" viewBox="0 0 24 24" fill="none">
  <path d="M16.001 5L19.001 8M9.0009 7.07007C7.24669 7.32001 5.65254 8.22592 4.54001 9.60505C3.42749 10.9842 2.87938 12.7339 3.00626 14.5013C3.13314 16.2687 3.92555 17.9222 5.22366 19.1283C6.52177 20.3343 8.22898 21.0033 10.0009 21.0001C11.6843 21.0003 13.3114 20.3938 14.584 19.2918C15.8566 18.1899 16.6894 16.6662 16.9299 15.0001M12.001 15.0001L20.386 6.58511C20.7798 6.19126 21.0011 5.65709 21.0011 5.10011C21.0011 4.54312 20.7798 4.00895 20.386 3.61511C19.9921 3.22126 19.458 3 18.901 3C18.344 3 17.8098 3.22126 17.416 3.61511L9.00098 12.0001V15.0001H12.001Z" stroke="white" stroke-width="2" stroke-linecap="round" stroke-linejoin="round"/>
</svg>